<?xml version="1.0" encoding="UTF-8"?>
<svg version="1.1" xmlns="http://www.w3.org/2000/svg" width="411" height="452">
<path d="M0 0 C10.1566165 8.07439444 13.67440158 22.82546274 15.375 35.0625 C15.78468712 40.34064261 15.94799255 45.61561666 16.07421875 50.90625 C16.09520819 51.67193802 16.11619762 52.43762604 16.1378231 53.22651672 C16.46742919 65.6834469 16.26248133 78.09139691 15.85815811 90.54394531 C15.679929 96.30005608 15.55128658 102.05757723 15.42071724 107.81494141 C15.30410228 112.72564841 15.14874004 117.63020813 14.92114258 122.53710938 C12.89531051 143.02109335 12.89531051 143.02109335 18.35101318 162.02099609 C22.98954791 166.3429919 28.13391396 168.75227785 34.21733093 170.4083252 C36.375 171.0625 36.375 171.0625 39.375 173.0625 C39.849375 171.928125 40.32375 170.79375 40.8125 169.625 C42.375 166.0625 42.375 166.0625 43.375 165.0625 C46.01826005 164.85553333 48.6033029 164.73813247 51.25 164.6875 C51.98347656 164.65011719 52.71695312 164.61273438 53.47265625 164.57421875 C55.6171875 164.5390625 55.6171875 164.5390625 59.375 165.0625 C61.40625 167.05859375 61.40625 167.05859375 62.375 170.0625 C62.36291212 172.12348319 62.34131683 174.18785682 62.1784668 176.24243164 C61.49545401 183.0901683 61.49545401 183.0901683 63.91015625 189.2265625 C66.31799522 190.79100234 68.74886809 191.89970317 71.375 193.0625 C73.76747694 194.46051364 76.09780452 195.95332888 78.4375 197.4375 C80.41564759 198.64750093 82.39445886 199.85642085 84.375 201.0625 C84.34019531 199.92361328 84.34019531 199.92361328 84.3046875 198.76171875 C84.28664063 197.76785156 84.26859375 196.77398437 84.25 195.75 C84.22679687 194.76386719 84.20359375 193.77773437 84.1796875 192.76171875 C84.375 190.0625 84.375 190.0625 86.375 187.0625 C88.23852539 186.70605469 88.23852539 186.70605469 90.47265625 186.734375 C91.27380859 186.73953125 92.07496094 186.7446875 92.90039062 186.75 C93.73763672 186.770625 94.57488281 186.79125 95.4375 186.8125 C96.27861328 186.81765625 97.11972656 186.8228125 97.98632812 186.828125 C104.22100765 186.90850765 104.22100765 186.90850765 105.375 188.0625 C105.46258003 190.06214982 105.48196576 192.0648611 105.47265625 194.06640625 C105.46943359 195.28134766 105.46621094 196.49628906 105.46289062 197.74804688 C105.45451172 199.02744141 105.44613281 200.30683594 105.4375 201.625 C105.43298828 202.90826172 105.42847656 204.19152344 105.42382812 205.51367188 C105.41199545 208.69666022 105.39551068 211.87955762 105.375 215.0625 C106.10050049 215.33239746 106.82600098 215.60229492 107.57348633 215.88037109 C110.3250787 217.04143517 112.67980945 218.37876664 115.19921875 219.9765625 C116.13169434 220.56429443 117.06416992 221.15202637 118.02490234 221.75756836 C119.02730957 222.3944458 120.0297168 223.03132324 121.0625 223.6875 C123.23516349 225.05680484 125.40835862 226.42526642 127.58203125 227.79296875 C128.14164551 228.1455928 128.70125977 228.49821686 129.27783203 228.86152649 C135.24239175 232.61686547 141.24396714 236.31142068 147.25 240 C148.31114014 240.65258789 149.37228027 241.30517578 150.46557617 241.97753906 C155.59837189 245.13297475 160.73419825 248.28338091 165.87478638 251.42610168 C168.2932586 252.90516849 170.71045605 254.38631087 173.12750244 255.8677063 C174.84267908 256.91771358 176.55975008 257.96462444 178.27685547 259.01147461 C179.82590576 259.96098999 179.82590576 259.96098999 181.40625 260.9296875 C182.31955078 261.48769043 183.23285156 262.04569336 184.17382812 262.62060547 C186.375 264.0625 186.375 264.0625 188.375 266.0625 C188.60205078 268.40087891 188.60205078 268.40087891 188.5703125 271.2890625 C188.56386719 272.3203125 188.55742187 273.3515625 188.55078125 274.4140625 C188.53402344 275.49429687 188.51726562 276.57453125 188.5 277.6875 C188.49097656 278.77546875 188.48195313 279.8634375 188.47265625 280.984375 C188.44903409 283.67730152 188.41609556 286.36979255 188.375 289.0625 C182.60635232 287.95588521 176.91620225 286.74925506 171.25 285.1875 C167.14028238 284.06361804 163.03613136 282.96799385 158.890625 281.984375 C158.15730957 281.80890137 157.42399414 281.63342773 156.66845703 281.45263672 C155.24392633 281.11422648 153.81783394 280.78231156 152.39013672 280.45751953 C150.70258847 280.05374512 149.03571708 279.56536344 147.375 279.0625 C147.045 278.4025 146.715 277.7425 146.375 277.0625 C145.1375 277.1553125 145.1375 277.1553125 143.875 277.25 C140.41597838 277.06469527 137.95600729 276.21749914 134.77734375 274.91796875 C131.84883674 273.87513454 128.91148244 273.22596264 125.875 272.5625 C121.59058441 271.61422912 117.60538124 270.52381035 113.54296875 268.88671875 C107.83529705 266.7167751 101.86091999 264.7520823 95.8671875 263.56640625 C92.89028799 262.96449397 90.07747105 262.05781648 87.1875 261.125 C81.62875985 259.38393674 76.11334007 258.04695563 70.375 257.0625 C70.375 256.4025 70.375 255.7425 70.375 255.0625 C69.21653564 254.94245605 68.05807129 254.82241211 66.86450195 254.69873047 C62.62953924 254.1665916 58.61911709 253.12879993 54.54296875 251.8828125 C53.82571121 251.66938202 53.10845367 251.45595154 52.36946106 251.23605347 C50.09864881 250.55913328 47.830525 249.87369439 45.5625 249.1875 C43.31057048 248.51199378 41.05810544 247.83830477 38.80545044 247.16522217 C37.34999941 246.73029692 35.89481477 246.29447911 34.43991089 245.85772705 C29.44002609 244.36188333 24.42140378 242.95800182 19.37231445 241.63623047 C17.375 241.0625 17.375 241.0625 15.375 240.0625 C15.39594727 240.6395166 15.41689453 241.2165332 15.43847656 241.81103516 C16.16389989 265.69950079 13.74346802 289.3207358 11.375 313.0625 C11.28822998 313.9349939 11.20145996 314.80748779 11.11206055 315.7064209 C5.75213698 369.30822604 5.75213698 369.30822604 2.375 376.0625 C3.03113281 376.28679687 3.68726563 376.51109375 4.36328125 376.7421875 C8.37117889 378.49921656 11.89322737 380.81567969 15.5625 383.1875 C23.57628782 388.30958378 31.64505263 393.33625987 39.75 398.3125 C40.80598389 398.96105957 41.86196777 399.60961914 42.94995117 400.27783203 C47.22710324 402.90372702 51.50474819 405.52881621 55.78320312 408.15258789 C61.59475818 411.7213138 67.39472763 415.30197539 73.125 419 C73.72570312 419.38478516 74.32640625 419.76957031 74.9453125 420.16601562 C79.24801587 422.93551587 79.24801587 422.93551587 80.375 424.0625 C80.44726502 425.91537502 80.4588122 427.77083878 80.4375 429.625 C80.42847656 430.63691406 80.41945313 431.64882813 80.41015625 432.69140625 C80.39275391 433.86509766 80.39275391 433.86509766 80.375 435.0625 C74.78705838 434.38925402 69.49239582 433.15291767 64.0625 431.6875 C63.27166016 431.47867187 62.48082031 431.26984375 61.66601562 431.0546875 C56.71921052 429.73661108 51.81677814 428.30151392 46.91772461 426.81689453 C42.57107471 425.52729797 38.19085296 424.36393212 33.8125 423.1875 C26.85943851 421.30273337 19.91572342 419.39290009 13 417.375 C12.34185303 417.18502441 11.68370605 416.99504883 11.00561523 416.79931641 C6.36807269 415.43284984 1.88396071 413.79710019 -2.625 412.0625 C-2.50125 412.805 -2.3775 413.5475 -2.25 414.3125 C-2.625 417.0625 -2.625 417.0625 -5.625 419.375 C-6.615 419.931875 -7.605 420.48875 -8.625 421.0625 C-14.375 418.3125 -14.375 418.3125 -16.625 416.0625 C-16.625 414.7425 -16.625 413.4225 -16.625 412.0625 C-17.51058594 412.36542969 -18.39617187 412.66835938 -19.30859375 412.98046875 C-35.6571841 418.50938848 -52.26532241 423.1102062 -68.87866211 427.76464844 C-69.53810318 427.94951813 -70.19754425 428.13438782 -70.87696838 428.32485962 C-72.18991823 428.69252972 -73.50309817 429.05937918 -74.81651306 429.42538452 C-78.07025458 430.33440304 -81.31627619 431.26272275 -84.55322266 432.22998047 C-85.78991699 432.59623535 -87.02661133 432.96249023 -88.30078125 433.33984375 C-89.39946533 433.67105225 -90.49814941 434.00226074 -91.63012695 434.34350586 C-94.43154534 435.01605637 -96.76052707 435.2090297 -99.625 435.0625 C-100.38443927 430.75901079 -100.95724852 427.26492013 -99.625 423.0625 C-97.92944336 421.55200195 -97.92944336 421.55200195 -95.71484375 420.30078125 C-94.89830322 419.82713135 -94.0817627 419.35348145 -93.24047852 418.86547852 C-92.35674561 418.37362061 -91.4730127 417.8817627 -90.5625 417.375 C-88.71539639 416.30858871 -86.86905021 415.24086449 -85.0234375 414.171875 C-84.10401367 413.64529297 -83.18458984 413.11871094 -82.23730469 412.57617188 C-78.66750102 410.5076875 -75.17316011 408.33140654 -71.6875 406.125 C-70.39351717 405.31074005 -69.09923916 404.49694904 -67.8046875 403.68359375 C-67.13791992 403.2644873 -66.47115234 402.84538086 -65.78417969 402.41357422 C-61.63855792 399.81951374 -57.4735976 397.25663095 -53.3125 394.6875 C-43.37388472 388.54652236 -33.48940772 382.32184991 -23.625 376.0625 C-24.07849583 372.45770796 -24.53871326 368.85380269 -25 365.25 C-25.12632812 364.24517578 -25.25265625 363.24035156 -25.3828125 362.20507812 C-26.02938604 357.17796887 -26.75560525 352.19296378 -27.69140625 347.2109375 C-28.42470609 343.30246339 -28.94394165 339.47466505 -29.1875 335.5 C-29.47449672 330.9959086 -29.86600471 326.51670411 -30.32397461 322.02758789 C-30.94861199 315.87493502 -31.53892984 309.71892755 -32.125 303.5625 C-32.22587921 302.50450699 -32.22587921 302.50450699 -32.32879639 301.42514038 C-33.18582031 292.38508993 -33.97061131 283.35321993 -34.33398438 274.27734375 C-34.44205556 271.69417883 -34.5848519 269.24349583 -35.14575195 266.71484375 C-35.66939317 263.81681107 -35.64538478 261.26382812 -35.50390625 258.32421875 C-35.43139648 256.72416992 -35.43139648 256.72416992 -35.35742188 255.09179688 C-35.30134766 253.98900391 -35.24527344 252.88621094 -35.1875 251.75 C-35.13529297 250.62787109 -35.08308594 249.50574219 -35.02929688 248.34960938 C-34.8999801 245.58693291 -34.76502857 242.82465082 -34.625 240.0625 C-35.76453125 240.42601562 -36.9040625 240.78953125 -38.078125 241.1640625 C-59.33404155 247.92493122 -80.72811645 254.10921706 -102.21020508 260.10449219 C-105.68504692 261.07934594 -109.15504578 262.07041246 -112.625 263.0625 C-115.34194481 263.80891341 -118.06145473 264.5453054 -120.78125 265.28125 C-124.06950492 266.18461674 -127.34720174 267.12191441 -130.625 268.0625 C-165.625 278.0625 -165.625 278.0625 -169.31640625 279.1015625 C-171.77262448 279.81493875 -174.15890631 280.57362912 -176.5625 281.4375 C-183.45365133 283.76607086 -190.55805582 285.36585826 -197.625 287.0625 C-198.61371094 287.30484375 -199.60242188 287.5471875 -200.62109375 287.796875 C-202.61133854 288.26816497 -204.61676919 288.67494669 -206.625 289.0625 C-208.7842778 286.9032222 -208.13765222 282.30589404 -208.3125 279.3125 C-208.37244141 278.50039063 -208.43238281 277.68828125 -208.49414062 276.8515625 C-208.54119141 276.06007813 -208.58824219 275.26859375 -208.63671875 274.453125 C-208.68272217 273.73157227 -208.72872559 273.01001953 -208.77612305 272.26660156 C-208.58331662 269.45455558 -207.94094765 267.55978692 -206.625 265.0625 C-204.61645508 263.35253906 -204.61645508 263.35253906 -202.14453125 261.828125 C-201.23485596 261.25843994 -200.32518066 260.68875488 -199.38793945 260.10180664 C-198.41429443 259.51133545 -197.44064941 258.92086426 -196.4375 258.3125 C-195.44387451 257.69560303 -194.45024902 257.07870605 -193.42651367 256.44311523 C-190.50212458 254.63354459 -187.56664066 252.84386118 -184.625 251.0625 C-183.85671875 250.59666504 -183.0884375 250.13083008 -182.296875 249.65087891 C-179.16293548 247.75622985 -176.02045619 245.87668908 -172.87109375 244.0078125 C-168.97653023 241.67388635 -165.15368126 239.23984245 -161.33203125 236.7890625 C-158.46481567 234.96033337 -155.58100847 233.16184259 -152.6875 231.375 C-151.62273437 230.68921875 -150.55796875 230.0034375 -149.4609375 229.296875 C-146.52550502 227.48725214 -143.52040402 226.12160489 -140.3515625 224.765625 C-132.1448152 221.07696217 -132.1448152 221.07696217 -125.625 215.0625 C-123.51787524 207.70711903 -124.53065044 199.97275505 -125.64819336 192.50756836 C-125.625 190.0625 -125.625 190.0625 -124.39697266 188.25146484 C-121.29575015 186.17059496 -117.66604231 186.67523771 -114.0625 186.75 C-113.28197266 186.74677734 -112.50144531 186.74355469 -111.69726562 186.74023438 C-105.89216981 186.79533019 -105.89216981 186.79533019 -103.625 189.0625 C-103.4296875 191.8828125 -103.4296875 191.8828125 -103.5 195.1875 C-103.51804687 196.28320312 -103.53609375 197.37890625 -103.5546875 198.5078125 C-103.57789062 199.35085937 -103.60109375 200.19390625 -103.625 201.0625 C-100.14446111 198.91888627 -96.66580306 196.77223944 -93.1875 194.625 C-91.69766602 193.70750977 -91.69766602 193.70750977 -90.17773438 192.77148438 C-89.23349609 192.18818359 -88.28925781 191.60488281 -87.31640625 191.00390625 C-86.44185791 190.46451416 -85.56730957 189.92512207 -84.66625977 189.36938477 C-82.71214058 188.22105553 -82.71214058 188.22105553 -81.625 187.0625 C-81.57467458 185.68060111 -81.58923318 184.29619058 -81.6328125 182.9140625 C-81.65794922 181.65335937 -81.65794922 181.65335937 -81.68359375 180.3671875 C-81.72767634 178.58832539 -81.77969228 176.80964126 -81.83984375 175.03125 C-81.85402344 174.18820313 -81.86820312 173.34515625 -81.8828125 172.4765625 C-81.9048877 171.7026416 -81.92696289 170.9287207 -81.94970703 170.13134766 C-81.53307119 167.47678214 -80.77817375 166.63399181 -78.625 165.0625 C-75.85992967 164.73736991 -73.3853202 164.59798619 -70.625 164.625 C-69.90054688 164.60501953 -69.17609375 164.58503906 -68.4296875 164.56445312 C-63.16262908 164.56931203 -63.16262908 164.56931203 -60.6875 166.83984375 C-59.68863242 168.92938659 -59.14784364 170.81833499 -58.625 173.0625 C-44.34882967 167.29895175 -44.34882967 167.29895175 -34.3142128 156.38777161 C-32.42413397 148.84915813 -33.08695605 141.14029762 -33.51953125 133.453125 C-33.57274478 130.95729847 -33.61499374 128.46121675 -33.64689636 125.96502686 C-33.75694299 119.40658962 -34.00118334 112.86028409 -34.27886963 106.30706787 C-34.64299887 97.13770798 -34.82229123 87.96258973 -35.02458191 78.78851318 C-35.13260778 73.91701751 -35.28878994 69.05124188 -35.48823547 64.18267822 C-37.07281363 20.28509956 -37.07281363 20.28509956 -24.625 6.0625 C-17.4674228 -1.49406377 -9.95404842 -6.24611021 0 0 Z " fill="#232659" transform="translate(212.625,10.9375)"/>
<path d="M0 0 C0.33 0 0.66 0 1 0 C1.02700675 2.91672884 1.04684237 5.83320677 1.0625 8.75 C1.07087891 9.575 1.07925781 10.4 1.08789062 11.25 C1.09111328 12.04921875 1.09433594 12.8484375 1.09765625 13.671875 C1.10289307 14.4050293 1.10812988 15.13818359 1.11352539 15.89355469 C1 18 1 18 0.50279331 19.83109665 C-0.05125141 22.22108359 -0.13930879 24.35605392 -0.15821838 26.80889893 C-0.1680072 27.77361115 -0.17779602 28.73832336 -0.18788147 29.73226929 C-0.19363693 30.78387238 -0.1993924 31.83547546 -0.20532227 32.91894531 C-0.21522186 34.03143646 -0.22512146 35.14392761 -0.23532104 36.29013062 C-0.26692316 39.96944038 -0.29168852 43.64876307 -0.31640625 47.328125 C-0.33697688 49.87831967 -0.35797338 52.42851094 -0.37937927 54.97869873 C-0.42894485 61.00634138 -0.47421311 67.03400151 -0.51740164 73.061692 C-0.56681736 79.9250468 -0.62171939 86.78835429 -0.67708123 93.6516633 C-0.79082349 107.76773136 -0.89767936 121.88384486 -1 136 C-1.66 135.67 -2.32 135.34 -3 135 C-3.07054355 120.35131416 -3.12320762 105.70265124 -3.15543652 91.05382919 C-3.17080855 84.2498578 -3.19170931 77.44599284 -3.22631836 70.64208984 C-3.25977821 64.06088931 -3.27691495 57.47975721 -3.28463173 50.89847565 C-3.29012241 48.40301029 -3.30084216 45.90755011 -3.31719017 43.41213226 C-3.41001609 28.63876406 -2.74368295 14.53472087 0 0 Z " fill="#8A8B9F" transform="translate(180,35)"/>
<path d="M0 0 C0.66 0 1.32 0 2 0 C3.18681726 3.56045177 3.09689832 6.43808337 3.0625 10.1875 C3.05347656 11.45980469 3.04445312 12.73210937 3.03515625 14.04296875 C3.02355469 15.01878906 3.01195312 15.99460937 3 17 C3.66 17 4.32 17 5 17 C7.58551398 26.85727204 7.31776228 35.95206264 6 46 C3.97951619 42.61344009 3.65888922 39.7846395 3.4375 35.875 C3.36273438 34.7096875 3.28796875 33.544375 3.2109375 32.34375 C3.14132813 31.2403125 3.07171875 30.136875 3 29 C2.70741343 25.66234578 2.35207858 22.33186558 2 19 C1.83066301 17.3854236 1.66139943 15.77083951 1.4921875 14.15625 C0.99695344 9.4372704 0.49898784 4.71858407 0 0 Z " fill="#5E5F7C" transform="translate(180,311)"/>
<path d="M0 0 C0.69802734 -0.00386719 1.39605469 -0.00773438 2.11523438 -0.01171875 C7.31086006 -0.00163994 7.31086006 -0.00163994 8.4375 1.125 C8.51063567 3.65549402 8.52997527 6.15804837 8.5 8.6875 C8.49548828 9.39841797 8.49097656 10.10933594 8.48632812 10.84179688 C8.47450864 12.60290013 8.45657263 14.36396036 8.4375 16.125 C8.1075 16.125 7.7775 16.125 7.4375 16.125 C7.4375 11.835 7.4375 7.545 7.4375 3.125 C2.1575 3.125 -3.1225 3.125 -8.5625 3.125 C-8.2325 5.105 -7.9025 7.085 -7.5625 9.125 C-7.54833399 10.70618099 -7.58630445 12.28893885 -7.68359375 13.8671875 C-7.73193359 14.70507812 -7.78027344 15.54296875 -7.83007812 16.40625 C-7.88615234 17.2621875 -7.94222656 18.118125 -8 19 C-8.05220703 19.87914062 -8.10441406 20.75828125 -8.15820312 21.6640625 C-8.28697561 23.81807499 -8.42391463 25.97159659 -8.5625 28.125 C-8.8925 28.125 -9.2225 28.125 -9.5625 28.125 C-9.5625 19.215 -9.5625 10.305 -9.5625 1.125 C-6.51267742 -0.39991129 -3.34127461 -0.01861434 0 0 Z " fill="#1E2041" transform="translate(98.5625,198.875)"/>
<path d="M0 0 C0.66 0.33 1.32 0.66 2 1 C1.67 1.33 1.34 1.66 1 2 C0.84313751 3.55948542 0.74923361 5.12542668 0.68359375 6.69140625 C0.64169922 7.63564453 0.59980469 8.57988281 0.55664062 9.55273438 C0.51732422 10.54595703 0.47800781 11.53917969 0.4375 12.5625 C0.39431641 13.55958984 0.35113281 14.55667969 0.30664062 15.58398438 C0.20019702 18.0558415 0.09818072 20.5278031 0 23 C0.66 23 1.32 23 2 23 C2 22.34 2 21.68 2 21 C5.47823115 19.84058962 7.45895578 20.29179116 11 21 C8.18594033 22.87603978 6.59075334 23.49092802 3.375 24.1875 C2.18003906 24.45626953 2.18003906 24.45626953 0.9609375 24.73046875 C0.31382813 24.81941406 -0.33328125 24.90835937 -1 25 C-3.1592778 22.8407222 -2.51265222 18.24339404 -2.6875 15.25 C-2.77741211 14.03183594 -2.77741211 14.03183594 -2.86914062 12.7890625 C-3.1324442 8.35979148 -3.1887914 5.0141012 -1 1 C-0.67 0.67 -0.34 0.34 0 0 Z " fill="#7E8199" transform="translate(7,275)"/>
<path d="M0 0 C0.67160156 0.06703125 1.34320313 0.1340625 2.03515625 0.203125 C3.9375 0.75 3.9375 0.75 6.9375 3.75 C2.3175 3.09 -2.3025 2.43 -7.0625 1.75 C-7.3925 3.4 -7.7225 5.05 -8.0625 6.75 C-10.5 8.9375 -10.5 8.9375 -13.0625 10.75 C-13.7225 11.41 -14.3825 12.07 -15.0625 12.75 C-15.7225 12.42 -16.3825 12.09 -17.0625 11.75 C-17.0625 12.41 -17.0625 13.07 -17.0625 13.75 C-17.7225 13.75 -18.3825 13.75 -19.0625 13.75 C-17.70880871 9.58703539 -15.97606111 7.36246848 -12.6875 4.5 C-11.91664063 3.81421875 -11.14578125 3.1284375 -10.3515625 2.421875 C-6.88002777 -0.11364866 -4.20857172 -0.48654008 0 0 Z " fill="#7D7F97" transform="translate(205.0625,8.25)"/>
<path d="M0 0 C0 0.66 0 1.32 0 2 C-0.99 2 -1.98 2 -3 2 C-3.66 3.65 -4.32 5.3 -5 7 C-5.99 6.67 -6.98 6.34 -8 6 C-8.33 6.99 -8.66 7.98 -9 9 C-10.6875 10 -10.6875 10 -13 11 C-13.886875 11.474375 -14.77375 11.94875 -15.6875 12.4375 C-19.69291852 14.32684836 -23.77973187 15.67764932 -28 17 C-25.18522576 13.71435274 -21.49998689 11.77629727 -17.8125 9.625 C-16.46053521 8.82750452 -15.1089692 8.02933259 -13.7578125 7.23046875 C-13.10973633 6.84810059 -12.46166016 6.46573242 -11.79394531 6.07177734 C-9.56241253 4.73856709 -7.3729468 3.34473419 -5.1875 1.9375 C-2 0 -2 0 0 0 Z " fill="#7F8198" transform="translate(53,248)"/>
<path d="M0 0 C2.97922593 -0.02683987 5.95821295 -0.04676037 8.9375 -0.0625 C9.78763672 -0.07087891 10.63777344 -0.07925781 11.51367188 -0.08789062 C12.32255859 -0.09111328 13.13144531 -0.09433594 13.96484375 -0.09765625 C14.7137085 -0.10289307 15.46257324 -0.10812988 16.23413086 -0.11352539 C18 0 18 0 19 1 C19.08758003 2.99964982 19.10696576 5.0023611 19.09765625 7.00390625 C19.09443359 8.21884766 19.09121094 9.43378906 19.08789062 10.68554688 C19.07951172 11.96494141 19.07113281 13.24433594 19.0625 14.5625 C19.05798828 15.84576172 19.05347656 17.12902344 19.04882812 18.45117188 C19.03699545 21.63416022 19.02051068 24.81705762 19 28 C20.2065625 28.433125 20.2065625 28.433125 21.4375 28.875 C24 30 24 30 25 32 C24.05125 31.814375 23.1025 31.62875 22.125 31.4375 C19.10131207 30.71313368 19.10131207 30.71313368 17 32 C17 22.1 17 12.2 17 2 C14.40125 1.979375 11.8025 1.95875 9.125 1.9375 C7.89934326 1.92384399 7.89934326 1.92384399 6.64892578 1.90991211 C2.69633874 1.80849359 2.69633874 1.80849359 -1 3 C-0.67 2.01 -0.34 1.02 0 0 Z " fill="#8C8EA3" transform="translate(299,198)"/>
<path d="M0 0 C0.74958984 0.01353516 1.49917969 0.02707031 2.27148438 0.04101562 C4.11879767 0.07631461 5.96574066 0.13012083 7.8125 0.1875 C7.8125 0.5175 7.8125 0.8475 7.8125 1.1875 C2.8625 1.5175 -2.0875 1.8475 -7.1875 2.1875 C-7.23648438 3.44046875 -7.28546875 4.6934375 -7.3359375 5.984375 C-7.41098583 7.63543821 -7.48653277 9.28647881 -7.5625 10.9375 C-7.5934375 11.7625 -7.624375 12.5875 -7.65625 13.4375 C-7.69492188 14.23671875 -7.73359375 15.0359375 -7.7734375 15.859375 C-7.82056885 16.95910645 -7.82056885 16.95910645 -7.86865234 18.08105469 C-8.22522523 20.43672918 -9.02412883 22.12200591 -10.1875 24.1875 C-10.8475 23.8575 -11.5075 23.5275 -12.1875 23.1875 C-11.8575 22.8575 -11.5275 22.5275 -11.1875 22.1875 C-11.13717458 20.80560111 -11.15173318 19.42119058 -11.1953125 18.0390625 C-11.21207031 17.19859375 -11.22882813 16.358125 -11.24609375 15.4921875 C-11.29017634 13.71332539 -11.34219228 11.93464126 -11.40234375 10.15625 C-11.41652344 9.31320313 -11.43070313 8.47015625 -11.4453125 7.6015625 C-11.4673877 6.8276416 -11.48946289 6.0537207 -11.51220703 5.25634766 C-11.1875 3.1875 -11.1875 3.1875 -9.90844727 1.42993164 C-6.96242244 -0.6969403 -3.48712737 -0.11877552 0 0 Z " fill="#7F8197" transform="translate(142.1875,175.8125)"/>
<path d="M0 0 C7.21929244 1.23594287 13.62290893 3.44354536 20 7 C15.99842367 8.59453676 12.57265972 7.3337201 8.625 6.1875 C7.97789062 6.00896484 7.33078125 5.83042969 6.6640625 5.64648438 C2.73423307 4.54914289 -1.14002152 3.32051895 -5 2 C-4.360625 1.855625 -3.72125 1.71125 -3.0625 1.5625 C-1.02454854 1.18992819 -1.02454854 1.18992819 0 0 Z " fill="#4A4C69" transform="translate(266,436)"/>
<path d="M0 0 C1.32 0.66 2.64 1.32 4 2 C4 9.59 4 17.18 4 25 C0.7 24.34 -2.6 23.68 -6 23 C-2.29847322 22.07461831 -1.36541838 21.91825838 2 23 C1.86149295 19.54133208 1.71295273 16.08316725 1.5625 12.625 C1.52318359 11.64015625 1.48386719 10.6553125 1.44335938 9.640625 C1.38051758 8.22910156 1.38051758 8.22910156 1.31640625 6.7890625 C1.27974854 5.91975098 1.24309082 5.05043945 1.20532227 4.15478516 C1.12598456 1.9516738 1.12598456 1.9516738 0 0 Z " fill="#797B96" transform="translate(397,275)"/>
<path d="M0 0 C0 0.66 0 1.32 0 2 C-0.99 2 -1.98 2 -3 2 C-3.061875 2.5775 -3.12375 3.155 -3.1875 3.75 C-4.40182219 7.11273836 -5.94754283 8.15580713 -9 10 C-11.99396819 10.60681767 -14.95073941 10.86713461 -18 11 C-14.56662594 8.17325123 -11.06054842 5.6430241 -7.3125 3.25 C-6.35988281 2.63640625 -5.40726563 2.0228125 -4.42578125 1.390625 C-2 0 -2 0 0 0 Z " fill="#565877" transform="translate(180,394)"/>
<path d="M0 0 C3.96 0 7.92 0 12 0 C11.67 0.66 11.34 1.32 11 2 C14.63 2.33 18.26 2.66 22 3 C22.33 4.32 22.66 5.64 23 7 C18.96341304 7.37843003 15.99427073 6.36278079 12.26953125 4.8671875 C8.25817782 3.33445005 4.12319125 2.1913319 0 1 C0 0.67 0 0.34 0 0 Z " fill="#83859A" transform="translate(314,275)"/>
<path d="M0 0 C1.46373047 0.01353516 1.46373047 0.01353516 2.95703125 0.02734375 C4.06111328 0.04474609 4.06111328 0.04474609 5.1875 0.0625 C1.62158309 1.91862522 -1.94459229 3.023044 -5.8125 4.0625 C-6.73417969 4.32417969 -7.65585938 4.58585937 -8.60546875 4.85546875 C-10.06919922 5.26732422 -10.06919922 5.26732422 -11.5625 5.6875 C-12.48546875 5.94789063 -13.4084375 6.20828125 -14.359375 6.4765625 C-16.8125 7.0625 -16.8125 7.0625 -19.8125 7.0625 C-14.05337051 1.30337051 -7.92047496 -0.09542741 0 0 Z " fill="#8A8CA2" transform="translate(105.8125,269.9375)"/>
<path d="M0 0 C2.47923801 -0.02685095 4.9581884 -0.04676547 7.4375 -0.0625 C8.14455078 -0.07087891 8.85160156 -0.07925781 9.58007812 -0.08789062 C11.38693559 -0.09653588 13.19387603 -0.05220011 15 0 C16 1 16 1 16.11352539 3.59204102 C16.10828857 4.71795654 16.10305176 5.84387207 16.09765625 7.00390625 C16.09443359 8.21884766 16.09121094 9.43378906 16.08789062 10.68554688 C16.07951172 11.96494141 16.07113281 13.24433594 16.0625 14.5625 C16.05798828 15.84576172 16.05347656 17.12902344 16.04882812 18.45117188 C16.03699545 21.63416022 16.02051068 24.81705762 16 28 C15.67 28 15.34 28 15 28 C14.67 19.75 14.34 11.5 14 3 C9.38 2.34 4.76 1.68 0 1 C0 0.67 0 0.34 0 0 Z " fill="#202243" transform="translate(301,199)"/>
<path d="M0 0 C0.33 0 0.66 0 1 0 C2.72293135 4.46334184 3.22240791 8.10201231 3.125 12.875 C3.10695312 14.02742188 3.08890625 15.17984375 3.0703125 16.3671875 C3.03550781 17.67042969 3.03550781 17.67042969 3 19 C1.54618103 19.69699552 0.08677047 20.38233866 -1.375 21.0625 C-2.18710938 21.44535156 -2.99921875 21.82820313 -3.8359375 22.22265625 C-4.55007812 22.47917969 -5.26421875 22.73570312 -6 23 C-6.66 22.67 -7.32 22.34 -8 22 C-5.03 20.02 -2.06 18.04 1 16 C0.7525 13.9890625 0.7525 13.9890625 0.5 11.9375 C0.04889689 7.92204693 -0.08589693 4.03715582 0 0 Z " fill="#9496A9" transform="translate(188,371)"/>
<path d="M0 0 C-3.46574184 1.92636767 -7.00031485 2.94266587 -10.8125 4 C-11.99457031 4.33 -13.17664063 4.66 -14.39453125 5 C-15.58433594 5.33 -16.77414063 5.66 -18 6 C-19.86205078 6.5878125 -19.86205078 6.5878125 -21.76171875 7.1875 C-25 8 -25 8 -28 7 C-26.35 6.67 -24.7 6.34 -23 6 C-23 5.34 -23 4.68 -23 4 C-22.28972656 3.86722656 -21.57945313 3.73445313 -20.84765625 3.59765625 C-19.92855469 3.42105469 -19.00945313 3.24445313 -18.0625 3.0625 C-17.14597656 2.88847656 -16.22945312 2.71445312 -15.28515625 2.53515625 C-13.04710156 2.22285012 -13.04710156 2.22285012 -12 1 C-7.96497918 0.30163101 -4.09439083 -0.12407245 0 0 Z " fill="#A7A9BA" transform="translate(65,283)"/>
<path d="M0 0 C3.125 6.25 3.125 6.25 3.09765625 10.3515625 C3.09443359 11.20234375 3.09121094 12.053125 3.08789062 12.9296875 C3.07951172 13.81914062 3.07113281 14.70859375 3.0625 15.625 C3.05798828 16.5221875 3.05347656 17.419375 3.04882812 18.34375 C3.03702591 20.56256648 3.02056155 22.78125018 3 25 C1.08753202 21.44813711 0.66113299 18.73668449 0.4375 14.6875 C0.20979591 11.00697388 -0.02722149 7.38963876 -0.625 3.75 C-0.74875 2.8425 -0.8725 1.935 -1 1 C-0.67 0.67 -0.34 0.34 0 0 Z " fill="#9192A4" transform="translate(183,332)"/>
<path d="M0 0 C-3.53788686 1.95958144 -7.18780601 3.0589088 -11.0625 4.1875 C-12.29097656 4.55230469 -13.51945312 4.91710937 -14.78515625 5.29296875 C-18 6 -18 6 -21 5 C-20.01 4.67 -19.02 4.34 -18 4 C-17.67 3.01 -17.34 2.02 -17 1 C-15.14375 1.0309375 -15.14375 1.0309375 -13.25 1.0625 C-8.70610973 1.07048575 -4.55755052 -0.12659863 0 0 Z " fill="#9395AA" transform="translate(132,264)"/>
<path d="M0 0 C3.18786625 2.89433681 5.03313319 5.58646816 6.8125 9.5 C7.25207031 10.4384375 7.69164062 11.376875 8.14453125 12.34375 C9.04264645 15.13241822 9.03390407 16.31058083 8 19 C7.7525 18.05125 7.505 17.1025 7.25 16.125 C6.3142923 12.91306809 6.3142923 12.91306809 3.875 11.625 C3.25625 11.41875 2.6375 11.2125 2 11 C2.33 9.02 2.66 7.04 3 5 C2.34 5 1.68 5 1 5 C0.67 3.35 0.34 1.7 0 0 Z " fill="#84859D" transform="translate(216,16)"/>
<path d="M0 0 C1.81612488 0.95144598 3.62781081 1.91136933 5.4375 2.875 C6.44683594 3.40867187 7.45617187 3.94234375 8.49609375 4.4921875 C11 6 11 6 12 8 C10.296875 8.68359375 10.296875 8.68359375 8 9 C5.640625 7.78515625 5.640625 7.78515625 3.25 6.0625 C2.45078125 5.49660156 1.6515625 4.93070312 0.828125 4.34765625 C0.22484375 3.90292969 -0.3784375 3.45820313 -1 3 C-0.67 2.01 -0.34 1.02 0 0 Z " fill="#6E6F8A" transform="translate(385,267)"/>
<path d="M0 0 C0.66 0.33 1.32 0.66 2 1 C1.67 1.99 1.34 2.98 1 4 C-0.32 4 -1.64 4 -3 4 C-3.33 4.99 -3.66 5.98 -4 7 C-6.28515625 7.94921875 -6.28515625 7.94921875 -9.0625 8.6875 C-10.44115234 9.06455078 -10.44115234 9.06455078 -11.84765625 9.44921875 C-12.55792969 9.63097656 -13.26820312 9.81273437 -14 10 C-11.46357916 7.21423609 -8.59630744 5.28576938 -5.4375 3.25 C-4.46683594 2.61578125 -3.49617188 1.9815625 -2.49609375 1.328125 C-1.67238281 0.88984375 -0.84867188 0.4515625 0 0 Z " fill="#7B7D93" transform="translate(131,423)"/>
<path d="M0 0 C0.66 0 1.32 0 2 0 C2.7938642 7.21805755 3.07875823 13.80827843 2 21 C1.67 21 1.34 21 1 21 C-0.32719886 14.03220597 -0.08825381 7.07011089 0 0 Z " fill="#585A76" transform="translate(186,350)"/>
<path d="M0 0 C1.77074917 -0.02705729 3.54161711 -0.04642195 5.3125 -0.0625 C6.29863281 -0.07410156 7.28476562 -0.08570313 8.30078125 -0.09765625 C11 0 11 0 14 1 C14 1.99 14 2.98 14 4 C14.99 4.33 15.98 4.66 17 5 C15 6 15 6 11.5234375 5.00390625 C10.13802064 4.53099953 8.75528453 4.05018356 7.375 3.5625 C6.31539063 3.19801758 6.31539063 3.19801758 5.234375 2.82617188 C3.48726713 2.22412795 1.74332214 1.61291983 0 1 C0 0.67 0 0.34 0 0 Z " fill="#7C7F95" transform="translate(293,269)"/>
<path d="M0 0 C0 0.66 0 1.32 0 2 C-0.66 2 -1.32 2 -2 2 C-2 2.99 -2 3.98 -2 5 C-8.96428571 8.34821429 -8.96428571 8.34821429 -13 7 C-11.21190303 5.82786955 -9.41940875 4.66244474 -7.625 3.5 C-6.62726563 2.8503125 -5.62953125 2.200625 -4.6015625 1.53125 C-2 0 -2 0 0 0 Z " fill="#7E7F97" transform="translate(146,415)"/>
<path d="M0 0 C0 0.99 0 1.98 0 3 C-0.99 3 -1.98 3 -3 3 C-3.33 4.32 -3.66 5.64 -4 7 C-8.455 7.495 -8.455 7.495 -13 8 C-10.61318325 5.61318325 -8.7414492 4.05776184 -5.9375 2.3125 C-5.24527344 1.87550781 -4.55304688 1.43851563 -3.83984375 0.98828125 C-2 0 -2 0 0 0 Z " fill="#72748C" transform="translate(177,171)"/>
<path d="M0 0 C3.62276315 1.3255581 6.63505348 2.94346955 9.8125 5.125 C10.60269531 5.66382813 11.39289063 6.20265625 12.20703125 6.7578125 C12.79871094 7.16773438 13.39039063 7.57765625 14 8 C12.68 8.33 11.36 8.66 10 9 C9.67 8.01 9.34 7.02 9 6 C7.35 6 5.7 6 4 6 C4 5.01 4 4.02 4 3 C2.35 3 0.7 3 -1 3 C-0.67 2.01 -0.34 1.02 0 0 Z " fill="#72748C" transform="translate(244,405)"/>
<path d="M0 0 C-2.74663704 0.86656998 -5.4964243 1.71851786 -8.25 2.5625 C-9.02730469 2.80935547 -9.80460938 3.05621094 -10.60546875 3.31054688 C-11.35957031 3.53935547 -12.11367187 3.76816406 -12.890625 4.00390625 C-13.58188477 4.21861572 -14.27314453 4.4333252 -14.98535156 4.65454102 C-17.28678704 5.0491764 -18.79616682 4.71084423 -21 4 C-7.09982547 -2.01315397 -7.09982547 -2.01315397 0 0 Z " fill="#A4A6B7" transform="translate(153,436)"/>
<path d="M0 0 C1.32 0 2.64 0 4 0 C4 0.66 4 1.32 4 2 C4.99 2.33 5.98 2.66 7 3 C4.03 2.505 4.03 2.505 1 2 C1.061875 2.78375 1.12375 3.5675 1.1875 4.375 C1.125625 5.24125 1.06375 6.1075 1 7 C0.01 7.66 -0.98 8.32 -2 9 C-1.125 1.125 -1.125 1.125 0 0 Z " fill="#70728A" transform="translate(209,421)"/>
<path d="M0 0 C0 0.66 0 1.32 0 2 C1.0828125 2.185625 1.0828125 2.185625 2.1875 2.375 C4.95721894 2.9904931 7.3970354 3.88444374 10 5 C4.60185122 7.15925951 -0.97328838 4.13254433 -6 2 C-3 0 -3 0 0 0 Z " fill="#8C8EA1" transform="translate(232,426)"/>
<path d="M0 0 C3.3 0 6.6 0 10 0 C10.33 0.99 10.66 1.98 11 3 C11.99 3.33 12.98 3.66 14 4 C12 5 12 5 9.1796875 4.22265625 C8.08914063 3.83980469 6.99859375 3.45695312 5.875 3.0625 C4.77929688 2.68222656 3.68359375 2.30195313 2.5546875 1.91015625 C1.71164062 1.60980469 0.86859375 1.30945313 0 1 C0 0.67 0 0.34 0 0 Z " fill="#9799AC" transform="translate(366,290)"/>
<path d="M0 0 C0.66 0.33 1.32 0.66 2 1 C1.34 2.32 0.68 3.64 0 5 C0 4.34 0 3.68 0 3 C-0.66 3 -1.32 3 -2 3 C-2 3.66 -2 4.32 -2 5 C-5 7 -5 7 -7.1875 6.625 C-7.785625 6.41875 -8.38375 6.2125 -9 6 C-3.30379747 1.25316456 -3.30379747 1.25316456 0 0 Z " fill="#8A8CA0" transform="translate(62,241)"/>
<path d="M0 0 C0 0.66 0 1.32 0 2 C-0.99 2.33 -1.98 2.66 -3 3 C-3.598125 3.66 -4.19625 4.32 -4.8125 5 C-7.50439953 7.46116528 -9.42715954 7.67519632 -13 8 C-10.83676753 5.68757908 -8.62352196 3.9843604 -5.9375 2.3125 C-5.24527344 1.87550781 -4.55304688 1.43851563 -3.83984375 0.98828125 C-2 0 -2 0 0 0 Z " fill="#84869C" transform="translate(82,230)"/>
<path d="M0 0 C4.77609498 1.64178265 8.79382904 4.26546702 13 7 C11 8 11 8 9.0546875 7.44140625 C8.33539063 7.15136719 7.61609375 6.86132812 6.875 6.5625 C6.15054688 6.27503906 5.42609375 5.98757812 4.6796875 5.69140625 C4.12539062 5.46324219 3.57109375 5.23507813 3 5 C3 4.01 3 3.02 3 2 C2.01 1.67 1.02 1.34 0 1 C0 0.67 0 0.34 0 0 Z " fill="#83859C" transform="translate(229,171)"/>
<path d="M0 0 C2.475 0.495 2.475 0.495 5 1 C5 2.32 5 3.64 5 5 C5.99 5.33 6.98 5.66 8 6 C7.67 6.66 7.34 7.32 7 8 C5.0625 7.3125 5.0625 7.3125 3 6 C2.375 3.4375 2.375 3.4375 2 1 C1.34 0.67 0.68 0.34 0 0 Z " fill="#555774" transform="translate(194,422)"/>
<path d="M0 0 C0 0.66 0 1.32 0 2 C-0.66 2 -1.32 2 -2 2 C-2.66 3.32 -3.32 4.64 -4 6 C-5.98 6 -7.96 6 -10 6 C-7.35570758 3.077361 -4.105808 0 0 0 Z " fill="#7D7F94" transform="translate(19,269)"/>
<path d="M0 0 C0 0.66 0 1.32 0 2 C-0.66 2 -1.32 2 -2 2 C-2.66 3.32 -3.32 4.64 -4 6 C-5.98 6 -7.96 6 -10 6 C-7.35570758 3.077361 -4.105808 0 0 0 Z " fill="#71738C" transform="translate(124,204)"/>
<path d="M0 0 C0.66 0.33 1.32 0.66 2 1 C1 4 1 4 -0.77734375 4.984375 C-1.84662109 5.36335938 -1.84662109 5.36335938 -2.9375 5.75 C-4.00291016 6.14445312 -4.00291016 6.14445312 -5.08984375 6.546875 C-7 7 -7 7 -9 6 C-6.03 4.02 -3.06 2.04 0 0 Z " fill="#828399" transform="translate(160,405)"/>
<path d="M0 0 C0 0.66 0 1.32 0 2 C-7.28571429 6.42857143 -7.28571429 6.42857143 -12 7 C-9.20232475 3.70861735 -4.40323273 0 0 0 Z " fill="#9495A9" transform="translate(37,258)"/>
<path d="M0 0 C0.33 0 0.66 0 1 0 C1 2.97 1 5.94 1 9 C-1.875 8.75 -1.875 8.75 -5 8 C-6.375 5.9375 -6.375 5.9375 -7 4 C-4.525 4.99 -4.525 4.99 -2 6 C-1.34 4.02 -0.68 2.04 0 0 Z " fill="#9D9FB1" transform="translate(254,178)"/>
<path d="M0 0 C0 0.66 0 1.32 0 2 C-0.99 2 -1.98 2 -3 2 C-3.33 3.32 -3.66 4.64 -4 6 C-5.98 6 -7.96 6 -10 6 C-7.35570758 3.077361 -4.105808 0 0 0 Z " fill="#808199" transform="translate(180,394)"/>
<path d="M0 0 C1.98270912 0.95098266 3.96108379 1.91100703 5.9375 2.875 C7.03964844 3.40867188 8.14179688 3.94234375 9.27734375 4.4921875 C12 6 12 6 13 8 C11.02 8 9.04 8 7 8 C6.67 7.01 6.34 6.02 6 5 C2.99992729 3.29144978 2.99992729 3.29144978 0 2 C0 1.34 0 0.68 0 0 Z " fill="#8F91A6" transform="translate(276,200)"/>
<path d="M0 0 C0 0.99 0 1.98 0 3 C-6.4 3.36923077 -6.4 3.36923077 -9.4375 1.5 C-9.953125 1.005 -10.46875 0.51 -11 0 C-7.01803543 -1.05404945 -4.01804691 -0.84098656 0 0 Z " fill="#71738B" transform="translate(272,437)"/>
<path d="M0 0 C4.10958767 1.45044271 7.43258745 3.51110752 11 6 C10.01 6.33 9.02 6.66 8 7 C6 6 6 6 4 4 C1.93125966 3.3574765 1.93125966 3.3574765 0 3 C0 2.01 0 1.02 0 0 Z " fill="#7C7E95" transform="translate(263,417)"/>
<path d="M0 0 C-2 3 -2 3 -5.5 3.8125 C-6.655 3.874375 -7.81 3.93625 -9 4 C-9.66 3.34 -10.32 2.68 -11 2 C-7.17010894 0.19769832 -4.21878192 -0.19622241 0 0 Z " fill="#333558" transform="translate(68,280)"/>
<path d="M0 0 C2.3125 2 2.3125 2 4 4 C2.741875 3.87625 1.48375 3.7525 0.1875 3.625 C-0.87404297 3.52058594 -0.87404297 3.52058594 -1.95703125 3.4140625 C-4 3 -4 3 -7 1 C-4.4086487 -0.29567565 -2.87704151 -0.34250494 0 0 Z " fill="#73758C" transform="translate(279,262)"/>
<path d="M0 0 C-3.26545761 1.88391785 -6.28111761 2.49287967 -10 3 C-9.1875 1.0625 -9.1875 1.0625 -8 -1 C-4.37673261 -2.2077558 -3.35853631 -1.54311128 0 0 Z " fill="#84869E" transform="translate(142,261)"/>
<path d="M0 0 C2.8290723 2.8290723 3.37611108 3.38144425 4 7 C4.66 7 5.32 7 6 7 C6 7.66 6 8.32 6 9 C4.35 9.33 2.7 9.66 1 10 C0.67 6.7 0.34 3.4 0 0 Z " fill="#A1A3B5" transform="translate(150,177)"/>
<path d="M0 0 C-1 3 -1 3 -2.875 4.1875 C-5 5 -5 5 -8 5 C-6.44843568 0.34530705 -4.78780941 0 0 0 Z " fill="#60617D" transform="translate(45,254)"/>
<path d="M0 0 C1 2 1 2 0.1875 4.8125 C-0.83599774 7.55978342 -1.88377654 10.28917159 -3 13 C-3.97099482 10.37831399 -4.06599958 9.20307562 -3.1875 6.5 C-2.15119028 4.31829532 -1.11182572 2.14423532 0 0 Z " fill="#B9BAC9" transform="translate(185,22)"/>
<path d="M0 0 C-2.77079887 3.80984844 -6.62868145 4.06840752 -11 5 C-7.49434208 1.32740599 -5.1720171 -0.27956849 0 0 Z " fill="#6E7089" transform="translate(191,389)"/>
<path d="M0 0 C0 0.66 0 1.32 0 2 C-0.99 2 -1.98 2 -3 2 C-2.67 3.98 -2.34 5.96 -2 8 C-3.32 7.67 -4.64 7.34 -6 7 C-5.6875 4.625 -5.6875 4.625 -5 2 C-2 0 -2 0 0 0 Z " fill="#575A78" transform="translate(69,238)"/>
<path d="M0 0 C1.98 0 3.96 0 6 0 C4.58480285 2.0343459 3.45017877 2.90410393 1.01953125 3.421875 C-0.98176954 3.66273952 -2.9909944 3.83532741 -5 4 C-4.34 3.34 -3.68 2.68 -3 2 C-2.01 2 -1.02 2 0 2 C0 1.34 0 0.68 0 0 Z " fill="#9D9FB2" transform="translate(42,287)"/>
<path d="M0 0 C0.33 0 0.66 0 1 0 C0.8864371 1.64666203 0.75882619 3.29236082 0.625 4.9375 C0.52058594 6.31228516 0.52058594 6.31228516 0.4140625 7.71484375 C0.27742187 8.46894531 0.14078125 9.22304688 0 10 C-0.99 10.495 -0.99 10.495 -2 11 C-1.85892253 9.54119891 -1.71197585 8.08296449 -1.5625 6.625 C-1.48128906 5.81289063 -1.40007812 5.00078125 -1.31640625 4.1640625 C-1 2 -1 2 0 0 Z " fill="#1D1F44" transform="translate(182,37)"/>
<path d="M0 0 C1.31602523 0.61754259 2.62773556 1.24428742 3.9375 1.875 C4.66839844 2.22304688 5.39929688 2.57109375 6.15234375 2.9296875 C8 4 8 4 9 6 C6.69 5.67 4.38 5.34 2 5 C2 4.01 2 3.02 2 2 C1.34 2 0.68 2 0 2 C0 1.34 0 0.68 0 0 Z " fill="#808299" transform="translate(283,429)"/>
<path d="M0 0 C1.625 2 1.625 2 3 4 C-4.75 3.25 -4.75 3.25 -7 1 C-2.25 0 -2.25 0 0 0 Z " fill="#70728B" transform="translate(223,423)"/>
<path d="M0 0 C0.98120464 3.05263664 0.98120464 4.94736336 0 8 C-0.66 8 -1.32 8 -2 8 C-2.33 8.66 -2.66 9.32 -3 10 C-2.25 3.375 -2.25 3.375 0 0 Z " fill="#333456" transform="translate(184,29)"/>
<path d="M0 0 C-3 2 -3 2 -6 3 C-6.99 2.67 -7.98 2.34 -9 2 C-9 1.34 -9 0.68 -9 0 C-5.93109813 -1.53445094 -3.29905734 -0.54984289 0 0 Z " fill="#70728A" transform="translate(18,296)"/>
<path d="M0 0 C3.37503669 1.1858237 5.64722731 2.27573689 8 5 C5.69 4.67 3.38 4.34 1 4 C0.67 2.68 0.34 1.36 0 0 Z " fill="#808299" transform="translate(371,259)"/>
<path d="M0 0 C1.36125 0.37125 1.36125 0.37125 2.75 0.75 C-0.69450737 3.04633824 -3.18812283 3.29016485 -7.25 3.75 C-4.05 -0.31153846 -4.05 -0.31153846 0 0 Z " fill="#87899E" transform="translate(162.25,253.25)"/>
<path d="M0 0 C0.66 0.33 1.32 0.66 2 1 C0.25 3.0625 0.25 3.0625 -2 5 C-4.25 4.75 -4.25 4.75 -6 4 C-4.02 2.68 -2.04 1.36 0 0 Z " fill="#81839B" transform="translate(162,179)"/>
</svg>
