<?xml version="1.0" encoding="UTF-8"?>
<svg version="1.1" xmlns="http://www.w3.org/2000/svg" width="322" height="347">
<path d="M0 0 C106.26 0 212.52 0 322 0 C322 114.51 322 229.02 322 347 C215.74 347 109.48 347 0 347 C0 232.49 0 117.98 0 0 Z " fill="#FEFEFE" transform="translate(0,0)"/>
<path d="M0 0 C0.12892639 0.53267487 0.25785278 1.06534973 0.39068604 1.61416626 C1.75034903 7.22929211 3.11406086 12.84342417 4.47998047 18.45703125 C4.98717482 20.54370021 5.49338463 22.63060876 5.99853516 24.71777344 C8.52921362 35.17122942 11.07859564 45.59296571 14.10644531 55.91503906 C15.60830288 61.10014076 16.93375744 66.32774962 18.25 71.5625 C18.6521875 73.12194336 18.6521875 73.12194336 19.0625 74.71289062 C19.31515625 75.71642578 19.5678125 76.71996094 19.828125 77.75390625 C20.0540332 78.64408447 20.27994141 79.5342627 20.51269531 80.45141602 C21.00598647 83.03130899 21.08833609 85.38024606 21 88 C22.98 88.495 22.98 88.495 25 89 C24.34 89.66 23.68 90.32 23 91 C23.16417032 94.56592619 23.16417032 94.56592619 24 98 C24.66 98.33 25.32 98.66 26 99 C26.24304901 100.56245792 26.47274654 102.12776075 26.6484375 103.69921875 C27.24207063 107.58421782 28.35039739 111.34356931 29.37890625 115.1328125 C29.96970062 117.86012739 30.11704334 120.22149288 30 123 C30.66 123.33 31.32 123.66 32 124 C31.505 125.485 31.505 125.485 31 127 C38.97930651 125.72168883 46.89772282 124.2526228 54.8125 122.625 C63.21030674 120.92032914 71.61660487 119.32288797 80.0625 117.875 C81.00617432 117.71217529 81.94984863 117.54935059 82.92211914 117.3815918 C86.4472345 116.77496416 89.97243283 116.16989057 93.50146484 115.58642578 C95.75284187 115.21357747 98.0014459 114.8269478 100.25 114.4375 C101.49265625 114.22996094 102.7353125 114.02242188 104.015625 113.80859375 C108.45853815 112.60482016 109.49994859 110.75007712 112 107 C112.01831197 103.8129096 112.01831197 103.8129096 111.625 100.125 C110.8030006 90.08596272 110.90457299 80.06534718 111 70 C115.62197306 67.78145293 118.76824163 66.61718841 124 67 C127.15573369 76.95866779 130.21826243 86.92907971 133 97 C133.2165625 97.78117187 133.433125 98.56234375 133.65625 99.3671875 C134.85536285 103.89912872 135.50178703 108.35001231 136 113 C136.928125 113.103125 137.85625 113.20625 138.8125 113.3125 C142 114 142 114 143.37890625 115.5859375 C144.94890513 117.27890326 144.94890513 117.27890326 147.4453125 116.92578125 C148.32960938 116.72339844 149.21390625 116.52101563 150.125 116.3125 C151.01445312 116.12300781 151.90390625 115.93351562 152.8203125 115.73828125 C155.1814493 115.22350355 155.1814493 115.22350355 156 113 C157.216875 113.04125 158.43375 113.0825 159.6875 113.125 C162.37855227 113.13440927 163.91603576 113.03444687 166.4375 112 C170.2458162 110.51382783 173.95900909 110.84152977 178 111 C178 111.66 178 112.32 178 113 C177.02417969 113.25394531 176.04835938 113.50789063 175.04296875 113.76953125 C173.77066406 114.11371094 172.49835938 114.45789063 171.1875 114.8125 C169.92292969 115.14894531 168.65835937 115.48539062 167.35546875 115.83203125 C164.11478972 116.96004409 163.23667784 117.64120469 161 120 C158.66015625 120.6953125 158.66015625 120.6953125 156.0625 121.125 C153.00293981 121.65107822 150.00243859 122.20585151 147 123 C147.04640625 123.74765625 147.0928125 124.4953125 147.140625 125.265625 C147.17671875 126.25046875 147.2128125 127.2353125 147.25 128.25 C147.29640625 129.22453125 147.3428125 130.1990625 147.390625 131.203125 C147 134 147 134 144.91796875 135.6953125 C142.79010838 137.77951851 142.79010838 137.77951851 142.90380859 140.17382812 C143.18243713 143.0163699 143.59472144 145.80734902 144.0625 148.625 C144.21372314 149.6444873 144.36494629 150.66397461 144.52075195 151.71435547 C144.98776039 154.81436279 145.48753168 157.90720871 146 161 C146.14985352 161.91007813 146.29970703 162.82015625 146.45410156 163.7578125 C147.24685682 168.54607431 147.24685682 168.54607431 148.08422852 173.32666016 C148.72383054 176.92982287 149.14960127 180.33833077 149 184 C144.9472484 184.98248524 141.16138263 185.08159574 137 185 C134.3745116 180.05196417 132.16899051 175.02504091 130.125 169.8125 C128.11797521 164.724196 126.04400995 159.68209548 123.8125 154.6875 C123.34457031 153.63949219 122.87664062 152.59148437 122.39453125 151.51171875 C121.10670067 148.74021778 121.10670067 148.74021778 118 147 C104.0436261 146.22464589 88.12895799 150.48917056 74.75 154.125 C66.60857932 156.28082791 58.47404762 157.06741077 50.10107422 157.79443359 C47.04944388 158.09300119 44.03074249 158.5371376 41 159 C41.20496094 160.15757812 41.40992188 161.31515625 41.62109375 162.5078125 C41.89324456 164.04687228 42.16537912 165.58593493 42.4375 167.125 C42.57220703 167.88554687 42.70691406 168.64609375 42.84570312 169.4296875 C42.97783203 170.17734375 43.10996094 170.925 43.24609375 171.6953125 C43.37741699 172.42782227 43.50874023 173.16033203 43.64404297 173.91503906 C43.96033844 175.76768879 44.22057643 177.62971344 44.47265625 179.4921875 C44.64667969 180.31976563 44.82070312 181.14734375 45 182 C45.66 182.33 46.32 182.66 47 183 C46.93489583 185.01822917 46.86979167 187.03645833 46.8046875 189.0546875 C46.81668311 191.23863645 46.81668311 191.23863645 49 193 C48.34 193 47.68 193 47 193 C47.433125 194.7015625 47.433125 194.7015625 47.875 196.4375 C48.25048486 197.9582137 48.62545754 199.47905392 49 201 C49.19078125 201.74378906 49.3815625 202.48757812 49.578125 203.25390625 C50.80747799 208.30303458 51.18894522 212.80400642 51 218 C51.99 218.33 52.98 218.66 54 219 C53.34 219 52.68 219 52 219 C52.15557373 219.7120459 52.31114746 220.4240918 52.47143555 221.15771484 C55.38311497 234.52045353 58.24027049 247.89211871 60.875 261.3125 C61.19730591 262.91907471 61.19730591 262.91907471 61.52612305 264.55810547 C62.54056515 269.80169426 63.25615324 274.65845147 63 280 C57.8890783 278.90480249 52.87299762 276.74327934 49.83984375 272.30078125 C48.7532951 269.90661129 47.87890299 267.47870393 47 265 C46.50070067 263.71564743 45.99636006 262.43324862 45.48828125 261.15234375 C42.97567365 254.80432305 40.53790156 248.42800693 38.12109375 242.04296875 C33.27553618 229.24443012 28.25014857 216.52521615 23.13867188 203.83056641 C21.41924105 199.5563209 19.70969126 195.27814947 18 191 C13.05 191 8.1 191 3 191 C3.66 192.093125 4.32 193.18625 5 194.3125 C6.58464929 196.93707538 7 197.8256378 7 201 C1.21538462 196.56923077 1.21538462 196.56923077 0.125 193.6875 C0.08375 193.130625 0.0425 192.57375 0 192 C-0.66 192 -1.32 192 -2 192 C-2 196.95 -2 201.9 -2 207 C-5 204 -5 204 -5.29296875 200.42578125 C-5.27309338 199.05438087 -5.23741111 197.68313595 -5.1875 196.3125 C-5.16719727 195.2596582 -5.16719727 195.2596582 -5.14648438 194.18554688 C-5.11120182 192.45670171 -5.05739583 190.72825235 -5 189 C-5.763125 189.474375 -6.52625 189.94875 -7.3125 190.4375 C-10 192 -10 192 -13 193 C-12.75 191.125 -12.75 191.125 -12 189 C-10.66666667 188.33333333 -9.33333333 187.66666667 -8 187 C-6.8139479 185.26033623 -6.8139479 185.26033623 -7 183 C-8.28511874 180.96868328 -9.61876037 178.96722008 -11 177 C-11 176.01 -11 175.02 -11 174 C-11.93972656 173.69255859 -11.93972656 173.69255859 -12.8984375 173.37890625 C-14.12433594 172.97478516 -14.12433594 172.97478516 -15.375 172.5625 C-16.18710938 172.29566406 -16.99921875 172.02882812 -17.8359375 171.75390625 C-20 171 -20 171 -22 170 C-28.403082 169.47710604 -34.63671015 170.38980486 -40.9375 171.4375 C-72.81353591 176.61395028 -72.81353591 176.61395028 -85.375 168.9375 C-88 167 -88 167 -90 165 C-89.79863497 159.6638268 -88.76426887 156.76426887 -85 153 C-76.32652479 145.86887917 -68.6400357 142.51880607 -57.5 140.625 C-56.43422729 140.43828735 -56.43422729 140.43828735 -55.34692383 140.24780273 C-50.87759566 139.46893736 -46.40171567 138.74953641 -41.91796875 138.05859375 C-40.88542969 137.89343262 -39.85289063 137.72827148 -38.7890625 137.55810547 C-36.75081267 137.23240906 -34.71041632 136.91982429 -32.66796875 136.62158203 C-25.93924378 135.54396359 -25.93924378 135.54396359 -21 131 C-20.34 131 -19.68 131 -19 131 C-19.495 129.2675 -19.495 129.2675 -20 127.5 C-21.08401934 123.22499413 -21.15701377 119.39638547 -21 115 C-23.96404505 117.80804268 -26.44499019 120.18315774 -28 124 C-28.33 124 -28.66 124 -29 124 C-29.25 117.375 -29.25 117.375 -27 114 C-26.34 114 -25.68 114 -25 114 C-25 111.36 -25 108.72 -25 106 C-24.34 106 -23.68 106 -23 106 C-23 106.66 -23 107.32 -23 108 C-22.34 108 -21.68 108 -21 108 C-21.144375 107.28714844 -21.28875 106.57429688 -21.4375 105.83984375 C-22.4797232 100.46226157 -23.2433952 95.47639208 -23 90 C-20.81257986 93.2811302 -20.45557194 95.33084356 -19.875 99.1875 C-19.70742187 100.27417969 -19.53984375 101.36085938 -19.3671875 102.48046875 C-19.24601562 103.31191406 -19.12484375 104.14335937 -19 105 C-15.67240077 103.44805246 -13.51419515 101.69378051 -11 99 C-11.495 100.98 -11.495 100.98 -12 103 C-7.545 102.505 -7.545 102.505 -3 102 C-3.08040527 101.30777344 -3.16081055 100.61554688 -3.24365234 99.90234375 C-5.90243773 76.8721799 -8.09451452 53.97897705 -8.65869141 30.79760742 C-8.6901123 29.58049072 -8.7215332 28.36337402 -8.75390625 27.109375 C-8.77783447 26.02624023 -8.8017627 24.94310547 -8.82641602 23.82714844 C-8.97695553 21.37532336 -9.3442125 19.35003454 -10 17 C-10.77789664 11.26301229 -10.18722669 8.678582 -6.6875 4 C-3.46452703 0 -3.46452703 0 0 0 Z " fill="#050505" transform="translate(117,37)"/>
<path d="M0 0 C4.62 0 9.24 0 14 0 C14.66 3.3 15.32 6.6 16 10 C14.35 10.268125 12.7 10.53625 11 10.8125 C6.02941165 11.70630567 1.65671338 13.06702463 -3 15 C-4.32229189 12.35541621 -4.09677194 10.32238699 -4.0625 7.375 C-4.05347656 6.37210938 -4.04445313 5.36921875 -4.03515625 4.3359375 C-4.02355469 3.56507813 -4.01195313 2.79421875 -4 2 C-3.278125 2.639375 -2.55625 3.27875 -1.8125 3.9375 C0.98191184 5.98673535 2.61663274 6.61332946 6 7 C4.06745228 4.9754262 2.36841312 3.57894208 0 2 C0 1.34 0 0.68 0 0 Z " fill="#E8E8E8" transform="translate(103,151)"/>
<path d="M0 0 C0 0.66 0 1.32 0 2 C-0.97582031 2.25394531 -1.95164062 2.50789062 -2.95703125 2.76953125 C-4.22933594 3.11371094 -5.50164062 3.45789063 -6.8125 3.8125 C-8.07707031 4.14894531 -9.34164063 4.48539063 -10.64453125 4.83203125 C-13.88521028 5.96004409 -14.76332216 6.64120469 -17 9 C-19.33984375 9.6953125 -19.33984375 9.6953125 -21.9375 10.125 C-26.52060264 10.84371551 -26.52060264 10.84371551 -31 12 C-31.33 12.66 -31.66 13.32 -32 14 C-32.33 11.69 -32.66 9.38 -33 7 C-32.28972656 6.80664062 -31.57945312 6.61328125 -30.84765625 6.4140625 C-29.92855469 6.15367187 -29.00945312 5.89328125 -28.0625 5.625 C-26.68771484 5.24214844 -26.68771484 5.24214844 -25.28515625 4.8515625 C-22.83254913 4.23339896 -22.83254913 4.23339896 -22 2 C-20.783125 2.04125 -19.56625 2.0825 -18.3125 2.125 C-15.62144773 2.13440927 -14.08396424 2.03444687 -11.5625 1 C-7.7541838 -0.48617217 -4.04099091 -0.15847023 0 0 Z " fill="#141414" transform="translate(295,148)"/>
<path d="M0 0 C0 1.32 0 2.64 0 4 C-3.3 4.33 -6.6 4.66 -10 5 C-9.67 5.99 -9.34 6.98 -9 8 C-12.05847848 8.54372951 -14.88772805 9 -18 9 C-20.93952555 6.41041797 -22.75122171 4.74633486 -24 1 C-22.58847656 1.01740234 -22.58847656 1.01740234 -21.1484375 1.03515625 C-19.28058594 1.04869141 -19.28058594 1.04869141 -17.375 1.0625 C-15.53035156 1.07990234 -15.53035156 1.07990234 -13.6484375 1.09765625 C-9.01992974 0.97376686 -4.6316348 0 0 0 Z " fill="#D2D2D2" transform="translate(132,211)"/>
<path d="M0 0 C0.33 0.99 0.66 1.98 1 3 C1.94875 3.12375 2.8975 3.2475 3.875 3.375 C7 4 7 4 9 6 C8.67 6.99 8.34 7.98 8 9 C8 8.34 8 7.68 8 7 C7.34 7 6.68 7 6 7 C6 11.95 6 16.9 6 22 C3 19 3 19 2.70703125 15.42578125 C2.72690662 14.05438087 2.76258889 12.68313595 2.8125 11.3125 C2.82603516 10.61060547 2.83957031 9.90871094 2.85351562 9.18554688 C2.88879818 7.45670171 2.94260417 5.72825235 3 4 C2.236875 4.474375 1.47375 4.94875 0.6875 5.4375 C-2 7 -2 7 -5 8 C-4.75 6.125 -4.75 6.125 -4 4 C-1.9375 2.75 -1.9375 2.75 0 2 C0 1.34 0 0.68 0 0 Z " fill="#222222" transform="translate(109,222)"/>
<path d="M0 0 C2.33294775 -0.04241723 4.66702567 -0.04092937 7 0 C8 1 8 1 8.0625 3.5625 C8.041875 4.366875 8.02125 5.17125 8 6 C9.98 5.67 11.96 5.34 14 5 C14.33 5.66 14.66 6.32 15 7 C11.94152152 7.54372951 9.11227195 8 6 8 C3.06047445 5.41041797 1.24877829 3.74633486 0 0 Z " fill="#3A3A3A" transform="translate(108,212)"/>
<path d="M0 0 C0.99 0 1.98 0 3 0 C3.33 4.62 3.66 9.24 4 14 C3.01 14.495 3.01 14.495 2 15 C0.53329887 9.77487721 -0.22577402 5.4185766 0 0 Z " fill="#1D1D1D" transform="translate(96,153)"/>
<path d="M0 0 C1.21236328 0.01353516 1.21236328 0.01353516 2.44921875 0.02734375 C3.37154297 0.04474609 3.37154297 0.04474609 4.3125 0.0625 C4.3125 0.7225 4.3125 1.3825 4.3125 2.0625 C-1.1325 3.5475 -1.1325 3.5475 -6.6875 5.0625 C-6.3575 4.0725 -6.0275 3.0825 -5.6875 2.0625 C-6.3475 1.7325 -7.0075 1.4025 -7.6875 1.0625 C-4.80538698 0.10179566 -2.98899956 -0.04331883 0 0 Z " fill="#525252" transform="translate(290.6875,147.9375)"/>
<path d="M0 0 C0.33 0 0.66 0 1 0 C1.33 3.63 1.66 7.26 2 11 C1.34 11 0.68 11 0 11 C0 10.34 0 9.68 0 9 C-1.11375 8.8453125 -1.11375 8.8453125 -2.25 8.6875 C-5.1973519 7.95066203 -6.78383074 7.05200858 -9 5 C-9 4.34 -9 3.68 -9 3 C-8.4225 3.309375 -7.845 3.61875 -7.25 3.9375 C-5.15705816 4.92583364 -3.25464725 5.5168613 -1 6 C-0.67 4.02 -0.34 2.04 0 0 Z " fill="#949494" transform="translate(94,134)"/>
<path d="M0 0 C2.64 0 5.28 0 8 0 C8 0.99 8 1.98 8 3 C5.36 3.66 2.72 4.32 0 5 C0 3.35 0 1.7 0 0 Z " fill="#F2F2F2" transform="translate(116,213)"/>
<path d="M0 0 C2.97 0.495 2.97 0.495 6 1 C6 3.31 6 5.62 6 8 C1.125 3.375 1.125 3.375 0 0 Z " fill="#DEDEDE" transform="translate(108,212)"/>
<path d="M0 0 C0.33 0.66 0.66 1.32 1 2 C1.66 2 2.32 2 3 2 C1.66666667 4.66666667 0.33333333 7.33333333 -1 10 C-1.33 10 -1.66 10 -2 10 C-2.25 3.375 -2.25 3.375 0 0 Z " fill="#2B2B2B" transform="translate(90,151)"/>
<path d="M0 0 C2.31 1.65 4.62 3.3 7 5 C6.67 7.31 6.34 9.62 6 12 C5.67 12 5.34 12 5 12 C4.34 9.69 3.68 7.38 3 5 C1.68 4.67 0.36 4.34 -1 4 C-0.67 2.68 -0.34 1.36 0 0 Z " fill="#D4D4D4" transform="translate(86,139)"/>
<path d="M0 0 C2.52448827 1.26224414 2.82817664 2.50011016 4 5 C4.33 5.33 4.66 5.66 5 6 C5.04063832 7.66617115 5.042721 9.33388095 5 11 C2.63849961 9.81924981 2.12758006 8.87535361 0.8125 6.625 C0.44769531 6.01914063 0.08289063 5.41328125 -0.29296875 4.7890625 C-1 3 -1 3 0 0 Z " fill="#303030" transform="translate(107,211)"/>
<path d="M0 0 C0.66 0 1.32 0 2 0 C2 1.98 2 3.96 2 6 C0.02 6.33 -1.96 6.66 -4 7 C-2.79618552 4.50638429 -1.54571278 2.31856917 0 0 Z " fill="#E1E1E1" transform="translate(94,152)"/>
<path d="M0 0 C2.31 0.33 4.62 0.66 7 1 C7.33 1.99 7.66 2.98 8 4 C5.6875 4.25 5.6875 4.25 3 4 C1.1875 2 1.1875 2 0 0 Z " fill="#363636" transform="translate(101,154)"/>
<path d="M0 0 C0.99 0.33 1.98 0.66 3 1 C0.75 3.5625 0.75 3.5625 -2 6 C-4.3125 5.8125 -4.3125 5.8125 -6 5 C-4.73775586 2.47551173 -3.49988984 2.17182336 -1 1 C-0.67 0.67 -0.34 0.34 0 0 Z " fill="#DCDCDC" transform="translate(109,226)"/>
<path d="M0 0 C0.99 0 1.98 0 3 0 C1.65302365 2.69395269 0.01114848 4.75900598 -2 7 C-4.13671875 7.65234375 -4.13671875 7.65234375 -6 8 C-5.07456291 6.65826597 -4.13422595 5.32679841 -3.1875 4 C-2.66542969 3.2575 -2.14335938 2.515 -1.60546875 1.75 C-0.81076172 0.88375 -0.81076172 0.88375 0 0 Z " fill="#2E2E2E" transform="translate(114,37)"/>
</svg>
