<?xml version="1.0" encoding="UTF-8"?>
<svg id="Capa_1" data-name="Capa 1" xmlns="http://www.w3.org/2000/svg" viewBox="0 0 137.2 137.2">
  <defs>
    <style>
      .cls-1 {
        fill: none;
      }

      .cls-2 {
        fill: #010101;
      }
    </style>
  </defs>
  <rect class="cls-1" width="137.2" height="137.2"/>
  <path id="B105" class="cls-2" d="m82.58,30.35c-.38,0-.69.31-.69.69v7.46h-.06c-.12,0-.22.1-.22.22v-.08h-3.96c-.05-2.34-.11-5.49-.11-8.11,0-4.84-5.44-6.53-5.44-6.53h-7.24s-5.44,1.69-5.44,6.53c0,2.62-.05,5.77-.11,8.11h-3.96v.08c0-.12-.1-.22-.22-.22h-.06v-7.46c0-.38-.31-.69-.69-.69s-.69.31-.69.69v30.26c0,.38.31.69.69.69s.69-.31.69-.69v-.79h.06c.12,0,.22-.1.22-.22v.08h3.93c.11,1.98.23,3.66.32,4.8h-.35s-.14,1.32.47,1.6c0,0,0,.01,0,.01,0,0,.4,3.86,3.47,6.02.86,1.34,2.52,4.18,2.68,6.23.08,1,.19,5.83.29,11.59h-.92v4.95h1c.06,3.56.11,7.16.16,10.24h-9.89c-.1-.5-.22-.81-.36-.81-.25,0-.46.98-.53,2.32-.13.17-.23.46-.23.8s.09.6.21.78c.05,1.55.28,2.72.55,2.72.15,0,.28-.35.38-.91h9.95c.03,2.13.05,3.47.05,3.47,0,0,.69,8.12.97,8.62h.1c0,.09,0,.36,0,.7-.14.05-.24.17-.27.31l-.93.09c-.16-.19-.39-.31-.66-.29l-.83.08-.06-1.18c-.01-.19-.14-.35-.32-.41-.03-.69-.07-1.44-.11-2.21-.2-3.68-.44-6.67-.53-6.66s-.02,3,.18,6.68c.04.78.08,1.52.13,2.21-.17.08-.28.25-.27.44l.09,1.62c-.17.1-.27.29-.25.5.02.19.14.34.3.42l.09,1.61c.01.19.14.35.31.41.17,3.13.38,5.62.48,5.62s.04-2.5-.12-5.63c.16-.08.27-.25.26-.44l-.06-1.21.89-.08c.26-.02.47-.19.59-.4l.91-.08c.08.11.2.19.35.19.02,0,.04,0,.07-.01.13.44.33.76.64.76s.51-.33.64-.76c.02,0,.04.01.07.01.24,0,.44-.2.44-.44v-.7c0-.19-.12-.35-.29-.41.02-.35.01-.62,0-.7h.1c.28-.5.97-8.62.97-8.62,0,0,.02-1.34.05-3.47h9.95c.1.56.24.91.38.91.28,0,.51-1.18.55-2.72.12-.17.21-.45.21-.78,0-.34-.09-.63-.23-.8-.07-1.34-.28-2.32-.53-2.32-.14,0-.27.31-.36.81h-9.89c.05-3.08.1-6.68.16-10.24h1v-4.95h-.92c.1-5.77.21-10.59.29-11.59.16-2.05,1.82-4.89,2.68-6.23,3.08-2.16,3.47-6.02,3.47-6.02,0,0,0-.01,0-.01.62-.28.47-1.6.47-1.6h-.35c.09-1.15.2-2.83.32-4.8h3.93v-.08c0,.12.1.22.22.22h.06v.79c0,.38.31.69.69.69s.69-.31.69-.69v-30.26c0-.38-.31-.69-.69-.69Zm-27.22,28.8v.08c0-.12-.1-.22-.22-.22h-.06v-19.01h.06c.12,0,.22-.1.22-.22v.08h3.41c-.05.13-.09.27-.09.42v6.38c0,.3.12.56.3.77-.02,1.42-.03,3.11,0,5.11.04,2.28.13,4.56.24,6.62h-3.87Zm26.47-.14c-.12,0-.22.1-.22.22v-.08h-3.87c.11-2.05.2-4.34.24-6.62.04-1.99.03-3.69,0-5.11.18-.21.3-.47.3-.77v-6.38c0-.15-.04-.29-.09-.42h3.41v-.08c0,.12.1.22.22.22h.06v19.01h-.06Z"/>
  <g>
    <path class="cls-2" d="m65.6,58.22l-33.72,35.24-2.53-2.42,28.94-30.24,2.55-.32,3.42-3.57s4.22-3.5,4.22-3.5c0,0-3.25,4.45-3.25,4.45,0,0,.37.36.37.36Z"/>
    <path class="cls-2" d="m73.3,56.29l35.24,33.72-2.42,2.53-30.24-28.94-.32-2.55-3.57-3.42s-3.5-4.22-3.5-4.22c0,0,4.45,3.25,4.45,3.25,0,0,.36-.37.36-.37Z"/>
    <path class="cls-2" d="m71.37,48.58L105.09,13.35l2.53,2.42-28.94,30.24-2.55.32-3.42,3.57s-4.22,3.5-4.22,3.5c0,0,3.25-4.45,3.25-4.45,0,0-.37-.36-.37-.36Z"/>
    <path class="cls-2" d="m63.67,50.51L28.43,16.79l2.42-2.53,30.24,28.94.32,2.55,3.57,3.42s3.5,4.22,3.5,4.22c0,0-4.45-3.25-4.45-3.25,0,0-.36.37-.36.37Z"/>
  </g>
</svg>