<?xml version="1.0" encoding="UTF-8"?>
<svg version="1.1" xmlns="http://www.w3.org/2000/svg" width="720" height="720">
<path d="M0 0 C2.36352539 0.06420898 2.36352539 0.06420898 4.8125 0.6875 C10.44234753 6.93422426 12.87931529 15.77526284 15.375 23.625 C15.95350708 25.40789429 15.95350708 25.40789429 16.54370117 27.22680664 C19.66503558 36.96413434 22.50127228 46.72695171 24.8125 56.6875 C25.08054443 57.81454346 25.08054443 57.81454346 25.35400391 58.96435547 C30.31215874 80.18095841 31.88783442 101.9008284 32.5625 123.625 C32.58573334 124.32884827 32.60896667 125.03269653 32.63290405 125.75787354 C32.84487319 132.53909704 32.91942167 139.24246432 32.3359375 146.01171875 C31.48881899 156.30347834 31.66383681 166.62868767 31.68212891 176.94824219 C31.68751844 180.57491171 31.6821421 184.2014591 31.67578125 187.828125 C31.67644159 190.1536461 31.67772182 192.47916713 31.6796875 194.8046875 C31.67665115 196.41583939 31.67665115 196.41583939 31.67355347 198.05953979 C31.68729912 202.48700217 31.75356134 206.7934839 32.38330078 211.18017578 C32.76750177 214.31978407 32.72229034 215.78457615 31.8125 218.6875 C31.72167062 220.39920528 31.68185569 222.11401291 31.6796875 223.828125 C31.67775391 225.31119141 31.67775391 225.31119141 31.67578125 226.82421875 C31.67964844 227.85160156 31.68351562 228.87898437 31.6875 229.9375 C31.68363281 230.94941406 31.67976563 231.96132812 31.67578125 233.00390625 C31.68147539 237.39408446 31.73504908 241.66841795 32.37890625 246.015625 C32.81547177 249.71266636 32.5778227 252.54935894 31.875 256.1875 C31.58302734 257.74984375 31.58302734 257.74984375 31.28515625 259.34375 C31.12917969 260.1171875 30.97320312 260.890625 30.8125 261.6875 C31.43543945 261.67082275 32.05837891 261.65414551 32.70019531 261.63696289 C40.73497697 261.51957633 48.5813545 262.25484468 56.5625 263.125 C66.64180906 264.20640431 76.69477505 265.0837119 86.8125 265.6875 C86.64951416 264.8404248 86.48652832 263.99334961 86.31860352 263.12060547 C85.80065457 259.60714764 85.69913723 256.307486 85.71484375 252.7578125 C85.71806641 251.46875 85.72128906 250.1796875 85.72460938 248.8515625 C85.73296267 247.50520764 85.74142759 246.15885348 85.75 244.8125 C85.7550217 243.44270996 85.75958343 242.07291815 85.76367188 240.703125 C85.77542746 237.3645381 85.79186036 234.02604185 85.8125 230.6875 C85.379375 231.1825 84.94625 231.6775 84.5 232.1875 C82.8125 233.6875 82.8125 233.6875 79.8125 233.6875 C78.75687467 228.99583186 78.13105125 224.28162227 79.8125 219.6875 C81.45545829 217.89218718 83.13858925 216.5165807 85.12109375 215.109375 C87.62256886 213.00651832 88.60644004 210.88639434 89.15625 207.6875 C89.2078125 207.0275 89.259375 206.3675 89.3125 205.6875 C89.62704138 202.62215127 90.15117902 200.34561358 91.8125 197.6875 C91.11125 198.0175 90.41 198.3475 89.6875 198.6875 C83.29999405 200.9092412 78.79428683 199.16272214 72.8125 196.6875 C73.1425 195.6975 73.4725 194.7075 73.8125 193.6875 C80.4125 193.6875 87.0125 193.6875 93.8125 193.6875 C94.4725 191.0475 95.1325 188.4075 95.8125 185.6875 C97.3203125 183.15625 97.3203125 183.15625 98.9375 181.1875 C99.74574219 180.18203125 99.74574219 180.18203125 100.5703125 179.15625 C101.18519531 178.42921875 101.18519531 178.42921875 101.8125 177.6875 C105.68031559 178.63608344 106.69069856 179.49101566 108.83203125 182.9453125 C109.44924704 184.2251249 110.0431069 185.51624557 110.625 186.8125 C111.676875 189.08125 112.72875 191.35 113.8125 193.6875 C120.4125 193.6875 127.0125 193.6875 133.8125 193.6875 C134.1425 194.6775 134.4725 195.6675 134.8125 196.6875 C128.65418004 199.76665998 122.35907937 198.99681587 115.8125 197.6875 C116.61814328 207.7346274 116.61814328 207.7346274 121.875 216.0625 C125.3556024 219.88102496 125.56562104 222.58533483 125.8125 227.6875 C126.12573028 229.35806149 126.44928515 231.02708925 126.8125 232.6875 C121.9375 233.6875 121.9375 233.6875 120.8125 233.6875 C120.8125 243.2575 120.8125 252.8275 120.8125 262.6875 C126.4225 265.3275 132.0325 267.9675 137.8125 270.6875 C137.8125 271.3475 137.8125 272.0075 137.8125 272.6875 C141.52725792 273.03532378 141.52725792 273.03532378 144.625 271.1875 C147.97474716 268.89053052 150.80963654 269.48735683 154.8125 269.6875 C155.245625 271.3890625 155.245625 271.3890625 155.6875 273.125 C156.05875 274.300625 156.43 275.47625 156.8125 276.6875 C160.10280051 278.33265026 163.78579624 278.11780016 167.41113281 278.3359375 C168.30267563 278.39299866 169.19421844 278.45005981 170.11277771 278.5088501 C173.08014219 278.69764608 176.04785784 278.8801518 179.015625 279.0625 C181.09000659 279.19287198 183.16436749 279.32357363 185.2387085 279.45458984 C189.60673034 279.72956541 193.97492029 280.00163421 198.34326172 280.27148438 C203.87906106 280.61352167 209.41450912 280.96087312 214.94984818 281.31027222 C219.24839441 281.58127892 223.5470689 281.85020431 227.84578705 282.11846924 C229.88187014 282.24560789 231.91792769 282.3731563 233.9539566 282.50115967 C245.48823972 283.22434194 257.02120936 283.86969697 268.56791306 284.36115265 C275.05938532 284.63879373 281.52726877 285.05375762 288 285.625 C294.75142942 286.21841369 301.48666007 286.7396553 308.2578125 287.05078125 C309.48733643 287.11595947 310.71686035 287.1811377 311.98364258 287.24829102 C314.36520852 287.37203983 316.74805105 287.47370223 319.1315918 287.55053711 C327.00867498 287.99434135 327.00867498 287.99434135 329.45458984 290.10351562 C330.57421875 291.765625 330.57421875 291.765625 331.8125 294.6875 C331.4825 295.3475 331.1525 296.0075 330.8125 296.6875 C330.55497574 300.20699821 330.89288924 303.23493506 331.75 306.625 C333.76850217 315.16369984 335.12085093 324.40389825 331.8125 332.6875 C331.090625 331.841875 330.36875 330.99625 329.625 330.125 C326.29844133 327.33447448 323.74859026 327.44155434 319.5 327.75 C315.01809006 328.28055304 310.71837958 329.10660183 306.3515625 330.21875 C301.5869113 331.09837791 296.70878269 331.15193323 291.875 331.34375 C290.864375 331.4571875 289.85375 331.570625 288.8125 331.6875 C288.4825 332.3475 288.1525 333.0075 287.8125 333.6875 C286.925625 333.666875 286.03875 333.64625 285.125 333.625 C282.11869329 333.68172277 279.74228108 334.08313259 276.8125 334.6875 C272.98547124 335.34481586 269.15128521 335.96014288 265.31835938 336.58203125 C264.54169922 336.70964844 263.76503906 336.83726562 262.96484375 336.96875 C262.26351318 337.08283203 261.56218262 337.19691406 260.83959961 337.31445312 C259.47323862 337.56590436 258.11468047 337.86353781 256.76757812 338.20336914 C253.68079211 338.96774185 250.52851405 339.25688406 247.375 339.625 C235.38721662 341.07224564 235.38721662 341.07224564 223.49853516 343.15795898 C220.69516631 343.71063186 217.88838871 344.17722047 215.06640625 344.625 C213.98166016 344.79773438 212.89691406 344.97046875 211.77929688 345.1484375 C210.65587891 345.32632812 209.53246094 345.50421875 208.375 345.6875 C206.14710892 346.04149996 203.91924351 346.39566149 201.69140625 346.75 C200.7072876 346.90597656 199.72316895 347.06195313 198.70922852 347.22265625 C196.80042849 347.52896516 194.89258769 347.84132192 192.98583984 348.16015625 C189.04709953 348.8146938 185.10398874 349.43949281 181.16015625 350.0625 C179.93261879 350.25658447 179.93261879 350.25658447 178.68028259 350.45458984 C176.95655411 350.72702289 175.2328039 350.99931854 173.5090332 351.27148438 C170.88679258 351.6856375 168.26468279 352.10061209 165.64257812 352.515625 C163.96094546 352.78130039 162.27930509 353.046927 160.59765625 353.3125 C159.82140396 353.43544434 159.04515167 353.55838867 158.24537659 353.68505859 C154.83521598 354.22275969 151.42540556 354.74253665 148.00732422 355.22851562 C143.59603541 355.86226337 139.2333752 356.72543231 134.86132812 357.58203125 C134.19681641 357.70964844 133.53230469 357.83726562 132.84765625 357.96875 C132.2637915 358.08283203 131.67992676 358.19691406 131.07836914 358.31445312 C124.68359738 359.36727192 118.42273709 359.86552418 111.953125 360.00390625 C111.10613037 360.02473267 110.25913574 360.04555908 109.38647461 360.0670166 C106.61190517 360.13301791 103.83724785 360.19201691 101.0625 360.25 C100.11161499 360.27117889 99.16072998 360.29235779 98.18103027 360.31417847 C76.39200565 360.79402389 54.60550954 360.79101839 32.8125 360.6875 C31.44304399 368.4948952 31.23879783 376.38512008 32.375 384.25 C32.8125 387.6875 32.8125 387.6875 32.34765625 389.453125 C31.5907343 392.61341225 31.68088276 395.6292426 31.6875 398.875 C31.68931274 399.87430542 31.68931274 399.87430542 31.69116211 400.89379883 C31.72032325 404.59187956 31.90437377 408.20778266 32.375 411.875 C32.8125 415.6875 32.8125 415.6875 32.34765625 417.4765625 C31.58508673 420.62703218 31.68090032 423.63785638 31.6875 426.875 C31.68931274 427.87430542 31.68931274 427.87430542 31.69116211 428.89379883 C31.72032325 432.59187956 31.90437377 436.20778266 32.375 439.875 C32.8125 443.6875 32.8125 443.6875 32.35168457 445.50436401 C31.61136684 448.50187981 31.65501804 451.34349311 31.62304688 454.43017578 C31.61475357 455.10100693 31.60646027 455.77183807 31.59791565 456.46299744 C31.5805378 457.92031649 31.56536482 459.37766313 31.55213928 460.83502579 C31.53091467 463.16969771 31.50388803 465.50424197 31.47546387 467.83883667 C31.41583343 472.83000559 31.36400103 477.82124172 31.3125 482.8125 C30.92140701 520.07074772 30.92140701 520.07074772 30.3828125 535.46875 C30.35070679 536.48454132 30.31860107 537.50033264 30.28552246 538.54690552 C29.99990005 545.78875862 28.98199142 552.65857803 27.3359375 559.7109375 C26.68538651 563.33332103 26.68538651 563.33332103 27.8125 566.6875 C29.75559303 568.51524742 29.75559303 568.51524742 32.3125 570.1875 C33.79169922 571.22003906 33.79169922 571.22003906 35.30078125 572.2734375 C35.85459473 572.65338867 36.4084082 573.03333984 36.97900391 573.42480469 C39.760163 575.34013822 42.51566429 577.29144017 45.2734375 579.24023438 C46.72085828 580.26231659 48.16998767 581.28198492 49.62109375 582.29882812 C51.00209822 583.26838671 52.37449874 584.2503221 53.73779297 585.24462891 C55.80140053 586.731383 55.80140053 586.731383 58.09423828 587.95458984 C60.44812957 589.36984159 62.09321527 590.53777445 63.8125 592.6875 C64.77411465 596.85786301 64.57285309 600.8117351 64.3125 605.0625 C64.27640625 606.18011719 64.2403125 607.29773438 64.203125 608.44921875 C64.10912041 611.19885294 63.97789009 613.94138846 63.8125 616.6875 C63.20921875 616.5438501 62.6059375 616.4002002 61.984375 616.25219727 C61.18515625 616.06713623 60.3859375 615.8820752 59.5625 615.69140625 C58.37914062 615.4140564 58.37914062 615.4140564 57.171875 615.13110352 C53.99609416 614.53400151 51.03559916 614.6203521 47.8125 614.6875 C47.4825 614.3575 47.1525 614.0275 46.8125 613.6875 C45.2326072 613.52468662 43.64784259 613.40872021 42.0625 613.3125 C35.47419068 612.78439636 29.20825918 611.30423404 22.8125 609.6875 C22.85439453 610.28699463 22.89628906 610.88648926 22.93945312 611.50415039 C23.98315683 628.62452432 23.98315683 628.62452432 21.13671875 633.640625 C17.98554503 636.38277982 16.03714295 637.6875 11.8125 637.6875 C11.8125 639.6675 11.8125 641.6475 11.8125 643.6875 C12.98167969 644.07035156 14.15085937 644.45320312 15.35546875 644.84765625 C22.99753433 647.39501144 30.57132729 650.14121183 38.15698242 652.85083008 C40.16287872 653.56696196 42.16916834 654.28197237 44.17578125 654.99609375 C45.14949677 655.34265266 45.14949677 655.34265266 46.1428833 655.69621277 C51.18354905 657.48230017 56.24982812 659.18008454 61.33618164 660.83105469 C64.35206453 661.8741107 67.2027932 663.16121115 70.09765625 664.49609375 C78.35820248 668.12122555 86.86804063 671.23114602 95.32421875 674.3671875 C96.03827881 674.63225098 96.75233887 674.89731445 97.48803711 675.17041016 C98.82743585 675.66568977 100.16801837 676.15778511 101.51000977 676.64599609 C111.42989503 680.30489503 111.42989503 680.30489503 113.8125 682.6875 C113.90101529 685.28109322 113.92775945 687.84789691 113.91015625 690.44140625 C113.90803383 691.60457619 113.90803383 691.60457619 113.90586853 692.79124451 C113.90025345 695.27753494 113.88769846 697.7637366 113.875 700.25 C113.86998694 701.93163933 113.8654237 703.61328006 113.86132812 705.29492188 C113.85027913 709.42581566 113.83300445 713.55664276 113.8125 717.6875 C111.39575776 717.71455308 108.9793206 717.73436438 106.5625 717.75 C105.88058594 717.75837891 105.19867188 717.76675781 104.49609375 717.77539062 C101.09478035 717.79190186 98.07030533 717.6710554 94.8125 716.6875 C91.5728467 716.11955711 88.31763398 715.65773756 85.0625 715.1875 C83.6707959 714.98568115 83.6707959 714.98568115 82.25097656 714.77978516 C75.05915704 713.77618933 67.92402839 713.2042512 60.671875 712.8984375 C57.8125 712.6875 57.8125 712.6875 56.8125 711.6875 C54.41353812 711.33694848 52.03049719 711.04318399 49.62109375 710.78515625 C48.8835939 710.70253036 48.14609406 710.61990448 47.38624573 710.53477478 C45.00793262 710.26907631 42.62901781 710.00930596 40.25 709.75 C37.16517491 709.40925134 34.08062399 709.0660623 30.99609375 708.72265625 C30.23533539 708.63851471 29.47457703 708.55437317 28.69076538 708.46768188 C22.07142022 707.73038446 15.46513951 706.90411308 8.85961914 706.05249023 C5.99301602 705.64785603 5.99301602 705.64785603 3.8125 705.6875 C3.9775 706.30625 4.1425 706.925 4.3125 707.5625 C5.0171655 711.96665936 4.87195778 716.22816679 4.8125 720.6875 C1.5125 720.6875 -1.7875 720.6875 -5.1875 720.6875 C-5.1875 715.7375 -5.1875 710.7875 -5.1875 705.6875 C-7.4975 706.0175 -9.8075 706.3475 -12.1875 706.6875 C-14.04044779 706.82942792 -15.89478716 706.95412874 -17.75 707.0625 C-24.76735885 707.57007016 -31.6951462 708.54129624 -38.65917969 709.52856445 C-45.67801136 710.51285435 -52.69913004 711.31870022 -59.75830078 711.95288086 C-63.50899608 712.31155852 -67.09883926 712.84974268 -70.76953125 713.7109375 C-74.70717555 714.6336564 -78.5158656 715.04007526 -82.5625 715.25 C-87.46162324 715.50780624 -87.46162324 715.50780624 -92.1875 716.6875 C-94.391864 716.91700319 -96.60142173 717.09825933 -98.8125 717.25 C-99.98039063 717.33378906 -101.14828125 717.41757812 -102.3515625 717.50390625 C-106.635897 717.70896096 -110.89955691 717.72608046 -115.1875 717.6875 C-115.26165168 712.90034377 -115.31610204 708.11352173 -115.35229492 703.32592773 C-115.36738243 701.69728777 -115.38785506 700.06868844 -115.41381836 698.44018555 C-115.45020449 696.09934465 -115.4672262 693.75904081 -115.48046875 691.41796875 C-115.49595261 690.68974411 -115.51143646 689.96151947 -115.52738953 689.21122742 C-115.52908194 684.12874468 -115.52908194 684.12874468 -113.95353699 682.09350586 C-111.90496021 680.46255987 -110.04256332 679.64902502 -107.59033203 678.72973633 C-106.19078781 678.19821709 -106.19078781 678.19821709 -104.76296997 677.65596008 C-103.75064301 677.28093857 -102.73831604 676.90591705 -101.6953125 676.51953125 C-100.63956024 676.12102463 -99.58380798 675.72251801 -98.49606323 675.31193542 C-95.10436549 674.03363083 -91.70858323 672.76660166 -88.3125 671.5 C-86.09476795 670.66677148 -83.87731691 669.83279462 -81.66015625 668.99804688 C-77.28074902 667.35002021 -72.89971347 665.70643131 -68.51757812 664.06567383 C-62.5779277 661.8387576 -56.65106142 659.57935361 -50.7265625 657.3125 C-43.99475777 654.73995614 -37.25385235 652.21663153 -30.4375 649.875 C-29.65375 649.60236328 -28.87 649.32972656 -28.0625 649.04882812 C-22.78520866 647.21837691 -17.4900774 645.44321079 -12.1875 643.6875 C-12.37578772 641.24269921 -12.37578772 641.24269921 -13.1875 638.6875 C-14.51232473 638.0040809 -15.84694775 637.33952905 -17.1875 636.6875 C-18.85546875 635.1015625 -18.85546875 635.1015625 -20.375 633.3125 C-21.13876953 632.43464844 -21.13876953 632.43464844 -21.91796875 631.5390625 C-24.90493613 627.18268546 -24.13753793 622.47994761 -23.75 617.4375 C-23.69779297 616.69242188 -23.64558594 615.94734375 -23.59179688 615.1796875 C-23.4626783 613.34855139 -23.32584886 611.51796187 -23.1875 609.6875 C-24.18523437 609.996875 -25.18296875 610.30625 -26.2109375 610.625 C-30.04886837 611.71989942 -33.84297716 612.24202249 -37.8125 612.6875 C-44.04483336 613.40787478 -50.22810198 614.28734372 -56.41796875 615.3203125 C-59.04724912 615.66890538 -61.53928412 615.75527883 -64.1875 615.6875 C-65.46807332 611.75357877 -65.37129459 607.77827625 -65.375 603.6875 C-65.38724609 602.9759375 -65.39949219 602.264375 -65.41210938 601.53125 C-65.4311892 594.71339277 -65.4311892 594.71339277 -63.1875 591.6875 C-61.1484375 589.93359375 -61.1484375 589.93359375 -58.5625 588.125 C-57.5828125 587.4340625 -56.603125 586.743125 -55.59375 586.03125 C-52.4523171 583.86216538 -49.30059718 581.70801437 -46.14868164 579.55419922 C-43.42916478 577.69111535 -40.72028155 575.81282768 -38.01123047 573.93457031 C-36.40142435 572.83378187 -34.76683817 571.76942224 -33.12890625 570.7109375 C-30.84666529 569.15146551 -28.9311075 567.83119874 -27.1875 565.6875 C-26.58645766 562.00020653 -27.51798356 559.02653288 -29.1875 555.6875 C-29.38899426 554.21267395 -29.55119902 552.7322732 -29.6875 551.25 C-29.94373248 548.47262294 -30.29637489 546.36087533 -31.1875 543.6875 C-31.25809028 542.1929273 -31.27172826 540.69529977 -31.25 539.19921875 C-31.24162109 538.28229248 -31.23324219 537.36536621 -31.22460938 536.4206543 C-31.21236328 535.41558838 -31.20011719 534.41052246 -31.1875 533.375 C-31.12651772 524.19231657 -31.31710462 515.04979377 -31.6875 505.875 C-32.2740748 490.99660958 -32.25090179 476.13276304 -32.15039062 461.24487305 C-32.14616089 460.34752441 -32.14193115 459.45017578 -32.13757324 458.52563477 C-32.12949112 456.84941864 -32.1172265 455.17321462 -32.09973145 453.49707031 C-32.07984225 448.83710651 -32.37657505 444.34010146 -33.01290894 439.72198486 C-33.24925268 436.96790476 -32.87280282 434.43810384 -32.45410156 431.71923828 C-31.97029531 428.03220929 -32.04360543 424.33778375 -32.0625 420.625 C-32.05863281 419.86123047 -32.05476563 419.09746094 -32.05078125 418.31054688 C-32.05689815 414.7352211 -32.22633538 411.42815417 -32.7578125 407.87890625 C-33.17394819 404.78815298 -32.92091264 403.58949484 -32.1875 400.6875 C-31.96469571 396.89870375 -32.00235989 393.10720681 -32 389.3125 C-31.98775391 388.28382813 -31.97550781 387.25515625 -31.96289062 386.1953125 C-31.95263613 380.8903209 -32.25453029 376.69527806 -34.1875 371.6875 C-33.8575 371.0275 -33.5275 370.3675 -33.1875 369.6875 C-32.8822378 365.03474024 -32.8822378 365.03474024 -34.1875 360.6875 C-35.13946762 360.69194122 -36.09143524 360.69638245 -37.07225037 360.70095825 C-46.11736797 360.74179753 -55.16246646 360.77162341 -64.20765591 360.79112434 C-68.85600617 360.80148751 -73.50428101 360.81550723 -78.15258789 360.83837891 C-82.65246873 360.86037746 -87.1522778 360.87212448 -91.65220833 360.87725449 C-93.35468739 360.88090245 -95.05716329 360.88802306 -96.75961113 360.89896011 C-111.76485165 360.99137704 -126.2109308 359.86630923 -140.84375 356.37109375 C-143.33388758 355.86201188 -145.65341035 355.50533279 -148.16796875 355.25390625 C-156.13894825 354.43600423 -164.01894271 352.88383686 -171.90820312 351.50390625 C-179.66152545 350.17835089 -187.33555852 349.17887661 -195.1875 348.6875 C-195.1875 348.0275 -195.1875 347.3675 -195.1875 346.6875 C-195.8475 346.89375 -196.5075 347.1 -197.1875 347.3125 C-200.56184589 347.73429324 -202.80688252 347.19683816 -206.02734375 346.2578125 C-208.72472228 345.54566555 -211.43402923 345.1367351 -214.1875 344.6875 C-216.07436385 344.36412678 -217.96108039 344.03989295 -219.84765625 343.71484375 C-221.98175216 343.35145281 -224.11586729 342.98817472 -226.25 342.625 C-227.86358398 342.3455957 -227.86358398 342.3455957 -229.50976562 342.06054688 C-230.54939453 341.88458984 -231.58902344 341.70863281 -232.66015625 341.52734375 C-233.60125244 341.36613037 -234.54234863 341.20491699 -235.51196289 341.03881836 C-238.17955655 340.62846078 -238.17955655 340.62846078 -240.86108398 340.69360352 C-243.1875 340.6875 -243.1875 340.6875 -245.9375 339.75 C-249.15428347 338.69835925 -252.14194466 338.33970663 -255.49414062 337.9934082 C-260.70534207 337.40152682 -265.88085018 336.55570162 -271.0625 335.75 C-272.16980469 335.58048828 -273.27710938 335.41097656 -274.41796875 335.23632812 C-280.44123134 334.30558896 -286.44338939 333.30189706 -292.43652344 332.1940918 C-297.40943109 331.27833182 -302.39105258 330.41580742 -307.375 329.5625 C-308.40302734 329.38074219 -309.43105469 329.19898438 -310.49023438 329.01171875 C-320.71208129 326.84620608 -320.71208129 326.84620608 -330.1875 329.6875 C-330.8475 330.3475 -331.5075 331.0075 -332.1875 331.6875 C-334.52383648 329.35116352 -334.12243028 324.82304691 -334.1875 321.6875 C-333.97007134 318.91800245 -333.71322374 316.19133841 -333.375 313.4375 C-333.2927417 312.75228271 -333.2104834 312.06706543 -333.12573242 311.36108398 C-332.72037244 308.35878362 -332.2048216 305.72949895 -331.046875 302.921875 C-329.85275991 300.50030011 -329.85275991 300.50030011 -331.25 297.1875 C-332.1875 293.6875 -332.1875 293.6875 -330.9375 290.8125 C-329.1875 288.6875 -329.1875 288.6875 -327.1875 287.6875 C-325.29182498 287.55631206 -323.39190483 287.48462795 -321.4921875 287.44140625 C-320.31454834 287.40990479 -319.13690918 287.37840332 -317.92358398 287.34594727 C-316.01234741 287.29845337 -316.01234741 287.29845337 -314.0625 287.25 C-304.8912984 286.98020929 -295.76495333 286.59306801 -286.625 285.75 C-274.64778819 284.64546727 -262.65654078 284.00151322 -250.64624023 283.38500977 C-241.89891999 282.95087488 -241.89891999 282.95087488 -233.17578125 282.1875 C-226.67469844 281.47999699 -220.14293984 281.20606752 -213.61434937 280.87127686 C-209.54213068 280.66239661 -205.4703158 280.44586519 -201.3984375 280.23046875 C-200.1444944 280.16445465 -200.1444944 280.16445465 -198.86521912 280.09710693 C-189.70024991 279.61292443 -180.53756528 279.08994932 -171.375 278.5625 C-170.60253937 278.51811798 -169.83007874 278.47373596 -169.03421021 278.42800903 C-164.75192736 278.18196808 -160.4696899 277.93515431 -156.1875 277.6875 C-155.9709375 275.9859375 -155.9709375 275.9859375 -155.75 274.25 C-155.1875 270.6875 -155.1875 270.6875 -154.1875 269.6875 C-149.16162851 269.30818894 -147.09771425 269.68966907 -143.1875 272.6875 C-138.0757192 272.37828075 -133.7686142 269.52927515 -129.375 267.125 C-126.673125 265.660625 -123.97125 264.19625 -121.1875 262.6875 C-121.1875 253.4475 -121.1875 244.2075 -121.1875 234.6875 C-123.1675 233.6975 -125.1475 232.7075 -127.1875 231.6875 C-126.49938561 224.46229889 -125.7621011 219.43058773 -120.58203125 214.1875 C-116.56733948 209.86917607 -116.66000711 203.2829789 -116.1875 197.6875 C-116.991875 197.8525 -117.79625 198.0175 -118.625 198.1875 C-121.41894647 198.57963284 -124.06361319 198.84562461 -126.875 198.9375 C-127.99455078 198.97617187 -127.99455078 198.97617187 -129.13671875 199.015625 C-131.70238788 198.60511794 -132.55866346 197.65244567 -134.1875 195.6875 C-133.8575 195.0275 -133.5275 194.3675 -133.1875 193.6875 C-126.9175 193.6875 -120.6475 193.6875 -114.1875 193.6875 C-113.630625 192.140625 -113.07375 190.59375 -112.5 189 C-110.67286568 184.47076562 -109.19905995 181.52494484 -105.1875 178.6875 C-102.765625 178.6328125 -102.765625 178.6328125 -100.1875 179.6875 C-98.66045132 182.07702105 -97.50931167 184.18840874 -96.375 186.75 C-96.06369141 187.41322266 -95.75238281 188.07644531 -95.43164062 188.75976562 C-94.6670902 190.3947273 -93.9250695 192.0401906 -93.1875 193.6875 C-90.39576945 193.71440104 -87.60429652 193.73429053 -84.8125 193.75 C-84.0184375 193.75837891 -83.224375 193.76675781 -82.40625 193.77539062 C-78.16357778 193.91790151 -78.16357778 193.91790151 -74.1875 192.6875 C-73.8575 194.3375 -73.5275 195.9875 -73.1875 197.6875 C-77.01560821 198.96353607 -80.42225107 198.55033987 -84.375 198.25 C-85.12458984 198.19779297 -85.87417969 198.14558594 -86.64648438 198.09179688 C-88.49387082 197.96236216 -90.34074371 197.82563482 -92.1875 197.6875 C-91.0195753 207.93365436 -91.0195753 207.93365436 -85.0625 215.875 C-84.35867188 216.36355469 -83.65484375 216.85210937 -82.9296875 217.35546875 C-81.1875 218.6875 -81.1875 218.6875 -80.1875 221.6875 C-80.118509 223.74895107 -80.10282273 225.81251401 -80.125 227.875 C-80.13402344 228.96167969 -80.14304687 230.04835937 -80.15234375 231.16796875 C-80.16974609 232.41513672 -80.16974609 232.41513672 -80.1875 233.6875 C-85.0625 231.8125 -85.0625 231.8125 -86.1875 230.6875 C-86.5175 242.5675 -86.8475 254.4475 -87.1875 266.6875 C-86.5275 266.3575 -85.8675 266.0275 -85.1875 265.6875 C-82.50396984 265.40249033 -79.83470539 265.16720475 -77.14453125 264.96875 C-76.3427092 264.90594849 -75.54088715 264.84314697 -74.71476746 264.77844238 C-72.14346575 264.57752212 -69.57178476 264.38213194 -67 264.1875 C-64.44612707 263.9922166 -61.89236639 263.79569384 -59.33879089 263.59655762 C-57.74954917 263.47282084 -56.1601282 263.35135794 -54.57051086 263.23254395 C-50.0764434 262.88492255 -45.64665669 262.36582471 -41.1875 261.6875 C-39.54268294 261.49128471 -37.89695641 261.30236454 -36.25 261.125 C-35.09177734 260.99931641 -35.09177734 260.99931641 -33.91015625 260.87109375 C-33.34167969 260.81050781 -32.77320313 260.74992187 -32.1875 260.6875 C-32.09382184 253.95308113 -32.01178225 247.3537653 -33.06640625 240.6875 C-33.1875 238.6875 -33.1875 238.6875 -32.7265625 236.40625 C-32.04459906 232.9667822 -32.01752483 229.69246509 -32 226.1875 C-31.98582031 224.8984375 -31.97164063 223.609375 -31.95703125 222.28125 C-31.97122248 218.77350074 -31.97122248 218.77350074 -33.32421875 216.15625 C-34.1875 213.6875 -34.1875 213.6875 -33.25585938 210.78027344 C-31.64218067 205.51603537 -31.9211084 200.19313765 -31.95703125 194.734375 C-31.95748947 193.59720032 -31.95794769 192.46002563 -31.9584198 191.28839111 C-31.96143095 188.89472403 -31.96928302 186.5010587 -31.98168945 184.10742188 C-32.00000685 180.43612772 -32.00219854 176.76508521 -32.00195312 173.09375 C-32.00686652 170.76562281 -32.01269405 168.43749733 -32.01953125 166.109375 C-32.02120049 164.45938507 -32.02120049 164.45938507 -32.02290344 162.77606201 C-32.03247322 161.24867401 -32.03247322 161.24867401 -32.04223633 159.69042969 C-32.04604813 158.79443054 -32.04985992 157.8984314 -32.05378723 156.97528076 C-32.09746913 154.52369882 -32.09746913 154.52369882 -33.1875 151.6875 C-33.28343234 149.51599003 -33.31824336 147.34159573 -33.3203125 145.16796875 C-33.32172241 144.52123199 -33.32313232 143.87449524 -33.32458496 143.2081604 C-33.32672537 141.09705184 -33.32041218 138.98609346 -33.3125 136.875 C-33.31017365 135.79646255 -33.31017365 135.79646255 -33.30780029 134.69613647 C-33.22460902 101.87169493 -33.22460902 101.87169493 -30.71875 87.7578125 C-30.10735487 84.22430828 -29.68148849 80.68478002 -29.25 77.125 C-28.50099337 71.37667133 -27.38314072 65.86722786 -25.87109375 60.2734375 C-25.2050396 57.7538498 -24.68475752 55.24536252 -24.1875 52.6875 C-22.06006836 42.50855782 -19.38653342 32.88836377 -15.55859375 23.21484375 C-14.46570682 20.40322866 -13.53396434 17.63999954 -12.6875 14.75 C-10.67978165 8.4728565 -7.00581811 0.71583736 0 0 Z " fill="#000000" transform="translate(360.1875,-0.6875)"/>
</svg>
