<?xml version="1.0" encoding="UTF-8"?>
<svg version="1.1" xmlns="http://www.w3.org/2000/svg" width="1112" height="502">
<path d="M0 0 C0.83144531 0.27714844 1.66289063 0.55429688 2.51953125 0.83984375 C2.84953125 1.82984375 3.17953125 2.81984375 3.51953125 3.83984375 C5.1840636 4.51182163 6.85131439 5.1770657 8.51953125 5.83984375 C11.03101383 7.50666403 13.38985373 9.36635731 15.76953125 11.21484375 C21.54426891 15.62627882 27.38022706 19.92017674 33.33203125 24.08984375 C38.76097881 27.89757556 44.16279391 31.73392438 49.515625 35.6484375 C54.29534267 39.13533166 59.09677978 42.59212612 63.89501953 46.0534668 C68.05049325 49.0524108 72.1969999 52.06273442 76.33203125 55.08984375 C80.18719677 57.90004097 84.09053145 60.63429306 88.01953125 63.33984375 C92.86121347 66.67387718 97.6426832 70.07919838 102.38671875 73.55078125 C106.3584214 76.4527984 110.34435449 79.33483187 114.33203125 82.21484375 C115.11151123 82.7778418 115.89099121 83.34083984 116.6940918 83.92089844 C121.84804811 87.64054707 127.01454309 91.34205964 132.19067383 95.03076172 C137.76074116 99.00379442 143.30359986 103.01422893 148.84765625 107.0234375 C153.39475288 110.31002945 157.95052293 113.58379185 162.51953125 116.83984375 C170.10190935 122.24465626 177.64664988 127.70123987 185.19189453 133.15771484 C187.50695159 134.83075272 189.82352939 136.50166183 192.140625 138.171875 C199.20317593 143.26407658 206.25570469 148.36817882 213.26953125 153.52734375 C219.73267799 158.28026084 226.24774259 162.9565774 232.78564453 167.60595703 C235.69987386 169.67981158 238.60945146 171.76017268 241.51953125 173.83984375 C242.68617593 174.67320787 243.85284259 175.50654121 245.01953125 176.33984375 C247.35286458 178.00651042 249.68619792 179.67317708 252.01953125 181.33984375 C252.59670898 181.75210205 253.17388672 182.16436035 253.76855469 182.58911133 C254.93852053 183.42482452 256.10844221 184.26059954 257.27832031 185.09643555 C260.14415584 187.14385918 263.01067905 189.19030293 265.87890625 191.234375 C273.21651425 196.46581774 280.52919978 201.73082591 287.83129883 207.01171875 C293.10173884 210.82143124 298.38770329 214.60859193 303.68359375 218.3828125 C307.14257212 220.85005581 310.58667283 223.33640552 314.01953125 225.83984375 C319.89060012 230.12065239 325.80446885 234.34029373 331.72119141 238.55761719 C334.65538486 240.64971385 337.58739067 242.74487137 340.51953125 244.83984375 C343.97154356 247.30625166 347.42391582 249.77213999 350.87890625 252.234375 C357.52693253 256.97431392 364.15480747 261.74101917 370.76953125 266.52734375 C375.33223466 269.82845494 379.89451233 273.12625302 384.51953125 276.33984375 C391.45736641 281.16306477 398.27899733 286.15014477 405.12304688 291.10498047 C419.3724362 301.42040025 433.6431328 311.70200139 448.01953125 321.83984375 C458.71357501 329.38209753 469.36602512 336.97123958 479.90576172 344.72802734 C484.7497692 348.28835397 489.63050391 351.79426574 494.52905273 355.27905273 C498.06503274 357.79572342 501.58026554 360.33809853 505.08203125 362.90234375 C510.17800178 366.62428963 515.3638248 370.20277644 520.57421875 373.76171875 C522.48671625 375.11112017 524.3618661 376.51568489 526.1875 377.98046875 C528.57561882 379.88456349 531.07361444 381.35077493 533.7421875 382.828125 C540.16238839 386.48270089 540.16238839 386.48270089 542.51953125 388.83984375 C542.85546875 391.1328125 542.85546875 391.1328125 542.51953125 393.83984375 C540.62109375 396.078125 540.62109375 396.078125 538.14453125 398.15234375 C537.33242187 398.84972656 536.5203125 399.54710937 535.68359375 400.265625 C533.51953125 401.83984375 533.51953125 401.83984375 531.51953125 401.83984375 C531.18953125 402.82984375 530.85953125 403.81984375 530.51953125 404.83984375 C528.87980024 405.79038191 527.23506521 406.73339964 525.56542969 407.63037109 C521.76761329 409.87552413 518.5037763 412.80915006 515.14453125 415.65234375 C513.64266667 416.90713574 512.14006979 418.1610518 510.63671875 419.4140625 C509.92483398 420.00880371 509.21294922 420.60354492 508.47949219 421.21630859 C504.89760118 424.18337077 501.21580449 427.01768918 497.51953125 429.83984375 C493.96225432 432.39416011 493.96225432 432.39416011 491.51953125 435.83984375 C488.95703125 436.46484375 488.95703125 436.46484375 486.51953125 436.83984375 C486.51953125 437.49984375 486.51953125 438.15984375 486.51953125 438.83984375 C485.06665039 440.13671875 485.06665039 440.13671875 483.0546875 441.58984375 C482.33732422 442.11578125 481.61996094 442.64171875 480.88085938 443.18359375 C480.12224609 443.73015625 479.36363281 444.27671875 478.58203125 444.83984375 C477.09110019 445.91952739 475.60268643 447.00269835 474.1171875 448.08984375 C473.45211182 448.569375 472.78703613 449.04890625 472.10180664 449.54296875 C470.38378685 450.77111039 470.38378685 450.77111039 469.51953125 452.83984375 C466.87953125 452.83984375 464.23953125 452.83984375 461.51953125 452.83984375 C461.51953125 452.17984375 461.51953125 451.51984375 461.51953125 450.83984375 C460.81441406 450.60136719 460.10929687 450.36289062 459.3828125 450.1171875 C456.02792092 448.62053055 453.5728303 446.70160486 450.70703125 444.40234375 C445.60428231 440.37436878 440.3830775 436.57591242 435.01953125 432.90234375 C434.01442505 432.21217163 434.01442505 432.21217163 432.98901367 431.50805664 C430.29626886 429.67343557 427.62559397 427.90095173 424.80078125 426.2734375 C422.32552662 424.71792646 420.5742486 422.91042765 418.51953125 420.83984375 C416.75659771 419.58996207 414.96155118 418.3847059 413.14453125 417.21484375 C406.12677459 412.61611892 399.31851455 407.75435907 392.51953125 402.83984375 C391.55917969 402.14761719 390.59882812 401.45539063 389.609375 400.7421875 C383.76299515 396.51092266 377.98767418 392.19227064 372.24609375 387.8203125 C369.7350248 385.99636986 367.18272712 384.42791278 364.51953125 382.83984375 C362.44161016 381.39892926 360.38176553 379.94459685 358.33203125 378.46484375 C357.43713989 377.82216553 357.43713989 377.82216553 356.52416992 377.16650391 C354.52094627 375.72659893 352.5200894 374.28344949 350.51953125 372.83984375 C349.41544922 372.04416992 349.41544922 372.04416992 348.2890625 371.23242188 C345.96948902 369.56067494 343.65061008 367.88796987 341.33203125 366.21484375 C340.56793945 365.6636084 339.80384766 365.11237305 339.01660156 364.54443359 C335.67879862 362.13363807 332.34534869 359.71814011 329.03515625 357.26953125 C328.060625 356.55023438 327.08609375 355.8309375 326.08203125 355.08984375 C324.84646484 354.16945313 324.84646484 354.16945313 323.5859375 353.23046875 C321.47610136 351.67686083 321.47610136 351.67686083 318.51953125 350.83984375 C318.51953125 350.17984375 318.51953125 349.51984375 318.51953125 348.83984375 C316.53953125 348.17984375 314.55953125 347.51984375 312.51953125 346.83984375 C312.51953125 346.17984375 312.51953125 345.51984375 312.51953125 344.83984375 C311.97167969 344.58460938 311.42382812 344.329375 310.859375 344.06640625 C307.13819037 342.11573518 303.74240892 339.66489251 300.2734375 337.30078125 C297.22923052 335.68584024 295.90005876 335.54543013 292.51953125 335.83984375 C290.27536304 336.70169815 290.27536304 336.70169815 288.09765625 338.0078125 C287.24985596 338.48234863 286.40205566 338.95688477 285.52856445 339.44580078 C284.16284302 340.22866455 284.16284302 340.22866455 282.76953125 341.02734375 C280.79034349 342.13510429 278.80982201 343.24048459 276.828125 344.34375 C275.7954248 344.92012207 274.76272461 345.49649414 273.69873047 346.09033203 C268.45784291 348.9743898 263.14693859 351.72028056 257.83203125 354.46484375 C255.72391746 355.55591062 253.61584396 356.64705532 251.5078125 357.73828125 C250.4967041 358.26131836 249.4855957 358.78435547 248.44384766 359.32324219 C244.12692136 361.56207556 239.8218591 363.82311221 235.51953125 366.08984375 C234.76591309 366.48623047 234.01229492 366.88261719 233.23583984 367.29101562 C229.36239631 369.33100112 225.49729654 371.38550033 221.640625 373.45703125 C220.85365234 373.87823242 220.06667969 374.29943359 219.25585938 374.73339844 C217.75914763 375.53516289 216.26425259 376.34033102 214.77148438 377.14941406 C209.74314718 379.83984375 209.74314718 379.83984375 207.51953125 379.83984375 C207.18953125 380.49984375 206.85953125 381.15984375 206.51953125 381.83984375 C204.97842426 382.79825373 203.39232161 383.68479122 201.7890625 384.53515625 C200.79084473 385.06657227 199.79262695 385.59798828 198.76416016 386.14550781 C192.66030366 389.33292422 186.54099619 392.48935604 180.41543579 395.63482666 C172.51838414 399.69598438 164.75197812 403.8749946 157.21875 408.58203125 C153.97883272 410.09180457 152.07461128 410.11581879 148.51953125 409.83984375 C145.66137695 408.71337891 145.66137695 408.71337891 142.6953125 407.12890625 C141.0414856 406.25745972 141.0414856 406.25745972 139.35424805 405.3684082 C138.18005612 404.73410818 137.00598623 404.0995822 135.83203125 403.46484375 C134.62407261 402.82329634 133.41548932 402.18292376 132.20629883 401.54370117 C129.78281779 400.26030985 127.36297419 398.97045856 124.94628906 397.67431641 C121.01830568 395.5715188 117.0767912 393.49554979 113.1315918 391.42529297 C110.20298665 389.88770891 107.27942224 388.34067829 104.35693359 386.79150391 C102.61365064 385.88859174 100.84243026 385.04022935 99.0703125 384.1953125 C96.51953125 382.83984375 96.51953125 382.83984375 95.51953125 380.83984375 C94.19414466 380.47619657 92.85904991 380.14738017 91.51953125 379.83984375 C90.2226549 379.21606166 88.94661242 378.54763197 87.69140625 377.84375 C86.61439453 377.25303711 86.61439453 377.25303711 85.515625 376.65039062 C84.03182202 375.82591228 82.55000442 374.99784953 81.0703125 374.16601562 C76.25235066 371.53374236 72.01943717 369.42737079 66.51953125 368.83984375 C63.5201021 369.92934782 61.14043333 371.64495829 58.58203125 373.52734375 C57.08770456 374.56056864 55.59289901 375.59310126 54.09765625 376.625 C53.34033203 377.16012207 52.58300781 377.69524414 51.80273438 378.24658203 C48.21038035 380.75339366 44.52103218 383.1037148 40.83203125 385.46484375 C39.4136577 386.38218691 37.99568319 387.30014738 36.578125 388.21875 C34.01153522 389.87827191 31.44167111 391.53243946 28.8671875 393.1796875 C22.6122916 397.18191563 16.38935838 401.22639402 10.20703125 405.33984375 C9.55395996 405.77369385 8.90088867 406.20754395 8.22802734 406.65454102 C5.22931244 408.56385946 5.22931244 408.56385946 2.51953125 410.83984375 C-4.89009292 412.09486139 -9.45859246 408.10720195 -15.35546875 404.02734375 C-17.41383964 402.64289777 -19.47243512 401.25878564 -21.53125 399.875 C-22.5413916 399.18809082 -23.5515332 398.50118164 -24.59228516 397.79345703 C-28.53816338 395.12440229 -32.53477333 392.53893139 -36.54296875 389.96484375 C-37.89857989 389.08876196 -39.25405218 388.21246527 -40.609375 387.3359375 C-43.17734462 385.67862277 -45.74778867 384.02523616 -48.3203125 382.375 C-48.93326172 381.9816748 -49.54621094 381.58834961 -50.17773438 381.18310547 C-51.35677093 380.42720636 -52.5364337 379.67228289 -53.71679688 378.91845703 C-57.72036718 376.35462318 -61.64457378 373.69315502 -65.515625 370.93359375 C-68.03943758 369.52868814 -69.56097695 368.94381426 -72.48046875 368.83984375 C-75.23934059 370.04333875 -77.69942065 371.28574364 -80.29296875 372.77734375 C-81.83241373 373.6279685 -83.37279861 374.47689418 -84.9140625 375.32421875 C-85.6860498 375.75283203 -86.45803711 376.18144531 -87.25341797 376.62304688 C-90.41100128 378.34826012 -93.6256244 379.94285945 -96.85546875 381.52734375 C-103.65606794 384.8935967 -110.40225676 388.36189881 -117.13861084 391.85479736 C-118.90979623 392.77310653 -120.68170327 393.69002339 -122.45361328 394.60693359 C-127.57646592 397.26442689 -132.68812031 399.93488509 -137.75 402.70703125 C-138.51965088 403.12605713 -139.28930176 403.54508301 -140.08227539 403.97680664 C-141.45779353 404.72951943 -142.82859705 405.49095326 -144.19311523 406.26342773 C-148.3678785 408.54446104 -151.69736897 409.97006427 -156.48046875 409.83984375 C-160.34913098 408.22500718 -163.84739174 406.08694984 -167.41796875 403.90234375 C-169.48261283 402.68580646 -171.54902597 401.47226658 -173.6171875 400.26171875 C-174.62185059 399.66939453 -175.62651367 399.07707031 -176.66162109 398.46679688 C-180.28279262 396.37676682 -183.97072797 394.47812937 -187.73046875 392.65234375 C-201.7925726 385.77138586 -215.53207248 378.28151398 -229.28393555 370.8046875 C-239.05549227 365.50401654 -248.90957677 360.36803456 -258.77587891 355.24658203 C-263.01745468 353.04041128 -267.24975713 350.81676078 -271.48046875 348.58984375 C-272.63264893 347.98438721 -272.63264893 347.98438721 -273.80810547 347.36669922 C-277.50033315 345.42329609 -281.18336373 343.46498606 -284.8515625 341.4765625 C-285.53927734 341.10499023 -286.22699219 340.73341797 -286.93554688 340.35058594 C-288.2137471 339.65859478 -289.48995421 338.96290307 -290.76367188 338.26269531 C-294.91248226 335.86419993 -294.91248226 335.86419993 -299.48046875 334.83984375 C-301.80999715 336.06828195 -301.80999715 336.06828195 -304.16796875 338.02734375 C-305.13863281 338.76855469 -306.10929688 339.50976562 -307.109375 340.2734375 C-307.9139917 340.8919458 -307.9139917 340.8919458 -308.73486328 341.52294922 C-311.96625972 343.96073277 -315.29156437 346.26621908 -318.60546875 348.58984375 C-320.06651096 349.61964312 -321.52744686 350.64959334 -322.98828125 351.6796875 C-326.0011604 353.80081234 -329.0173085 355.91720165 -332.03515625 358.03125 C-338.64799047 362.6707488 -345.20362019 367.31780403 -351.53125 372.34375 C-354.24132826 374.42383011 -357.08426827 376.27023055 -359.94140625 378.140625 C-362.93702318 380.14538403 -365.86672098 382.23597539 -368.79296875 384.33984375 C-374.71728027 388.59753033 -380.68508894 392.78990066 -386.66796875 396.96484375 C-392.86996062 401.29495119 -399.03610419 405.6609114 -405.13671875 410.1328125 C-408.25149942 412.40141108 -411.40961887 414.60462355 -414.5703125 416.80859375 C-424.55424807 423.77724677 -434.48687584 430.80603669 -444.28759766 438.03051758 C-448.61690636 441.2182295 -452.97576025 444.35592435 -457.40625 447.40234375 C-458.69240226 448.29368844 -459.96416017 449.20670677 -461.2109375 450.15234375 C-463.55939241 451.89104558 -465.50518227 452.84575351 -468.35546875 453.52734375 C-472.40727762 452.6359458 -474.24561163 450.77209495 -477.22265625 447.96484375 C-484.10932802 441.48327031 -491.69614971 435.84437231 -499.4609375 430.46875 C-500.46060547 429.66244141 -500.46060547 429.66244141 -501.48046875 428.83984375 C-501.48046875 428.17984375 -501.48046875 427.51984375 -501.48046875 426.83984375 C-502.53041016 426.49953125 -502.53041016 426.49953125 -503.6015625 426.15234375 C-507.0791103 424.56692169 -509.70305328 422.34039825 -512.54296875 419.83984375 C-515.70419387 417.07722504 -518.66249829 414.64439871 -522.48046875 412.83984375 C-524.14713542 411.17317708 -525.81380208 409.50651042 -527.48046875 407.83984375 C-528.80567378 407.15716237 -530.13859057 406.48913965 -531.48046875 405.83984375 C-532.83355188 404.52655718 -534.16916953 403.19485294 -535.48046875 401.83984375 C-536.14046875 401.50984375 -536.80046875 401.17984375 -537.48046875 400.83984375 C-537.48046875 400.17984375 -537.48046875 399.51984375 -537.48046875 398.83984375 C-538.14046875 398.83984375 -538.80046875 398.83984375 -539.48046875 398.83984375 C-539.48046875 398.17984375 -539.48046875 397.51984375 -539.48046875 396.83984375 C-540.68703125 396.49953125 -540.68703125 396.49953125 -541.91796875 396.15234375 C-542.76359375 395.71921875 -543.60921875 395.28609375 -544.48046875 394.83984375 C-545.140625 392.2578125 -545.140625 392.2578125 -545.48046875 389.83984375 C-538.72916531 385.00372782 -531.97053409 380.17916713 -525.17675781 375.40283203 C-518.37343284 370.618709 -511.62204872 365.77441029 -504.92724609 360.83959961 C-500.29978981 357.43115172 -495.63649102 354.07688267 -490.95361328 350.74511719 C-486.1741722 347.34244246 -481.41970443 343.90607083 -476.66796875 340.46484375 C-470.73874492 336.17261498 -464.78199071 331.92319748 -458.79296875 327.71484375 C-452.79095884 323.49616981 -446.84945728 319.20445545 -440.94384766 314.85205078 C-432.89156966 308.92184551 -424.75592209 303.10804235 -416.54296875 297.40234375 C-411.63279244 293.98058992 -406.82028114 290.43099107 -402.00146484 286.88256836 C-397.80938876 283.80053206 -393.57735316 280.78817948 -389.30078125 277.82421875 C-386.29038853 275.7061031 -383.31308744 273.54604061 -380.3359375 271.3815918 C-373.18925484 266.18670226 -365.98495563 261.10479319 -358.66796875 256.15234375 C-352.03656581 251.65979987 -345.63106584 246.98332693 -339.328125 242.04296875 C-335.93862335 239.42063826 -332.45266381 236.97159083 -328.92578125 234.5390625 C-326.33325281 232.73754513 -323.77993037 230.88926834 -321.23046875 229.02734375 C-317.14395037 226.04389956 -313.03865647 223.08833375 -308.91796875 220.15234375 C-303.50848144 216.29613495 -298.1149801 212.41834947 -292.73046875 208.52734375 C-291.97378906 207.98062012 -291.21710938 207.43389648 -290.4375 206.87060547 C-286.5999393 204.0969631 -282.76402394 201.32106649 -278.9296875 198.54296875 C-271.64236857 193.26651507 -264.33899632 188.01664591 -256.98046875 182.83984375 C-245.44573774 174.72385316 -234.02166268 166.45696485 -222.66796875 158.08984375 C-218.23807108 154.82570862 -213.77138923 151.6367004 -209.23046875 148.52734375 C-202.90327154 144.18469179 -196.73802186 139.63778497 -190.57055664 135.07202148 C-184.14017376 130.31465693 -177.65616347 125.64022975 -171.13232422 121.01220703 C-156.49145632 110.62121565 -141.91849596 100.13605771 -127.48046875 89.46484375 C-121.99886867 85.41413069 -116.50393205 81.39803178 -110.8984375 77.51953125 C-107.90828309 75.44236421 -104.94279745 73.33138453 -101.98046875 71.21484375 C-101.39523437 70.7967041 -100.81 70.37856445 -100.20703125 69.94775391 C-94.57981277 65.92081318 -88.97705395 61.86019219 -83.37182617 57.80273438 C-78.20503769 54.0689459 -73.00872386 50.3798399 -67.79296875 46.71484375 C-61.79013088 42.49558786 -55.84720528 38.20406127 -49.94165039 33.84985352 C-45.73024748 30.74727568 -41.49158338 27.68625271 -37.23046875 24.65234375 C-33.18094718 21.76726247 -29.13315291 18.88040616 -25.10546875 15.96484375 C-24.23792969 15.33964844 -23.37039063 14.71445312 -22.4765625 14.0703125 C-20.09680236 12.29867881 -17.77167606 10.48995192 -15.453125 8.640625 C-14.39134033 7.80797119 -14.39134033 7.80797119 -13.30810547 6.95849609 C-11.90634885 5.85736718 -10.51547787 4.74220396 -9.13720703 3.61181641 C-4.2526357 -0.19568806 -4.2526357 -0.19568806 0 0 Z " fill="#010101" transform="translate(569.48046875,9.16015625)"/>
<path d="M0 0 C4.26365786 1.45245487 7.33792336 3.60964917 10.875 6.375 C15.1028902 9.63214181 19.30457195 12.46446885 24 15 C29.43209877 18.43209877 29.43209877 18.43209877 31 20 C31.3359375 22.29296875 31.3359375 22.29296875 31 25 C29.1015625 27.23828125 29.1015625 27.23828125 26.625 29.3125 C25.81289062 30.00988281 25.00078125 30.70726562 24.1640625 31.42578125 C22 33 22 33 20 33 C19.67 33.99 19.34 34.98 19 36 C17.36026899 36.95053816 15.71553396 37.89355589 14.04589844 38.79052734 C10.24808204 41.03568038 6.98424505 43.96930631 3.625 46.8125 C2.12313542 48.06729199 0.62053854 49.32120805 -0.8828125 50.57421875 C-1.95063965 51.46633057 -1.95063965 51.46633057 -3.04003906 52.37646484 C-6.62193007 55.34352702 -10.30372676 58.17784543 -14 61 C-17.55727693 63.55431636 -17.55727693 63.55431636 -20 67 C-22.5625 67.625 -22.5625 67.625 -25 68 C-25 68.66 -25 69.32 -25 70 C-26.45288086 71.296875 -26.45288086 71.296875 -28.46484375 72.75 C-29.18220703 73.2759375 -29.89957031 73.801875 -30.63867188 74.34375 C-31.39728516 74.8903125 -32.15589844 75.436875 -32.9375 76 C-34.42843106 77.07968364 -35.91684482 78.1628546 -37.40234375 79.25 C-38.06741943 79.72953125 -38.73249512 80.2090625 -39.41772461 80.703125 C-41.1357444 81.93126664 -41.1357444 81.93126664 -42 84 C-44.64 84 -47.28 84 -50 84 C-50 83.34 -50 82.68 -50 82 C-50.78375 81.731875 -51.5675 81.46375 -52.375 81.1875 C-55 80 -55 80 -57 77 C-54.06610821 77.40748497 -52.32906695 77.73263311 -50 79.625 C-48.06022575 81.25654883 -48.06022575 81.25654883 -45.5 80.875 C-42.86429901 79.95250465 -41.17267034 78.72315234 -39 77 C-38.34 77 -37.68 77 -37 77 C-37 76.34 -37 75.68 -37 75 C-35.66803001 74.08865211 -34.32854569 73.18736186 -32.96484375 72.32421875 C-29.67239948 70.10525531 -26.6444789 67.55688562 -23.55859375 65.0625 C-20.59161902 62.67080129 -17.58621164 60.33339107 -14.5703125 58.00390625 C-12.51237946 56.3994691 -10.46834823 54.78102735 -8.4296875 53.15234375 C-7.48851074 52.40368042 -7.48851074 52.40368042 -6.52832031 51.63989258 C-5.27758219 50.64440386 -4.02944661 49.64563481 -2.78417969 48.64331055 C-0.2015772 46.59290916 1.84530054 45.05156649 5 44 C5 43.34 5 42.68 5 42 C6.73940747 40.55945979 8.54471194 39.19815535 10.375 37.875 C11.47510032 37.07317905 12.57403905 36.26976224 13.671875 35.46484375 C14.22810547 35.05733887 14.78433594 34.64983398 15.35742188 34.22998047 C18.67532115 31.7455012 21.85042511 29.08047236 25.0390625 26.43359375 C27 25 27 25 29 25 C26.84180895 20.77776717 24.68665511 18.83554569 20.625 16.4375 C16.83629503 14.17784538 13.42294578 11.78187861 10 9 C9.01 8.505 9.01 8.505 8 8 C8 7.34 8 6.68 8 6 C7.236875 5.71125 6.47375 5.4225 5.6875 5.125 C3 4 3 4 0 2 C0 1.34 0 0.68 0 0 Z " fill="#B2B2B2" transform="translate(1081,378)"/>
<path d="M0 0 C4.26365786 1.45245487 7.33792336 3.60964917 10.875 6.375 C15.1028902 9.63214181 19.30457195 12.46446885 24 15 C29.43209877 18.43209877 29.43209877 18.43209877 31 20 C31.25 22.4375 31.25 22.4375 31 25 C30.01 25.66 29.02 26.32 28 27 C28.10183594 26.25621094 28.20367188 25.51242187 28.30859375 24.74609375 C28.27638141 21.83845086 28.27638141 21.83845086 25.91015625 19.97265625 C24.50056641 19.02712891 24.50056641 19.02712891 23.0625 18.0625 C22.06734375 17.38058594 21.0721875 16.69867188 20.046875 15.99609375 C18.12193147 14.73500895 16.19509171 13.47680961 14.265625 12.22265625 C13.45609375 11.69542969 12.6465625 11.16820312 11.8125 10.625 C11.07644531 10.16351563 10.34039063 9.70203125 9.58203125 9.2265625 C9.05996094 8.82179688 8.53789063 8.41703125 8 8 C8 7.34 8 6.68 8 6 C7.236875 5.71125 6.47375 5.4225 5.6875 5.125 C3 4 3 4 0 2 C0 1.34 0 0.68 0 0 Z " fill="#BEBEBE" transform="translate(1081,378)"/>
<path d="M0 0 C2.88902561 1.05055477 5.27085461 2.17709898 7.75 4 C7.75 4.66 7.75 5.32 7.75 6 C6.63625 5.5359375 6.63625 5.5359375 5.5 5.0625 C1.37838528 3.47005795 -0.99246754 2.63830629 -5.25 4 C-7.63513437 5.14878929 -9.97626305 6.32863111 -12.31640625 7.5625 C-12.99170883 7.9138501 -13.66701141 8.2652002 -14.36277771 8.62719727 C-16.51479144 9.74748025 -18.66381748 10.87334278 -20.8125 12 C-22.96511079 13.12594405 -25.11834683 14.25064498 -27.27293396 15.37280273 C-28.61195163 16.07046252 -29.94977866 16.77041338 -31.28627014 17.47290039 C-33.9206207 18.84764416 -36.42491302 20.05830434 -39.25 21 C-39.25 20.34 -39.25 19.68 -39.25 19 C-38.47922119 18.60208252 -37.70844238 18.20416504 -36.91430664 17.79418945 C-34.01188102 16.29496218 -31.11010579 14.79448995 -28.20874023 13.29321289 C-26.96094553 12.64786831 -25.71290516 12.00299847 -24.46459961 11.35864258 C-17.91477042 7.97732282 -11.3830828 4.60033779 -5.04174805 0.83666992 C-3.25 0 -3.25 0 0 0 Z " fill="#9A9A9A" transform="translate(866.25,342)"/>
<path d="M0 0 C0.66 0.33 1.32 0.66 2 1 C-2.2361815 5.54364629 -6.97303671 9.11850866 -12 12.75 C-12.7940625 13.33910156 -13.588125 13.92820312 -14.40625 14.53515625 C-15.1796875 15.09589844 -15.953125 15.65664063 -16.75 16.234375 C-17.44609375 16.74194336 -18.1421875 17.24951172 -18.859375 17.77246094 C-21.24154159 19.13851176 -23.29725194 19.60427421 -26 20 C-21.7528134 15.4175092 -16.96174822 11.91731435 -11.875 8.3125 C-11.06417969 7.73177734 -10.25335938 7.15105469 -9.41796875 6.55273438 C-6.30348386 4.32626377 -3.18573049 2.12382033 0 0 Z " fill="#8D8D8D" transform="translate(105,341)"/>
<path d="M0 0 C3.8422866 1.36782653 6.79946558 3.12629783 10.0625 5.5625 C11.48175781 6.61630859 11.48175781 6.61630859 12.9296875 7.69140625 C13.94289063 8.45324219 14.95609375 9.21507812 16 10 C17.12738164 10.84274568 18.25498962 11.68518866 19.3828125 12.52734375 C22.26007016 14.67845839 25.13143034 16.83730874 28 19 C26.68 19.33 25.36 19.66 24 20 C24 19.34 24 18.68 24 18 C23.46375 17.731875 22.9275 17.46375 22.375 17.1875 C19.58333333 15.79166667 16.79166667 14.39583333 14 13 C14 12.34 14 11.68 14 11 C13.01 10.67 12.02 10.34 11 10 C11 9.34 11 8.68 11 8 C10.443125 7.731875 9.88625 7.46375 9.3125 7.1875 C2.43835616 3.65753425 2.43835616 3.65753425 0 0 Z " fill="#A9A9A9" transform="translate(1017,332)"/>
<path d="M0 0 C5.0804788 1.61064103 8.88560057 4.68202647 13.0625 7.875 C14.12307617 8.66970703 14.12307617 8.66970703 15.20507812 9.48046875 C18.70615203 12.13010778 21.99981834 14.77383064 25 18 C21.12697862 16.85569823 17.99736561 15.76679902 15 13 C15 12.34 15 11.68 15 11 C14.28457031 10.73058594 13.56914063 10.46117187 12.83203125 10.18359375 C9.97212987 8.98835221 7.36518535 7.62150792 4.6875 6.0625 C3.80449219 5.55847656 2.92148438 5.05445313 2.01171875 4.53515625 C1.34785156 4.02855469 0.68398437 3.52195312 0 3 C0 2.01 0 1.02 0 0 Z " fill="#C2C2C2" transform="translate(1045,352)"/>
<path d="M0 0 C0 0.66 0 1.32 0 2 C-0.99 2.33 -1.98 2.66 -3 3 C-4.12176765 4.12176765 -5.24063227 5.24660621 -6.34375 6.38671875 C-8.50182207 8.4888031 -10.75531884 10.43764641 -13.0625 12.375 C-14.31740234 13.43847656 -14.31740234 13.43847656 -15.59765625 14.5234375 C-18 16 -18 16 -20.15014648 15.59228516 C-21.06582397 15.299104 -21.06582397 15.299104 -22 15 C-19.04385353 12.68469336 -16.08471941 10.37323693 -13.125 8.0625 C-12.28324219 7.40314453 -11.44148438 6.74378906 -10.57421875 6.06445312 C-9.76855469 5.43603516 -8.96289062 4.80761719 -8.1328125 4.16015625 C-7.38918457 3.57886963 -6.64555664 2.99758301 -5.87939453 2.39868164 C-3.78191923 0.83770009 -2.63814258 0 0 0 Z " fill="#7D7D7D" transform="translate(456,90)"/>
<path d="M0 0 C0.66 0.33 1.32 0.66 2 1 C-1.4864968 4.60849208 -5.07849717 7.80263372 -9.0625 10.875 C-10.08472656 11.67679687 -11.10695313 12.47859375 -12.16015625 13.3046875 C-15 15 -15 15 -17.37109375 14.7578125 C-17.90863281 14.50773437 -18.44617188 14.25765625 -19 14 C-16.96022417 12.41418022 -14.91826692 10.83131092 -12.875 9.25 C-12.30523437 8.8065625 -11.73546875 8.363125 -11.1484375 7.90625 C-7.52564368 5.10681841 -3.83812854 2.49653346 0 0 Z " fill="#999999" transform="translate(48,382)"/>
<path d="M0 0 C0.99 0.33 1.98 0.66 3 1 C-5.8556578 7.54793342 -14.90456666 13.79182467 -24 20 C-24.33 19.34 -24.66 18.68 -25 18 C-22.60614464 16.22643924 -20.2100227 14.45609117 -17.8125 12.6875 C-17.13896484 12.18798828 -16.46542969 11.68847656 -15.77148438 11.17382812 C-12.26647714 8.59209109 -8.75149516 6.21587416 -5 4 C-3.700625 2.88625 -3.700625 2.88625 -2.375 1.75 C-1.59125 1.1725 -0.8075 0.595 0 0 Z " fill="#A9A9A9" transform="translate(208,385)"/>
<path d="M0 0 C0.66 0.33 1.32 0.66 2 1 C1.21625 1.763125 0.4325 2.52625 -0.375 3.3125 C-3.07257717 5.90891805 -3.07257717 5.90891805 -5 9 C-6.9453125 9.29296875 -6.9453125 9.29296875 -9.125 9.1875 C-10.40375 9.125625 -11.6825 9.06375 -13 9 C-13 8.34 -13 7.68 -13 7 C-13.78375 6.731875 -14.5675 6.46375 -15.375 6.1875 C-18 5 -18 5 -20 2 C-17.06610821 2.40748497 -15.32906695 2.73263311 -13 4.625 C-11.06022575 6.25654883 -11.06022575 6.25654883 -8.5 5.875 C-5.86429901 4.95250465 -4.17267034 3.72315234 -2 2 C-1.34 2 -0.68 2 0 2 C0 1.34 0 0.68 0 0 Z " fill="#B7B7B7" transform="translate(1044,453)"/>
<path d="M0 0 C0.66 0.33 1.32 0.66 2 1 C1.38125 1.2475 0.7625 1.495 0.125 1.75 C-2.12109147 2.80409995 -2.12109147 2.80409995 -2.890625 4.87109375 C-4.20446552 7.39237221 -5.62062839 8.59832687 -7.875 10.3125 C-8.55304687 10.84488281 -9.23109375 11.37726563 -9.9296875 11.92578125 C-12 13 -12 13 -14.2578125 12.66796875 C-14.83273438 12.44753906 -15.40765625 12.22710937 -16 12 C-13.89674758 10.37380483 -11.79244271 8.74900468 -9.6875 7.125 C-9.09259766 6.66480469 -8.49769531 6.20460938 -7.88476562 5.73046875 C-5.29971995 3.73752851 -2.71700932 1.81133955 0 0 Z " fill="#818181" transform="translate(66,369)"/>
<path d="M0 0 C7.77059009 3.98633109 14.91247555 8.68275765 21 15 C19.33333333 14.33333333 17.66666667 13.66666667 16 13 C15.175 12.731875 14.35 12.46375 13.5 12.1875 C10.31347019 10.67389834 8.45712175 8.51705154 6 6 C4.906875 5.278125 3.81375 4.55625 2.6875 3.8125 C1.800625 3.214375 0.91375 2.61625 0 2 C0 1.34 0 0.68 0 0 Z " fill="#A6A6A6" transform="translate(779,161)"/>
<path d="M0 0 C6.09304549 3.18756546 11.61114807 6.72709561 17 11 C15.203125 11.64453125 15.203125 11.64453125 13 12 C9.75 9.6875 9.75 9.6875 7 7 C7 6.34 7 5.68 7 5 C4.03 4.505 4.03 4.505 1 4 C0.67 2.68 0.34 1.36 0 0 Z " fill="#979797" transform="translate(665,79)"/>
<path d="M0 0 C0.66 0.33 1.32 0.66 2 1 C0 4 0 4 -2.3125 4.875 C-5.21129951 5.88282811 -5.21129951 5.88282811 -7.5 8.5625 C-10.14172341 11.13818033 -11.3996619 11.69139959 -15 12 C-10.58990583 7.14889642 -5.41995647 3.651893 0 0 Z " fill="#7E7E7E" transform="translate(179,288)"/>
<path d="M0 0 C6.4266106 3.42752566 12.16594374 7.65346984 18 12 C17.01 12.33 16.02 12.66 15 13 C9.55120426 10.23927683 4.47914643 6.13459671 0 2 C0 1.34 0 0.68 0 0 Z " fill="#9C9C9C" transform="translate(800,176)"/>
<path d="M0 0 C0.66 0.33 1.32 0.66 2 1 C0.35446591 2.69393215 -1.30419392 4.35732623 -3 6 C-3.50402344 6.48855469 -4.00804687 6.97710937 -4.52734375 7.48046875 C-6.0625 8.875 -6.0625 8.875 -9 11 C-10.32 10.67 -11.64 10.34 -13 10 C-8.71 6.7 -4.42 3.4 0 0 Z " fill="#8E8E8E" transform="translate(483,69)"/>
<path d="M0 0 C6.4266106 3.42752566 12.16594374 7.65346984 18 12 C17.01 12.495 17.01 12.495 16 13 C13.76590866 11.82197048 11.68514722 10.60478248 9.5625 9.25 C8.97662109 8.8890625 8.39074219 8.528125 7.78710938 8.15625 C2.05743186 4.56625909 2.05743186 4.56625909 0 2 C0 1.34 0 0.68 0 0 Z " fill="#ADADAD" transform="translate(931,270)"/>
<path d="M0 0 C0.66 0.33 1.32 0.66 2 1 C-4.44736842 7.63157895 -4.44736842 7.63157895 -8 10 C-9.32 9.67 -10.64 9.34 -12 9 C-8.04 6.03 -4.08 3.06 0 0 Z " fill="#929292" transform="translate(130,323)"/>
<path d="M0 0 C3.29729077 1.5371985 6.20516787 3.42073742 9.1875 5.5 C10.06792969 6.1084375 10.94835937 6.716875 11.85546875 7.34375 C14 9 14 9 15 11 C11.5312142 10.32888293 8.85551911 8.96296905 5.8125 7.1875 C4.93207031 6.68605469 4.05164063 6.18460937 3.14453125 5.66796875 C1 4 1 4 0.19921875 1.80078125 C0.10060547 0.90939453 0.10060547 0.90939453 0 0 Z " fill="#AAAAAA" transform="translate(1002,321)"/>
<path d="M0 0 C0.66 0.33 1.32 0.66 2 1 C-4.44736842 7.63157895 -4.44736842 7.63157895 -8 10 C-9.32 9.67 -10.64 9.34 -12 9 C-8.04 6.03 -4.08 3.06 0 0 Z " fill="#878787" transform="translate(407,124)"/>
<path d="M0 0 C0.66 0.33 1.32 0.66 2 1 C-4.44736842 7.63157895 -4.44736842 7.63157895 -8 10 C-9.32 9.67 -10.64 9.34 -12 9 C-8.04 6.03 -4.08 3.06 0 0 Z " fill="#8D8D8D" transform="translate(507,52)"/>
<path d="M0 0 C0.66 0.33 1.32 0.66 2 1 C-4.44736842 7.63157895 -4.44736842 7.63157895 -8 10 C-9.32 9.67 -10.64 9.34 -12 9 C-8.04 6.03 -4.08 3.06 0 0 Z " fill="#898989" transform="translate(521,42)"/>
<path d="M0 0 C0.99 0.33 1.98 0.66 3 1 C2.33613281 1.45890625 1.67226562 1.9178125 0.98828125 2.390625 C-4.6078691 6.27683356 -4.6078691 6.27683356 -10 10.4375 C-12 12 -12 12 -14 12 C-12.65601716 7.96805149 -9.9913556 6.54985932 -6.625 4.25 C-6.03460938 3.82589844 -5.44421875 3.40179688 -4.8359375 2.96484375 C-3.1015625 1.765625 -3.1015625 1.765625 0 0 Z " fill="#ADADAD" transform="translate(142,432)"/>
<path d="M0 0 C0 0.66 0 1.32 0 2 C-0.99 2.33 -1.98 2.66 -3 3 C-4.70779973 4.62449243 -6.37550757 6.29220027 -8 8 C-8.66 8.66 -9.32 9.32 -10 10 C-12.125 9.625 -12.125 9.625 -14 9 C-12.04594482 7.49412261 -10.08718716 5.99521356 -8.125 4.5 C-7.56941406 4.07074219 -7.01382813 3.64148438 -6.44140625 3.19921875 C-2.2265625 0 -2.2265625 0 0 0 Z " fill="#929292" transform="translate(548,24)"/>
<path d="M0 0 C0.33 0.66 0.66 1.32 1 2 C-0.65 2.33 -2.3 2.66 -4 3 C-4 3.66 -4 4.32 -4 5 C-5.96875 6.7265625 -5.96875 6.7265625 -8.5 8.625 C-9.75296875 9.57246094 -9.75296875 9.57246094 -11.03125 10.5390625 C-11.6809375 11.02117187 -12.330625 11.50328125 -13 12 C-13.66 11.67 -14.32 11.34 -15 11 C-10.66676952 6.40414949 -6.08055683 2.02685228 0 0 Z " fill="#CACACA" transform="translate(1060,443)"/>
<path d="M0 0 C0.66 0.33 1.32 0.66 2 1 C-4.44736842 7.63157895 -4.44736842 7.63157895 -8 10 C-9.32 9.67 -10.64 9.34 -12 9 C-8.04 6.03 -4.08 3.06 0 0 Z " fill="#9D9D9D" transform="translate(354,162)"/>
<path d="M0 0 C0.66 0.33 1.32 0.66 2 1 C-4.44736842 7.63157895 -4.44736842 7.63157895 -8 10 C-9.32 9.67 -10.64 9.34 -12 9 C-8.04 6.03 -4.08 3.06 0 0 Z " fill="#999999" transform="translate(393,134)"/>
<path d="M0 0 C0.66 0.33 1.32 0.66 2 1 C-4.44736842 7.63157895 -4.44736842 7.63157895 -8 10 C-9.32 9.67 -10.64 9.34 -12 9 C-8.04 6.03 -4.08 3.06 0 0 Z " fill="#959595" transform="translate(432,106)"/>
<path d="M0 0 C1.31871094 0.36931641 1.31871094 0.36931641 2.6640625 0.74609375 C2.6640625 1.73609375 2.6640625 2.72609375 2.6640625 3.74609375 C0.1890625 2.75609375 0.1890625 2.75609375 -2.3359375 1.74609375 C-3.1196875 2.52984375 -3.9034375 3.31359375 -4.7109375 4.12109375 C-6.25260417 5.66276042 -7.79427083 7.20442708 -9.3359375 8.74609375 C-11.4609375 8.37109375 -11.4609375 8.37109375 -13.3359375 7.74609375 C-11.81313085 6.37075256 -10.26678723 5.02144094 -8.7109375 3.68359375 C-7.42316406 2.55244141 -7.42316406 2.55244141 -6.109375 1.3984375 C-3.3359375 -0.25390625 -3.3359375 -0.25390625 0 0 Z " fill="#C0C0C0" transform="translate(569.3359375,9.25390625)"/>
<path d="M0 0 C4.73684211 0.92105263 4.73684211 0.92105263 6.875 1.5625 C9.92306727 2.19004326 12.89905651 2.05963353 16 2 C13.10922729 4.89077271 11.04349558 4.86742637 7 5 C4.39085924 3.92297097 2.36196397 2.59071043 0 1 C0 0.67 0 0.34 0 0 Z " fill="#858585" transform="translate(406,414)"/>
<path d="M0 0 C7.01834862 2.02752294 7.01834862 2.02752294 9 5 C9.375 7.5625 9.375 7.5625 9 10 C8.01 10.66 7.02 11.32 6 12 C6.1546875 10.9171875 6.1546875 10.9171875 6.3125 9.8125 C5.8747126 5.87241336 3.8720261 4.59182843 1 2 C0.67 1.34 0.34 0.68 0 0 Z " fill="#ECECEC" transform="translate(1103,393)"/>
<path d="M0 0 C0.66 0.33 1.32 0.66 2 1 C-4.20440882 7.37675351 -4.20440882 7.37675351 -7 9 C-8.32 8.67 -9.64 8.34 -11 8 C-7.37 5.36 -3.74 2.72 0 0 Z " fill="#9C9C9C" transform="translate(105,341)"/>
<path d="M0 0 C3.58513106 1.62184501 6.58992323 3.79256239 9.75 6.125 C11.22726562 7.21167969 11.22726562 7.21167969 12.734375 8.3203125 C13.48203125 8.87460937 14.2296875 9.42890625 15 10 C14.01 10.33 13.02 10.66 12 11 C11.566875 10.525625 11.13375 10.05125 10.6875 9.5625 C8.97690387 7.76313043 8.97690387 7.76313043 6 7 C6 6.34 6 5.68 6 5 C5.195625 4.731875 4.39125 4.46375 3.5625 4.1875 C2.716875 3.795625 1.87125 3.40375 1 3 C0.67 2.01 0.34 1.02 0 0 Z " fill="#ABABAB" transform="translate(597,30)"/>
<path d="M0 0 C5.3732231 2.47994912 9.97062369 5.66067166 14 10 C10.0936709 9.42128458 8.02070594 7.4312999 5 5 C2.3205355 3.75983331 2.3205355 3.75983331 0 3 C0 2.01 0 1.02 0 0 Z " fill="#9F9F9F" transform="translate(701,105)"/>
<path d="M0 0 C0.66 0.33 1.32 0.66 2 1 C0.44384991 2.29930979 -1.1202168 3.58914138 -2.6875 4.875 C-3.55761719 5.59429687 -4.42773438 6.31359375 -5.32421875 7.0546875 C-7.8477646 8.88932376 -10.06338486 9.99467229 -13 11 C-13 10.34 -13 9.68 -13 9 C-10.91796875 7.34375 -10.91796875 7.34375 -8.1875 5.5 C-7.29417969 4.8915625 -6.40085938 4.283125 -5.48046875 3.65625 C-3.65413054 2.43677378 -1.82722366 1.2181491 0 0 Z " fill="#B1B1B1" transform="translate(224,374)"/>
<path d="M0 0 C0.66 0.33 1.32 0.66 2 1 C-0.33333333 3.33333333 -2.66666667 5.66666667 -5 8 C-6.32 7.67 -7.64 7.34 -9 7 C-6.03 4.69 -3.06 2.38 0 0 Z " fill="#979797" transform="translate(77,361)"/>
<path d="M0 0 C0.66 0.33 1.32 0.66 2 1 C-0.33333333 3.33333333 -2.66666667 5.66666667 -5 8 C-6.32 7.67 -7.64 7.34 -9 7 C-6.03 4.69 -3.06 2.38 0 0 Z " fill="#969696" transform="translate(116,333)"/>
<path d="M0 0 C5.22861968 2.35287886 9.51750177 5.48453819 14 9 C12 10 12 10 9.6875 9.375 C6.47783526 7.73284595 4.46907263 5.60253602 2 3 C1.34 2.67 0.68 2.34 0 2 C0 1.34 0 0.68 0 0 Z " fill="#A5A5A5" transform="translate(843,207)"/>
<path d="M0 0 C0.66 0.33 1.32 0.66 2 1 C-0.33333333 3.33333333 -2.66666667 5.66666667 -5 8 C-6.32 7.67 -7.64 7.34 -9 7 C-6.03 4.69 -3.06 2.38 0 0 Z " fill="#848484" transform="translate(418,116)"/>
<path d="M0 0 C0.99 0.33 1.98 0.66 3 1 C-1.29 3.97 -5.58 6.94 -10 10 C-10 9.01 -10 8.02 -10 7 C-7.91796875 5.140625 -7.91796875 5.140625 -5.1875 3.25 C-3.84751953 2.29867188 -3.84751953 2.29867188 -2.48046875 1.328125 C-1.25263672 0.67070312 -1.25263672 0.67070312 0 0 Z " fill="#ABABAB" transform="translate(156,422)"/>
<path d="M0 0 C0.33 0.99 0.66 1.98 1 3 C-2.90456127 6.53269829 -5.80177328 8.63855967 -11 10 C-7.50640535 6.40365256 -3.88901869 3.16548033 0 0 Z " fill="#ACACAC" transform="translate(1108,403)"/>
<path d="M0 0 C0 0.66 0 1.32 0 2 C-0.99 2.33 -1.98 2.66 -3 3 C-4.38576923 4.62332967 -5.72641268 6.28724465 -7 8 C-8.32 7.67 -9.64 7.34 -11 7 C-9.54634731 5.82750647 -8.08692581 4.66216184 -6.625 3.5 C-5.40683594 2.52546875 -5.40683594 2.52546875 -4.1640625 1.53125 C-2 0 -2 0 0 0 Z " fill="#929292" transform="translate(256,234)"/>
<path d="M0 0 C0 0.66 0 1.32 0 2 C-0.99 2.33 -1.98 2.66 -3 3 C-4.38576923 4.62332967 -5.72641268 6.28724465 -7 8 C-8.32 7.67 -9.64 7.34 -11 7 C-9.54634731 5.82750647 -8.08692581 4.66216184 -6.625 3.5 C-5.40683594 2.52546875 -5.40683594 2.52546875 -4.1640625 1.53125 C-2 0 -2 0 0 0 Z " fill="#989898" transform="translate(534,34)"/>
<path d="M0 0 C3.87734333 0.53851991 5.97595561 1.56125452 9 4 C10.31836295 4.69580267 11.64791086 5.37224433 13 6 C5.73846154 5.63076923 5.73846154 5.63076923 2 2.4375 C1.34 1.633125 0.68 0.82875 0 0 Z " fill="#737373" transform="translate(1024,455)"/>
<path d="M0 0 C4.10839064 1.45002023 7.50344613 3.3979134 11 6 C11 6.66 11 7.32 11 8 C6.40378078 6.5129879 3.53027653 4.20187872 0 1 C0 0.67 0 0.34 0 0 Z " fill="#878787" transform="translate(988,429)"/>
<path d="M0 0 C3.50166718 0.64845688 6.09856846 1.93845653 9 4 C10.3125 6.1875 10.3125 6.1875 11 8 C6.99698968 6.23867546 3.3971023 3.73867517 0 1 C0 0.67 0 0.34 0 0 Z " fill="#B5B5B5" transform="translate(1094,388)"/>
<path d="M0 0 C2.375 0.25 2.375 0.25 5 1 C6.3125 3.0625 6.3125 3.0625 7 5 C7.66 5 8.32 5 9 5 C9.33 5.99 9.66 6.98 10 8 C7.50638429 6.79618552 5.31856917 5.54571278 3 4 C3 3.34 3 2.68 3 2 C2.01 1.67 1.02 1.34 0 1 C0 0.67 0 0.34 0 0 Z " fill="#929292" transform="translate(65,434)"/>
<path d="M0 0 C0.53625 0.268125 1.0725 0.53625 1.625 0.8125 C-2.25064767 4.42389896 -2.25064767 4.42389896 -4.375 5.8125 C-6.75 5.625 -6.75 5.625 -8.375 4.8125 C-2.95961538 -0.23365385 -2.95961538 -0.23365385 0 0 Z " fill="#878787" transform="translate(37.375,391.1875)"/>
<path d="M0 0 C-2.11997834 1.19733988 -4.24513676 2.38298713 -6.375 3.5625 C-6.97828125 3.90474609 -7.5815625 4.24699219 -8.203125 4.59960938 C-9.76978241 5.46127095 -11.38290862 6.23718183 -13 7 C-13.66 6.67 -14.32 6.34 -15 6 C-12.74109621 3.48045346 -10.582103 2.12667267 -7.5 0.75 C-6.7265625 0.39421875 -5.953125 0.0384375 -5.15625 -0.328125 C-3 -1 -3 -1 0 0 Z " fill="#9F9F9F" transform="translate(470,392)"/>
<path d="M0 0 C3.45925163 1.2491742 6.14693203 2.67527795 9 5 C8.67 5.99 8.34 6.98 8 8 C6.6589523 7.24266726 5.32730219 6.46867264 4 5.6875 C2.88625 5.04361328 2.88625 5.04361328 1.75 4.38671875 C1.1725 3.92910156 0.595 3.47148437 0 3 C0 2.01 0 1.02 0 0 Z " fill="#A9A9A9" transform="translate(1045,352)"/>
<path d="M0 0 C4.35522853 0.50642192 7.44239635 1.38411497 11 4 C11 4.66 11 5.32 11 6 C10.29875 5.71125 9.5975 5.4225 8.875 5.125 C5.94547497 3.97866412 2.99078347 2.97374346 0 2 C0 1.34 0 0.68 0 0 Z " fill="#A5A5A5" transform="translate(863,342)"/>
<path d="M0 0 C1.46313772 0.76167457 2.92036661 1.53470707 4.375 2.3125 C5.18710937 2.74175781 5.99921875 3.17101562 6.8359375 3.61328125 C9 5 9 5 11 8 C9.33333333 7.33333333 7.66666667 6.66666667 6 6 C4.63875 5.566875 4.63875 5.566875 3.25 5.125 C2.5075 4.75375 1.765 4.3825 1 4 C0.359375 1.9296875 0.359375 1.9296875 0 0 Z " fill="#A3A3A3" transform="translate(953,286)"/>
<path d="M0 0 C0.66 0.33 1.32 0.66 2 1 C-1.17320782 4.53586014 -3.16743695 6.58578031 -8 7 C-5.42215154 4.35247996 -3.08351902 2.05567935 0 0 Z " fill="#888888" transform="translate(204,270)"/>
<path d="M0 0 C4.44775994 2.63411025 8.53005564 5.0963126 12 9 C8.20210626 7.54786416 4.50478873 6.07101152 1 4 C0.328125 1.8984375 0.328125 1.8984375 0 0 Z " fill="#A2A2A2" transform="translate(689,96)"/>
<path d="M0 0 C4.70270446 2.12741392 8.16393369 4.62060825 12 8 C11.01 8.33 10.02 8.66 9 9 C6.3125 7.1875 6.3125 7.1875 4 5 C4 4.34 4 3.68 4 3 C2.68 2.67 1.36 2.34 0 2 C0 1.34 0 0.68 0 0 Z " fill="#A5A5A5" transform="translate(615,43)"/>
<path d="M0 0 C4 0 4 0 6.0625 1.8125 C6.701875 2.534375 7.34125 3.25625 8 4 C8.5775 4.5775 9.155 5.155 9.75 5.75 C10.1625 6.1625 10.575 6.575 11 7 C7.76169533 7 6.68408288 6.70805274 4 5 C1.75 2.375 1.75 2.375 0 0 Z " fill="#A0A0A0" transform="translate(43,417)"/>
<path d="M0 0 C5.08938811 1.59043379 8.87456643 4.7446951 13 8 C12.01 8.495 12.01 8.495 11 9 C9.53699018 8.06981474 8.07974421 7.13055973 6.625 6.1875 C5.81289063 5.66542969 5.00078125 5.14335937 4.1640625 4.60546875 C2 3 2 3 0 0 Z " fill="#CBCBCB" transform="translate(1017,332)"/>
<path d="M0 0 C2.1875 0.0625 2.1875 0.0625 5 1 C6.93157957 3.1717219 8.48201687 5.52601047 10 8 C6.05205855 6.32971708 3.18203882 3.8204435 0 1 C0 0.67 0 0.34 0 0 Z " fill="#ABABAB" transform="translate(80,446)"/>
<path d="M0 0 C4.59306496 1.4859916 7.43569245 3.85014682 11 7 C10.01 7.33 9.02 7.66 8 8 C5.3125 6.1875 5.3125 6.1875 3 4 C3 3.34 3 2.68 3 2 C2.01 1.67 1.02 1.34 0 1 C0 0.67 0 0.34 0 0 Z " fill="#CCCCCC" transform="translate(1070,370)"/>
<path d="M0 0 C1.46313772 0.76167457 2.92036661 1.53470707 4.375 2.3125 C5.18710937 2.74175781 5.99921875 3.17101562 6.8359375 3.61328125 C9 5 9 5 11 8 C7.90694578 7.39096941 5.80360238 6.40131197 3.25 4.5625 C2.63640625 4.13066406 2.0228125 3.69882812 1.390625 3.25390625 C0.70226562 2.63322266 0.70226562 2.63322266 0 2 C0 1.34 0 0.68 0 0 Z " fill="#B5B5B5" transform="translate(981,306)"/>
<path d="M0 0 C4.43458973 1.3937282 6.87378374 3.60582235 10 7 C6.51329166 5.8905928 3.22515763 4.73662334 0 3 C0 2.01 0 1.02 0 0 Z " fill="#A6A6A6" transform="translate(971,299)"/>
<path d="M0 0 C0 0.66 0 1.32 0 2 C-0.99 2.33 -1.98 2.66 -3 3 C-4.68538601 4.99665314 -4.68538601 4.99665314 -6 7 C-7.32 6.67 -8.64 6.34 -10 6 C-8.71283353 4.99421411 -7.42011342 3.99553202 -6.125 3 C-5.40570313 2.443125 -4.68640625 1.88625 -3.9453125 1.3125 C-2 0 -2 0 0 0 Z " fill="#949494" transform="translate(245,242)"/>
<path d="M0 0 C0 0.66 0 1.32 0 2 C-0.99 2.33 -1.98 2.66 -3 3 C-4.68538601 4.99665314 -4.68538601 4.99665314 -6 7 C-7.32 6.67 -8.64 6.34 -10 6 C-8.71283353 4.99421411 -7.42011342 3.99553202 -6.125 3 C-5.40570313 2.443125 -4.68640625 1.88625 -3.9453125 1.3125 C-2 0 -2 0 0 0 Z " fill="#A9A9A9" transform="translate(456,90)"/>
<path d="M0 0 C0 0.66 0 1.32 0 2 C-0.99 2.33 -1.98 2.66 -3 3 C-4.68538601 4.99665314 -4.68538601 4.99665314 -6 7 C-7.32 6.67 -8.64 6.34 -10 6 C-8.71283353 4.99421411 -7.42011342 3.99553202 -6.125 3 C-5.40570313 2.443125 -4.68640625 1.88625 -3.9453125 1.3125 C-2 0 -2 0 0 0 Z " fill="#A7A7A7" transform="translate(495,62)"/>
<path d="M0 0 C0.99 0.33 1.98 0.66 3 1 C-1.455 4.465 -1.455 4.465 -6 8 C-6.66 7.67 -7.32 7.34 -8 7 C-6.74057614 5.80040625 -5.46704714 4.61560557 -4.1875 3.4375 C-3.12595703 2.44556641 -3.12595703 2.44556641 -2.04296875 1.43359375 C-1.36878906 0.96050781 -0.69460937 0.48742187 0 0 Z " fill="#BBBBBB" transform="translate(208,385)"/>
<path d="M0 0 C0.66 0.33 1.32 0.66 2 1 C1.38125 1.2475 0.7625 1.495 0.125 1.75 C-2.35068687 3.20628639 -2.95125002 4.37812506 -4 7 C-5.32 6.67 -6.64 6.34 -8 6 C-5.36 4.02 -2.72 2.04 0 0 Z " fill="#A4A4A4" transform="translate(66,369)"/>
<path d="M0 0 C4.28477792 2.30718811 7.72291137 4.32966073 11 8 C7.90694578 7.39096941 5.80360238 6.40131197 3.25 4.5625 C2.63640625 4.13066406 2.0228125 3.69882813 1.390625 3.25390625 C0.70226562 2.63322266 0.70226562 2.63322266 0 2 C0 1.34 0 0.68 0 0 Z " fill="#ABABAB" transform="translate(743,135)"/>
<path d="M0 0 C3.5786304 1.65167557 6.74820188 3.78286492 10 6 C6.13304322 6 3.4911548 4.58090029 0 3 C0 2.01 0 1.02 0 0 Z " fill="#B4B4B4" transform="translate(992,314)"/>
<path d="M0 0 C0 0.66 0 1.32 0 2 C-0.99 2 -1.98 2 -3 2 C-3.66 3.32 -4.32 4.64 -5 6 C-6.32 5.67 -7.64 5.34 -9 5 C-7.87926138 4.16094435 -6.75325453 3.32892169 -5.625 2.5 C-4.99851563 2.0359375 -4.37203125 1.571875 -3.7265625 1.09375 C-2 0 -2 0 0 0 Z " fill="#9C9C9C" transform="translate(156,306)"/>
<path d="M0 0 C4.28477792 2.30718811 7.72291137 4.32966073 11 8 C6.89160936 6.54997977 3.49655387 4.6020866 0 2 C0 1.34 0 0.68 0 0 Z " fill="#B9B9B9" transform="translate(913,257)"/>
<path d="M0 0 C-2 2 -2 2 -5.625 2.125 C-6.73875 2.08375 -7.8525 2.0425 -9 2 C-9.33 1.34 -9.66 0.68 -10 0 C-3.375 -1.125 -3.375 -1.125 0 0 Z " fill="#8F8F8F" transform="translate(574,418)"/>
<path d="M0 0 C0.66 0.33 1.32 0.66 2 1 C-0.23943282 4.35914922 -1.26842083 4.81681636 -5 6 C-5.99 6 -6.98 6 -8 6 C-5.38485683 3.87961365 -2.80362384 1.86908256 0 0 Z " fill="#A3A3A3" transform="translate(179,288)"/>
<path d="M0 0 C4.06815373 1.84916079 7.0094833 3.66442368 10 7 C6.00118212 6.38479725 3.19641774 4.39731331 0 2 C0 1.34 0 0.68 0 0 Z " fill="#B2B2B2" transform="translate(754,143)"/>
<path d="M0 0 C3.93673644 1.31224548 6.22719294 2.91910327 9 6 C6.03 5.505 6.03 5.505 3 5 C3 4.34 3 3.68 3 3 C2.34 3 1.68 3 1 3 C0.67 2.01 0.34 1.02 0 0 Z " fill="#9F9F9F" transform="translate(637,59)"/>
<path d="M0 0 C0.99 0.33 1.98 0.66 3 1 C0.69 2.65 -1.62 4.3 -4 6 C-4.66 5.67 -5.32 5.34 -6 5 C-1.60546875 0.99609375 -1.60546875 0.99609375 0 0 Z " fill="#B0B0B0" transform="translate(118,449)"/>
<path d="M0 0 C0.99 0.33 1.98 0.66 3 1 C0.69 2.65 -1.62 4.3 -4 6 C-4.66 5.67 -5.32 5.34 -6 5 C-1.60546875 0.99609375 -1.60546875 0.99609375 0 0 Z " fill="#BFBFBF" transform="translate(1064,438)"/>
<path d="M0 0 C0.66 0.33 1.32 0.66 2 1 C0.29374499 3.78388975 -0.47626739 4.85384206 -3.6875 5.75 C-4.8321875 5.87375 -4.8321875 5.87375 -6 6 C-4 4 -2 2 0 0 Z " fill="#939393" transform="translate(187,282)"/>
<path d="M0 0 C4.06815373 1.84916079 7.0094833 3.66442368 10 7 C6.12697862 5.85569823 2.99736561 4.76679902 0 2 C0 1.34 0 0.68 0 0 Z " fill="#BABABA" transform="translate(868,225)"/>
<path d="M0 0 C0.66 0.33 1.32 0.66 2 1 C0.68 2.65 -0.64 4.3 -2 6 C-3.32 5.67 -4.64 5.34 -6 5 C-4.02 3.35 -2.04 1.7 0 0 Z " fill="#8E8E8E" transform="translate(326,182)"/>
<path d="M0 0 C0 0.99 0 1.98 0 3 C-3.96 4.98 -3.96 4.98 -8 7 C-5.73826764 2.47653527 -4.46594067 1.94171334 0 0 Z " fill="#D0D0D0" transform="translate(1100,411)"/>
<path d="M0 0 C0.66 0.33 1.32 0.66 2 1 C-3.75 6 -3.75 6 -6 6 C-5 3 -5 3 -2.5625 1.25 C-1.716875 0.8375 -0.87125 0.425 0 0 Z " fill="#AEAEAE" transform="translate(172,411)"/>
<path d="M0 0 C0.99 0.33 1.98 0.66 3 1 C1.87926138 1.83905565 0.75325453 2.67107831 -0.375 3.5 C-1.00148437 3.9640625 -1.62796875 4.428125 -2.2734375 4.90625 C-4 6 -4 6 -6 6 C-6 5.34 -6 4.68 -6 4 C-3.1875 1.8125 -3.1875 1.8125 0 0 Z " fill="#A2A2A2" transform="translate(180,405)"/>
<path d="M0 0 C4.67692308 1.47692308 4.67692308 1.47692308 6.3125 4.125 C6.539375 4.74375 6.76625 5.3625 7 6 C4.525 5.01 4.525 5.01 2 4 C2 3.34 2 2.68 2 2 C1.34 2 0.68 2 0 2 C0 1.34 0 0.68 0 0 Z " fill="#A3A3A3" transform="translate(30,406)"/>
</svg>
