<?xml version="1.0" encoding="UTF-8"?>
<svg id="Capa_1" data-name="Capa 1" xmlns="http://www.w3.org/2000/svg" viewBox="0 0 137.2 137.2">
  <defs>
    <style>
      .cls-1 {
        fill: none;
      }

      .cls-2 {
        fill: #010101;
      }
    </style>
  </defs>
  <rect class="cls-1" width="137.2" height="137.2"/>
  <g id="B212">
    <g>
      <g>
        <rect class="cls-2" x="68.66" y="50.71" width="6.75" height="15.62"/>
        <path class="cls-2" d="m68.66,130.24s.18-.06.28-.2c.28-.41.28-1.09.38-1.82s.13-3.4.12-4.08c.16-.06.22-.59.22-.59l.75-13.47,1.34-29.91s1.02-.41,1.55-1.08c2.11-2.77,2.11-4.31,2.11-4.31,0,0-.33-1.31.52-2.91s.98-2.95,1.83-6.8.8-13.83.8-13.83l-.98-4.97s-.19-3.47-.42-5.72-1.55-7.97-3.52-10.41-4.91-2.3-4.91-2.3h-.06v102.38Z"/>
        <rect class="cls-2" x="69" y="113.29" width="1.87" height="3.56" rx=".47" ry=".47"/>
        <rect class="cls-2" x="69.1" y="102.89" width="10.01" height="6.35" rx=".35" ry=".35"/>
        <rect class="cls-2" x="78.22" y="39.25" width=".94" height="31.97" rx=".47" ry=".47"/>
        <rect class="cls-2" x="76.41" y="65.58" width="2.64" height="1.25" rx=".62" ry=".62"/>
        <rect class="cls-2" x="76.52" y="46.43" width="2.64" height="1.25" rx=".62" ry=".62"/>
        <ellipse class="cls-2" cx="73.49" cy="30.39" rx=".34" ry="5.27"/>
      </g>
      <g>
        <rect class="cls-2" x="61.91" y="50.71" width="6.75" height="15.62"/>
        <path class="cls-2" d="m68.66,130.24s-.18-.06-.28-.2c-.28-.41-.28-1.09-.38-1.82s-.13-3.4-.12-4.08c-.16-.06-.22-.59-.22-.59l-.75-13.47-1.34-29.91s-1.02-.41-1.55-1.08c-2.11-2.77-2.11-4.31-2.11-4.31,0,0,.33-1.31-.52-2.91s-.98-2.95-1.83-6.8-.8-13.83-.8-13.83l.98-4.97s.19-3.47.42-5.72,1.55-7.97,3.52-10.41,4.91-2.3,4.91-2.3h.06v102.38Z"/>
        <rect class="cls-2" x="66.44" y="113.29" width="1.87" height="3.56" rx=".47" ry=".47"/>
        <rect class="cls-2" x="58.2" y="102.89" width="10.01" height="6.35" rx=".35" ry=".35"/>
        <rect class="cls-2" x="58.16" y="39.25" width=".94" height="31.97" rx=".47" ry=".47"/>
        <rect class="cls-2" x="58.27" y="65.58" width="2.64" height="1.25" rx=".62" ry=".62"/>
        <rect class="cls-2" x="58.16" y="46.43" width="2.64" height="1.25" rx=".62" ry=".62"/>
        <ellipse class="cls-2" cx="63.83" cy="30.39" rx=".34" ry="5.27"/>
      </g>
    </g>
    <rect class="cls-2" x="68.81" y="126.68" width="1.41" height="1.2" rx=".23" ry=".23"/>
    <rect class="cls-2" x="69.85" y="126.82" width="2.25" height=".91" rx=".23" ry=".23"/>
    <rect class="cls-2" x="72.38" y="126.68" width=".61" height="1.2" rx=".3" ry=".3"/>
    <g>
      <g>
        <rect class="cls-2" x="71.29" y="127.28" width=".42" height="2.06" rx=".21" ry=".21"/>
        <ellipse class="cls-2" cx="71.5" cy="131.62" rx=".42" ry="3.57"/>
      </g>
      <g>
        <rect class="cls-2" x="71.29" y="125.22" width=".42" height="2.06" rx=".21" ry=".21"/>
        <ellipse class="cls-2" cx="71.5" cy="122.93" rx=".42" ry="3.57"/>
      </g>
    </g>
  </g>
  <g>
    <rect class="cls-2" x="88.57" y="57.04" width="3.66" height="51.32" transform="translate(-31.97 88.76) rotate(-45.29)"/>
    <rect class="cls-2" x="45.08" y="11.8" width="3.66" height="51.32" transform="translate(106.54 30.48) rotate(134.71)"/>
  </g>
</svg>