<?xml version="1.0" encoding="UTF-8"?>
<svg id="Capa_1" data-name="Capa 1" xmlns="http://www.w3.org/2000/svg" viewBox="0 0 137.2 137.2">
  <defs>
    <style>
      .cls-1 {
        fill: none;
      }

      .cls-2 {
        fill: #010101;
      }
    </style>
  </defs>
  <rect class="cls-1" width="137.2" height="137.2"/>
  <g id="B412">
    <path class="cls-2" d="m80.77,60.99h-.41c-.31,0-.55.25-.55.55v.99l-1.34-2.06c.52-3.44.81-7.17.47-10.55-1.04-15.24-2.75-21.47-4.87-24.17-.02-3.45-.12-6.07-.23-6.07-.11,0-.2,2.36-.23,5.54-.79-.83-1.67-1.32-2.48-1.62-.02-.35-.06-.76-.1-1.23-.28-3.09-2.44-2.89-2.44-2.89,0,0-2.16-.2-2.44,2.89-.04.48-.08.88-.1,1.23-.8.3-1.68.8-2.48,1.62-.03-3.19-.12-5.54-.23-5.54-.12,0-.21,2.62-.23,6.07-2.11,2.71-3.83,8.93-4.87,24.17-.33,3.38-.05,7.11.47,10.55l-1.34,2.06v-.99c0-.31-.25-.55-.55-.55h-.41c-.31,0-.55.25-.55.55v3.66c0,.31.25.55.55.55h.41c.31,0,.55-.25.55-.55v-1.37h1.93c.99,4.96,2.22,8.67,2.22,8.67,0,0,0,2.12,1.81,3.88.15.83.14,1.54,1.78,1.77.16,2.86.74,13.44,1.35,23.57h-9.07c-.13,0-.23.1-.23.23v6.3c0,.13.1.23.23.23h9.49c.1,1.54.19,3.02.29,4.41h-.17c-.37,0-.68.31-.68.68v2.06c0,.37.31.68.68.68h.4c.1,1.36.19,2.56.27,3.53-.02,2.43-.03,7.04.26,8.44.25,1.84.29,2.02.64,2.02s.39-.17.64-2.02c.02-.1.04-.22.05-.35h.54c.17,0,.3-.14.3-.3v-.02h1.17c.03.05.07.09.13.11-.11.7-.19,2.35-.19,4.3,0,2.57.13,4.65.3,4.65s.3-2.08.3-4.65c0-1.94-.08-3.6-.19-4.3.1-.05.19-.13.19-.25v-.38c0-.12-.08-.2-.17-.25.1-.74.17-2.34.17-4.21,0-2.57-.13-4.65-.3-4.65s-.3,2.08-.3,4.65c0,1.87.07,3.48.17,4.21-.07.03-.11.08-.14.15h-1.15v-.02c0-.17-.14-.3-.3-.3h-.43c.12-2.01.11-5.02.09-6.84.08-.98.17-2.17.27-3.53h.4c.37,0,.68-.31.68-.68v-2.06c0-.37-.31-.68-.68-.68h-.17c.09-1.38.19-2.86.29-4.41h9.49c.13,0,.23-.1.23-.23v-6.3c0-.13-.1-.23-.23-.23h-9.07c.61-10.13,1.2-20.71,1.35-23.57,1.64-.23,1.64-.94,1.78-1.77,1.81-1.75,1.81-3.88,1.81-3.88,0,0,1.23-3.71,2.22-8.67h1.93v1.37c0,.31.25.55.55.55h.41c.31,0,.55-.25.55-.55v-3.66c0-.31-.25-.55-.55-.55Zm-22.68,2.08l.86-1.32c.08.45.15.89.24,1.32h-1.1Zm20.18-1.32l.86,1.32h-1.1c.08-.43.16-.87.24-1.32Z"/>
    <path class="cls-2" d="m72.35,126.81c-.16,0-.3.13-.3.3v.38c0,.16.13.3.3.3s.3-.13.3-.3v-.38c0-.16-.13-.3-.3-.3Z"/>
  </g>
  <g>
    <path class="cls-2" d="m109.74,94.62l.02-.02-.31-.29-38.99-37.15-1.86,1.95,5.41,5.16c1.07,1.63,2.85,4.01,5.26,6.08,4.12,3.54,11.67,11.41,15.19,14.51s7.36,6.91,9.87,8.95c1.73,1.41,2.63,2.38,3.48,2.66l.09.08.04-.04c.34.08.67.06,1.05-.11.82-.36,1.19-1.19.75-1.79Z"/>
    <path class="cls-2" d="m106.25,15.85l-.02-.02-.29.31-37.15,38.99,1.95,1.86,5.16-5.41c1.63-1.07,4.01-2.85,6.08-5.26,3.54-4.12,11.41-11.67,14.51-15.19s6.91-7.36,8.95-9.87c1.41-1.73,2.38-2.63,2.66-3.48l.08-.09-.04-.04c.08-.34.06-.67-.11-1.05-.36-.82-1.19-1.19-1.79-.75Z"/>
    <path class="cls-2" d="m27.48,19.34l-.02.02.31.29,38.99,37.15,1.86-1.95-5.41-5.16c-1.07-1.63-2.85-4.01-5.26-6.08-4.12-3.54-11.67-11.41-15.19-14.51-3.52-3.09-7.36-6.91-9.87-8.95-1.73-1.41-2.63-2.38-3.48-2.66l-.09-.08-.04.04c-.34-.08-.67-.06-1.05.11-.82.36-1.19,1.19-.75,1.79Z"/>
    <path class="cls-2" d="m30.97,98.11l.02.02.29-.31,37.15-38.99-1.95-1.86-5.16,5.41c-1.63,1.07-4.01,2.85-6.08,5.26-3.54,4.12-11.41,11.67-14.51,15.19s-6.91,7.36-8.95,9.87c-1.41,1.73-2.38,2.63-2.66,3.48l-.08.09.04.04c-.08.34-.06.67.11,1.05.36.82,1.19,1.19,1.79.75Z"/>
  </g>
</svg>