<?xml version="1.0" encoding="UTF-8"?>
<svg version="1.1" xmlns="http://www.w3.org/2000/svg" width="670" height="800">
<path d="M0 0 C10.56508721 4.95994552 15.65123738 17.14399953 19.46484375 27.484375 C32.7718454 65.59354714 37.2406541 105.43125281 37.08178711 145.58911133 C37.07821986 147.4752545 37.07513696 149.36139864 37.07249451 151.24754333 C37.06600837 155.26768478 37.05649365 159.28780287 37.04459953 163.3079319 C37.02613518 169.66627624 37.01666468 176.02461534 37.00868225 182.38298035 C36.98465243 200.4487854 36.94848497 218.51455637 36.90405273 236.58032227 C36.87951487 246.58930927 36.86215086 256.5982835 36.85249335 266.60729617 C36.84595696 272.92830853 36.83041581 279.24921442 36.80817592 285.57019007 C36.79645751 289.49168513 36.79307934 293.41315424 36.79207802 297.3346653 C36.78992902 299.15316514 36.78433214 300.97166465 36.7750473 302.79014206 C36.76287107 305.27044883 36.7630117 307.75046155 36.76622009 310.23078918 C36.75971229 310.9510089 36.75320449 311.67122861 36.74649948 312.41327316 C36.7667197 316.42479418 37.35178283 319.36048568 39 323 C39.165 324.216875 39.33 325.43375 39.5 326.6875 C39.67555436 330.07132033 39.67555436 330.07132033 42 332 C41.87431641 330.98679687 41.87431641 330.98679687 41.74609375 329.953125 C41.64425781 329.06109375 41.54242188 328.1690625 41.4375 327.25 C41.33308594 326.36828125 41.22867187 325.4865625 41.12109375 324.578125 C41.00543324 322.11567549 41.26361305 320.33461936 42 318 C42.99 318 43.98 318 45 318 C45.391875 318.66 45.78375 319.32 46.1875 320 C50.49670764 327.13248161 57.19780708 332.04822294 63.77416992 336.98901367 C68.21382906 340.34135701 72.47233005 343.87011837 76.6875 347.5 C77.28771973 348.0165918 77.88793945 348.53318359 78.50634766 349.06542969 C80.7310654 350.99176447 82.91846163 352.91846163 85 355 C84.97905273 353.77893555 84.95810547 352.55787109 84.93652344 351.29980469 C84.86409841 346.76753476 84.81819112 342.23531593 84.78027344 337.70263672 C84.76016368 335.74128619 84.73287182 333.77999556 84.69824219 331.81884766 C84.64969579 328.99887305 84.62702514 326.17969135 84.609375 323.359375 C84.58872986 322.48319519 84.56808472 321.60701538 84.54681396 320.70428467 C84.54457874 314.63356865 84.54457874 314.63356865 86.82495117 311.46118164 C91.92597378 308.03435256 98.97155723 308.81753455 104.9375 308.8125 C105.69740234 308.80025391 106.45730469 308.78800781 107.24023438 308.77539062 C112.48095652 308.76196435 117.00724152 309.35036191 122 311 C126.51760892 317.77641338 125.18617597 327.06961049 125.18530273 334.96801758 C125.18747716 337.1644261 125.20563948 339.36032143 125.22460938 341.55664062 C125.31334335 363.26106299 125.31334335 363.26106299 119 371 C117.98835234 374.38081507 117.61408116 377.48662186 118 381 C119.84188412 383.85223984 122.28993739 385.52933921 125.0625 387.4375 C125.79404297 387.9840625 126.52558594 388.530625 127.27929688 389.09375 C128.78331857 390.21623199 130.29727251 391.32552692 131.82080078 392.42138672 C134.95344621 394.69067704 137.97238803 397.0935948 141 399.5 C142.14425175 400.39488875 143.28878676 401.28941541 144.43359375 402.18359375 C148.35016246 405.2606635 152.20576501 408.41099655 156.0625 411.5625 C161.85219411 416.29148679 167.72180989 420.88295747 173.66796875 425.4140625 C177.4479956 428.32142629 181.12610694 431.35044971 184.8125 434.375 C190.11355603 438.71962749 195.4918977 442.92122392 201 447 C207.21211119 451.60009802 213.23786882 456.38721542 219.21533203 461.28735352 C224.79007371 465.85142555 230.47229468 470.25048717 236.19970703 474.62207031 C246.33123944 482.37666333 256.36705593 490.24097778 266.24365234 498.31787109 C270.43602387 501.74287494 274.66746287 505.10998429 278.9375 508.4375 C290.14733766 517.19021071 301.08211796 526.29491656 311.89086914 535.53710938 C313.95608668 537.29858824 315.97827691 538.98558101 318.2421875 540.48828125 C320.53211465 542.4576186 320.96289465 544.12054937 321.8125 547 C323.2722764 551.4320922 325.10995871 554.90414508 327.75 558.75 C330.73287615 563.18297373 331.82172905 565.71745612 331 571 C330.34 571 329.68 571 329 571 C329.01571045 571.84763916 329.01571045 571.84763916 329.03173828 572.71240234 C329.07324788 575.26655653 329.0993096 577.82063982 329.125 580.375 C329.14175781 581.26445313 329.15851562 582.15390625 329.17578125 583.0703125 C329.18544922 584.34648438 329.18544922 584.34648438 329.1953125 585.6484375 C329.21102295 586.82672119 329.21102295 586.82672119 329.22705078 588.02880859 C329 590 329 590 327 592 C326.34 591.01 325.68 590.02 325 589 C324.67 589.66 324.34 590.32 324 591 C322.68 591 321.36 591 320 591 C319.67 588.69 319.34 586.38 319 584 C317.29263672 583.49533203 317.29263672 583.49533203 315.55078125 582.98046875 C308.65704026 580.67718926 302.13807271 577.49237761 295.56243896 574.42126465 C291.46993568 572.51063746 287.36981586 570.61651389 283.26953125 568.72265625 C282.42596069 568.33278534 281.58239014 567.94291443 280.71325684 567.54122925 C268.08420124 561.71719826 255.35280231 556.12126338 242.63270569 550.49980164 C237.07069661 548.03877233 231.52925337 545.53381096 226 543 C226 543.99 226 544.98 226 546 C221.37799483 545.34011401 217.40436721 543.53426702 213.203125 541.59765625 C212.43364532 541.24839584 211.66416565 540.89913544 210.87136841 540.53929138 C209.20335588 539.78178803 207.53636935 539.02202225 205.87030029 538.26025391 C201.37439645 536.20515114 196.87062791 534.16742818 192.3671875 532.12890625 C191.43383575 531.70602325 190.50048401 531.28314026 189.53884888 530.84744263 C180.38951981 526.70913493 171.19812475 522.66926135 161.99719238 518.64727783 C159.39243894 517.50762999 156.78921839 516.3645552 154.18652344 515.22021484 C146.99344619 512.05836353 139.79781177 508.90668203 132.5703125 505.82421875 C130.54672206 504.94566469 128.52326862 504.06679494 126.5 503.1875 C125.61618652 502.82140625 124.73237305 502.4553125 123.82177734 502.078125 C123.04527832 501.73652344 122.2687793 501.39492188 121.46875 501.04296875 C120.81326172 500.76477295 120.15777344 500.48657715 119.48242188 500.19995117 C118 499 118 499 117 494 C108.75 492.68 100.5 491.36 92 490 C92 490.99 92 491.98 92 493 C81.66094022 492.36206561 71.42179211 491.14543825 61.14916992 489.84326172 C58.41180847 489.49674779 55.67374077 489.1562729 52.93554688 488.81640625 C51.18485136 488.5967083 49.43419865 488.37666886 47.68359375 488.15625 C46.87006943 488.05517944 46.0565451 487.95410889 45.21836853 487.84997559 C41.747575 487.40706909 38.3813503 486.89630757 35 486 C35.00444122 486.9768576 35.00888245 487.95371521 35.01345825 488.96017456 C35.05467489 498.33846774 35.0842966 507.7167417 35.10362434 517.09510612 C35.11389602 521.91223915 35.12773486 526.72929698 35.15087891 531.54638672 C35.2918019 561.72527739 34.91016666 591.82603967 31.125 621.8125 C30.95465269 623.2225628 30.78440777 624.63263798 30.61425781 626.04272461 C29.51777034 634.92262917 28.14348113 643.73158318 26.21923828 652.47387695 C25.08043537 657.75560585 24.84992328 662.59187829 25 668 C25.58450928 668.27295898 26.16901855 668.54591797 26.77124023 668.82714844 C28.95483968 669.97623505 30.73202098 671.23204827 32.66015625 672.765625 C33.7119104 673.59513672 33.7119104 673.59513672 34.78491211 674.44140625 C35.53651611 675.03824219 36.28812012 675.63507812 37.0625 676.25 C43.44851217 681.26892628 49.8883278 686.19577708 56.4375 691 C57.22535889 691.5779834 58.01321777 692.1559668 58.82495117 692.75146484 C61.21548194 694.50255723 63.60761799 696.25143795 66 698 C76.11864961 705.40532751 86.19661535 712.86033145 96.1875 720.4375 C97.04843262 721.0876709 97.90936523 721.7378418 98.79638672 722.40771484 C100.43802309 723.65764451 102.06623053 724.92544684 103.67919922 726.2121582 C105.95043386 728.02803962 105.95043386 728.02803962 108.37158203 729.44995117 C110.88019564 731.14701969 112.37287012 732.43066284 114 735 C114.96728737 740.51927259 114.75797649 745.86119214 114.5 751.4375 C114.45982418 752.94717127 114.42333055 754.45694529 114.390625 755.96679688 C114.30978881 759.64686442 114.15822874 763.32248109 114 767 C101.32133605 764.40018696 88.72344621 761.564391 76.15234375 758.48828125 C74.43555724 758.0702203 72.71872376 757.65235223 71.00184631 757.23466492 C67.45120626 756.37016577 63.90107227 755.50362845 60.35131836 754.63549805 C55.79833668 753.52216004 51.24417119 752.41375168 46.68964291 751.30675983 C43.1660261 750.44984309 39.64298351 749.59058547 36.12011909 748.73058128 C34.43891557 748.32042553 32.75754409 747.91095754 31.07600212 747.50219154 C28.74531537 746.93521574 26.41540886 746.36514101 24.08569336 745.79418945 C23.39337616 745.62640488 22.70105896 745.4586203 21.98776245 745.28575134 C17.22866067 744.11433034 17.22866067 744.11433034 15 743 C15.061875 744.85625 15.061875 744.85625 15.125 746.75 C15.13658291 750.01637962 14.8568702 752.2146947 13 755 C11.68 755 10.36 755 9 755 C8.95101563 755.83402344 8.90203125 756.66804687 8.8515625 757.52734375 C7.69151299 774.98808901 7.69151299 774.98808901 4.59765625 778.66796875 C2.16862307 782.21352573 1.38002804 786.12179488 0.3125 790.25 C0.08755859 791.09046875 -0.13738281 791.9309375 -0.36914062 792.796875 C-0.92074756 794.86246693 -1.46145467 796.9309642 -2 799 C-3.32 799 -4.64 799 -6 799 C-6.16604736 798.41508789 -6.33209473 797.83017578 -6.50317383 797.22753906 C-7.26417254 794.5657593 -8.03818426 791.90793487 -8.8125 789.25 C-9.20405273 787.86941406 -9.20405273 787.86941406 -9.60351562 786.4609375 C-9.86455078 785.57148437 -10.12558594 784.68203125 -10.39453125 783.765625 C-10.63018799 782.94868164 -10.86584473 782.13173828 -11.10864258 781.29003906 C-12.07267622 778.81328323 -13.41009961 777.11279499 -15 775 C-15.73046875 771.50390625 -15.73046875 771.50390625 -16.1875 767.5625 C-16.42533203 765.61537109 -16.42533203 765.61537109 -16.66796875 763.62890625 C-16.93434702 760.71754842 -17.0731 757.91837691 -17 755 C-18.65 754.67 -20.3 754.34 -22 754 C-23.28317892 750.15046324 -23.06643637 747.05261865 -23 743 C-23.78493835 743.2334613 -24.56987671 743.46692261 -25.37860107 743.7074585 C-35.66360392 746.71146752 -46.03551306 749.26649059 -56.453125 751.765625 C-58.28925141 752.20812009 -60.12533048 752.65081167 -61.96136475 753.09368896 C-65.77636463 754.01323509 -69.59184821 754.93073719 -73.40771484 755.84667969 C-78.30453771 757.02222091 -83.20020306 758.20250446 -88.09553909 759.38422012 C-91.87137285 760.29523583 -95.64773843 761.20403012 -99.42427826 762.11211395 C-101.2314043 762.54688055 -103.03837641 762.98228746 -104.84519196 763.41834259 C-107.3549241 764.02363791 -109.86534181 764.62600021 -112.37597656 765.22753906 C-113.12290268 765.40826965 -113.8698288 765.58900024 -114.63938904 765.77520752 C-119.77131963 767 -119.77131963 767 -122 767 C-122.24939948 762.60788326 -122.42960836 758.21962577 -122.54931641 753.82250977 C-122.599257 752.33121914 -122.66724616 750.84040954 -122.75439453 749.35083008 C-123.45334326 737.08633564 -123.45334326 737.08633564 -120.04370117 732.19165039 C-117.48674119 729.8528197 -114.88241498 727.91948431 -112 726 C-110.50850173 724.85443678 -109.02002867 723.70491992 -107.53515625 722.55078125 C-106.0481884 721.46596387 -104.5571876 720.38665601 -103.0625 719.3125 C-101.39447234 718.09773714 -99.72650529 716.88289104 -98.05859375 715.66796875 C-96.79764893 714.754104 -96.79764893 714.754104 -95.51123047 713.82177734 C-91.53733735 710.93890835 -87.57942629 708.03449358 -83.625 705.125 C-82.46145996 704.26926392 -82.46145996 704.26926392 -81.27441406 703.39624023 C-72.60422781 697.00033242 -64.05690267 690.44405061 -55.49511719 683.90429688 C-51.64919021 680.96904928 -47.7980722 678.04095934 -43.9375 675.125 C-43.28885986 674.63112793 -42.64021973 674.13725586 -41.97192383 673.62841797 C-39.07445838 671.44589134 -36.27118652 669.55829846 -33 668 C-32.82498732 661.6932931 -33.39871907 656.20169124 -34.75 650.0625 C-36.50907646 641.38824224 -37.81284735 632.68426716 -38.87268066 623.90109253 C-39.10985409 621.93787141 -39.35683976 619.97584279 -39.60449219 618.01391602 C-43.16843112 588.35779707 -43.2806024 558.54640402 -43.1373291 528.72619629 C-43.11639007 523.88388913 -43.10763576 519.0415587 -43.09765625 514.19921875 C-43.07658866 504.79942137 -43.04273526 495.39972222 -43 486 C-43.55269058 486.07942337 -44.10538116 486.15884674 -44.67481995 486.24067688 C-56.42397394 487.92770565 -68.17434167 489.60055423 -79.9375 491.1875 C-81.86625977 491.45336914 -81.86625977 491.45336914 -83.83398438 491.72460938 C-85.07341797 491.89154297 -86.31285156 492.05847656 -87.58984375 492.23046875 C-89.22747681 492.45319458 -89.22747681 492.45319458 -90.89819336 492.68041992 C-93.9569245 492.99556192 -96.92755892 493.05684896 -100 493 C-100 492.01 -100 491.02 -100 490 C-112.375 491.98 -112.375 491.98 -125 494 C-125.33 495.65 -125.66 497.3 -126 499 C-128.63560762 500.60924865 -131.02471407 501.81464504 -133.84375 503.01171875 C-134.66337219 503.37756073 -135.48299438 503.74340271 -136.32745361 504.12033081 C-139.04401411 505.32752535 -141.7715938 506.50735229 -144.5 507.6875 C-146.39820198 508.52493362 -148.29565427 509.36406846 -150.19238281 510.20483398 C-155.13629069 512.39092788 -160.08976304 514.55439416 -165.04614258 516.71203613 C-169.74932672 518.76275503 -174.44480969 520.8309147 -179.140625 522.8984375 C-184.39733242 525.21172285 -189.65501628 527.52262581 -194.91845703 529.82055664 C-204.99913703 534.22305679 -215.04879236 538.67765313 -225.00292969 543.36157227 C-230.68277096 546 -230.68277096 546 -234 546 C-234 545.01 -234 544.02 -234 543 C-239.89707702 545.64306665 -245.79279024 548.28915792 -251.6875 550.9375 C-253.02563751 551.53866638 -253.02563751 551.53866638 -254.39080811 552.15197754 C-269.1785234 558.79896586 -283.92666457 565.52829153 -298.6394043 572.33959961 C-323.86143983 584 -323.86143983 584 -327 584 C-327.33 586.31 -327.66 588.62 -328 591 C-329.32 591 -330.64 591 -332 591 C-332.33 590.34 -332.66 589.68 -333 589 C-333.99 589.99 -334.98 590.98 -336 592 C-337.17426264 589.65147472 -337.11508173 588.26225935 -337.09765625 585.6484375 C-337.09443359 584.79765625 -337.09121094 583.946875 -337.08789062 583.0703125 C-337.07951172 582.18085937 -337.07113281 581.29140625 -337.0625 580.375 C-337.05798828 579.4778125 -337.05347656 578.580625 -337.04882812 577.65625 C-337.03702591 575.43743352 -337.02056155 573.21874982 -337 571 C-337.66 571 -338.32 571 -339 571 C-339.37271022 566.04514654 -338.49001072 563.51971809 -335.8125 559.375 C-333.25389947 555.27617262 -331.40395468 551.51246555 -329.875 546.9375 C-326.74977633 539.11935089 -320.49803417 534.90214939 -314 530 C-312.2449597 528.63193609 -310.49728061 527.2548419 -308.74975586 525.87719727 C-307.57994582 524.95646357 -306.40755916 524.03899444 -305.23266602 523.12475586 C-301.23705811 520.0106703 -297.34750235 516.79476751 -293.5 513.5 C-287.98593199 508.78285447 -282.3292517 504.27934573 -276.60546875 499.8203125 C-272.85360496 496.89547796 -269.14503462 493.91818838 -265.4375 490.9375 C-260.2821535 486.79917662 -255.08311013 482.72633075 -249.83251953 478.7097168 C-245.9690225 475.75247941 -242.13407647 472.76118659 -238.3125 469.75 C-232.89125252 465.47892267 -227.4504478 461.23374792 -222 457 C-211.1436828 448.56305147 -200.327248 440.0815609 -189.60253906 431.4777832 C-185.44396143 428.14478973 -181.2610179 424.84497763 -177.0625 421.5625 C-171.99484628 417.59800899 -166.98541669 413.56734931 -162 409.5 C-157.56045513 405.87878478 -153.11190666 402.27225805 -148.60571289 398.73413086 C-147.46112979 397.83528841 -146.31962568 396.9325099 -145.18139648 396.02563477 C-142.18050573 393.64699072 -139.14016076 391.38694301 -135.98046875 389.22265625 C-129.20972954 384.86216225 -129.20972954 384.86216225 -125.20703125 378.26171875 C-125.46520135 374.20904865 -126.37094113 371.77110442 -128.9375 368.625 C-134.80194794 361.16115716 -133.31438839 348.63563545 -133.26074219 339.48999023 C-133.24996249 337.30489703 -133.26073219 335.12061628 -133.2734375 332.93554688 C-133.28198584 325.76298427 -133.23815651 318.88606154 -131 312 C-122.94922515 306.63281677 -107.75213079 308.00131616 -98.5 309.8125 C-95 311 -95 311 -93 314 C-92.75949097 315.9172821 -92.75949097 315.9172821 -92.77294922 318.10424805 C-92.77317581 319.3351844 -92.77317581 319.3351844 -92.77340698 320.59098816 C-92.78372955 321.47232925 -92.79405212 322.35367035 -92.8046875 323.26171875 C-92.8075174 324.16751175 -92.81034729 325.07330475 -92.81326294 326.00654602 C-92.82446036 328.90033158 -92.84956411 331.79380794 -92.875 334.6875 C-92.88503037 336.64908407 -92.89415612 338.610673 -92.90234375 340.57226562 C-92.92439827 345.3816296 -92.95892511 350.19076237 -93 355 C-92.13914795 354.19393311 -91.2782959 353.38786621 -90.39135742 352.55737305 C-89.23369613 351.47951 -88.07589226 350.40180009 -86.91796875 349.32421875 C-86.35396362 348.79534058 -85.7899585 348.2664624 -85.2088623 347.72155762 C-80.90052824 343.72041315 -76.40586345 340.13025438 -71.69973755 336.60411072 C-66.52110645 332.7006266 -61.71316045 328.44929626 -57 324 C-56.43539063 323.48308594 -55.87078125 322.96617187 -55.2890625 322.43359375 C-53.74921193 320.91292115 -53.74921193 320.91292115 -53 318 C-52.01 318 -51.02 318 -50 318 C-49.22083908 323.02125926 -48.86983399 326.97703996 -50 332 C-47.59253975 329.59253975 -47.50894574 328.30382074 -46.9375 325 C-46.0896861 320.1793722 -46.0896861 320.1793722 -45 318 C-44.90887007 315.54556485 -44.87865307 313.11996833 -44.89320374 310.66557312 C-44.8940388 309.51763888 -44.8940388 309.51763888 -44.89489073 308.34651405 C-44.89794052 305.76702925 -44.90813373 303.18762051 -44.91821289 300.6081543 C-44.92176778 298.76331157 -44.92485411 296.9184679 -44.92750549 295.07362366 C-44.93407312 291.08817616 -44.94364497 287.10275082 -44.95540047 283.11731529 C-44.97370886 276.78726566 -44.98329996 270.45722144 -44.99131775 264.12715149 C-45.01544518 246.12112031 -45.050924 228.11512161 -45.09594727 210.10913086 C-45.12071413 200.17327594 -45.13794781 190.23743448 -45.14750665 180.30155307 C-45.1529169 175.05522136 -45.16210637 169.80896054 -45.18089485 164.56265831 C-45.33899755 119.38320685 -43.15479382 75.41579709 -29 32.0625 C-28.69223633 31.11036621 -28.38447266 30.15823242 -28.06738281 29.17724609 C-24.44471067 18.54010462 -19.46425281 8.2734694 -10.625 1.0625 C-6.96006711 -0.42092522 -3.8349642 -0.83801069 0 0 Z " fill="#000000" transform="translate(339,0)"/>
</svg>
