<?xml version="1.0" encoding="UTF-8"?>
<svg version="1.1" xmlns="http://www.w3.org/2000/svg" width="1001" height="819">
<path d="M0 0 C7.09953293 2.19774844 10.40368828 10.06299222 13.78515625 16.18359375 C27.75623919 42.98034503 33.93669466 73.33828012 38.78515625 102.93359375 C38.96756363 104.03580261 38.96756363 104.03580261 39.15365601 105.16027832 C42.35642994 124.76855871 43.72101068 144.28745166 43.60546875 164.14453125 C43.60172299 166.08606823 43.59888345 168.02760715 43.59689331 169.96914673 C43.58937959 174.99621108 43.56984197 180.02315359 43.54748535 185.0501709 C43.52675722 190.21311801 43.5178349 195.37608547 43.5078125 200.5390625 C43.48658002 210.60812547 43.45259923 220.67709935 43.41015625 230.74609375 C44.17035065 230.76820419 44.93054504 230.79031464 45.71377563 230.81309509 C64.42397407 231.36853414 83.09824417 232.20216647 101.78515625 233.30859375 C104.20180343 233.44890366 106.61847011 233.58887835 109.03515625 233.72851562 C114.82705127 234.06387909 120.61869967 234.403246 126.41015625 234.74609375 C126.40793564 234.02771835 126.40571503 233.30934296 126.40342712 232.56919861 C126.38321863 225.73086855 126.36807882 218.89254307 126.35834408 212.05419064 C126.35317081 208.54026431 126.34617689 205.02636307 126.3347168 201.51245117 C126.32156545 197.45361112 126.31688222 193.39479657 126.3125 189.3359375 C126.30733871 188.10093002 126.30217743 186.86592255 126.29685974 185.5934906 C126.2962114 175.29195452 126.38506311 164.87155943 128.41015625 154.74609375 C123.79015625 154.74609375 119.17015625 154.74609375 114.41015625 154.74609375 C114.3111701 149.83485786 114.23863378 144.92420437 114.19042969 140.01220703 C114.17033232 138.34185673 114.14304942 136.67157662 114.10839844 135.00146484 C114.05979506 132.59845655 114.03716969 130.19637941 114.01953125 127.79296875 C113.99888611 127.04803162 113.97824097 126.30309448 113.95697021 125.5355835 C113.95546645 122.04935052 114.11777661 120.13021851 116.25878906 117.31738281 C120.95249425 113.88925224 125.67582609 113.56528377 131.41015625 112.74609375 C132.73015625 107.46609375 134.05015625 102.18609375 135.41015625 96.74609375 C125.61295492 95.72199605 115.84447346 95.43245412 106.00585938 95.19384766 C103.90614808 95.14168983 101.80660692 95.08466705 99.70703125 95.02734375 C98.47307617 94.99705078 97.23912109 94.96675781 95.96777344 94.93554688 C92.39851178 94.74547365 88.93879508 94.30533263 85.41015625 93.74609375 C85.41015625 92.75609375 85.41015625 91.76609375 85.41015625 90.74609375 C92.30976823 89.52971771 99.23123347 89.40259567 106.22265625 89.18359375 C107.5068042 89.14113525 108.79095215 89.09867676 110.11401367 89.05493164 C119.88282489 88.75021193 129.63770936 88.62835343 139.41015625 88.74609375 C139.53777344 88.00488281 139.66539062 87.26367188 139.796875 86.5 C141.11591691 80.57691374 143.89228595 75.79659815 148.41015625 71.74609375 C148.74015625 71.08609375 149.07015625 70.42609375 149.41015625 69.74609375 C152.71015625 70.07609375 156.01015625 70.40609375 159.41015625 70.74609375 C159.74015625 72.06609375 160.07015625 73.38609375 160.41015625 74.74609375 C161.07015625 74.74609375 161.73015625 74.74609375 162.41015625 74.74609375 C163.25042021 76.51364901 164.08214347 78.28526638 164.91015625 80.05859375 C165.37421875 81.04472656 165.83828125 82.03085938 166.31640625 83.046875 C167.41015625 85.74609375 167.41015625 85.74609375 167.41015625 88.74609375 C168.44527344 88.73449219 169.48039063 88.72289063 170.546875 88.7109375 C180.92640344 88.63423566 191.28609045 88.83990024 201.66015625 89.18359375 C202.90885498 89.22282959 204.15755371 89.26206543 205.4440918 89.30249023 C211.16766691 89.50434379 216.76569118 89.7524675 222.41015625 90.74609375 C222.41015625 91.73609375 222.41015625 92.72609375 222.41015625 93.74609375 C216.55451297 94.73553197 210.81477288 94.95794528 204.8828125 95.0625 C203.89389511 95.0832811 202.90497772 95.10406219 201.88609314 95.12547302 C198.74834687 95.19049929 195.61052179 95.24963393 192.47265625 95.30859375 C190.33658062 95.35182366 188.20051275 95.39543933 186.06445312 95.43945312 C180.84643353 95.54613218 175.62833519 95.64752991 170.41015625 95.74609375 C171.07015625 101.02609375 171.73015625 106.30609375 172.41015625 111.74609375 C177.36015625 111.74609375 182.31015625 111.74609375 187.41015625 111.74609375 C193.44752037 120.10332692 193.00153576 127.9615162 192.72265625 137.80859375 C192.69753194 139.35738572 192.67472609 140.90621711 192.65429688 142.45507812 C192.6039296 146.22053577 192.50605593 149.980433 192.41015625 153.74609375 C187.46015625 153.74609375 182.51015625 153.74609375 177.41015625 153.74609375 C177.74015625 177.17609375 178.07015625 200.60609375 178.41015625 224.74609375 C185.67015625 228.37609375 192.93015625 232.00609375 200.41015625 235.74609375 C203.55442139 237.40809814 206.69868652 239.07010254 209.93823242 240.7824707 C221.92518722 246.47476126 234.82910277 246.56686448 247.86999869 247.07700062 C251.46780191 247.22680487 255.06308491 247.42373468 258.65888977 247.61480713 C264.81715403 247.93598551 270.97619713 248.22919921 277.13677979 248.50216675 C285.98260215 248.89432684 294.82576392 249.33134528 303.66884851 249.78064549 C316.76683714 250.44570974 329.86578487 251.08766866 342.96585798 251.71023357 C361.35358414 252.58467369 379.73615227 253.53817434 398.1171875 254.54296875 C399.41446337 254.61387033 400.71173923 254.68477192 402.04832649 254.75782204 C407.10224713 255.03440028 412.15613707 255.3115252 417.20996571 255.58977985 C425.47723186 256.04479034 433.74491698 256.49133049 442.01293945 256.93237305 C444.20826797 257.04977016 446.40359575 257.1671811 448.59892273 257.28460693 C451.65137524 257.44784809 454.70384062 257.61080875 457.75637245 257.77256012 C462.89826659 258.04524272 468.0396437 258.32476334 473.18030548 258.61982346 C474.64034456 258.70250144 476.10054465 258.78239447 477.56090546 258.85918045 C479.50247481 258.96190584 481.44341002 259.07641994 483.38427734 259.19165039 C484.43988861 259.25107315 485.49549988 259.31049591 486.58309937 259.37171936 C489.51972743 259.76060377 491.76222954 260.42665786 494.41015625 261.74609375 C498.47617638 267.13388855 497.79323699 273.26767274 497.703125 279.70703125 C497.69888016 280.8527359 497.69463531 281.99844055 497.69026184 283.17886353 C497.67351265 286.8265159 497.63586616 290.47360926 497.59765625 294.12109375 C497.58260461 296.59895034 497.56891704 299.07681561 497.55664062 301.5546875 C497.52362137 307.61867927 497.47345884 313.68234656 497.41015625 319.74609375 C483.25117234 322.54813936 469.00448354 324.83324268 454.75756836 327.13500977 C451.30189953 327.69359288 447.84735993 328.25885797 444.39304638 328.82575321 C441.67098117 329.27125882 438.94814185 329.71189211 436.22509193 330.15133476 C434.35128381 330.45487408 432.478256 330.76321864 430.60527039 331.0717926 C423.83107618 332.15714614 417.07174045 333.01684858 410.24731445 333.69262695 C400.15099118 334.7016754 390.17227404 336.24899755 380.16015625 337.87890625 C378.21479703 338.19166054 376.26936525 338.50396374 374.3238678 338.81585693 C369.10263836 339.65420868 363.88244647 340.49886027 358.66243362 341.34474945 C353.16935766 342.23374165 347.67531869 343.11674381 342.18139648 344.00048828 C330.61717861 345.86181396 319.05414492 347.73041588 307.49139404 349.60083008 C300.41127622 350.74609499 293.33091126 351.8898265 286.25048828 353.03320312 C283.90695162 353.41167018 281.56341524 353.790139 279.21987915 354.16860962 C278.06755421 354.35470417 276.91522926 354.54079872 275.72798538 354.7325325 C261.38008638 357.04973195 247.0323503 359.36792052 232.68554688 361.69189453 C229.68050382 362.17848883 226.67545627 362.66505533 223.67040825 363.15161896 C220.9212468 363.59693178 218.17217648 364.04280389 215.42311096 364.4887085 C213.74439918 364.76056494 212.06568339 365.03239661 210.38696289 365.30419922 C209.66485626 365.42151964 208.94274963 365.53884007 208.19876099 365.65971565 C206.75046603 365.8939793 205.30162229 366.12487092 203.85229778 366.3526783 C202.04503251 366.64381871 200.24063203 366.95286847 198.43802357 367.27157402 C190.50801654 368.61465937 182.85489328 369.02936717 174.82055664 369.00146484 C172.84136879 369.00702176 170.86218095 369.01258301 168.88299358 369.01830888 C166.78464733 369.02261113 164.68634881 369.0221895 162.58799934 369.02048874 C158.19559925 369.0176264 153.80335613 369.03211137 149.41099548 369.04946899 C136.93149086 369.09623232 124.45200067 369.12045506 111.97241211 369.12695312 C105.05730693 369.13070543 98.14238325 369.14873509 91.2273559 369.18204749 C86.86427736 369.20221274 82.5016683 369.20465796 78.13856232 369.19376731 C74.79026779 369.19054434 71.4422363 369.2132551 68.09399414 369.23193359 C66.89234116 369.22376114 65.69068817 369.21558868 64.45262146 369.20716858 C58.15154557 369.26982157 54.1231905 369.38119995 49.41015625 373.74609375 C42.51526146 380.94426011 43.97632186 395.59130785 43.515625 404.95703125 C43.44353583 406.31148925 43.37063714 407.66590437 43.29699707 409.02027893 C43.14116782 411.89318798 42.98797854 414.76621836 42.83676147 417.63937378 C41.13535261 449.75413284 38.72145764 481.75358226 35.41015625 513.74609375 C35.29325439 514.8858667 35.17635254 516.02563965 35.0559082 517.19995117 C31.67006775 550.10644821 27.42368579 582.87702725 22.79664993 615.62887955 C22.41779357 618.31690613 22.0421332 621.0053621 21.66720581 623.69393921 C13.65114956 681.02311381 13.65114956 681.02311381 8.41015625 696.74609375 C8.99571289 696.91262451 9.58126953 697.07915527 10.18457031 697.25073242 C16.96380263 699.22590468 23.55334881 701.57278938 30.16015625 704.05859375 C32.53886723 704.94713752 34.9177862 705.83512461 37.296875 706.72265625 C38.24692665 707.07764442 38.24692665 707.07764442 39.21617126 707.43980408 C44.46843476 709.40058396 49.7291087 711.33799191 54.9921875 713.26953125 C55.81695587 713.57241562 56.64172424 713.87529999 57.4914856 714.18736267 C60.77786605 715.39415267 64.06425204 716.6009185 67.35168457 717.80484009 C75.76389932 720.88640633 84.14791016 724.0193355 92.484375 727.30078125 C100.40708939 730.41092996 108.40725536 733.23030219 116.47280884 735.94546509 C119.496393 736.96578501 122.51471661 738.00127855 125.53352356 739.03562927 C131.46429312 741.06751001 137.40114638 743.07699327 143.3515625 745.05078125 C145.3089409 745.71903612 147.26600223 746.38822087 149.22265625 747.05859375 C150.08600586 747.33501709 150.94935547 747.61144043 151.83886719 747.89624023 C158.22440777 750.12313589 162.35702578 753.63983281 165.41015625 759.74609375 C165.49965042 761.19646482 165.52774065 762.65088004 165.52368164 764.10400391 C165.52360611 765.00478668 165.52353058 765.90556946 165.52345276 766.83364868 C165.51571083 768.29464493 165.51571083 768.29464493 165.5078125 769.78515625 C165.50639755 770.78114838 165.5049826 771.7771405 165.50352478 772.80331421 C165.49791561 775.99260428 165.48536155 779.18182481 165.47265625 782.37109375 C165.46764243 784.5299469 165.46307932 786.68880116 165.45898438 788.84765625 C165.4479432 794.14715925 165.43119613 799.44662153 165.41015625 804.74609375 C149.86833788 804.01110321 134.38216453 802.58629855 118.88610768 801.2215507 C115.07026446 800.88605586 111.25416767 800.55347031 107.43809509 800.22059631 C100.23727381 799.59207077 93.03665421 798.96126759 85.83611816 798.32948357 C72.90215966 797.19471112 59.96787007 796.06372188 47.03348535 794.93381888 C42.49874796 794.53758578 37.96410542 794.14028835 33.42953885 793.74210536 C30.62266467 793.49576889 27.81573116 793.25011354 25.00878334 793.00461769 C23.08174139 792.83584569 21.15477653 792.66619417 19.22781372 792.496521 C18.08847885 792.39699631 16.94914398 792.29747162 15.77528381 792.19493103 C14.78154786 792.10773772 13.78781191 792.02054441 12.76396275 791.93070889 C10.47134938 791.7200296 10.47134938 791.7200296 8.41015625 791.74609375 C8.20652466 792.75978027 8.20652466 792.75978027 7.9987793 793.79394531 C7.3758273 796.86362496 6.73693086 799.92977369 6.09765625 802.99609375 C5.88431641 804.05957031 5.67097656 805.12304688 5.45117188 806.21875 C5.23525391 807.24355469 5.01933594 808.26835938 4.796875 809.32421875 C4.60311279 810.2668457 4.40935059 811.20947266 4.2097168 812.18066406 C3.34636351 814.95077593 2.4004948 816.64192617 0.41015625 818.74609375 C-2.58984375 819.24609375 -2.58984375 819.24609375 -5.58984375 818.74609375 C-8.33084775 815.84832957 -9.18323243 813.18366232 -9.9765625 809.32421875 C-10.19248047 808.29941406 -10.40839844 807.27460937 -10.63085938 806.21875 C-10.84419922 805.15527344 -11.05753906 804.09179688 -11.27734375 802.99609375 C-11.50228516 801.91714844 -11.72722656 800.83820312 -11.95898438 799.7265625 C-12.51183645 797.06816744 -13.05507883 794.40817572 -13.58984375 791.74609375 C-21.69441793 792.40783105 -29.79847665 793.07575617 -37.90234375 793.74609375 C-39.17829407 793.85158539 -40.45424438 793.95707703 -41.76885986 794.06576538 C-60.39243399 795.60922421 -79.01020965 797.21335205 -97.625 798.859375 C-98.65082247 798.95001095 -99.67664494 799.0406469 -100.73355293 799.13402939 C-111.06314114 800.04681188 -121.3924845 800.96224866 -131.72118664 801.8850069 C-135.62492903 802.23329347 -139.52885147 802.57953105 -143.43281364 802.92534447 C-145.26525396 803.08818407 -147.09760909 803.25198535 -148.92987251 803.41680336 C-151.455484 803.64394332 -153.98136218 803.86786164 -156.50732422 804.09106445 C-157.2425295 804.15802521 -157.97773478 804.22498596 -158.735219 804.29397583 C-162.70012449 804.64064979 -166.61016019 804.81139871 -170.58984375 804.74609375 C-170.69148567 798.44740625 -170.76141036 792.14893122 -170.80957031 785.84960938 C-170.82965263 783.70792741 -170.85692412 781.56630005 -170.89160156 779.42480469 C-170.94026773 776.3416596 -170.96284665 773.25924113 -170.98046875 770.17578125 C-171.00111389 769.22242889 -171.02175903 768.26907654 -171.04302979 767.28683472 C-171.04525072 760.66735238 -169.69187558 757.18412591 -165.17886353 752.18228149 C-162.45440716 749.71986353 -158.92124237 748.82702659 -155.50390625 747.63671875 C-154.69933487 747.34917725 -153.89476349 747.06163574 -153.06581116 746.76538086 C-150.45173346 745.8338425 -147.83345039 744.91481528 -145.21484375 743.99609375 C-143.41361784 743.35701017 -141.61259269 742.71736051 -139.81176758 742.07714844 C-130.2100381 738.67327507 -120.58162132 735.3712557 -110.89355469 732.22094727 C-101.90332201 729.25897019 -93.11599452 725.77078899 -84.296875 722.33984375 C-75.57103575 718.95018595 -66.78766194 715.72016165 -58.00390625 712.484375 C-52.3882085 710.41514788 -46.78082357 708.32446328 -41.17578125 706.2265625 C-38.75649894 705.32250889 -36.33711353 704.41873173 -33.91769409 703.51504517 C-32.32948954 702.92108298 -30.74169704 702.32601778 -29.15432739 701.72982788 C-26.93470235 700.89636814 -24.71361781 700.06691508 -22.4921875 699.23828125 C-21.82267059 698.98568039 -21.15315369 698.73307953 -20.46334839 698.4728241 C-15.81749007 696.74609375 -15.81749007 696.74609375 -13.58984375 696.74609375 C-13.74018066 696.13241943 -13.89051758 695.51874512 -14.04541016 694.88647461 C-18.89933734 674.78285101 -22.17325443 654.58867565 -25.10357666 634.12982178 C-25.53988248 631.09375323 -25.97998428 628.05825888 -26.42173767 625.02297878 C-36.90113092 553.00317226 -44.94427841 480.91021072 -48.55175781 408.18652344 C-48.28232031 390.25764147 -48.28232031 390.25764147 -53.96484375 374.05859375 C-57.79488571 370.68450917 -60.3371826 369.48330514 -65.44714355 369.57528687 C-66.42696135 369.58729189 -67.40677914 369.59929691 -68.41628838 369.61166573 C-69.48869837 369.63459631 -70.56110836 369.65752689 -71.66601562 369.68115234 C-74.03333117 369.71281929 -76.40065118 369.74415404 -78.76797485 369.77520752 C-80.03280323 369.795261 -81.29763161 369.81531448 -82.60078812 369.83597565 C-89.448244 369.93728353 -96.29602078 369.98602511 -103.14404297 370.03173828 C-103.86529193 370.03663615 -104.58654088 370.04153402 -105.32964587 370.04658031 C-152.12487514 370.35276461 -198.24347642 370.10459555 -244.46484375 361.87109375 C-245.43309837 361.6988176 -246.401353 361.52654144 -247.39894867 361.3490448 C-256.33829814 359.74824803 -265.2660741 358.08794333 -274.18423462 356.37310791 C-291.26390472 353.09818504 -308.40042969 350.25377997 -325.57421875 347.52734375 C-326.59527356 347.36520394 -326.59527356 347.36520394 -327.63695574 347.19978857 C-333.79056024 346.22321473 -339.94473236 345.25025778 -346.09966469 344.28208733 C-355.33241817 342.82959376 -364.56131652 341.35476461 -373.78857422 339.86767578 C-377.46480482 339.27712303 -381.14111942 338.68709692 -384.81748199 338.09736633 C-387.10883435 337.72918991 -389.39999533 337.35981996 -391.69094086 336.98912048 C-402.52601235 335.23790534 -413.33262766 333.57597001 -424.25105572 332.44218731 C-431.99069035 331.62948537 -439.6552186 330.42062687 -447.3359375 329.1796875 C-448.84997378 328.93802058 -450.36405876 328.69665862 -451.87818909 328.45558167 C-455.00687133 327.95652256 -458.13508129 327.45463711 -461.26293945 326.95043945 C-465.27008324 326.30463113 -469.27818413 325.6649994 -473.28662014 325.0272665 C-476.39324991 324.53253937 -479.49946415 324.03524466 -482.60554695 323.53709602 C-484.08502836 323.3000168 -485.56461514 323.06359418 -487.04430962 322.82784843 C-489.09693143 322.50030684 -491.14899212 322.16945607 -493.20092773 321.83764648 C-494.3657518 321.65048569 -495.53057587 321.46332489 -496.73069763 321.27049255 C-499.58984375 320.74609375 -499.58984375 320.74609375 -502.58984375 319.74609375 C-502.666007 312.45042621 -502.71849135 305.15486151 -502.75463867 297.85888672 C-502.76971037 295.37772795 -502.79017121 292.89659576 -502.81616211 290.41552734 C-502.85261542 286.84596186 -502.86958667 283.27674914 -502.8828125 279.70703125 C-502.89829636 278.60056244 -502.91378021 277.49409363 -502.92973328 276.35409546 C-502.93194982 266.17464578 -502.93194982 266.17464578 -499.58984375 261.74609375 C-495.89948497 259.9068062 -492.66999864 259.42560109 -488.57836914 259.20288086 C-487.34639801 259.13163498 -486.11442688 259.0603891 -484.84512329 258.98698425 C-483.45925591 258.91566482 -482.07338114 258.844489 -480.6875 258.7734375 C-479.17674809 258.68959015 -477.66603766 258.60499281 -476.15536499 258.51972961 C-471.89821374 258.2817494 -467.64053142 258.05477096 -463.38270187 257.82929993 C-458.74119901 257.58160508 -454.10025659 257.32379239 -449.45922852 257.06738281 C-439.34940654 256.51078592 -429.23901781 255.96502772 -419.1284914 255.42139626 C-408.21667243 254.83440887 -397.30508164 254.24326842 -386.39355469 253.65087891 C-385.50703551 253.60275547 -384.62051633 253.55463203 -383.70713294 253.5050503 C-379.11919966 253.25599902 -374.53126834 253.00691177 -369.94333839 252.75779915 C-360.55329941 252.24794682 -351.16325421 251.7382093 -341.77319336 251.22875977 C-340.83576715 251.17789793 -339.89834094 251.1270361 -338.93250787 251.074633 C-325.70612575 250.35711552 -312.47958718 249.64254287 -299.25293255 248.93006742 C-293.84433184 248.63863233 -288.43575669 248.34672296 -283.02718139 248.05481678 C-277.94297684 247.78048412 -272.85872855 247.5069814 -267.77444488 247.23411947 C-264.63006997 247.06516972 -261.48573825 246.89542616 -258.34141719 246.72547734 C-256.90674156 246.64809609 -255.47204853 246.57103631 -254.03733552 246.49435127 C-249.55425449 246.25464095 -245.07192279 246.00383018 -240.58984375 245.74609375 C-239.5723399 245.68997911 -239.5723399 245.68997911 -238.53428042 245.63273084 C-236.48414927 245.51847616 -234.43455963 245.39698878 -232.38494873 245.27378845 C-231.18252407 245.20386153 -229.98009941 245.13393461 -228.74123764 245.06188869 C-224.57288756 244.64418658 -221.73843904 243.64714521 -217.984375 241.796875 C-217.36817795 241.50177536 -216.7519809 241.20667572 -216.11711121 240.90263367 C-214.19980797 239.9777202 -212.30173554 239.01965227 -210.40234375 238.05859375 C-209.12807559 237.43714622 -207.85268361 236.81799773 -206.57617188 236.20117188 C-202.89798051 234.41436631 -199.24311225 232.58342217 -195.58984375 230.74609375 C-191.62984375 228.76609375 -187.66984375 226.78609375 -183.58984375 224.74609375 C-183.25984375 201.31609375 -182.92984375 177.88609375 -182.58984375 153.74609375 C-187.53984375 153.74609375 -192.48984375 153.74609375 -197.58984375 153.74609375 C-197.70537548 149.20954785 -197.80466166 144.67820898 -197.86450195 140.14135742 C-197.8894713 138.60211795 -197.92345989 137.0629949 -197.96704102 135.52416992 C-198.2191008 126.38774423 -198.15822727 119.4541396 -192.58984375 111.74609375 C-187.63984375 111.74609375 -182.68984375 111.74609375 -177.58984375 111.74609375 C-176.92984375 106.46609375 -176.26984375 101.18609375 -175.58984375 95.74609375 C-176.88083984 95.7210376 -178.17183594 95.69598145 -179.50195312 95.67016602 C-184.31779942 95.57558808 -189.13351831 95.47549282 -193.94921875 95.3737793 C-196.02861539 95.33062018 -198.10804315 95.28893274 -200.1875 95.2487793 C-203.18629305 95.19061305 -206.18493223 95.12705513 -209.18359375 95.0625 C-210.10474976 95.04578751 -211.02590576 95.02907501 -211.97497559 95.01185608 C-217.25080356 94.89232126 -222.36515201 94.49514394 -227.58984375 93.74609375 C-227.58984375 92.75609375 -227.58984375 91.76609375 -227.58984375 90.74609375 C-223.0344251 90.03736097 -218.58329125 89.58242827 -213.9765625 89.4296875 C-212.73600098 89.3877124 -211.49543945 89.3457373 -210.21728516 89.30249023 C-208.26701416 89.24363647 -208.26701416 89.24363647 -206.27734375 89.18359375 C-205.61353699 89.16241486 -204.94973022 89.14123596 -204.26580811 89.11941528 C-193.70494601 88.78264456 -183.15546911 88.61724466 -172.58984375 88.74609375 C-172.46738281 87.84632812 -172.34492188 86.9465625 -172.21875 86.01953125 C-171.64933037 83.05571975 -170.93480977 81.00441728 -169.52734375 78.37109375 C-169.16511719 77.68273437 -168.80289062 76.994375 -168.4296875 76.28515625 C-168.15253906 75.77726562 -167.87539063 75.269375 -167.58984375 74.74609375 C-166.92984375 74.74609375 -166.26984375 74.74609375 -165.58984375 74.74609375 C-165.25984375 73.42609375 -164.92984375 72.10609375 -164.58984375 70.74609375 C-159.63984375 70.25109375 -159.63984375 70.25109375 -154.58984375 69.74609375 C-154.15671875 70.50921875 -153.72359375 71.27234375 -153.27734375 72.05859375 C-151.78941255 74.66690275 -151.78941255 74.66690275 -150.12109375 76.1640625 C-148.42779944 77.91351198 -147.47893372 79.56816462 -146.40234375 81.74609375 C-146.05816406 82.42671875 -145.71398437 83.10734375 -145.359375 83.80859375 C-144.58984375 85.74609375 -144.58984375 85.74609375 -144.58984375 88.74609375 C-143.63851563 88.73449219 -142.6871875 88.72289063 -141.70703125 88.7109375 C-131.43192015 88.62919937 -121.17164626 88.8559495 -110.90234375 89.18359375 C-108.95207275 89.24244751 -108.95207275 89.24244751 -106.96240234 89.30249023 C-105.10156006 89.36545288 -105.10156006 89.36545288 -103.203125 89.4296875 C-102.09751221 89.46634521 -100.99189941 89.50300293 -99.8527832 89.54077148 C-96.39245065 89.75851482 -93.01463761 90.21326376 -89.58984375 90.74609375 C-89.58984375 91.73609375 -89.58984375 92.72609375 -89.58984375 93.74609375 C-97.31009038 94.933824 -105.04234918 95.0484316 -112.83984375 95.24609375 C-122.12139815 95.48385442 -131.34106278 95.8817217 -140.58984375 96.74609375 C-138.60984375 104.66609375 -138.60984375 104.66609375 -136.58984375 112.74609375 C-135.06359375 113.01421875 -133.53734375 113.28234375 -131.96484375 113.55859375 C-127.76975462 114.39761158 -124.27062201 115.48099943 -120.58984375 117.74609375 C-119.03007311 120.86563503 -119.46880249 124.17568759 -119.4921875 127.59765625 C-119.49430992 128.75870377 -119.49430992 128.75870377 -119.49647522 129.94320679 C-119.50207972 132.41920817 -119.51463292 134.89511963 -119.52734375 137.37109375 C-119.53235817 139.04817578 -119.53692118 140.72525922 -119.54101562 142.40234375 C-119.5520506 146.51696181 -119.56931821 150.63151253 -119.58984375 154.74609375 C-124.20984375 154.74609375 -128.82984375 154.74609375 -133.58984375 154.74609375 C-133.25984375 156.39609375 -132.92984375 158.04609375 -132.58984375 159.74609375 C-131.64255099 169.60304652 -131.45082133 179.43771902 -131.4921875 189.3359375 C-131.49430992 191.30174522 -131.49430992 191.30174522 -131.49647522 193.30726624 C-131.50023206 196.73479237 -131.5100009 200.16227383 -131.5211792 203.58978271 C-131.53154328 207.10997921 -131.53600443 210.63018316 -131.54101562 214.15039062 C-131.55163184 221.01564296 -131.56862225 227.88086619 -131.58984375 234.74609375 C-130.25132858 234.67092529 -130.25132858 234.67092529 -128.88577271 234.59423828 C-120.44197193 234.12054708 -111.99802646 233.64954121 -103.55391121 233.18148804 C-99.21359196 232.94081297 -94.87333389 232.69913037 -90.53320312 232.45507812 C-86.33823567 232.21922694 -82.1431241 231.98610995 -77.94790268 231.75482178 C-76.35402977 231.66648034 -74.76020949 231.57718356 -73.16644669 231.48687744 C-64.96754183 231.02293005 -56.80595703 230.63208004 -48.58984375 230.74609375 C-48.5998365 229.1889843 -48.5998365 229.1889843 -48.61003113 227.60041809 C-48.67162671 217.67608895 -48.7161844 207.75180001 -48.74528027 197.82732105 C-48.7607429 192.72862923 -48.78161185 187.63009518 -48.81616211 182.53149414 C-48.96859764 159.39762291 -48.84038677 136.69674876 -45.58984375 113.74609375 C-45.47379791 112.89024689 -45.35775208 112.03440002 -45.2381897 111.15261841 C-44.56122532 106.20587076 -43.77511772 101.28680087 -42.90234375 96.37109375 C-42.77800964 95.65748688 -42.65367554 94.94388 -42.52557373 94.20864868 C-30.02319508 22.99228385 -30.02319508 22.99228385 -9.46875 1.9609375 C-6.3395955 -0.06227882 -3.67055745 -0.35985857 0 0 Z " fill="#040404" transform="translate(503.58984375,0.25390625)"/>
<path d="M0 0 C44.55 0 89.1 0 135 0 C135 0.66 135 1.32 135 2 C134.32100616 2.00146656 133.64201231 2.00293312 132.94244289 2.00444412 C116.40800721 2.0415233 99.87380962 2.10055257 83.33954525 2.18390274 C75.34362903 2.22368331 67.34781109 2.25608075 59.35180664 2.27099609 C52.38109254 2.28401776 45.41059476 2.31099538 38.4400025 2.35461307 C34.75032727 2.37721657 31.06091875 2.39291137 27.37116814 2.39188385 C23.24836078 2.39099756 19.12633893 2.42127353 15.00366211 2.45410156 C13.78518082 2.4490712 12.56669952 2.44404083 11.31129456 2.43885803 C4.66199886 2.52081956 0.41921838 3.03555434 -5 7 C-4.1875 5.0625 -4.1875 5.0625 -3 3 C-2.01 2.67 -1.02 2.34 0 2 C0 1.34 0 0.68 0 0 Z " fill="#DADADA" transform="translate(557,367)"/>
<path d="M0 0 C-1.39235289 3.23475924 -2.96364852 4.98095929 -5.625 7.25 C-33.50896852 34.62973763 -36.69541423 92.37633596 -41 129 C-41.66 129 -42.32 129 -43 129 C-43.38686341 120.24101564 -41.9703018 111.79931695 -40.5625 103.1875 C-40.43228455 102.38464569 -40.30206909 101.58179138 -40.16790771 100.75460815 C-27.95878628 26.37571687 -27.95878628 26.37571687 -5.60546875 1.15234375 C-4 0 -4 0 0 0 Z " fill="#D2D2D2" transform="translate(500,1)"/>
<path d="M0 0 C17.41957997 -0.09337851 34.83908201 -0.16394726 52.25885487 -0.20724869 C60.34688996 -0.22788735 68.43476969 -0.25603263 76.52270508 -0.30175781 C83.57091059 -0.34158593 90.61900361 -0.36742333 97.66731852 -0.37635398 C101.40053937 -0.38157564 105.13343834 -0.39387487 108.86655617 -0.42292023 C113.03073116 -0.45505758 117.19434406 -0.45596202 121.35864258 -0.45410156 C122.60085571 -0.46848267 123.84306885 -0.48286377 125.1229248 -0.49768066 C126.25454544 -0.49218201 127.38616608 -0.48668335 128.55207825 -0.48101807 C130.0301733 -0.48654882 130.0301733 -0.48654882 131.53812885 -0.49219131 C134 0 134 0 135.84049511 2.03006363 C136.41445003 3.00518213 136.41445003 3.00518213 137 4 C136.45406063 3.83826325 135.90812126 3.67652651 135.34563828 3.50988865 C132.66208356 2.92654462 130.21695965 2.85992332 127.4697876 2.84178162 C126.34520645 2.8319928 125.22062531 2.82220398 124.06196594 2.81211853 C122.83269882 2.80636307 121.6034317 2.8006076 120.33691406 2.79467773 C119.03910507 2.78477814 117.74129608 2.77487854 116.40415955 2.76467896 C112.8487443 2.73766826 109.29331583 2.71663797 105.73785496 2.69667697 C102.02091125 2.67479373 98.30400812 2.64741649 94.58709717 2.62062073 C87.55009989 2.57072544 80.51308005 2.52577489 73.47603869 2.48259836 C65.46397972 2.43319893 57.45196146 2.37829084 49.43994188 2.32291877 C32.9599988 2.20914731 16.48001838 2.10229775 0 2 C0 1.34 0 0.68 0 0 Z " fill="#DCDCDC" transform="translate(310,367)"/>
<path d="M0 0 C2.69501855 0.07926525 4.4572101 0.48662462 6.44165039 2.36352539 C28.9720628 28.96926427 35.03185303 69.54025742 40.5 103 C40.63014496 103.79031616 40.76028992 104.58063232 40.89437866 105.39489746 C42.17758872 113.28285 43.36454339 120.98004532 43 129 C42.34 129 41.68 129 41 129 C40.93683594 127.80632812 40.87367188 126.61265625 40.80859375 125.3828125 C38.39057268 88.57878914 30.26384259 35.75714678 6 7 C5.67 6.01 5.34 5.02 5 4 C3.37667033 2.61423077 1.71275535 1.27358732 0 0 Z " fill="#DDDDDD" transform="translate(502,1)"/>
<path d="M0 0 C-0.58276367 1.86181641 -0.58276367 1.86181641 -2 4 C-4.88012695 5.18115234 -4.88012695 5.18115234 -8.67578125 6.2109375 C-15.58562046 8.19664048 -22.31464054 10.50617951 -29.04296875 13.0390625 C-30.50394989 13.58812759 -30.50394989 13.58812759 -31.9944458 14.14828491 C-34.0201367 14.91191623 -36.04519225 15.67723486 -38.06964111 16.44415283 C-41.24046826 17.64506102 -44.41365836 18.83953856 -47.58740234 20.03271484 C-56.86400953 23.5241021 -66.13116794 27.03759368 -75.37109375 30.625 C-76.72041128 31.14644508 -78.06977437 31.66777227 -79.41918945 32.18896484 C-81.81580768 33.11767612 -84.20913814 34.05493656 -86.59838867 35.00244141 C-88.16230347 35.60838135 -88.16230347 35.60838135 -89.7578125 36.2265625 C-91.07483154 36.74597412 -91.07483154 36.74597412 -92.41845703 37.27587891 C-95.37103077 38.10407389 -97.94806167 38.12658323 -101 38 C-98.33949935 36.2263329 -96.29043863 35.2803481 -93.31640625 34.23046875 C-92.38763672 33.89853516 -91.45886719 33.56660156 -90.50195312 33.22460938 C-89.53193359 32.88236328 -88.56191406 32.54011719 -87.5625 32.1875 C-81.69077418 30.11155559 -75.87392058 27.98138037 -70.13671875 25.5546875 C-63.58688608 22.78964947 -56.93468 20.35459228 -50.25 17.9375 C-47.62426256 16.98379015 -44.99944501 16.0275727 -42.375 15.0703125 C-41.70067932 14.82446915 -41.02635864 14.57862579 -40.331604 14.32533264 C-35.20941004 12.45322253 -30.10213827 10.54322436 -25 8.6171875 C-24.26473083 8.33986282 -23.52946167 8.06253815 -22.77191162 7.77680969 C-19.1903526 6.42512771 -15.61041781 5.0693109 -12.03222656 3.70874023 C-10.73506888 3.21847388 -9.43787051 2.72831516 -8.140625 2.23828125 C-6.43181152 1.589198 -6.43181152 1.589198 -4.68847656 0.92700195 C-2 0 -2 0 0 0 Z " fill="#D2D2D2" transform="translate(487,698)"/>
<path d="M0 0 C0 0.66 0 1.32 0 2 C-18.66228748 5.84233945 -36.84677163 6.49280488 -55.80492139 6.20364666 C-59.66170921 6.14946255 -63.51869644 6.1199326 -67.37571716 6.08746338 C-74.63540863 6.02276858 -81.89467641 5.9368326 -89.15403932 5.84269357 C-97.43725202 5.73635446 -105.72065505 5.65456417 -114.00415719 5.5745368 C-131.00311822 5.40977438 -148.00160345 5.21515533 -165 5 C-165 4.67 -165 4.34 -165 4 C-164.32691394 3.99668985 -163.65382788 3.99337971 -162.96034527 3.98996925 C-146.49687003 3.90834761 -130.03349046 3.81613148 -113.57013988 3.71247292 C-105.60822103 3.66259117 -97.64631123 3.61614803 -89.68432617 3.578125 C-82.73552991 3.54493144 -75.78680943 3.50495504 -68.83809739 3.45720994 C-65.16711067 3.43221324 -61.49617244 3.41035696 -57.82512474 3.39665604 C-41.35189026 3.33276603 -25.00000789 3.21996576 -8.71549988 0.43911743 C-5.77100984 -0.03702949 -2.97760846 -0.07089544 0 0 Z " fill="#5C5C5C" transform="translate(723,362)"/>
<path d="M0 0 C5.26706277 0.39949778 10.5221942 0.80990196 15.7624054 1.48397827 C30.46383395 3.3707033 45.18913213 3.34949652 59.98498321 3.40471697 C63.68984681 3.42057778 67.39463367 3.4472918 71.09944153 3.4727478 C78.08280811 3.51913648 85.0661898 3.55607076 92.04962951 3.58942068 C100.01369092 3.62792804 107.9776745 3.67726095 115.94166982 3.72740483 C132.29439026 3.83012941 148.64715432 3.91957891 165 4 C165 4.33 165 4.66 165 5 C147.17826862 5.22557659 129.35643091 5.42621764 111.53410435 5.59840012 C103.25604091 5.67893581 94.97820226 5.76716613 86.70043945 5.87451172 C79.47268203 5.96822026 72.24493736 6.04647325 65.01682609 6.10732102 C61.20121139 6.13995097 57.38599816 6.17953137 53.57068062 6.2377243 C35.36573828 6.50982957 17.90684588 5.68680316 0 2 C0 1.34 0 0.68 0 0 Z " fill="#5C5C5C" transform="translate(279,362)"/>
<path d="M0 0 C6.353227 1.77057146 12.51897939 3.88470433 18.6953125 6.18359375 C20.39521726 6.81319499 22.09516978 7.44266728 23.79516602 8.07202148 C24.65981476 8.39258514 25.5244635 8.7131488 26.41531372 9.04342651 C30.45215339 10.53743135 34.49379306 12.01828635 38.53515625 13.5 C40.91684526 14.37473564 43.29839785 15.24984188 45.67993164 16.125 C47.26988824 16.70891274 48.86005815 17.292245 50.45043945 17.875 C63.70546954 22.73296378 76.9010296 27.73408225 90 33 C90 33.33 90 33.66 90 34 C84.53271406 33.47325364 79.76048816 32.44466124 74.62524414 30.45556641 C73.93627548 30.19689285 73.24730682 29.9382193 72.53746033 29.67170715 C70.28349636 28.82319314 68.03442456 27.96243767 65.78515625 27.1015625 C64.20420228 26.5040131 62.62293332 25.9072965 61.04136658 25.31137085 C56.89092342 23.74523128 52.74443113 22.16889456 48.59881592 20.59002686 C42.7673273 18.37124051 36.93051208 16.16649608 31.09434509 13.96005249 C27.99220266 12.78719597 24.8915244 11.61059295 21.79200745 10.43081665 C20.36276196 9.88817944 18.93347768 9.34564438 17.50415039 8.80322266 C16.83474458 8.5480015 16.16533876 8.29278034 15.47564793 8.02982521 C11.86163157 6.66243331 8.23684415 5.42669714 4.54077148 4.30224609 C3.37231689 3.87250488 2.2038623 3.44276367 1 3 C0.67 2.01 0.34 1.02 0 0 Z " fill="#DBDBDB" transform="translate(520,700)"/>
<path d="M0 0 C0.33 0 0.66 0 1 0 C1.33 23.76 1.66 47.52 2 72 C18.5652944 80.38431809 18.5652944 80.38431809 35.375 88.1875 C36.22964844 88.56712891 37.08429687 88.94675781 37.96484375 89.33789062 C39.97453889 90.22983397 41.98691749 91.1157284 44 92 C44 92.66 44 93.32 44 94 C39.51808061 93.29480289 36.49476882 91.69416285 32.671875 89.3515625 C28.96671942 87.47731713 24.93914664 86.31304888 21 85 C14.07 81.37 7.14 77.74 0 74 C0 49.58 0 25.16 0 0 Z " fill="#B4B4B4" transform="translate(680,153)"/>
<path d="M0 0 C3.3 0.33 6.6 0.66 10 1 C10.495 2.98 10.495 2.98 11 5 C11.66 5 12.32 5 13 5 C13.84026396 6.76755526 14.67198722 8.53917263 15.5 10.3125 C15.9640625 11.29863281 16.428125 12.28476563 16.90625 13.30078125 C18 16 18 16 18 19 C24.27 19 30.54 19 37 19 C37 19.66 37 20.32 37 21 C30.4 21 23.8 21 17 21 C14.25 14.25 14.25 14.25 13.41113281 12.14550781 C11.82751864 8.36012386 10.45912145 5.29801775 7 3 C3.4714714 2.46727988 3.4714714 2.46727988 0 4 C-2.17222963 6.61437154 -3.51691297 9.48996273 -4.9375 12.5625 C-6.278125 15.346875 -7.61875 18.13125 -9 21 C-15.27 21 -21.54 21 -28 21 C-28 20.34 -28 19.68 -28 19 C-22.06 19 -16.12 19 -10 19 C-9.67 17.35 -9.34 15.7 -9 14 C-7.10009468 9.21009786 -4.86649935 5.46651665 -1 2 C-0.67 1.34 -0.34 0.68 0 0 Z " fill="#E1E1E1" transform="translate(653,70)"/>
<path d="M0 0 C1.6875 2.3125 1.6875 2.3125 3 5 C3.47695313 5.46792969 3.95390625 5.93585938 4.4453125 6.41796875 C6.16278077 8.16564375 7.1042878 9.80867416 8.1875 12 C8.53167969 12.680625 8.87585938 13.36125 9.23046875 14.0625 C10 16 10 16 10 19 C15.94 19 21.88 19 28 19 C28 19.66 28 20.32 28 21 C21.73 21 15.46 21 9 21 C5.1875 13.6875 5.1875 13.6875 4.00463867 11.3972168 C3.52861206 10.49483276 3.52861206 10.49483276 3.04296875 9.57421875 C2.72352295 8.96151123 2.40407715 8.34880371 2.07495117 7.7175293 C0.15140278 4.64413321 -1.29493558 3.20368528 -4.8125 2.1875 C-8.74212397 3.18916886 -9.10708117 4.13096353 -11.1875 7.5 C-13.67123139 11.93376843 -15.17363188 16.129685 -17 21 C-23.27 21 -29.54 21 -36 21 C-36 20.34 -36 19.68 -36 19 C-30.06 19 -24.12 19 -18 19 C-17.67 17.02 -17.34 15.04 -17 13 C-16.02734375 10.6640625 -16.02734375 10.6640625 -14.9375 8.625 C-14.57527344 7.93664062 -14.21304687 7.24828125 -13.83984375 6.5390625 C-13.56269531 6.03117187 -13.28554688 5.52328125 -13 5 C-12.34 5 -11.68 5 -11 5 C-10.67 3.68 -10.34 2.36 -10 1 C-6.58827648 -0.04976108 -3.55430783 -0.45374142 0 0 Z " fill="#DFDFDF" transform="translate(349,70)"/>
<path d="M0 0 C2.0625 0.4375 2.0625 0.4375 4 1 C4.13051758 1.71655762 4.26103516 2.43311523 4.39550781 3.17138672 C4.99573255 6.4095519 5.62248579 9.64201741 6.25 12.875 C6.45496094 14.00292969 6.65992188 15.13085938 6.87109375 16.29296875 C7.08378906 17.36933594 7.29648437 18.44570313 7.515625 19.5546875 C7.70415039 20.54968262 7.89267578 21.54467773 8.08691406 22.56982422 C8.78132832 25.1543804 8.78132832 25.1543804 11.09277344 26.34033203 C12.03685059 26.66686768 12.03685059 26.66686768 13 27 C16.58352647 22.2048514 17.1944689 16.94089806 18.1875 11.1875 C18.36474609 10.20845703 18.54199219 9.22941406 18.72460938 8.22070312 C19.15876193 5.81526329 19.58356826 3.40855976 20 1 C21.32 0.67 22.64 0.34 24 0 C24.33 0.66 24.66 1.32 25 2 C24.34 2 23.68 2 23 2 C22.79636841 3.01368652 22.79636841 3.01368652 22.58862305 4.04785156 C21.96567105 7.11753121 21.32677461 10.18367994 20.6875 13.25 C20.47416016 14.31347656 20.26082031 15.37695312 20.04101562 16.47265625 C19.82509766 17.49746094 19.60917969 18.52226563 19.38671875 19.578125 C19.19295654 20.52075195 18.99919434 21.46337891 18.79956055 22.43457031 C17.93620726 25.20468218 16.99033855 26.89583242 15 29 C12 29.5 12 29.5 9 29 C6.25605162 26.10330864 5.43157472 23.48167771 4.68359375 19.61328125 C4.47669922 18.59298828 4.26980469 17.57269531 4.05664062 16.52148438 C3.85232422 15.46251953 3.64800781 14.40355469 3.4375 13.3125 C3.02726631 11.20290819 2.60969136 9.09472615 2.18359375 6.98828125 C1.91373657 5.58896362 1.91373657 5.58896362 1.63842773 4.16137695 C1.42774658 3.44812256 1.21706543 2.73486816 1 2 C0.34 1.67 -0.32 1.34 -1 1 C-0.67 0.67 -0.34 0.34 0 0 Z " fill="#B6B6B6" transform="translate(489,790)"/>
<path d="M0 0 C0.92232422 0.00451172 1.84464844 0.00902344 2.79492188 0.01367188 C5.05085048 0.02536062 7.30663967 0.04174545 9.5625 0.0625 C9.8925 1.7125 10.2225 3.3625 10.5625 5.0625 C7.39585334 5.09190458 4.22924253 5.10943315 1.0625 5.125 C0.175625 5.13337891 -0.71125 5.14175781 -1.625 5.15039062 C-6.99573086 5.17013596 -12.12383663 4.85085893 -17.4375 4.0625 C-17.4375 3.0725 -17.4375 2.0825 -17.4375 1.0625 C-11.58861957 0.04355924 -5.92830831 -0.05548453 0 0 Z " fill="#949494" transform="translate(293.4375,89.9375)"/>
<path d="M0 0 C1.58941406 0.02707031 1.58941406 0.02707031 3.2109375 0.0546875 C4.00757813 0.07789063 4.80421875 0.10109375 5.625 0.125 C5.625 0.785 5.625 1.445 5.625 2.125 C0.46649514 2.98564095 -4.69300642 3.83993646 -9.85351562 4.68847656 C-11.60738172 4.97776739 -13.3609676 5.26876261 -15.11425781 5.56152344 C-17.64055036 5.98305012 -20.16780116 6.39835205 -22.6953125 6.8125 C-23.47367462 6.94374268 -24.25203674 7.07498535 -25.0539856 7.21020508 C-29.21075757 7.88468884 -33.14622602 8.26615518 -37.375 8.125 C-37.375 7.135 -37.375 6.145 -37.375 5.125 C-30.04087706 3.7638925 -22.83573545 2.8423301 -15.3828125 2.46875 C-12.32985072 2.22896847 -12.32985072 2.22896847 -9.390625 1.1015625 C-6.08221134 0.03018502 -3.46450152 -0.07698892 0 0 Z " fill="#BEBEBE" transform="translate(973.375,321.875)"/>
<path d="M0 0 C4.7743662 5.72923944 6.30541446 9.13039025 6.1953125 16.609375 C6.1924826 17.33618469 6.18965271 18.06299438 6.18673706 18.81182861 C6.17557523 21.12472251 6.15047851 23.43722388 6.125 25.75 C6.11496501 27.32160898 6.10584006 28.89322404 6.09765625 30.46484375 C6.07564904 34.31004622 6.04114715 38.15495664 6 42 C2.37 42 -1.26 42 -5 42 C-5 41.34 -5 40.68 -5 40 C-2.03 40 0.94 40 4 40 C3.95544 35.89164494 3.88519322 31.78455933 3.79248047 27.67700195 C3.76448629 26.28356782 3.74316594 24.88998125 3.72900391 23.49633789 C3.6408565 15.30744369 3.29614909 8.19691489 -1 1 C-0.67 0.67 -0.34 0.34 0 0 Z " fill="#CDCDCD" transform="translate(690,112)"/>
<path d="M0 0 C0.66 0.66 1.32 1.32 2 2 C1.35546875 3.0003125 0.7109375 4.000625 0.046875 5.03125 C-3.15350819 11.43201638 -2.67939128 18.5080948 -2.75 25.5 C-2.77820374 26.90889016 -2.80813723 28.31774681 -2.83984375 29.7265625 C-2.91021093 33.15109877 -2.96307585 36.57496705 -3 40 C-0.03 40 2.94 40 6 40 C6 40.66 6 41.32 6 42 C2.37 42 -1.26 42 -5 42 C-5.12465653 37.46518718 -5.2148274 32.93139584 -5.2746582 28.39526367 C-5.29962755 26.8560242 -5.33361614 25.31690115 -5.37719727 23.77807617 C-5.62239036 14.89054773 -5.79722273 7.32920583 0 0 Z " fill="#CDCDCD" transform="translate(311,112)"/>
<path d="M0 0 C0.66 0 1.32 0 2 0 C2 13.2 2 26.4 2 40 C0.02 40 -1.96 40 -4 40 C-3.67 39.34 -3.34 38.68 -3 38 C-2.01 38 -1.02 38 0 38 C0 25.46 0 12.92 0 0 Z " fill="#C6C6C6" transform="translate(667,765)"/>
<path d="M0 0 C0.66 0 1.32 0 2 0 C2 12.54 2 25.08 2 38 C3.32 38.33 4.64 38.66 6 39 C6 39.33 6 39.66 6 40 C4.02 40 2.04 40 0 40 C0 26.8 0 13.6 0 0 Z " fill="#C6C6C6" transform="translate(333,765)"/>
<path d="M0 0 C0 0.66 0 1.32 0 2 C-5.15850486 2.86064095 -10.31800642 3.71493646 -15.47851562 4.56347656 C-17.23238172 4.85276739 -18.9859676 5.14376261 -20.73925781 5.43652344 C-23.26555036 5.85805012 -25.79280116 6.27335205 -28.3203125 6.6875 C-29.09867462 6.81874268 -29.87703674 6.94998535 -30.6789856 7.08520508 C-34.83575757 7.75968884 -38.77122602 8.14115518 -43 8 C-43 7.34 -43 6.68 -43 6 C-37.84149514 5.13935905 -32.68199358 4.28506354 -27.52148438 3.43652344 C-25.76761828 3.14723261 -24.0140324 2.85623739 -22.26074219 2.56347656 C-19.73444964 2.14194988 -17.20719884 1.72664795 -14.6796875 1.3125 C-13.90132538 1.18125732 -13.12296326 1.05001465 -12.3210144 0.91479492 C-8.16424243 0.24031116 -4.22877398 -0.14115518 0 0 Z " fill="#C7C7C7" transform="translate(804,349)"/>
<path d="M0 0 C0.98527664 3.10620043 0.95738116 5.09115426 0.1953125 8.2421875 C-0.78415627 12.72469751 -1.48793111 17.20900029 -2.0703125 21.7578125 C-2.15730408 22.43720886 -2.24429565 23.11660522 -2.33392334 23.81658936 C-2.60026977 25.91906806 -2.86272992 28.02200932 -3.125 30.125 C-3.30826533 31.57295827 -3.49185674 33.02087531 -3.67578125 34.46875 C-4.12094288 37.97869992 -4.56170636 41.48918504 -5 45 C-5.66 45 -6.32 45 -7 45 C-7.33540377 37.13566427 -6.21522283 29.60610077 -4.97363281 21.86889648 C-4.62323188 19.67643689 -4.28753752 17.48205823 -3.953125 15.28710938 C-3.7326416 13.88267552 -3.51131739 12.47837335 -3.2890625 11.07421875 C-3.09006348 9.81182373 -2.89106445 8.54942871 -2.68603516 7.2487793 C-2.09670927 4.45797516 -1.43707749 2.43494197 0 0 Z " fill="#D6D6D6" transform="translate(464,85)"/>
<path d="M0 0 C2.66855502 0.07848691 4.44386107 0.48209384 6.42407227 2.32617188 C10.1972844 6.74840942 13.12175659 11.29220581 15.8125 16.4375 C16.20630859 17.14970703 16.60011719 17.86191406 17.00585938 18.59570312 C19.58597694 23.46827506 20.62154715 27.49692331 21 33 C18.2916764 28.9375146 16.28929788 24.55239245 14.18554688 20.15625 C12.45127259 16.61446911 10.63119783 13.35954299 8.30078125 10.171875 C6 7 6 7 5 4 C3.37667033 2.61423077 1.71275535 1.27358732 0 0 Z " fill="#A7A7A7" transform="translate(502,1)"/>
<path d="M0 0 C-3.96710498 2.53559685 -8.08395629 4.42958853 -12.4375 6.1875 C-13.08009766 6.46013672 -13.72269531 6.73277344 -14.38476562 7.01367188 C-18.41159689 8.64484515 -21.66530769 9.30148555 -26 9 C-26 8.34 -26 7.68 -26 7 C-22.91794058 5.85071956 -19.83414029 4.70618337 -16.75 3.5625 C-15.87730469 3.23701172 -15.00460937 2.91152344 -14.10546875 2.57617188 C-13.26113281 2.26357422 -12.41679687 1.95097656 -11.546875 1.62890625 C-10.38430176 1.1968689 -10.38430176 1.1968689 -9.19824219 0.75610352 C-3.55490571 -1.18496857 -3.55490571 -1.18496857 0 0 Z " fill="#A6A6A6" transform="translate(386,737)"/>
<path d="M0 0 C0.66 0 1.32 0 2 0 C2.86252919 3.87602877 3.71672451 7.75379394 4.56347656 11.63330078 C4.99371672 13.59633166 5.43040515 15.55794567 5.8671875 17.51953125 C6.13789063 18.76347656 6.40859375 20.00742187 6.6875 21.2890625 C6.93886719 22.43068848 7.19023437 23.57231445 7.44921875 24.74853516 C7.98367275 27.9036142 8.10148401 30.80748223 8 34 C6.68 34 5.36 34 4 34 C4 33.34 4 32.68 4 32 C4.66 32 5.32 32 6 32 C5.81824219 31.20827393 5.63648438 30.41654785 5.44921875 29.60083008 C4.62723512 26.00596899 3.81353598 22.40928182 3 18.8125 C2.71382813 17.56662109 2.42765625 16.32074219 2.1328125 15.03710938 C1.86210937 13.83505859 1.59140625 12.63300781 1.3125 11.39453125 C1.06113281 10.28956299 0.80976563 9.18459473 0.55078125 8.04614258 C0.05011884 5.2771865 -0.10950127 2.80368889 0 0 Z " fill="#A1A1A1" transform="translate(484,665)"/>
<path d="M0 0 C-1.41448757 3.28363186 -3.10271776 5.18712853 -5.75 7.5625 C-10.4230104 12.07348997 -13.18493803 17.19926624 -16 23 C-17.05564637 20.3106152 -17.08703371 19.22600689 -16.03125 16.484375 C-6.8 0 -6.8 0 0 0 Z " fill="#323232" transform="translate(500,1)"/>
<path d="M0 0 C-4.7001581 3.13343873 -10.02952868 4.8481564 -15.28686523 6.85058594 C-17.29870848 7.61972741 -19.30452723 8.40331749 -21.31054688 9.1875 C-22.59861273 9.68059123 -23.88701401 10.17280736 -25.17578125 10.6640625 C-26.34020752 11.11217285 -27.50463379 11.5602832 -28.7043457 12.02197266 C-31.99349348 12.99806911 -34.592388 13.19331676 -38 13 C-35.29663283 11.19775522 -33.16748019 10.23393681 -30.140625 9.16015625 C-28.71363281 8.6487207 -28.71363281 8.6487207 -27.2578125 8.12695312 C-26.26523437 7.77568359 -25.27265625 7.42441406 -24.25 7.0625 C-16.55179537 4.36141534 -16.55179537 4.36141534 -9.01171875 1.2578125 C-5.76983194 -0.09612726 -3.47713196 -0.25442429 0 0 Z " fill="#AEAEAE" transform="translate(424,723)"/>
<path d="M0 0 C0.66 0 1.32 0 2 0 C1.46512323 7.39489968 0.15463123 14.41978269 -1.5625 21.625 C-1.91344727 23.13126953 -1.91344727 23.13126953 -2.27148438 24.66796875 C-2.84207299 27.11334854 -3.41831433 29.55724069 -4 32 C-3.34 32 -2.68 32 -2 32 C-2 32.66 -2 33.32 -2 34 C-3.32 33.67 -4.64 33.34 -6 33 C-5.33020896 25.67849106 -3.98329403 18.62089577 -2.4375 11.4375 C-2.20353516 10.33341797 -1.96957031 9.22933594 -1.72851562 8.09179688 C-1.15618938 5.39368745 -0.57993998 2.69648125 0 0 Z " fill="#A5A5A5" transform="translate(516,665)"/>
<path d="M0 0 C20.51164468 5.76071723 20.51164468 5.76071723 25 13 C25.8125 16.375 25.8125 16.375 26 19 C23.00831032 17.50415516 22.46960347 14.93920694 21 12 C18.85440245 9.45522151 16.86687263 8.34003014 13.76953125 7.17578125 C12.96708984 6.86962891 12.16464844 6.56347656 11.33789062 6.24804688 C10.50451172 5.93931641 9.67113281 5.63058594 8.8125 5.3125 C7.5450293 4.83200195 7.5450293 4.83200195 6.25195312 4.34179688 C4.17058172 3.55393312 2.08668461 2.77365745 0 2 C0 1.34 0 0.68 0 0 Z " fill="#DFDFDF" transform="translate(643,745)"/>
<path d="M0 0 C0 0.66 0 1.32 0 2 C-1.24136719 2.43570313 -2.48273438 2.87140625 -3.76171875 3.3203125 C-5.40399653 3.92091694 -7.04590452 4.52253319 -8.6875 5.125 C-9.50412109 5.40859375 -10.32074219 5.6921875 -11.16210938 5.984375 C-17.69719334 8.41849534 -20.89870511 11.19765687 -24.3125 17.375 C-24.539375 17.91125 -24.76625 18.4475 -25 19 C-25.75 17.375 -25.75 17.375 -26 15 C-23.16486747 10.03851807 -20.52379906 6.27808557 -15.05859375 4.39453125 C-14.31029297 4.13349609 -13.56199219 3.87246094 -12.79101562 3.60351562 C-12.01435547 3.34248047 -11.23769531 3.08144531 -10.4375 2.8125 C-9.65697266 2.53986328 -8.87644531 2.26722656 -8.07226562 1.98632812 C-2.30245536 0 -2.30245536 0 0 0 Z " fill="#DFDFDF" transform="translate(359,745)"/>
<path d="M0 0 C4.62 0 9.24 0 14 0 C14.33 0.66 14.66 1.32 15 2 C9.06 2.495 9.06 2.495 3 3 C3.433125 4.69769531 3.433125 4.69769531 3.875 6.4296875 C4.25012392 7.91142697 4.62511714 9.39319953 5 10.875 C5.19078125 11.62136719 5.3815625 12.36773437 5.578125 13.13671875 C7 18.7734375 7 18.7734375 7 21 C6.34 21 5.68 21 5 21 C4.16193384 18.06377536 3.32937556 15.12617933 2.5 12.1875 C2.26152344 11.35412109 2.02304687 10.52074219 1.77734375 9.66210938 C1.43896484 8.45844727 1.43896484 8.45844727 1.09375 7.23046875 C0.88427734 6.49207764 0.67480469 5.75368652 0.45898438 4.99291992 C0 3 0 3 0 0 Z " fill="#D0D0D0" transform="translate(360,94)"/>
<path d="M0 0 C4.62 0 9.24 0 14 0 C12.66006673 7.11195351 10.98449429 14.04104003 9 21 C8.34 21 7.68 21 7 21 C7.47680139 18.56201552 7.95634129 16.12462484 8.4375 13.6875 C8.57220703 12.99720703 8.70691406 12.30691406 8.84570312 11.59570312 C9.42774332 8.65710993 10.05152228 5.84543315 11 3 C7.37 2.67 3.74 2.34 0 2 C0 1.34 0 0.68 0 0 Z " fill="#CECECE" transform="translate(628,94)"/>
<path d="M0 0 C7.84987303 0.39249365 13.86357889 2.84220608 21 6 C23.65405421 7.03960649 26.3225514 8.02170147 29 9 C29 9.33 29 9.66 29 10 C22.11703639 9.48864775 16.3845669 7.48692361 10 4.9375 C9.03449219 4.56044922 8.06898438 4.18339844 7.07421875 3.79492188 C4.71281132 2.87140115 2.3550259 1.93964767 0 1 C0 0.67 0 0.34 0 0 Z " fill="#B0B0B0" transform="translate(581,724)"/>
<path d="M0 0 C-0.51953125 1.83203125 -0.51953125 1.83203125 -2 4 C-4.60234721 5.09339843 -6.99056367 5.93119053 -9.6875 6.6875 C-10.38294922 6.89955078 -11.07839844 7.11160156 -11.79492188 7.33007812 C-16.18080957 8.62823536 -20.45959656 9.45848399 -25 10 C-23.59904621 7.19809243 -22.07864365 7.10323027 -19.16015625 6.0546875 C-18.17982422 5.70019531 -17.19949219 5.34570312 -16.18945312 4.98046875 C-15.15755859 4.61566406 -14.12566406 4.25085938 -13.0625 3.875 C-12.03447266 3.50246094 -11.00644531 3.12992188 -9.94726562 2.74609375 C-2.28737408 0 -2.28737408 0 0 0 Z " fill="#F0F0F0" transform="translate(487,698)"/>
<path d="M0 0 C11.52164009 0.96355353 11.52164009 0.96355353 17 2 C17 2.99 17 3.98 17 5 C4.33029613 4.03644647 4.33029613 4.03644647 -1 3 C-0.67 2.01 -0.34 1.02 0 0 Z " fill="#9F9F9F" transform="translate(55,326)"/>
<path d="M0 0 C1.72880982 -0.05449838 3.45812712 -0.09301688 5.1875 -0.125 C6.15042969 -0.14820313 7.11335937 -0.17140625 8.10546875 -0.1953125 C11.18426267 0.01243338 13.26572186 0.58539082 16 2 C18.69198859 6.08439648 19.34645484 9.1496322 19 14 C17.85724148 11.79610856 16.92420008 9.75510795 16.1875 7.375 C15.19949413 4.88297003 15.19949413 4.88297003 13 3.75 C8.70899835 2.67724959 4.40375939 2.32493759 0 2 C0 1.34 0 0.68 0 0 Z " fill="#CCCCCC" transform="translate(982,260)"/>
<path d="M0 0 C0.99386719 0.00902344 1.98773438 0.01804687 3.01171875 0.02734375 C4.15060547 0.04474609 4.15060547 0.04474609 5.3125 0.0625 C5.3125 0.7225 5.3125 1.3825 5.3125 2.0625 C4.40886719 2.17207031 3.50523438 2.28164063 2.57421875 2.39453125 C1.39472656 2.55308594 0.21523437 2.71164062 -1 2.875 C-2.17175781 3.02582031 -3.34351563 3.17664063 -4.55078125 3.33203125 C-7.73410327 4.07335282 -8.85083267 4.43159815 -10.6875 7.0625 C-11.43136068 9.37238315 -12.10940703 11.70565944 -12.6875 14.0625 C-13.0175 14.0625 -13.3475 14.0625 -13.6875 14.0625 C-13.34006798 5.93259063 -13.34006798 5.93259063 -10.8125 2.5625 C-7.20726058 0.01762511 -4.28746751 -0.05044079 0 0 Z " fill="#CCCCCC" transform="translate(14.6875,259.9375)"/>
<path d="M0 0 C5.28 0 10.56 0 16 0 C16 0.66 16 1.32 16 2 C11.71 2 7.42 2 3 2 C3 4.31 3 6.62 3 9 C2.34 9 1.68 9 1 9 C0.67 6.03 0.34 3.06 0 0 Z " fill="#B9B9B9" transform="translate(671,94)"/>
<path d="M0 0 C5.28 0 10.56 0 16 0 C15.67 2.97 15.34 5.94 15 9 C14.34 9 13.68 9 13 9 C13 6.69 13 4.38 13 2 C8.71 2 4.42 2 0 2 C0 1.34 0 0.68 0 0 Z " fill="#B9B9B9" transform="translate(315,94)"/>
<path d="M0 0 C0.66 0 1.32 0 2 0 C2.06058594 0.71027344 2.12117188 1.42054688 2.18359375 2.15234375 C2.26738281 3.07144531 2.35117187 3.99054688 2.4375 4.9375 C2.51871094 5.85402344 2.59992188 6.77054687 2.68359375 7.71484375 C2.76044976 9.96159732 2.76044976 9.96159732 4 11 C4.14115161 13.67058851 4.04247107 16.32432238 4 19 C3.01 19 2.02 19 1 19 C0.17648136 12.61773055 -0.12086218 6.43255401 0 0 Z " fill="#AFAFAF" transform="translate(461,484)"/>
<path d="M0 0 C0 0.33 0 0.66 0 1 C-12.625 5.31097561 -12.625 5.31097561 -19 5 C-19 4.01 -19 3.02 -19 2 C-12.6221448 0.82706111 -6.49678438 -0.29530838 0 0 Z " fill="#888888" transform="translate(955,325)"/>
<path d="M0 0 C8.25 0.33 16.5 0.66 25 1 C25 1.33 25 1.66 25 2 C12.625 2.495 12.625 2.495 0 3 C0 2.01 0 1.02 0 0 Z " fill="#515151" transform="translate(589,91)"/>
<path d="M0 0 C5.28 0 10.56 0 16 0 C16 1.65 16 3.3 16 5 C15.34 5 14.68 5 14 5 C14 4.01 14 3.02 14 2 C9.38 2 4.76 2 0 2 C0 1.34 0 0.68 0 0 Z " fill="#CACACA" transform="translate(618,153)"/>
<path d="M0 0 C5.28 0 10.56 0 16 0 C16 0.66 16 1.32 16 2 C11.38 2 6.76 2 2 2 C2 2.99 2 3.98 2 5 C1.34 5 0.68 5 0 5 C0 3.35 0 1.7 0 0 Z " fill="#CACACA" transform="translate(368,153)"/>
<path d="M0 0 C4.71370756 0.64985095 8.57686444 2.51561392 12.8125 4.5625 C13.50537109 4.89185547 14.19824219 5.22121094 14.91210938 5.56054688 C16.61044948 6.36872251 18.30555769 7.18368377 20 8 C20 8.66 20 9.32 20 10 C15.13127946 9.40440894 11.40671159 7.27522585 7.1875 4.9375 C6.49462891 4.56044922 5.80175781 4.18339844 5.08789062 3.79492188 C3.38871015 2.86916148 1.69390575 1.93537688 0 1 C0 0.67 0 0.34 0 0 Z " fill="#E5E5E5" transform="translate(704,237)"/>
<path d="M0 0 C0 0.66 0 1.32 0 2 C-1.26457031 2.14695312 -1.26457031 2.14695312 -2.5546875 2.296875 C-4.19824219 2.52117187 -4.19824219 2.52117187 -5.875 2.75 C-6.96554687 2.88921875 -8.05609375 3.0284375 -9.1796875 3.171875 C-12.12778129 3.70935435 -12.12778129 3.70935435 -13.3828125 6.078125 C-13.58648438 6.71234375 -13.79015625 7.3465625 -14 8 C-14.66 8 -15.32 8 -16 8 C-15.76171875 6.140625 -15.76171875 6.140625 -15 4 C-10.45345489 0.89877765 -5.49027801 -0.56310544 0 0 Z " fill="#D4D4D4" transform="translate(634,114)"/>
<path d="M0 0 C5.54590313 0.35740265 10.26783315 0.80578737 15 4 C15.875 6.1875 15.875 6.1875 16 8 C13 7 13 7 11.63671875 5.51171875 C9.46813064 3.50875073 7.69841046 3.29973164 4.8125 2.8125 C3.46091797 2.57466797 3.46091797 2.57466797 2.08203125 2.33203125 C1.39496094 2.22246094 0.70789063 2.11289063 0 2 C0 1.34 0 0.68 0 0 Z " fill="#D8D8D8" transform="translate(368,114)"/>
<path d="M0 0 C0.67578125 1.6796875 0.67578125 1.6796875 1 4 C-0.14453125 6.5078125 -0.14453125 6.5078125 -1.8125 9.125 C-2.35519531 9.99382813 -2.89789063 10.86265625 -3.45703125 11.7578125 C-5 14 -5 14 -7 16 C-6.66830805 9.69785303 -3.32676012 5.14783064 0 0 Z " fill="#A8A8A8" transform="translate(490,8)"/>
<path d="M0 0 C0 0.66 0 1.32 0 2 C-3.99795892 2.95619733 -7.70803922 3.1039592 -11.8125 3.0625 C-12.97394531 3.05347656 -14.13539063 3.04445313 -15.33203125 3.03515625 C-16.21246094 3.02355469 -17.09289062 3.01195312 -18 3 C-18 2.67 -18 2.34 -18 2 C-16.12612523 1.6603981 -14.25083303 1.32861309 -12.375 1 C-11.33085938 0.814375 -10.28671875 0.62875 -9.2109375 0.4375 C-6.09425135 0.01284203 -3.14069188 -0.07545206 0 0 Z " fill="#B4B4B4" transform="translate(804,349)"/>
<path d="M0 0 C6.19518473 0.41588046 11.26689311 1.60251894 17 4 C17 4.33 17 4.66 17 5 C10.80481527 4.58411954 5.73310689 3.39748106 0 1 C0 0.67 0 0.34 0 0 Z " fill="#C3C3C3" transform="translate(567,719)"/>
<path d="M0 0 C1.98 0 3.96 0 6 0 C6 0.66 6 1.32 6 2 C5.0925 2.185625 4.185 2.37125 3.25 2.5625 C-1.208036 4.53432362 -1.91981256 6.67961071 -4 11 C-4.33 11 -4.66 11 -5 11 C-5.25 8.75 -5.25 8.75 -5 6 C-3.0625 3.8125 -3.0625 3.8125 -1 2 C-0.67 1.34 -0.34 0.68 0 0 Z " fill="#BCBCBC" transform="translate(653,70)"/>
<path d="M0 0 C0.33 0.99 0.66 1.98 1 3 C-0.20428246 4.52976421 -1.41813052 6.05516067 -2.71875 7.50390625 C-4.17619409 9.20573883 -5.12849368 10.94007598 -6 13 C-6.75 11.375 -6.75 11.375 -7 9 C-5.0470421 5.58232367 -2.9301585 2.63714265 0 0 Z " fill="#E6E6E6" transform="translate(340,751)"/>
<path d="M0 0 C6.75 0.875 6.75 0.875 9 2 C9 2.66 9 3.32 9 4 C10.32 4.66 11.64 5.32 13 6 C8.14036821 5.39254603 4.2594482 3.27241033 0 1 C0 0.67 0 0.34 0 0 Z " fill="#838383" transform="translate(695,234)"/>
<path d="M0 0 C-4.37384413 2.91589609 -7.70542471 4.30254716 -13 4 C-12 2 -12 2 -9.3125 0.875 C-6.0420565 0.01110926 -3.36293818 -0.16013991 0 0 Z " fill="#C2C2C2" transform="translate(424,723)"/>
<path d="M0 0 C0.99 0.66 1.98 1.32 3 2 C-5.42857143 5.42857143 -5.42857143 5.42857143 -10 5 C-6.87969402 2.35974109 -3.99030365 0.93390085 0 0 Z " fill="#E4E4E4" transform="translate(461,707)"/>
<path d="M0 0 C2.97 0.99 5.94 1.98 9 3 C9 3.66 9 4.32 9 5 C5.625 4.75 5.625 4.75 2 4 C1.34 2.68 0.68 1.36 0 0 Z " fill="#BCBCBC" transform="translate(520,700)"/>
<path d="M0 0 C-0.625 1.9375 -0.625 1.9375 -2 4 C-5.125 4.75 -5.125 4.75 -8 5 C-7.67 4.01 -7.34 3.02 -7 2 C-4.56723614 0.81480735 -2.71982714 0 0 0 Z " fill="#959595" transform="translate(487,698)"/>
<path d="M0 0 C2.875 -0.1875 2.875 -0.1875 6 0 C6.66 0.99 7.32 1.98 8 3 C7.67 3.99 7.34 4.98 7 6 C6.38125 5.2884375 6.38125 5.2884375 5.75 4.5625 C3.817815 2.83733482 2.51807725 2.43415125 0 2 C0 1.34 0 0.68 0 0 Z " fill="#B4B4B4" transform="translate(343,70)"/>
<path d="M0 0 C0 0.66 0 1.32 0 2 C-0.928125 2.45375 -1.85625 2.9075 -2.8125 3.375 C-6.03921389 4.9421633 -6.03921389 4.9421633 -9 7 C-6.79922603 2.09058114 -5.62803596 0 0 0 Z " fill="#EBEBEB" transform="translate(500,1)"/>
<path d="M0 0 C4.31392226 0.4793247 6.16569547 1.7457985 9 5 C8.67 5.66 8.34 6.32 8 7 C6.66382648 6.02471263 5.3311249 5.04466681 4 4.0625 C3.2575 3.51722656 2.515 2.97195312 1.75 2.41015625 C1.1725 1.94480469 0.595 1.47945313 0 1 C0 0.67 0 0.34 0 0 Z " fill="#F5F5F5" transform="translate(502,1)"/>
</svg>
