<?xml version="1.0" encoding="UTF-8"?>
<svg version="1.1" xmlns="http://www.w3.org/2000/svg" width="860" height="743">
<path d="M0 0 C5.25077812 0.59442771 7.83790444 3.77826622 11.24609375 7.46875 C13.9751479 11.30696605 15.55937765 15.31103978 17.25 19.6875 C17.59844971 20.57904785 17.94689941 21.4705957 18.3059082 22.38916016 C26.83350859 44.50360936 31.45626384 67.26485455 34.91015625 90.66650391 C35.2479783 92.94065306 35.60326737 95.21065969 35.96875 97.48046875 C38.99425494 117.52443896 38.4342203 138.03863386 38.3125 158.25 C38.2859596 162.80989279 38.26604666 167.36974725 38.25 171.9296875 C38.23755249 173.48706131 38.23755249 173.48706131 38.22485352 175.07589722 C38.21989868 176.49601608 38.21989868 176.49601608 38.21484375 177.94482422 C38.20960693 178.77924042 38.20437012 179.61365662 38.19897461 180.47335815 C38.10203645 182.38577372 38.10203645 182.38577372 39.3125 183.375 C41.46790253 183.59475606 43.63012481 183.74788238 45.79296875 183.875 C46.46573349 183.91533356 47.13849823 183.95566711 47.83164978 183.9972229 C50.05416163 184.12843347 52.27701579 184.25207027 54.5 184.375 C55.25416199 184.41824402 56.00832397 184.46148804 56.78533936 184.50604248 C72.28652251 185.39432129 87.7920043 185.95404719 103.3125 186.375 C103.30464478 185.00456543 103.30464478 185.00456543 103.29663086 183.60644531 C103.19727935 163.49971271 103.39720189 143.46530671 104.3125 123.375 C103.74015625 123.53871094 103.1678125 123.70242187 102.578125 123.87109375 C100.31686354 124.37402949 98.37243054 124.47599884 96.0625 124.4375 C94.20625 124.4065625 94.20625 124.4065625 92.3125 124.375 C92.22524341 120.1459638 92.1720211 115.91715988 92.125 111.6875 C92.08729492 109.89022461 92.08729492 109.89022461 92.04882812 108.05664062 C92.03916016 106.89970703 92.02949219 105.74277344 92.01953125 104.55078125 C92.0038208 103.48770752 91.98811035 102.42463379 91.97192383 101.3293457 C92.36573162 97.91323952 93.18494971 96.06500263 95.3125 93.375 C99 92.5625 99 92.5625 102.3125 92.375 C102.3125 91.715 102.3125 91.055 102.3125 90.375 C103.9625 90.375 105.6125 90.375 107.3125 90.375 C107.36148437 89.67632812 107.41046875 88.97765625 107.4609375 88.2578125 C107.53570313 87.34773438 107.61046875 86.43765625 107.6875 85.5 C107.75710938 84.59507813 107.82671875 83.69015625 107.8984375 82.7578125 C108.3125 80.375 108.3125 80.375 110.3125 78.375 C109.24512884 77.0777259 109.24512884 77.0777259 106.7421875 77.3125 C104.98261719 77.3434375 104.98261719 77.3434375 103.1875 77.375 C92.54988365 77.4927053 81.93425419 76.89549779 71.3125 76.375 C71.3125 74.725 71.3125 73.075 71.3125 71.375 C72.5085083 71.35518066 73.7045166 71.33536133 74.93676758 71.31494141 C79.37057694 71.23891728 83.80405674 71.15019503 88.23754883 71.05761719 C90.15707904 71.01931423 92.07668135 70.98446367 93.99633789 70.953125 C96.7543313 70.90750298 99.51182777 70.8495042 102.26953125 70.7890625 C103.12899857 70.77751129 103.98846588 70.76596008 104.87397766 70.75405884 C105.67458115 70.73418915 106.47518463 70.71431946 107.30004883 70.69384766 C108.0039827 70.68052399 108.70791656 70.66720032 109.43318176 70.6534729 C111.64347464 70.46255815 111.64347464 70.46255815 114.3125 68.375 C115.3882221 66.59461076 115.3882221 66.59461076 116.25 64.5625 C119.50080026 57.86536263 119.50080026 57.86536263 122.3125 55.375 C126.42883092 55.22798818 128.46391836 55.62070521 131.5625 58.375 C133.09256446 60.99796765 133.99888927 63.20020716 134.921875 66.0625 C135.18452148 66.87074219 135.44716797 67.67898437 135.71777344 68.51171875 C136.01216309 69.43404297 136.01216309 69.43404297 136.3125 70.375 C136.86373535 70.36976318 137.4149707 70.36452637 137.98291016 70.35913086 C148.84645418 70.27067281 159.70425023 70.3122982 170.5625 70.6875 C171.98103271 70.72121704 171.98103271 70.72121704 173.42822266 70.75561523 C174.30269043 70.79114502 175.1771582 70.8266748 176.078125 70.86328125 C176.84930664 70.88946533 177.62048828 70.91564941 178.41503906 70.94262695 C180.3125 71.375 180.3125 71.375 182.3125 74.375 C179.50459618 77.18290382 177.61932927 76.68818004 173.6875 76.7890625 C173.02596924 76.80842865 172.36443848 76.8277948 171.68286133 76.8477478 C169.55953981 76.90754342 167.43615592 76.95378124 165.3125 77 C163.91273682 77.03820774 162.51299646 77.07726109 161.11328125 77.1171875 C153.8461231 77.31583859 146.58240666 77.43398061 139.3125 77.375 C139.45631104 78.03653076 139.60012207 78.69806152 139.74829102 79.37963867 C140.09130859 80.95751953 140.43432617 82.53540039 140.77734375 84.11328125 C141.31136159 86.520401 141.31136159 86.520401 142.3125 89.375 C142.91578125 89.32859375 143.5190625 89.2821875 144.140625 89.234375 C150.63554725 88.94105593 150.63554725 88.94105593 153.75 90.9375 C157.90226249 97.41502949 157.59240779 104.30874097 157.5 111.75 C157.49935547 112.75933594 157.49871094 113.76867187 157.49804688 114.80859375 C157.45307211 122.23442789 157.45307211 122.23442789 156.3125 123.375 C152.6825 123.375 149.0525 123.375 145.3125 123.375 C145.3125 141.855 145.3125 160.335 145.3125 179.375 C150.5925 182.015 155.8725 184.655 161.3125 187.375 C162.87661621 188.18855957 164.44073242 189.00211914 166.05224609 189.84033203 C177.57217323 195.63186954 188.17890379 196.79403322 200.9375 197.25 C202.95661882 197.34821908 204.97558233 197.44967867 206.99438477 197.55419922 C211.10550344 197.76156055 215.21675659 197.94920658 219.32958984 198.11914062 C224.92692528 198.35221736 230.51977383 198.64259781 236.11328125 198.953125 C251.40488055 199.79035495 266.69157524 200.4489788 282 200.875 C290.98458431 201.12630514 299.85375809 201.60507526 308.78759766 202.57421875 C317.63264152 203.49335989 326.49635797 203.92524718 335.375 204.375 C337.00667347 204.4589787 338.63834665 204.54296309 340.27001953 204.62695312 C347.84348787 205.01343381 355.41748673 205.38243949 362.99311829 205.72396851 C366.29061987 205.87497665 369.58757168 206.03628334 372.88449097 206.19946289 C374.44621225 206.27409057 376.00817466 206.34385088 377.57034302 206.40844727 C379.74426427 206.49854824 381.91684397 206.60498301 384.08984375 206.71484375 C385.31952881 206.77019287 386.54921387 206.82554199 387.81616211 206.88256836 C393.03146673 207.61710292 397.95358006 209.13481237 401.3125 213.375 C401.67326355 215.36820984 401.67326355 215.36820984 401.65307617 217.6628418 C401.65273628 218.95384041 401.65273628 218.95384041 401.65238953 220.2709198 C401.63690567 221.19600845 401.62142181 222.12109711 401.60546875 223.07421875 C401.60122391 224.02440384 401.59697906 224.97458893 401.59260559 225.9535675 C401.57580484 228.99016588 401.53814992 232.02610202 401.5 235.0625 C401.48495497 237.12043313 401.47126625 239.17837665 401.45898438 241.23632812 C401.42589671 246.28280748 401.37410462 251.32879144 401.3125 256.375 C400.76701004 256.45115036 400.22152008 256.52730072 399.65950012 256.60575867 C388.14977444 258.21770916 376.66363096 259.9203465 365.19845581 261.82312012 C349.05949774 264.49804841 332.89468151 266.97766533 316.71166992 269.37036133 C306.91979508 270.81966613 297.15308641 272.36659536 287.3984375 274.05078125 C277.60021692 275.73194962 267.77544024 277.19821067 257.9375 278.625 C239.40017615 281.31350419 220.90779666 284.27264945 202.41360474 287.24125671 C196.71268312 288.15495731 191.00867635 289.04594953 185.30102539 289.91674805 C182.11328477 290.40554709 178.92768198 290.90693672 175.7421875 291.41015625 C173.55729167 291.75260417 171.37239583 292.09505208 169.1875 292.4375 C168.09824219 292.61087891 167.00898437 292.78425781 165.88671875 292.96289062 C164.80777344 293.13111328 163.72882812 293.29933594 162.6171875 293.47265625 C161.1938208 293.69707397 161.1938208 293.69707397 159.74169922 293.92602539 C158.61006348 294.07418701 157.47842773 294.22234863 156.3125 294.375 C155.62862213 294.4661911 154.94474426 294.5573822 154.24014282 294.65133667 C145.02968525 295.68821641 135.7774875 295.48823164 126.52348709 295.45016479 C123.36236143 295.43728942 120.2012782 295.43085801 117.04013062 295.42602539 C110.33923452 295.41466044 103.6383739 295.39539438 96.9375 295.375 C89.14768094 295.35137259 81.35788158 295.33101235 73.56803513 295.31906128 C70.4565132 295.31258831 67.34505272 295.3000861 64.23355103 295.28735352 C62.32839003 295.28372146 60.42322846 295.28036967 58.51806641 295.27734375 C57.65565338 295.27217743 56.79324036 295.26701111 55.9046936 295.26168823 C50.0418072 295.23956077 50.0418072 295.23956077 44.3125 296.375 C43.09559467 298.14029595 43.09559467 298.14029595 42.3125 300.375 C41.81685547 301.06376221 41.32121094 301.75252441 40.81054688 302.4621582 C38.78664035 306.39749536 38.68377033 309.85976709 38.46875 314.23046875 C38.41479065 315.10656296 38.3608313 315.98265717 38.30523682 316.88529968 C38.18998093 318.78115947 38.08076777 320.67739421 37.97692871 322.57391357 C37.80933466 325.62003189 37.62426027 328.66465492 37.43457031 331.70947266 C37.04884354 337.93063728 36.68018614 344.15274779 36.3125 350.375 C34.81783933 375.58391015 32.54568769 400.65493776 29.75 425.75 C29.67273178 426.44598045 29.59546356 427.14196091 29.51585388 427.85903168 C28.99585411 432.53969642 28.46717462 437.21930084 27.93359375 441.8984375 C27.80031174 443.08119263 27.66702972 444.26394775 27.52970886 445.48254395 C26.78496879 451.91527618 25.85707941 458.28235766 24.75727844 464.66357422 C24.15692196 468.32342347 23.76096928 471.98620777 23.3984375 475.67578125 C22.34547289 485.67612064 20.88779982 495.60787231 19.390625 505.55004883 C18.94070949 508.54116277 18.49732195 511.53319155 18.0546875 514.52539062 C16.37412462 525.79692703 14.56085321 537.03035177 12.46255493 548.23271179 C12.29750458 549.14116348 12.13245422 550.04961517 11.96240234 550.9855957 C11.73778824 552.18790581 11.73778824 552.18790581 11.50863647 553.414505 C11.12854473 555.45211458 11.12854473 555.45211458 12.3125 557.375 C14.29223221 558.09964117 16.29914173 558.74983369 18.3125 559.375 C19.78994879 559.90978195 21.26373443 560.45474404 22.73461914 561.00732422 C23.5530983 561.31459442 24.37157745 561.62186462 25.21485901 561.93844604 C26.51809364 562.42911057 26.51809364 562.42911057 27.84765625 562.9296875 C29.72845487 563.63427677 31.6093163 564.33869842 33.49023438 565.04296875 C36.42407641 566.14264046 39.3574882 567.24340832 42.28979492 568.34716797 C51.95759307 571.98413659 61.57094278 575.54227342 71.47875977 578.47021484 C75.33394885 579.70113849 78.994314 581.28797889 82.70996094 582.88476562 C91.18227187 586.38944073 99.8372486 589.45065828 108.4375 592.625 C111.40380628 593.72149454 114.36984864 594.81869109 117.3354187 595.91717529 C119.16903757 596.59621338 121.00310835 597.27403266 122.837677 597.95050049 C123.65968597 598.25461853 124.48169495 598.55873657 125.32861328 598.87207031 C126.41349533 599.27247528 126.41349533 599.27247528 127.52029419 599.68096924 C129.3125 600.375 129.3125 600.375 131.3125 601.375 C131.3125 602.035 131.3125 602.695 131.3125 603.375 C131.9725 603.375 132.6325 603.375 133.3125 603.375 C135.2298545 608.15857043 135.51838798 612.3217868 135.2890625 617.3984375 C135.25152359 618.51770126 135.25152359 618.51770126 135.21322632 619.65957642 C135.13159451 622.02355294 135.03479009 624.38662137 134.9375 626.75 C134.87920212 628.36064098 134.82190016 629.97131833 134.765625 631.58203125 C134.62610152 635.51353533 134.47297566 639.44429766 134.3125 643.375 C120.46768002 642.54970412 106.68451834 641.69252247 92.9375 639.8125 C84.50100911 638.66989935 76.1868496 638.05473082 67.68066406 637.78881836 C55.1462105 637.34843585 42.67329297 636.0660227 30.18936157 634.90588379 C23.9021965 634.32618664 17.60935458 633.83591078 11.3125 633.375 C9.18598737 637.04806727 8.06287559 640.29165523 7.375 644.4375 C6.62115532 648.7092865 5.44725663 651.24024337 2.3125 654.375 C-0 654.25 -0 654.25 -2.6875 653.375 C-5.37178367 649.00645991 -6.25543518 645.05183626 -6.875 640 C-7.11283203 638.13214844 -7.11283203 638.13214844 -7.35546875 636.2265625 C-7.46503906 635.28554688 -7.57460938 634.34453125 -7.6875 633.375 C-22.35975234 634.32022433 -37.02997857 635.2829125 -51.6875 636.4375 C-52.71157959 636.51661621 -53.73565918 636.59573242 -54.79077148 636.67724609 C-59.47768591 637.05409534 -64.05080404 637.57751652 -68.6875 638.375 C-70.04110022 638.41416384 -71.39656359 638.41946608 -72.75 638.375 C-76.04317097 638.375 -78.50982868 638.72848665 -81.6875 639.375 C-83.53254188 639.55847457 -85.38077531 639.71148228 -87.23046875 639.83984375 C-88.29604004 639.9167041 -89.36161133 639.99356445 -90.45947266 640.07275391 C-91.58659668 640.15187012 -92.7137207 640.23098633 -93.875 640.3125 C-102.57723189 640.94576385 -111.24628028 641.66647427 -119.90307617 642.76538086 C-124.54331042 643.33360784 -129.02289389 643.44772214 -133.6875 643.375 C-136.14964221 609.52054459 -136.14964221 609.52054459 -130.58984375 602.86328125 C-127.2711582 600.01805555 -123.99278966 598.57344743 -119.9375 597.125 C-119.16744629 596.83761963 -118.39739258 596.55023926 -117.60400391 596.25415039 C-114.97095197 595.27780667 -112.33020875 594.32488188 -109.6875 593.375 C-108.68879883 593.01325684 -107.69009766 592.65151367 -106.66113281 592.27880859 C-102.46745974 590.75991709 -98.27298083 589.24365723 -94.07128906 587.74707031 C-88.49531475 585.76073206 -82.94018246 583.72689109 -77.40234375 581.63671875 C-66.60018942 577.56418677 -55.73404187 573.66762578 -44.875 569.75 C-41.74311832 568.61906292 -38.61133524 567.48785318 -35.47956848 566.3565979 C-33.54955413 565.65955035 -31.61945625 564.96273401 -29.68925476 564.26620483 C-23.35179417 561.97884168 -17.01853718 559.68008112 -10.6875 557.375 C-10.50300743 552.30145428 -10.94719875 548.12857548 -12.09912109 543.16186523 C-13.35793838 537.19945889 -14.16717132 531.15091437 -15.0625 525.125 C-15.281612 523.66413714 -15.5007696 522.20328113 -15.7199707 520.74243164 C-18.40836892 502.75118463 -20.95861105 484.73691082 -23.1328125 466.67578125 C-23.55746407 463.26948085 -24.05051907 459.87587788 -24.5546875 456.48046875 C-27.08331211 439.2372277 -28.85692805 421.99203159 -30.38037109 404.63354492 C-30.46063034 403.72626144 -30.54088959 402.81897797 -30.62358093 401.88420105 C-30.77401419 400.17530821 -30.92180765 398.46618014 -31.06648254 396.75679016 C-31.40485103 392.89275122 -31.87213177 389.17306816 -32.6875 385.375 C-32.88938873 382.80933075 -33.05714979 380.25658423 -33.1875 377.6875 C-33.22810547 376.95144531 -33.26871094 376.21539062 -33.31054688 375.45703125 C-33.48413366 372.29508121 -33.64811734 369.13265467 -33.8125 365.97021484 C-33.89559377 364.37747607 -33.97957302 362.78478324 -34.06445312 361.19213867 C-34.14388422 359.6963439 -34.22088392 358.20041711 -34.29492188 356.7043457 C-34.48158144 353.16559147 -34.75387047 349.66364099 -35.18041992 346.14526367 C-35.68237539 341.70705508 -35.9211655 337.2937459 -36.08203125 332.83203125 C-36.15074025 331.24800527 -36.22043044 329.66402161 -36.29101562 328.08007812 C-36.39857473 325.62492458 -36.500605 323.17013657 -36.58618164 320.71411133 C-36.6718608 318.31485614 -36.78117537 315.91761799 -36.89453125 313.51953125 C-36.92447929 312.42714897 -36.92447929 312.42714897 -36.95503235 311.31269836 C-37.26872635 305.37379724 -39.45485689 301.96486601 -43.25 297.5625 C-47.00207497 294.46295981 -51.83820618 295.25669715 -56.41552734 295.29321289 C-57.75547005 295.29781273 -57.75547005 295.29781273 -59.1224823 295.30250549 C-61.06714136 295.30966741 -63.01179316 295.31906096 -64.95643234 295.33040047 C-68.05409984 295.34782876 -71.15171533 295.35810585 -74.24942017 295.36631775 C-83.05955951 295.39070961 -91.86963038 295.42577919 -100.6796875 295.47094727 C-106.07132116 295.4980827 -111.46291314 295.51489935 -116.85460281 295.52581596 C-118.89150132 295.53194061 -120.92839274 295.54183454 -122.96525192 295.55589485 C-142.0956443 295.68653708 -160.68180678 294.14504006 -179.5078125 290.76171875 C-183.12462605 290.12002602 -186.75028858 289.53261992 -190.375 288.9375 C-195.43837833 288.1016711 -200.49509976 287.23554076 -205.546875 286.33203125 C-206.55532471 286.152771 -207.56377441 285.97351074 -208.6027832 285.78881836 C-210.55515542 285.4407381 -212.50687151 285.08894805 -214.45776367 284.73266602 C-220.03210704 283.74100252 -225.55145391 283.07815286 -231.19311523 282.61230469 C-234.42958745 282.3044011 -237.56661358 281.71672063 -240.75 281.0625 C-248.13804466 279.60507648 -255.55880512 278.40286118 -263 277.25 C-264.08482666 277.07944092 -265.16965332 276.90888184 -266.28735352 276.7331543 C-271.34941072 275.95672252 -276.37423531 275.28568156 -281.48046875 274.8828125 C-285.35262978 274.56358462 -288.87224823 273.90089232 -292.609375 272.87451172 C-296.90053995 271.84305924 -301.31054991 271.45618754 -305.6875 270.9375 C-312.56504952 270.08545775 -319.3885379 269.16014989 -326.1875 267.8125 C-331.03494659 266.85583201 -335.84729527 266.0510108 -340.75 265.4375 C-348.43111465 264.4701878 -356.0356845 263.14141902 -363.65649414 261.78344727 C-368.65851528 260.89315879 -373.65297036 260.06466159 -378.6875 259.375 C-381.93975972 258.91034145 -385.18890329 258.42704896 -388.4375 257.9375 C-389.71173828 257.75477539 -389.71173828 257.75477539 -391.01171875 257.56835938 C-392.23568359 257.38176758 -392.23568359 257.38176758 -393.484375 257.19140625 C-394.22010742 257.08256104 -394.95583984 256.97371582 -395.71386719 256.86157227 C-397.6875 256.375 -397.6875 256.375 -400.6875 254.375 C-401.015625 251.7421875 -401.015625 251.7421875 -400.9375 248.25 C-400.92364258 247.61199463 -400.90978516 246.97398926 -400.89550781 246.31665039 C-400.85945668 244.85266829 -400.81556568 243.38886709 -400.765625 241.92529297 C-400.67708281 239.03494392 -400.63663152 236.14528185 -400.59375 233.25390625 C-400.54361111 231.10672455 -400.49152706 228.95958739 -400.4375 226.8125 C-400.42364258 225.77786621 -400.40978516 224.74323242 -400.39550781 223.67724609 C-400.20416438 217.8696887 -399.9174016 213.75394175 -395.6875 209.375 C-389.88667727 206.67713716 -383.61869878 206.8765507 -377.33984375 206.62890625 C-375.50749176 206.54564087 -375.50749176 206.54564087 -373.63812256 206.46069336 C-371.00845876 206.34163614 -368.37885199 206.22544822 -365.74887085 206.11404419 C-358.74305882 205.81639832 -351.73876723 205.48534288 -344.734375 205.15625 C-343.68258592 205.10721622 -343.68258592 205.10721622 -342.60954857 205.05719185 C-330.85174933 204.50751087 -319.11463618 203.78599659 -307.375 202.9375 C-292.94964276 201.90227647 -278.5183544 201.08495235 -264.07421875 200.3671875 C-263.19797285 200.32363821 -262.32172695 200.28008892 -261.41892815 200.23521996 C-252.53507127 199.7949455 -243.65081247 199.36351329 -234.7660656 198.94159222 C-233.92504862 198.90165048 -233.08403164 198.86170874 -232.2175293 198.82055664 C-231.38338564 198.78094975 -230.54924198 198.74134287 -229.68982124 198.70053577 C-223.22869979 198.39173632 -216.76895175 198.05989025 -210.30967522 197.71471691 C-206.75768522 197.52669585 -203.20634566 197.35023632 -199.65200806 197.21282959 C-185.82645859 196.67082547 -173.83596286 195.80912122 -161.51586914 189.14501953 C-159.55575767 188.08764758 -157.56720014 187.11058662 -155.56445312 186.13671875 C-148.97272335 183.13019923 -148.97272335 183.13019923 -144.30932617 177.87158203 C-143.40075294 172.76259661 -143.55734076 167.80700963 -143.7109375 162.6328125 C-143.73596344 161.50930389 -143.76098938 160.38579529 -143.78677368 159.22824097 C-143.86872058 155.65184218 -143.96540923 152.07601655 -144.0625 148.5 C-144.12076533 146.07033565 -144.17806805 143.64064802 -144.234375 141.2109375 C-144.37426176 135.2653099 -144.52624266 129.32008431 -144.6875 123.375 C-145.62980469 123.54644531 -146.57210937 123.71789062 -147.54296875 123.89453125 C-150.44317498 124.33766835 -152.00889969 124.46628161 -154.6875 123.375 C-156.32711806 120.09576388 -155.83420587 116.4760042 -155.8125 112.875 C-155.80766602 112.06144043 -155.80283203 111.24788086 -155.79785156 110.40966797 C-155.64626331 95.20536632 -155.64626331 95.20536632 -153.3125 90.75 C-148.91023598 88.44405218 -144.59242074 89.14143235 -139.6875 89.375 C-139.3575 85.085 -139.0275 80.795 -138.6875 76.375 C-140.70037109 76.48328125 -140.70037109 76.48328125 -142.75390625 76.59375 C-173.69354542 78.20423603 -173.69354542 78.20423603 -179.6875 75.375 C-178.6975 73.395 -178.6975 73.395 -177.6875 71.375 C-176.52178467 71.34994385 -175.35606934 71.3248877 -174.1550293 71.29907227 C-169.83313869 71.20495309 -165.5114071 71.10474331 -161.18969727 71.00268555 C-159.31864134 70.95935378 -157.44754631 70.91767743 -155.57641602 70.87768555 C-152.88806369 70.81994051 -150.19990785 70.75625819 -147.51171875 70.69140625 C-146.67412521 70.67469376 -145.83653168 70.65798126 -144.97355652 70.64076233 C-141.65076712 70.55585939 -138.85997982 70.43249327 -135.6875 69.375 C-134.33003727 67.15425912 -134.33003727 67.15425912 -133.1875 64.5 C-131.70454006 61.23938937 -130.48723813 58.66504221 -127.6875 56.375 C-124.8125 55.3125 -124.8125 55.3125 -121.6875 55.375 C-117.81399639 58.97182478 -115.7549384 62.91745504 -113.6796875 67.73828125 C-112.71690869 69.72482481 -112.71690869 69.72482481 -109.6875 70.375 C-107.24168223 70.42220517 -104.81935566 70.41723144 -102.375 70.375 C-95.17915528 70.31943976 -88.00290937 70.46572387 -80.8125 70.75 C-79.85561279 70.7809375 -78.89872559 70.811875 -77.9128418 70.84375 C-77.01605713 70.88242188 -76.11927246 70.92109375 -75.1953125 70.9609375 C-73.99865967 71.00806885 -73.99865967 71.00806885 -72.77783203 71.05615234 C-70.6875 71.375 -70.6875 71.375 -67.6875 73.375 C-67.6875 74.035 -67.6875 74.695 -67.6875 75.375 C-76.98378303 77.31884796 -85.96788371 77.62087901 -95.4375 77.5 C-96.82811846 77.48993717 -98.21874408 77.48081723 -99.609375 77.47265625 C-102.96893819 77.44932595 -106.32812175 77.4165923 -109.6875 77.375 C-109.20531006 78.28523926 -109.20531006 78.28523926 -108.71337891 79.21386719 C-107.50911263 81.75079367 -107.28285522 83.83383392 -107.0625 86.625 C-106.95035156 87.96304688 -106.95035156 87.96304688 -106.8359375 89.328125 C-106.78695313 90.00359375 -106.73796875 90.6790625 -106.6875 91.375 C-106.0275 91.148125 -105.3675 90.92125 -104.6875 90.6875 C-100.58515931 90.26017284 -97.27991995 91.37656771 -93.6875 93.375 C-91.29637791 96.96168313 -91.45368973 98.53896569 -91.4921875 102.79296875 C-91.49863281 104.04658203 -91.50507813 105.30019531 -91.51171875 106.59179688 C-91.52847656 107.90212891 -91.54523438 109.21246094 -91.5625 110.5625 C-91.57253361 111.89777987 -91.5816588 113.23306689 -91.58984375 114.56835938 C-91.61344708 117.83742015 -91.64637406 121.10612028 -91.6875 124.375 C-93.14573212 124.4020043 -94.60410675 124.42139787 -96.0625 124.4375 C-96.87460937 124.44910156 -97.68671875 124.46070313 -98.5234375 124.47265625 C-100.6875 124.375 -100.6875 124.375 -102.6875 123.375 C-102.40299983 132.59883637 -102.40299983 132.59883637 -102.11328125 141.82250977 C-102.06640302 143.30224599 -102.01952806 144.78198232 -101.97265625 146.26171875 C-101.94889923 147.01105179 -101.92514221 147.76038483 -101.90066528 148.53242493 C-101.75914952 153.02121974 -101.62429679 157.51014875 -101.49559021 161.99932861 C-101.41539413 164.77427483 -101.3314443 167.5491 -101.24679565 170.32391357 C-101.1879894 172.29608721 -101.13413499 174.26840645 -101.08032227 176.24072266 C-101.04350342 177.42843262 -101.00668457 178.61614258 -100.96875 179.83984375 C-100.93845703 180.887771 -100.90816406 181.93569824 -100.87695312 183.01538086 C-100.94761491 185.33096753 -100.94761491 185.33096753 -99.6875 186.375 C-98.21949822 186.41459321 -96.749475 186.38227329 -95.28222656 186.32080078 C-94.34324524 186.28391144 -93.40426392 186.24702209 -92.43682861 186.20901489 C-91.41095642 186.1632431 -90.38508423 186.11747131 -89.328125 186.0703125 C-88.2727655 186.02687714 -87.21740601 185.98344177 -86.13006592 185.93869019 C-83.88364529 185.84519794 -81.63732858 185.74918084 -79.39111328 185.65087891 C-75.99402765 185.50246954 -72.59669333 185.36184423 -69.19921875 185.22265625 C-67.0130011 185.13067614 -64.82680251 185.03824166 -62.640625 184.9453125 C-61.63904358 184.90358917 -60.63746216 184.86186584 -59.60552979 184.81887817 C-52.28559198 184.49519616 -44.98985996 183.97370635 -37.6875 183.375 C-37.67536972 182.30196121 -37.67536972 182.30196121 -37.66299438 181.20724487 C-37.58398224 174.35624759 -37.49640513 167.50540329 -37.39997292 160.65463066 C-37.35071673 157.13535097 -37.30440268 153.61609167 -37.265625 150.09667969 C-37.07969854 133.44396644 -36.55842017 116.93795105 -34.6875 100.375 C-34.56761719 99.23305176 -34.44773437 98.09110352 -34.32421875 96.91455078 C-32.82687501 83.13664873 -30.32062369 69.63102335 -27.29736328 56.11230469 C-26.73329431 53.58054274 -26.19021975 51.04524122 -25.65234375 48.5078125 C-24.02446148 41.00763476 -21.9919087 33.97061483 -18.8359375 26.94140625 C-17.84591193 24.72900218 -17.0250207 22.54314947 -16.25 20.25 C-13.57425687 13.00886463 -9.4648233 6.49205778 -3.6875 1.375 C-2.6875 0.375 -2.6875 0.375 0 0 Z " fill="#020202" transform="translate(429.6875,39.625)"/>
<path d="M0 0 C4.23331753 1.36070921 5.27291085 2.30713288 7.5 6.125 C8.06741869 7.676525 8.60236451 9.24019782 9.109375 10.8125 C9.50334473 12.02486328 9.50334473 12.02486328 9.90527344 13.26171875 C10.1015332 13.87660156 10.29779297 14.49148437 10.5 15.125 C11.32685303 15.11714478 11.32685303 15.11714478 12.17041016 15.10913086 C23.03395418 15.02067281 33.89175023 15.0622982 44.75 15.4375 C46.16853271 15.47121704 46.16853271 15.47121704 47.61572266 15.50561523 C48.49019043 15.54114502 49.3646582 15.5766748 50.265625 15.61328125 C51.03680664 15.63946533 51.80798828 15.66564941 52.60253906 15.69262695 C54.5 16.125 54.5 16.125 56.5 19.125 C54.01942372 21.60557628 53.13807536 21.41519005 49.7109375 21.5390625 C48.29941406 21.59707031 48.29941406 21.59707031 46.859375 21.65625 C45.87453125 21.6871875 44.8896875 21.718125 43.875 21.75 C42.88242187 21.78867188 41.88984375 21.82734375 40.8671875 21.8671875 C38.41164615 21.9616314 35.9561159 22.04719875 33.5 22.125 C33.005 21.135 33.005 21.135 32.5 20.125 C38.77 20.125 45.04 20.125 51.5 20.125 C51.5 19.465 51.5 18.805 51.5 18.125 C50.56285156 18.13660156 49.62570312 18.14820312 48.66015625 18.16015625 C35.58891335 18.26555622 22.55585411 17.71680243 9.5 17.125 C8.86312319 15.85294371 8.22644252 14.58078921 7.58984375 13.30859375 C7.235271 12.60017334 6.88069824 11.89175293 6.51538086 11.16186523 C5.69057789 9.50730136 4.87512395 7.84807938 4.0625 6.1875 C2.62942081 3.92745805 2.62942081 3.92745805 0 3.125 C-2.4631494 2.90662607 -2.4631494 2.90662607 -4.125 4.125 C-6.06910074 6.9527829 -7.23723609 9.94063884 -8.5 13.125 C-9.16 14.775 -9.82 16.425 -10.5 18.125 C-17.76 18.455 -25.02 18.785 -32.5 19.125 C-25.9 19.455 -19.3 19.785 -12.5 20.125 C-12.5 21.775 -12.5 23.425 -12.5 25.125 C-13.16 25.125 -13.82 25.125 -14.5 25.125 C-15.16 29.085 -15.82 33.045 -16.5 37.125 C-17.89025391 37.52332031 -17.89025391 37.52332031 -19.30859375 37.9296875 C-20.50613281 38.28289062 -21.70367188 38.63609375 -22.9375 39 C-24.13246094 39.34804687 -25.32742188 39.69609375 -26.55859375 40.0546875 C-29.61691031 40.7858291 -29.61691031 40.7858291 -30.5 43.125 C-30.65306901 44.93671098 -30.74946661 46.7533794 -30.81640625 48.5703125 C-30.87924805 50.18486328 -30.87924805 50.18486328 -30.94335938 51.83203125 C-30.98267578 52.95996094 -31.02199219 54.08789062 -31.0625 55.25 C-31.12727539 56.95349609 -31.12727539 56.95349609 -31.19335938 58.69140625 C-31.29965945 61.50245261 -31.40035397 64.3137099 -31.5 67.125 C-27.21 67.125 -22.92 67.125 -18.5 67.125 C-18.63277344 69.208125 -18.76554688 71.29125 -18.90234375 73.4375 C-19.03592354 75.58944797 -19.16780652 77.74149423 -19.29956055 79.89355469 C-19.38798536 81.32400213 -19.47800951 82.75435214 -19.57006836 84.18457031 C-20.61722245 100.49443406 -20.98901774 116.77356765 -21.5 133.125 C-43.94 132.465 -66.38 131.805 -89.5 131.125 C-89.62375 122.029375 -89.7475 112.93375 -89.875 103.5625 C-90.17976993 83.5850223 -90.73571131 63.73956826 -92.32861328 43.82324219 C-92.57686348 39.91489293 -92.56155491 36.03989252 -92.5 32.125 C-92.17 32.125 -91.84 32.125 -91.5 32.125 C-91.00464345 35.14387107 -90.52913393 38.16414618 -90.0625 41.1875 C-89.92779297 41.99638672 -89.79308594 42.80527344 -89.65429688 43.63867188 C-86.69712187 63.1848774 -87.38132029 83.29351599 -87.5 103 C-87.5265404 107.55989279 -87.54645334 112.11974725 -87.5625 116.6796875 C-87.57079834 117.71793671 -87.57909668 118.75618591 -87.58764648 119.82589722 C-87.59094971 120.77264313 -87.59425293 121.71938904 -87.59765625 122.69482422 C-87.60551147 123.94644852 -87.60551147 123.94644852 -87.61352539 125.22335815 C-87.71046355 127.13577372 -87.71046355 127.13577372 -86.5 128.125 C-84.34459747 128.34475606 -82.18237519 128.49788238 -80.01953125 128.625 C-79.34676651 128.66533356 -78.67400177 128.70566711 -77.98085022 128.7472229 C-75.75833837 128.87843347 -73.53548421 129.00207027 -71.3125 129.125 C-70.55833801 129.16824402 -69.80417603 129.21148804 -69.02716064 129.25604248 C-53.52597749 130.14432129 -38.0204957 130.70404719 -22.5 131.125 C-22.50523682 130.21137695 -22.51047363 129.29775391 -22.51586914 128.35644531 C-22.61522065 108.24971271 -22.41529811 88.21530671 -21.5 68.125 C-22.35851562 68.37056641 -22.35851562 68.37056641 -23.234375 68.62109375 C-25.49563646 69.12402949 -27.44006946 69.22599884 -29.75 69.1875 C-31.60625 69.1565625 -31.60625 69.1565625 -33.5 69.125 C-33.58725659 64.8959638 -33.6404789 60.66715988 -33.6875 56.4375 C-33.71263672 55.23931641 -33.73777344 54.04113281 -33.76367188 52.80664062 C-33.77333984 51.64970703 -33.78300781 50.49277344 -33.79296875 49.30078125 C-33.8086792 48.23770752 -33.82438965 47.17463379 -33.84057617 46.0793457 C-33.44676838 42.66323952 -32.62755029 40.81500263 -30.5 38.125 C-26.8125 37.3125 -26.8125 37.3125 -23.5 37.125 C-23.5 36.465 -23.5 35.805 -23.5 35.125 C-21.85 35.125 -20.2 35.125 -18.5 35.125 C-18.42652344 34.07699219 -18.42652344 34.07699219 -18.3515625 33.0078125 C-18.27679687 32.09773438 -18.20203125 31.18765625 -18.125 30.25 C-18.05539062 29.34507813 -17.98578125 28.44015625 -17.9140625 27.5078125 C-17.5 25.125 -17.5 25.125 -15.5 23.125 C-16.56737116 21.8277259 -16.56737116 21.8277259 -19.0703125 22.0625 C-20.24335937 22.083125 -21.41640625 22.10375 -22.625 22.125 C-33.26261635 22.2427053 -43.87824581 21.64549779 -54.5 21.125 C-54.5 19.475 -54.5 17.825 -54.5 16.125 C-53.3039917 16.10518066 -52.1079834 16.08536133 -50.87573242 16.06494141 C-46.44192306 15.98891728 -42.00844326 15.90019503 -37.57495117 15.80761719 C-35.65542096 15.76931423 -33.73581865 15.73446367 -31.81616211 15.703125 C-29.0581687 15.65750298 -26.30067223 15.5995042 -23.54296875 15.5390625 C-22.25376778 15.52173569 -22.25376778 15.52173569 -20.93852234 15.50405884 C-19.73761711 15.4742543 -19.73761711 15.4742543 -18.51245117 15.44384766 C-17.45655037 15.42386215 -17.45655037 15.42386215 -16.37931824 15.4034729 C-14.16902536 15.21255815 -14.16902536 15.21255815 -11.5 13.125 C-10.4242779 11.34461076 -10.4242779 11.34461076 -9.5625 9.3125 C-5.13115135 0.18325541 -5.13115135 0.18325541 0 0 Z " fill="#E7E7E7" transform="translate(555.5,94.875)"/>
<path d="M0 0 C3 1 3 1 3.94042969 2.66210938 C6.07389858 9.02548655 6.39208163 14.82216324 6.25 21.5 C6.24484375 22.5003125 6.2396875 23.500625 6.234375 24.53125 C6.15487637 31.84512363 6.15487637 31.84512363 5 33 C1.37 33 -2.26 33 -6 33 C-6 51.48 -6 69.96 -6 89 C1.92 92.96 1.92 92.96 10 97 C11.56411621 97.81355957 13.12823242 98.62711914 14.73974609 99.46533203 C26.25967323 105.25686954 36.86640379 106.41903322 49.625 106.875 C51.64411882 106.97321908 53.66308233 107.07467867 55.68188477 107.17919922 C59.79300344 107.38656055 63.90425659 107.57420658 68.01708984 107.74414062 C73.61442528 107.97721736 79.20727383 108.26759781 84.80078125 108.578125 C100.09238055 109.41535495 115.37907524 110.0739788 130.6875 110.5 C139.67208431 110.75130514 148.54125809 111.23007526 157.47509766 112.19921875 C166.32014152 113.11835989 175.18385797 113.55024718 184.0625 114 C185.69417347 114.0839787 187.32584665 114.16796309 188.95751953 114.25195312 C196.53098787 114.63843381 204.10498673 115.00743949 211.68061829 115.34896851 C214.97811987 115.49997665 218.27507168 115.66128334 221.57199097 115.82446289 C223.13371225 115.89909057 224.69567466 115.96885088 226.25784302 116.03344727 C228.43176427 116.12354824 230.60434397 116.22998301 232.77734375 116.33984375 C234.00702881 116.39519287 235.23671387 116.45054199 236.50366211 116.50756836 C241.71896673 117.24210292 246.64108006 118.75981237 250 123 C250.36076355 124.99320984 250.36076355 124.99320984 250.34057617 127.2878418 C250.34034958 128.14850754 250.34012299 129.00917328 250.33988953 129.8959198 C250.32440567 130.82100845 250.30892181 131.74609711 250.29296875 132.69921875 C250.28872391 133.64940384 250.28447906 134.59958893 250.28010559 135.5785675 C250.26330484 138.61516588 250.22564992 141.65110202 250.1875 144.6875 C250.17245497 146.74543313 250.15876625 148.80337665 250.14648438 150.86132812 C250.11339671 155.90780748 250.06160462 160.95379144 250 166 C247.36 166 244.72 166 242 166 C242 165.67 242 165.34 242 165 C244.31 165 246.62 165 249 165 C248.93084336 159.85833787 248.84274272 154.71746736 248.73754883 149.57641602 C248.70442233 147.82976101 248.67635263 146.08300212 248.65356445 144.33618164 C248.61979119 141.8161213 248.56746653 139.29700248 248.51171875 136.77734375 C248.50213387 135.6175425 248.50213387 135.6175425 248.49235535 134.43431091 C248.35454829 129.2807616 247.42965335 125.5741396 245 121 C242.8435776 119.76578979 242.8435776 119.76578979 240.25 119.625 C239.25226563 119.50511719 238.25453125 119.38523437 237.2265625 119.26171875 C235.62941406 119.13216797 235.62941406 119.13216797 234 119 C232.49566406 118.85498047 232.49566406 118.85498047 230.9609375 118.70703125 C224.9364287 118.22027351 218.90895384 117.98753497 212.86865234 117.80883789 C193.94689861 117.24893055 175.11079276 116.08409469 156.22949219 114.72949219 C141.17393668 113.65660342 126.14357319 112.75837002 111.05383301 112.34155273 C102.87026638 112.10869791 94.72586367 111.61459154 86.5625 111 C76.43818717 110.25421472 66.33465818 109.74914646 56.1875 109.4375 C54.91229492 109.39069092 53.63708984 109.34388184 52.32324219 109.2956543 C44.91418492 109.01892336 44.91418492 109.01892336 37.5078125 109.2109375 C24.32659852 109.57321188 13.14802762 101.9379175 2.01928711 95.60986328 C-1.22470003 93.88019148 -4.6209427 92.44816741 -8 91 C-8 71.53 -8 52.06 -8 32 C-4.04 32 -0.08 32 4 32 C3.91303133 27.93646364 3.80613329 23.87513058 3.6875 19.8125 C3.66494141 18.66201172 3.64238281 17.51152344 3.61914062 16.32617188 C3.58369141 15.21435547 3.54824219 14.10253906 3.51171875 12.95703125 C3.48553467 11.93585205 3.45935059 10.91467285 3.43237305 9.86254883 C2.94285238 6.62165112 1.77316873 4.72094261 0 2 C0 1.34 0 0.68 0 0 Z " fill="#CECECE" transform="translate(581,130)"/>
<path d="M0 0 C0 0.33 0 0.66 0 1 C-9.98897838 3.16351145 -19.99073323 4.86095554 -30.12280273 6.19702148 C-33.70180499 6.67399217 -37.26297051 7.20141454 -40.82373047 7.79833984 C-62.68769088 11.19995613 -84.87157011 10.30597316 -106.92712402 10.14770508 C-115.71452519 10.08766112 -124.50206639 10.05458991 -133.28960419 10.02193832 C-136.33914767 10.00804699 -139.38856115 9.98647546 -142.43804932 9.96365356 C-144.29756587 9.95363558 -146.15708326 9.94376996 -148.01660156 9.93408203 C-148.85701996 9.92577362 -149.69743835 9.91746521 -150.56332397 9.90890503 C-156.34666591 9.87675295 -156.34666591 9.87675295 -162 11 C-163.21690533 12.76529595 -163.21690533 12.76529595 -164 15 C-164.7434668 16.03314331 -164.7434668 16.03314331 -165.50195312 17.0871582 C-167.52585965 21.02249536 -167.62872967 24.48476709 -167.84375 28.85546875 C-167.92468903 30.16961006 -167.92468903 30.16961006 -168.00726318 31.51029968 C-168.12251907 33.40615947 -168.23173223 35.30239421 -168.33557129 37.19891357 C-168.50316534 40.24503189 -168.68823973 43.28965492 -168.87792969 46.33447266 C-169.26365646 52.55563728 -169.63231386 58.77774779 -170 65 C-171.49466067 90.20891015 -173.76681231 115.27993776 -176.5625 140.375 C-176.63976822 141.07098045 -176.71703644 141.76696091 -176.79664612 142.48403168 C-177.31664589 147.16469642 -177.84532538 151.84430084 -178.37890625 156.5234375 C-178.51218826 157.70619263 -178.64547028 158.88894775 -178.78279114 160.10754395 C-179.5323272 166.5817018 -180.44313583 172.99851476 -181.56799316 179.41848755 C-182.18386506 183.09870933 -182.57203646 186.78812331 -182.9375 190.5 C-183.96861907 200.38281343 -185.46320515 210.18500354 -187 220 C-187.33 220 -187.66 220 -188 220 C-188.15492853 212.78721626 -187.77926505 205.88593424 -186.75 198.75 C-186.47463638 196.74617941 -186.19993456 194.74226779 -185.92578125 192.73828125 C-185.77705566 191.66529785 -185.62833008 190.59231445 -185.47509766 189.48681641 C-184.95848668 185.69532723 -184.4655934 181.90108357 -183.98046875 178.10546875 C-183.89397064 177.42914398 -183.80747253 176.75281921 -183.71835327 176.05599976 C-183.45779288 174.01653495 -183.19757879 171.97702628 -182.9375 169.9375 C-181.99535878 162.55208684 -181.0330804 155.17412003 -179.9453125 147.80859375 C-179.047777 141.59229696 -178.42923873 135.38504777 -177.9375 129.125 C-177.10155361 118.76202816 -177.10155361 118.76202816 -176.47265625 114.04296875 C-175.64434296 107.75068003 -175.60744659 101.38503085 -175.39453125 95.04882812 C-175.35714844 94.05689453 -175.31976563 93.06496094 -175.28125 92.04296875 C-175.23581055 90.69755005 -175.23581055 90.69755005 -175.18945312 89.32495117 C-175 87 -175 87 -174 84 C-173.53194925 80.20074434 -173.28677269 76.3792748 -173 72.5625 C-172.86863647 70.84619385 -172.86863647 70.84619385 -172.73461914 69.09521484 C-172.02178459 59.30154578 -171.61554292 49.50865635 -171.34179688 39.69360352 C-171.18478559 34.26189416 -170.97928086 28.83681225 -170.625 23.4140625 C-170.53412109 21.98634521 -170.53412109 21.98634521 -170.44140625 20.52978516 C-169.73396201 16.47528449 -168.05536985 14.68276377 -165 12 C-164.34 12 -163.68 12 -163 12 C-162.34 10.68 -161.68 9.36 -161 8 C-159.03707001 7.98786972 -159.03707001 7.98786972 -157.03448486 7.97549438 C-144.6202067 7.89755345 -132.20603171 7.80969916 -119.79188919 7.71247292 C-113.41173671 7.66281381 -107.0315984 7.61648455 -100.65136719 7.578125 C-94.4785654 7.54088405 -88.30589187 7.49442653 -82.1332016 7.44193649 C-79.79407787 7.42359632 -77.45492687 7.40841581 -75.1157608 7.39665604 C-60.9567364 7.32301704 -47.06046351 6.71092388 -33 5 C-33 4.34 -33 3.68 -33 3 C-29.00097233 2.4920154 -25.00064616 1.99506324 -21 1.5 C-19.87464844 1.35691406 -18.74929688 1.21382813 -17.58984375 1.06640625 C-11.676703 0.34023107 -5.95736399 -0.17521659 0 0 Z " fill="#C0C0C0" transform="translate(636,325)"/>
<path d="M0 0 C0.33 0 0.66 0 1 0 C1 1.65 1 3.3 1 5 C0.24074219 5.00257813 -0.51851562 5.00515625 -1.30078125 5.0078125 C-2.29464844 5.04648438 -3.28851563 5.08515625 -4.3125 5.125 C-5.79169922 5.15980469 -5.79169922 5.15980469 -7.30078125 5.1953125 C-10.16697784 5.77199776 -10.16697784 5.77199776 -11.8125 8.25 C-13.55729636 13.75988325 -13.57395306 19.12628064 -13.6875 24.875 C-13.72166016 26.0403125 -13.75582031 27.205625 -13.79101562 28.40625 C-13.87318678 31.27050179 -13.93827771 34.13523461 -14 37 C-10.04 37 -6.08 37 -2 37 C-2 56.47 -2 75.94 -2 96 C-5.96 97.98 -9.92 99.96 -14 102 C-17.03466032 103.94679612 -17.03466032 103.94679612 -20.05859375 105.91015625 C-22.87628082 107.49191619 -25.81786108 108.36681764 -28.921875 109.2265625 C-31.072078 109.8650751 -31.072078 109.8650751 -32.52661133 111.50708008 C-36.37717477 113.83125296 -40.2304343 113.55429469 -44.65234375 113.66015625 C-45.61137604 113.69488037 -46.57040833 113.72960449 -47.5585022 113.76538086 C-49.615546 113.83860192 -51.67282112 113.90554246 -53.73025513 113.96682739 C-59.11021996 114.12731257 -64.48854424 114.3319749 -69.8671875 114.53125 C-71.45760612 114.58829857 -71.45760612 114.58829857 -73.08015442 114.64649963 C-82.24438833 114.98386711 -91.36957743 115.58434499 -100.51287842 116.29029846 C-108.53054158 116.88419539 -116.52678433 117.19569467 -124.5625 117.40234375 C-135.97776691 117.74172588 -147.35465832 118.34781995 -158.74609375 119.15625 C-159.50103811 119.20976875 -160.25598248 119.26328751 -161.03380394 119.31842804 C-164.91331685 119.59461981 -168.79255679 119.87447083 -172.67169189 120.15591431 C-199.77061615 122.11837772 -226.81853555 123.85932061 -254 124 C-250.81081369 122.14044688 -248.33157054 121.70078163 -244.66040039 121.54516602 C-243.58277435 121.49481201 -242.50514832 121.44445801 -241.39486694 121.39257812 C-240.22428741 121.34681641 -239.05370789 121.30105469 -237.84765625 121.25390625 C-236.01105942 121.17064087 -236.01105942 121.17064087 -234.13735962 121.08569336 C-231.49574418 120.96643251 -228.85419802 120.85022016 -226.21224976 120.73904419 C-219.88725801 120.47208697 -213.56357113 120.17669917 -207.23988533 119.88062859 C-205.82103833 119.81420226 -204.40217809 119.74805815 -202.98330498 119.68219185 C-191.20540907 119.13408228 -179.4473461 118.41314203 -167.6875 117.5625 C-153.2621622 116.52705277 -138.83084872 115.70995206 -124.38671875 114.9921875 C-123.51047285 114.94863821 -122.63422695 114.90508892 -121.73142815 114.86021996 C-112.84757127 114.4199455 -103.96331247 113.98851329 -95.0785656 113.56659222 C-94.23754862 113.52665048 -93.39653164 113.48670874 -92.5300293 113.44555664 C-91.69588564 113.40594975 -90.86174198 113.36634287 -90.00232124 113.32553577 C-83.54119979 113.01673632 -77.08145175 112.68489025 -70.62217522 112.33971691 C-67.07018522 112.15169585 -63.51884566 111.97523632 -59.96450806 111.83782959 C-46.13895859 111.29582547 -34.14846286 110.43412122 -21.82836914 103.77001953 C-19.86825767 102.71264758 -17.87970014 101.73558662 -15.87695312 100.76171875 C-9.28522335 97.75519923 -9.28522335 97.75519923 -4.62182617 92.49658203 C-3.71325294 87.38759661 -3.86984076 82.43200963 -4.0234375 77.2578125 C-4.06097641 75.57254959 -4.06097641 75.57254959 -4.09927368 73.85324097 C-4.18122058 70.27684218 -4.27790923 66.70101655 -4.375 63.125 C-4.43326533 60.69533565 -4.49056805 58.26564802 -4.546875 55.8359375 C-4.68676176 49.8903099 -4.83874266 43.94508431 -5 38 C-5.94230469 38.17144531 -6.88460937 38.34289062 -7.85546875 38.51953125 C-10.75567498 38.96266835 -12.32139969 39.09128161 -15 38 C-16.63961806 34.72076388 -16.14670587 31.1010042 -16.125 27.5 C-16.12016602 26.68644043 -16.11533203 25.87288086 -16.11035156 25.03466797 C-15.95876331 9.83036632 -15.95876331 9.83036632 -13.625 5.375 C-9.30802444 3.11372709 -4.77253316 3.7037738 0 4 C0 2.68 0 1.36 0 0 Z " fill="#C0C0C0" transform="translate(290,125)"/>
<path d="M0 0 C1.29320009 3.64132221 0.69025187 6.05905642 -0.328125 9.734375 C-0.63218262 10.85900146 -0.93624023 11.98362793 -1.24951172 13.14233398 C-1.57967285 14.33286377 -1.90983398 15.52339355 -2.25 16.75 C-4.69129471 25.81654661 -6.91470137 34.80334287 -8.4921875 44.05859375 C-9 47 -9 47 -9.5390625 49.08984375 C-14.99327187 71.69245717 -12.21253984 98.2072667 -12.53222656 121.45324707 C-12.58364701 125.14204209 -12.63868521 128.83078328 -12.69335938 132.51953125 C-12.7989822 139.67964043 -12.90080985 146.83979855 -13 154 C-22.44641604 154.7594124 -31.84028567 155.2780071 -41.3125 155.5625 C-42.57900391 155.60568359 -43.84550781 155.64886719 -45.15039062 155.69335938 C-57.43291027 156.07472889 -69.71257199 156.04401184 -82 156 C-82.28882503 148.99332312 -82.57314114 141.98647312 -82.85449219 134.97949219 C-82.95048721 132.60152151 -83.04747095 130.2235905 -83.14550781 127.84570312 C-84.18928963 102.49671609 -84.18928963 102.49671609 -84 91 C-83.34 91 -82.68 91 -82 91 C-81.97494385 91.81227051 -81.9498877 92.62454102 -81.92407227 93.46142578 C-81.7593929 98.7901662 -81.59467961 104.11890135 -81.42578125 109.44750977 C-81.37890302 110.92724599 -81.33202806 112.40698232 -81.28515625 113.88671875 C-81.26139923 114.63605179 -81.23764221 115.38538483 -81.21316528 116.15742493 C-81.07164952 120.64621974 -80.93679679 125.13514875 -80.80809021 129.62432861 C-80.72789413 132.39927483 -80.6439443 135.1741 -80.55929565 137.94891357 C-80.5004894 139.92108721 -80.44663499 141.89340645 -80.39282227 143.86572266 C-80.35600342 145.05343262 -80.31918457 146.24114258 -80.28125 147.46484375 C-80.23581055 149.03673462 -80.23581055 149.03673462 -80.18945312 150.64038086 C-80.26011491 152.95596753 -80.26011491 152.95596753 -79 154 C-77.53199822 154.03959321 -76.061975 154.00727329 -74.59472656 153.94580078 C-73.65574524 153.90891144 -72.71676392 153.87202209 -71.74932861 153.83401489 C-70.72345642 153.7882431 -69.69758423 153.74247131 -68.640625 153.6953125 C-67.5852655 153.65187714 -66.52990601 153.60844177 -65.44256592 153.56369019 C-63.19614529 153.47019794 -60.94982858 153.37418084 -58.70361328 153.27587891 C-55.30652765 153.12746954 -51.90919333 152.98684423 -48.51171875 152.84765625 C-46.3255011 152.75567614 -44.13930251 152.66324166 -41.953125 152.5703125 C-40.95154358 152.52858917 -39.94996216 152.48686584 -38.91802979 152.44387817 C-31.59809198 152.12019616 -24.30235996 151.59870635 -17 151 C-16.99191315 150.28464081 -16.98382629 149.56928162 -16.97549438 148.83224487 C-16.89648224 141.98124759 -16.80890513 135.13040329 -16.71247292 128.27963066 C-16.66321673 124.76035097 -16.61690268 121.24109167 -16.578125 117.72167969 C-16.39219854 101.06896644 -15.87092017 84.56295105 -14 68 C-13.88011719 66.85805176 -13.76023437 65.71610352 -13.63671875 64.53955078 C-12.03760675 49.82522174 -9.2430456 35.43104461 -6 21 C-5.80728516 20.12891602 -5.61457031 19.25783203 -5.41601562 18.36035156 C-4.88970965 15.9882813 -4.35416968 13.61860447 -3.8125 11.25 C-3.65789307 10.56502441 -3.50328613 9.88004883 -3.34399414 9.17431641 C-2.56850131 5.88110461 -1.68730858 2.94349867 0 0 Z " fill="#949494" transform="translate(409,72)"/>
<path d="M0 0 C0.33 0 0.66 0 1 0 C0.53180702 7.05985732 -0.22966178 13.89360705 -1.6953125 20.8203125 C-2.21563705 23.04100167 -2.21563705 23.04100167 -1 25 C0.97973221 25.72464117 2.98664173 26.37483369 5 27 C6.47744879 27.53478195 7.95123443 28.07974404 9.42211914 28.63232422 C10.64983788 29.09322952 10.64983788 29.09322952 11.90235901 29.56344604 C12.7711821 29.89055573 13.64000519 30.21766541 14.53515625 30.5546875 C16.41595487 31.25927677 18.2968163 31.96369842 20.17773438 32.66796875 C23.11157641 33.76764046 26.0449882 34.86840832 28.97729492 35.97216797 C38.64509307 39.60913659 48.25844278 43.16727342 58.16625977 46.09521484 C62.02144885 47.32613849 65.681814 48.91297889 69.39746094 50.50976562 C77.86977187 54.01444073 86.5247486 57.07565828 95.125 60.25 C98.09130628 61.34649454 101.05734864 62.44369109 104.0229187 63.54217529 C105.85653757 64.22121338 107.69060835 64.89903266 109.525177 65.57550049 C110.34718597 65.87961853 111.16919495 66.18373657 112.01611328 66.49707031 C112.73936798 66.76400696 113.46262268 67.0309436 114.20779419 67.30596924 C116 68 116 68 118 69 C118 69.66 118 70.32 118 71 C118.66 71 119.32 71 120 71 C120.33 72.65 120.66 74.3 121 76 C120.62875 75.071875 120.62875 75.071875 120.25 74.125 C117.64443149 69.69553353 111.82959677 68.80178057 107.1875 67.1875 C106.43484863 66.92324219 105.68219727 66.65898438 104.90673828 66.38671875 C100.08061142 64.69995649 95.23511595 63.08582453 90.375 61.5 C84.73649896 59.63834301 79.24088725 57.54050977 73.74536133 55.29418945 C69.22656633 53.45888316 64.66995172 51.78616024 60.0625 50.1875 C52.85730649 47.68417992 45.70424629 45.0539089 38.5625 42.375 C37.56806885 42.00270264 36.5736377 41.63040527 35.54907227 41.24682617 C30.90587747 39.50033897 26.28330045 37.71942989 21.6875 35.8515625 C17.98338295 34.35931461 14.28009814 33.09928734 10.4375 32 C5.06959019 30.39725916 0.03616668 28.44650991 -5 26 C-5.28990996 19.67996284 -4.31836884 14.53501876 -2.5 8.5 C-2.26152344 7.67757812 -2.02304687 6.85515625 -1.77734375 6.0078125 C-1.19438261 4.00242618 -0.59852849 2.00079525 0 0 Z " fill="#C0C0C0" transform="translate(443,572)"/>
<path d="M0 0 C14.48194654 -0.14033109 28.96378723 -0.24565008 43.44627476 -0.31087303 C50.17120187 -0.34177569 56.89570586 -0.38388593 63.62036133 -0.45263672 C70.11077805 -0.51785601 76.60075541 -0.55371243 83.09147453 -0.56926346 C85.56703546 -0.5803449 88.04257249 -0.6019846 90.51794624 -0.63438034 C93.98718237 -0.67797494 97.45460604 -0.68393243 100.92407227 -0.68115234 C102.45724594 -0.71350983 102.45724594 -0.71350983 104.02139282 -0.746521 C110.06586059 -0.69415306 113.3461112 0.19097409 117.67291069 4.51169968 C118.11085016 5.00283878 118.54878963 5.49397789 119 6 C119.62592041 6.67498535 120.25184082 7.3499707 120.89672852 8.04541016 C122.30250157 10.53592112 122.48937231 12.4213133 122.65234375 15.2734375 C122.71663574 16.3365918 122.78092773 17.39974609 122.84716797 18.49511719 C122.89760254 19.65172852 122.94803711 20.80833984 123 22 C123.05430176 23.2159082 123.10860352 24.43181641 123.16455078 25.68457031 C123.32133481 29.66416238 123.44784977 33.64403357 123.5625 37.625 C123.58367889 38.32367188 123.60485779 39.02234375 123.62667847 39.7421875 C123.95181438 50.49613875 124.13448655 61.24107621 124 72 C123.67 72 123.34 72 123 72 C122.93941406 71.02160156 122.87882812 70.04320312 122.81640625 69.03515625 C122.73261719 67.72417969 122.64882813 66.41320312 122.5625 65.0625 C122.48128906 63.77472656 122.40007812 62.48695313 122.31640625 61.16015625 C122.12193933 58.35186918 121.84175495 55.56852159 121.50488281 52.77392578 C121.00492927 48.33462782 120.76636608 43.91962191 120.60546875 39.45703125 C120.53675975 37.87300527 120.46706956 36.28902161 120.39648438 34.70507812 C120.28892527 32.24992458 120.186895 29.79513657 120.10131836 27.33911133 C120.0156392 24.93985614 119.90632463 22.54261799 119.79296875 20.14453125 C119.77300339 19.4162764 119.75303802 18.68802155 119.73246765 17.93769836 C119.41877365 11.99879724 117.23264311 8.58986601 113.4375 4.1875 C109.66450091 1.07067466 104.76536914 1.87453882 100.16088867 1.90234375 C99.25634949 1.90380402 98.3518103 1.90526428 97.41986084 1.9067688 C95.45227197 1.91057774 93.48468655 1.91669739 91.51711082 1.92483521 C88.39195955 1.93760629 85.26685081 1.9441178 82.14167786 1.94897461 C74.36937278 1.96234673 66.59710744 1.98639356 58.8248291 2.01037598 C52.27280712 2.03022117 45.72080093 2.04582295 39.16875648 2.05593872 C36.11029358 2.06235868 33.05189593 2.07487346 29.99345398 2.08764648 C19.94242872 2.11363274 10.01514556 1.94809092 0 1 C0 0.67 0 0.34 0 0 Z " fill="#B6B6B6" transform="translate(273,333)"/>
<path d="M0 0 C4.23331753 1.36070921 5.27291085 2.30713288 7.5 6.125 C8.06741869 7.676525 8.60236451 9.24019782 9.109375 10.8125 C9.50334473 12.02486328 9.50334473 12.02486328 9.90527344 13.26171875 C10.1015332 13.87660156 10.29779297 14.49148437 10.5 15.125 C11.32685303 15.11714478 11.32685303 15.11714478 12.17041016 15.10913086 C23.03395418 15.02067281 33.89175023 15.0622982 44.75 15.4375 C46.16853271 15.47121704 46.16853271 15.47121704 47.61572266 15.50561523 C48.49019043 15.54114502 49.3646582 15.5766748 50.265625 15.61328125 C51.03680664 15.63946533 51.80798828 15.66564941 52.60253906 15.69262695 C54.5 16.125 54.5 16.125 56.5 19.125 C54.01942372 21.60557628 53.13807536 21.41519005 49.7109375 21.5390625 C48.29941406 21.59707031 48.29941406 21.59707031 46.859375 21.65625 C45.87453125 21.6871875 44.8896875 21.718125 43.875 21.75 C42.88242187 21.78867188 41.88984375 21.82734375 40.8671875 21.8671875 C38.41164615 21.9616314 35.9561159 22.04719875 33.5 22.125 C33.005 21.135 33.005 21.135 32.5 20.125 C38.77 20.125 45.04 20.125 51.5 20.125 C51.5 19.465 51.5 18.805 51.5 18.125 C50.56285156 18.13660156 49.62570312 18.14820312 48.66015625 18.16015625 C35.58891335 18.26555622 22.55585411 17.71680243 9.5 17.125 C8.86312319 15.85294371 8.22644252 14.58078921 7.58984375 13.30859375 C7.235271 12.60017334 6.88069824 11.89175293 6.51538086 11.16186523 C5.69057789 9.50730136 4.87512395 7.84807938 4.0625 6.1875 C2.62942081 3.92745805 2.62942081 3.92745805 0 3.125 C-2.4631494 2.90662607 -2.4631494 2.90662607 -4.125 4.125 C-6.06309522 6.94404759 -7.2225297 9.95909534 -8.5 13.125 C-9.16 14.445 -9.82 15.765 -10.5 17.125 C-24.69 17.125 -38.88 17.125 -53.5 17.125 C-53.5 18.115 -53.5 19.105 -53.5 20.125 C-49.21 20.125 -44.92 20.125 -40.5 20.125 C-40.5 20.455 -40.5 20.785 -40.5 21.125 C-45.12 21.125 -49.74 21.125 -54.5 21.125 C-54.5 19.475 -54.5 17.825 -54.5 16.125 C-53.3039917 16.10518066 -52.1079834 16.08536133 -50.87573242 16.06494141 C-46.44192306 15.98891728 -42.00844326 15.90019503 -37.57495117 15.80761719 C-35.65542096 15.76931423 -33.73581865 15.73446367 -31.81616211 15.703125 C-29.0581687 15.65750298 -26.30067223 15.5995042 -23.54296875 15.5390625 C-22.25376778 15.52173569 -22.25376778 15.52173569 -20.93852234 15.50405884 C-19.73761711 15.4742543 -19.73761711 15.4742543 -18.51245117 15.44384766 C-17.45655037 15.42386215 -17.45655037 15.42386215 -16.37931824 15.4034729 C-14.16902536 15.21255815 -14.16902536 15.21255815 -11.5 13.125 C-10.4242779 11.34461076 -10.4242779 11.34461076 -9.5625 9.3125 C-5.13115135 0.18325541 -5.13115135 0.18325541 0 0 Z " fill="#DCDCDC" transform="translate(555.5,94.875)"/>
<path d="M0 0 C2.78630113 3.03960123 5.15420673 6.30841345 7 10 C6.67 10.99 6.34 11.98 6 13 C5.18278283 11.89932004 4.37140549 10.79430269 3.5625 9.6875 C3.11003906 9.07261719 2.65757812 8.45773438 2.19140625 7.82421875 C1 6 1 6 0 3 C-1.98 2.67 -3.96 2.34 -6 2 C-6.77749708 3.18314774 -7.54658139 4.37182416 -8.3125 5.5625 C-8.74175781 6.22378906 -9.17101562 6.88507813 -9.61328125 7.56640625 C-11.33018655 10.57945414 -12.63393346 13.8125114 -14 17 C-27.53 17 -41.06 17 -55 17 C-55 17.66 -55 18.32 -55 19 C-41.47 19 -27.94 19 -14 19 C-14.33 21.31 -14.66 23.62 -15 26 C-15.66 26 -16.32 26 -17 26 C-17.495 27.485 -17.495 27.485 -18 29 C-18 26.03 -18 23.06 -18 20 C-19.34191406 20.0721875 -20.68382812 20.144375 -22.06640625 20.21875 C-53.00604542 21.82923603 -53.00604542 21.82923603 -59 19 C-58.34 17.68 -57.68 16.36 -57 15 C-55.83428467 14.97494385 -54.66856934 14.9498877 -53.4675293 14.92407227 C-49.14563869 14.82995309 -44.8239071 14.72974331 -40.50219727 14.62768555 C-38.63114134 14.58435378 -36.76004631 14.54267743 -34.88891602 14.50268555 C-32.20056369 14.44494051 -29.51240785 14.38125819 -26.82421875 14.31640625 C-25.98662521 14.29969376 -25.14903168 14.28298126 -24.28605652 14.26576233 C-20.96326712 14.18085939 -18.17247982 14.05749327 -15 13 C-13.64253727 10.77925912 -13.64253727 10.77925912 -12.5 8.125 C-11.01873214 4.86810976 -9.80746004 2.27748034 -7 0 C-3.80484947 -1.06505018 -3.00991004 -1.27693153 0 0 Z " fill="#C1C1C1" transform="translate(309,96)"/>
<path d="M0 0 C0.33 0 0.66 0 1 0 C1.03472157 20.04178407 -0.73125109 39.7789332 -2.9375 59.6875 C-3.07069641 60.89681183 -3.20389282 62.10612366 -3.34112549 63.3520813 C-3.73063097 66.8643237 -4.12699613 70.37569676 -4.52734375 73.88671875 C-4.64511673 74.92962067 -4.76288971 75.97252258 -4.88423157 77.04702759 C-5.6006927 83.19048015 -6.50036143 89.27721268 -7.56277466 95.37055969 C-8.17747859 99.06734286 -8.57045147 102.77202516 -8.9375 106.5 C-9.96861907 116.38281343 -11.46320515 126.18500354 -13 136 C-13.33 136 -13.66 136 -14 136 C-14.15492853 128.78721626 -13.77926505 121.88593424 -12.75 114.75 C-12.47463638 112.74617941 -12.19993456 110.74226779 -11.92578125 108.73828125 C-11.77705566 107.66529785 -11.62833008 106.59231445 -11.47509766 105.48681641 C-10.95848668 101.69532723 -10.4655934 97.90108357 -9.98046875 94.10546875 C-9.89397064 93.42914398 -9.80747253 92.75281921 -9.71835327 92.05599976 C-9.45779288 90.01653495 -9.19757879 87.97702628 -8.9375 85.9375 C-7.99535878 78.55208684 -7.0330804 71.17412003 -5.9453125 63.80859375 C-5.047777 57.59229696 -4.42923873 51.38504777 -3.9375 45.125 C-3.10155361 34.76202816 -3.10155361 34.76202816 -2.47265625 30.04296875 C-1.64434296 23.75068003 -1.60744659 17.38503085 -1.39453125 11.04882812 C-1.35714844 10.05689453 -1.31976563 9.06496094 -1.28125 8.04296875 C-1.23581055 6.69755005 -1.23581055 6.69755005 -1.18945312 5.32495117 C-1 3 -1 3 0 0 Z " fill="#ACACAC" transform="translate(462,409)"/>
<path d="M0 0 C0.66 0 1.32 0 2 0 C3.52297612 13.11163405 4.9939275 26.21239915 6 39.375 C6.65097301 47.78582001 7.63549735 56.08570493 8.89453125 64.42602539 C9.73881144 70.0454989 10.43606237 75.65817303 11 81.3125 C11.75334335 88.84673921 12.62645564 96.36120912 13.5625 103.875 C13.68947266 104.90407471 13.81644531 105.93314941 13.94726562 106.9934082 C14.06908203 107.96238037 14.19089844 108.93135254 14.31640625 109.9296875 C14.47798218 111.21721924 14.47798218 111.21721924 14.64282227 112.53076172 C14.89079345 114.24503416 15.19280542 115.95200968 15.53662109 117.6496582 C16.05094032 120.25837852 16.09791275 122.65654401 16.0625 125.3125 C16.05347656 126.19550781 16.04445313 127.07851563 16.03515625 127.98828125 C16.02355469 128.65214844 16.01195312 129.31601562 16 130 C15.67 130 15.34 130 15 130 C12.84338129 117.87647533 10.81140855 105.8031187 9.73791504 93.53082275 C9.21839768 87.7463663 8.44950049 82.03289461 7.57421875 76.29296875 C5.91813175 65.06232604 4.85620929 53.80642959 3.875 42.5 C3.62226234 39.62516948 3.36787574 36.75050717 3.11038208 33.87609863 C2.95267107 32.11228438 2.79777428 30.34821535 2.64620972 28.5838623 C2.29742913 24.65222657 1.82156404 20.86570224 1 17 C0.86494944 15.60019537 0.75863273 14.19726957 0.68359375 12.79296875 C0.64169922 12.04208984 0.59980469 11.29121094 0.55664062 10.51757812 C0.51732422 9.74865234 0.47800781 8.97972656 0.4375 8.1875 C0.39431641 7.39923828 0.35113281 6.61097656 0.30664062 5.79882812 C0.20121679 3.86605785 0.10016906 1.93304974 0 0 Z " fill="#C6C6C6" transform="translate(396,408)"/>
<path d="M0 0 C0 0.33 0 0.66 0 1 C-21.17536012 4.49303589 -42.36477907 7.8556146 -63.59570312 10.99462891 C-73.62562104 12.47905322 -83.63326187 14.0447307 -93.6171875 15.81640625 C-102.75383148 17.42857033 -111.7192779 18.56729752 -121 19 C-117.17060476 16.71650838 -113.00468917 15.97974697 -108.6875 15.125 C-107.8322876 14.95427979 -106.9770752 14.78355957 -106.09594727 14.60766602 C-95.92853707 12.66996072 -85.66083868 11.46102995 -75.39477539 10.18655396 C-63.35298751 8.69027129 -51.37573537 6.95606842 -39.49609375 4.46484375 C-35.00943961 3.62930096 -30.48289771 3.08558269 -25.95703125 2.5078125 C-23.28403405 2.16478226 -20.61686286 1.80921729 -17.94921875 1.4296875 C-16.64597656 1.24664062 -15.34273437 1.06359375 -14 0.875 C-12.824375 0.70742188 -11.64875 0.53984375 -10.4375 0.3671875 C-6.93112454 -0.00735715 -3.5234959 -0.06291957 0 0 Z " fill="#C1C1C1" transform="translate(810,298)"/>
<path d="M0 0 C0 0.33 0 0.66 0 1 C-9.96445586 3.15820012 -19.94338386 4.84774329 -30.0480957 6.19750977 C-33.86751358 6.70820747 -37.68231578 7.24291121 -41.49609375 7.79394531 C-56.79723495 9.90961072 -71.84685812 10.40787894 -87.28173828 10.28125 C-91.18401491 10.24952014 -95.08588711 10.24020309 -98.98828125 10.234375 C-101.4947966 10.22522327 -104.00130788 10.21485342 -106.5078125 10.203125 C-108.23899826 10.19675018 -108.23899826 10.19675018 -110.00515747 10.19024658 C-115.43669507 10.14192753 -120.64955 9.95883446 -126 9 C-126 8.67 -126 8.34 -126 8 C-125.12986267 7.99191315 -124.25972534 7.98382629 -123.36322021 7.97549438 C-115.06943078 7.89679991 -106.77578747 7.80930037 -98.48218918 7.71247292 C-94.22074229 7.66301614 -89.95931436 7.61669256 -85.69775391 7.578125 C-59.2852241 7.40192869 -59.2852241 7.40192869 -33 5 C-33 4.34 -33 3.68 -33 3 C-29.00097233 2.4920154 -25.00064616 1.99506324 -21 1.5 C-19.31197266 1.28537109 -19.31197266 1.28537109 -17.58984375 1.06640625 C-11.676703 0.34023107 -5.95736399 -0.17521659 0 0 Z " fill="#AFAFAF" transform="translate(636,325)"/>
<path d="M0 0 C0.66 0 1.32 0 2 0 C1.125 3.875 1.125 3.875 0 5 C-0.15988491 7.51880517 -0.25934225 10.01342266 -0.31640625 12.53515625 C-0.33718735 13.28840683 -0.35796844 14.04165741 -0.37937927 14.81773376 C-0.44495425 17.2325599 -0.50379621 19.64749798 -0.5625 22.0625 C-0.6056777 23.69597529 -0.64929173 25.3294391 -0.69335938 26.96289062 C-0.80064362 30.97514464 -0.90188821 34.98751164 -1 39 C-0.10394043 38.86215088 0.79211914 38.72430176 1.71533203 38.58227539 C8.78071352 37.5282533 15.73710218 36.68805977 22.875 36.4375 C27.31226846 36.26428437 31.69905807 36.07937515 36.1015625 35.4765625 C39.94844898 35.00630183 43.62756771 34.90026507 47.5 34.9375 C48.7271875 34.94652344 49.954375 34.95554687 51.21875 34.96484375 C52.59546875 34.98224609 52.59546875 34.98224609 54 35 C54 35.33 54 35.66 54 36 C50.47589676 36.77066037 47.05441722 37.21519928 43.45703125 37.46484375 C42.39145996 37.5417041 41.32588867 37.61856445 40.22802734 37.69775391 C39.10090332 37.77687012 37.9737793 37.85598633 36.8125 37.9375 C28.11026811 38.57076385 19.44121972 39.29147427 10.78442383 40.39038086 C6.14418958 40.95860784 1.66460611 41.07272214 -3 41 C-5.39344262 8.09016393 -5.39344262 8.09016393 0 0 Z " fill="#919191" transform="translate(299,642)"/>
<path d="M0 0 C0.33 0 0.66 0 1 0 C1.49535655 3.01887107 1.97086607 6.03914618 2.4375 9.0625 C2.57220703 9.87138672 2.70691406 10.68027344 2.84570312 11.51367188 C5.60208036 29.73265314 5.16595715 48.50022478 5.13037109 66.87768555 C5.12489666 70.25118278 5.13041814 73.62455306 5.13671875 76.99804688 C5.13605969 79.15885446 5.13478212 81.31966196 5.1328125 83.48046875 C5.13584885 84.98180611 5.13584885 84.98180611 5.13894653 86.51347351 C5.13579437 87.43997208 5.13264221 88.36647064 5.12939453 89.32104492 C5.12859894 90.13103439 5.12780334 90.94102386 5.12698364 91.77555847 C5 94 5 94 4 98 C7.63 98 11.26 98 15 98 C15 98.33 15 98.66 15 99 C11.04 99 7.08 99 3 99 C2.98018066 97.37505615 2.96036133 95.7501123 2.93994141 94.07592773 C2.84481879 86.52963923 2.73876954 78.98352794 2.625 71.4375 C2.61483479 70.7619532 2.60466957 70.0864064 2.59419632 69.39038849 C2.30004412 50.10907701 1.70920596 30.9258595 0.17138672 11.69824219 C-0.07686348 7.78989293 -0.06155491 3.91489252 0 0 Z " fill="#AAAAAA" transform="translate(463,127)"/>
<path d="M0 0 C3 1 3 1 3.94042969 2.66210938 C6.07389858 9.02548655 6.39208163 14.82216324 6.25 21.5 C6.24484375 22.5003125 6.2396875 23.500625 6.234375 24.53125 C6.15487637 31.84512363 6.15487637 31.84512363 5 33 C3.14712498 33.07226502 1.29166122 33.0838122 -0.5625 33.0625 C-1.57441406 33.05347656 -2.58632813 33.04445312 -3.62890625 33.03515625 C-4.80259766 33.01775391 -4.80259766 33.01775391 -6 33 C-6.0694429 40.26688753 -6.12278189 47.53370378 -6.15543652 54.80085564 C-6.17110744 58.17513606 -6.19237093 61.54918987 -6.22631836 64.92333984 C-6.2625736 68.80051748 -6.27969728 72.67737172 -6.29296875 76.5546875 C-6.30845261 77.76929657 -6.32393646 78.98390564 -6.33988953 80.23532104 C-6.34022942 81.91683762 -6.34022942 81.91683762 -6.34057617 83.63232422 C-6.34723801 84.62271698 -6.35389984 85.61310974 -6.36076355 86.6335144 C-6.18218559 87.80492477 -6.18218559 87.80492477 -6 89 C-5.01 89.66 -4.02 90.32 -3 91 C-3 91.66 -3 92.32 -3 93 C-4.65 92.34 -6.3 91.68 -8 91 C-8 71.53 -8 52.06 -8 32 C-4.04 32 -0.08 32 4 32 C3.91303133 27.93646364 3.80613329 23.87513058 3.6875 19.8125 C3.66494141 18.66201172 3.64238281 17.51152344 3.61914062 16.32617188 C3.58369141 15.21435547 3.54824219 14.10253906 3.51171875 12.95703125 C3.48553467 11.93585205 3.45935059 10.91467285 3.43237305 9.86254883 C2.94285238 6.62165112 1.77316873 4.72094261 0 2 C0 1.34 0 0.68 0 0 Z " fill="#ACACAC" transform="translate(581,130)"/>
<path d="M0 0 C14.0399129 -0.1100174 27.99611759 -0.07870346 42 1 C42 1.66 42 2.32 42 3 C38.0350371 3.28894778 34.06978953 3.57359369 30.10424805 3.85449219 C28.10254363 3.99714624 26.10107316 4.14307106 24.09960938 4.2890625 C17.38054364 4.76295127 10.73570123 5.11829991 4 5 C4.21571655 5.99229614 4.21571655 5.99229614 4.43579102 7.00463867 C4.77880859 8.58251953 5.12182617 10.16040039 5.46484375 11.73828125 C5.99886159 14.145401 5.99886159 14.145401 7 17 C9.97 17 12.94 17 16 17 C16 17.33 16 17.66 16 18 C12.04 18 8.08 18 4 18 C3.79503906 16.86820313 3.59007812 15.73640625 3.37890625 14.5703125 C3.10693028 13.08851239 2.83478613 11.60674315 2.5625 10.125 C2.42779297 9.37863281 2.29308594 8.63226563 2.15429688 7.86328125 C1.45463389 3.81466622 1.45463389 3.81466622 0 0 Z " fill="#656565" transform="translate(565,112)"/>
<path d="M0 0 C0.12117188 0.78503906 0.24234375 1.57007813 0.3671875 2.37890625 C1.59145403 10.84111985 1.59145403 10.84111985 4 19 C6.00846244 20.19733396 6.00846244 20.19733396 8 21 C10.54322809 14.06392339 11.94915607 7.30645606 13 0 C23.13270429 -0.35762486 32.96788765 0.75155935 43 2 C43 2.33 43 2.66 43 3 C34.26860536 3.11624638 25.68873018 2.89115181 17 2 C14.87348737 5.67306727 13.75037559 8.91665523 13.0625 13.0625 C12.30865532 17.3342865 11.13475663 19.86524337 8 23 C5.6875 22.875 5.6875 22.875 3 22 C0.31571633 17.63145991 -0.56793518 13.67683626 -1.1875 8.625 C-1.34605469 7.37976563 -1.50460937 6.13453125 -1.66796875 4.8515625 C-1.77753906 3.91054688 -1.88710938 2.96953125 -2 2 C-3.34191406 2.10828125 -3.34191406 2.10828125 -4.7109375 2.21875 C-11.82522148 2.76483576 -18.86482853 3.14796439 -26 3 C-26 2.67 -26 2.34 -26 2 C-17.26047454 0.55203128 -8.86088167 -0.29211698 0 0 Z " fill="#B6B6B6" transform="translate(424,671)"/>
<path d="M0 0 C0.50789063 0.165 1.01578125 0.33 1.5390625 0.5 C4.82804412 1.16823754 8.0375584 1.05836048 11.375 1 C18.549974 0.94425658 25.7054427 1.09175823 32.875 1.375 C34.31045166 1.42140625 34.31045166 1.42140625 35.77490234 1.46875 C36.67160645 1.50742188 37.56831055 1.54609375 38.4921875 1.5859375 C39.68884033 1.63306885 39.68884033 1.63306885 40.90966797 1.68115234 C43 2 43 2 46 4 C46 4.66 46 5.32 46 6 C36.70371697 7.94384796 27.71961629 8.24587901 18.25 8.125 C16.85938154 8.11493717 15.46875592 8.10581723 14.078125 8.09765625 C10.71856181 8.07432595 7.35937825 8.0415923 4 8 C4.32742188 8.58265625 4.65484375 9.1653125 4.9921875 9.765625 C6.39491755 12.87555364 6.12949866 15.63303481 6 19 C5.33333333 17.66666667 4.66666667 16.33333333 4 15 C3.62875 14.360625 3.2575 13.72125 2.875 13.0625 C2 11 2 11 2 6 C14.87 6 27.74 6 41 6 C41 5.34 41 4.68 41 4 C39.576875 4.01740234 39.576875 4.01740234 38.125 4.03515625 C25.39691432 4.13696821 12.71188393 3.60356969 0 3 C0 2.01 0 1.02 0 0 Z " fill="#DFDFDF" transform="translate(316,109)"/>
<path d="M0 0 C0.66 0 1.32 0 2 0 C2.02505615 0.81227051 2.0501123 1.62454102 2.07592773 2.46142578 C2.2406071 7.7901662 2.40532039 13.11890135 2.57421875 18.44750977 C2.62109698 19.92724599 2.66797194 21.40698232 2.71484375 22.88671875 C2.73860077 23.63605179 2.76235779 24.38538483 2.78683472 25.15742493 C2.92835048 29.64621974 3.06320321 34.13514875 3.19190979 38.62432861 C3.27210587 41.39927483 3.3560557 44.1741 3.44070435 46.94891357 C3.4995106 48.92108721 3.55336501 50.89340645 3.60717773 52.86572266 C3.64399658 54.05343262 3.68081543 55.24114258 3.71875 56.46484375 C3.74904297 57.512771 3.77933594 58.56069824 3.81054688 59.64038086 C3.73988509 61.95596753 3.73988509 61.95596753 5 63 C6.99773202 63.01691705 8.99611728 62.9621114 10.9921875 62.87890625 C12.87429932 62.80627563 12.87429932 62.80627563 14.79443359 62.73217773 C15.46142273 62.70437225 16.12841187 62.67656677 16.81561279 62.6479187 C20.24121967 62.50583231 23.66740178 62.38055124 27.09375 62.2578125 C27.77247162 62.23341599 28.45119324 62.20901947 29.15048218 62.18388367 C37.43468296 61.89853856 45.71266201 61.90606292 54 62 C54 62.33 54 62.66 54 63 C49.83452168 63.34929078 45.66751972 63.67605414 41.5 64 C40.365625 64.09539062 39.23125 64.19078125 38.0625 64.2890625 C26.04571866 65.20338282 14.04434074 65.09765885 2 65 C1.71117497 57.99332312 1.42685886 50.98647312 1.14550781 43.97949219 C1.04951279 41.60152151 0.95252905 39.2235905 0.85449219 36.84570312 C-0.18928963 11.49671609 -0.18928963 11.49671609 0 0 Z " fill="#D9D9D9" transform="translate(325,163)"/>
<path d="M0 0 C0.99 0.33 1.98 0.66 3 1 C1.10435574 1.79211929 -0.79152371 2.58367576 -2.6875 3.375 C-4.27111328 4.03628906 -4.27111328 4.03628906 -5.88671875 4.7109375 C-7.81803048 5.51060233 -9.75353218 6.3003208 -11.6953125 7.07421875 C-13.5447039 7.81710987 -15.37068775 8.6181533 -17.1875 9.4375 C-19.91848074 10.61878075 -22.63693739 11.50533475 -25.5 12.3125 C-30.37544571 13.72323616 -34.99402767 15.58572836 -39.68188477 17.5222168 C-46.20741425 20.17050431 -52.87830653 22.34177351 -59.59106445 24.46386719 C-64.43310614 26.02388062 -68.80929051 27.77743068 -73.21313477 30.34130859 C-75.48726217 31.17961926 -76.74656865 30.77233917 -79 30 C-72.30568743 26.35863507 -65.30664396 23.87400926 -58.12030029 21.39733887 C-48.29230218 18.00716778 -38.53595636 14.54243421 -28.98046875 10.43579102 C-20.80747996 6.97887742 -12.33099287 4.34680432 -3.88500977 1.64501953 C-1.94439049 1.02784224 -1.94439049 1.02784224 0 0 Z " fill="#C4C4C4" transform="translate(380,611)"/>
<path d="M0 0 C0.33 0 0.66 0 1 0 C5.12962735 20.42142336 5.12962735 20.42142336 5.7265625 30.44140625 C6.10469698 33.97966462 7.12725552 37.18057929 8.234375 40.55078125 C10.02820027 46.28919169 11.13843638 51.98334193 11 58 C8.48045712 58.9618423 5.95946363 59.91954241 3.4375 60.875 C2.73302734 61.14441406 2.02855469 61.41382813 1.30273438 61.69140625 C-10.99011204 66.33662932 -10.99011204 66.33662932 -15 65 C-7.74 62.36 -0.48 59.72 7 57 C7.16060206 50.71373084 7.16060206 50.71373084 6.1640625 45.0390625 C4.60605977 38.63394016 3.69537434 32.11899089 2.71289062 25.60644531 C2.37455648 23.37207097 2.02735986 21.13918799 1.6796875 18.90625 C1.46039834 17.46622783 1.24163036 16.02612619 1.0234375 14.5859375 C0.82669434 13.2973584 0.62995117 12.0087793 0.42724609 10.68115234 C0.00960674 7.08277169 -0.07649688 3.61871109 0 0 Z " fill="#BFBFBF" transform="translate(412,540)"/>
<path d="M0 0 C7.3232434 -0.26072385 14.11743099 0.49671862 21.3125 1.8125 C23.43845266 2.18429528 25.56476304 2.55405022 27.69140625 2.921875 C28.7498877 3.10556641 29.80836914 3.28925781 30.89892578 3.47851562 C35.50512532 4.25310563 40.12412512 4.91756728 44.75 5.5625 C45.59836426 5.68214111 46.44672852 5.80178223 47.32080078 5.92504883 C50.77687029 6.41156367 54.23340913 6.89442162 57.69091797 7.37060547 C76.26529841 9.94285444 76.26529841 9.94285444 85 13 C85 13.33 85 13.66 85 14 C70.86953874 12.73657052 56.94794247 10.52796108 43 8 C39.04291307 7.28451702 35.08436878 6.5777368 31.125 5.875 C30.1865625 5.70436035 29.248125 5.5337207 28.28125 5.35791016 C22.70086138 4.37053506 17.17427642 3.67422082 11.52172852 3.2565918 C7.58560249 2.85608173 3.83878848 1.94396438 0 1 C0 0.67 0 0.34 0 0 Z " fill="#989898" transform="translate(187,319)"/>
<path d="M0 0 C14.19 0 28.38 0 43 0 C43 0.33 43 0.66 43 1 C35.74 1.33 28.48 1.66 21 2 C27.6 2.33 34.2 2.66 41 3 C41 4.65 41 6.3 41 8 C40.505 6.02 40.505 6.02 40 4 C38.43378906 4.14308594 38.43378906 4.14308594 36.8359375 4.2890625 C24.37670148 5.27691217 12.39847425 4.4262959 0 3 C0 2.01 0 1.02 0 0 Z " fill="#808080" transform="translate(502,112)"/>
<path d="M0 0 C0.33 0.99 0.66 1.98 1 3 C1.95700806 2.99214478 1.95700806 2.99214478 2.93334961 2.98413086 C15.99873397 2.89145192 28.96904298 3.00851414 42 4 C42 4.66 42 5.32 42 6 C36.50074579 6.04940929 31.00162058 6.08572395 25.50219727 6.10986328 C23.63108062 6.11992567 21.75997972 6.13357691 19.88891602 6.15087891 C17.20064409 6.17511684 14.51257994 6.18648063 11.82421875 6.1953125 C10.98662521 6.20563507 10.14903168 6.21595764 9.28605652 6.22659302 C3.34161512 6.22774341 3.34161512 6.22774341 0 4 C0 2.68 0 1.36 0 0 Z " fill="#3F3F3F" transform="translate(315,109)"/>
<path d="M0 0 C6.33139734 -0.33323144 11.82757525 0.50553045 18.01391602 1.86694336 C22.5366613 2.81743565 26.86637046 3.21719837 31.5 3.375 C42.2375833 3.8543564 52.57644206 6.51330735 63 9 C63 9.33 63 9.66 63 10 C56.52382834 10.34693777 50.59957153 9.46824548 44.27368164 8.20556641 C39.83897159 7.32668843 35.42748865 6.61811732 30.9375 6.0625 C20.56434472 4.75749014 10.28878748 2.84240766 0 1 C0 0.67 0 0.34 0 0 Z " fill="#AFAFAF" transform="translate(58,299)"/>
<path d="M0 0 C2.78630113 3.03960123 5.15420673 6.30841345 7 10 C6.67 10.99 6.34 11.98 6 13 C5.18278283 11.89932004 4.37140549 10.79430269 3.5625 9.6875 C3.11003906 9.07261719 2.65757812 8.45773438 2.19140625 7.82421875 C1 6 1 6 0 3 C-1.98 2.67 -3.96 2.34 -6 2 C-6.79989804 3.20290011 -7.58947824 4.41266295 -8.375 5.625 C-8.81585938 6.29789062 -9.25671875 6.97078125 -9.7109375 7.6640625 C-11.36867326 10.50104521 -11.36867326 10.50104521 -13 16 C-20.59 16 -28.18 16 -36 16 C-36 15.67 -36 15.34 -36 15 C-34.73542969 14.93941406 -33.47085937 14.87882812 -32.16796875 14.81640625 C-30.50780129 14.73199096 -28.84764563 14.64734345 -27.1875 14.5625 C-26.35412109 14.52318359 -25.52074219 14.48386719 -24.66210938 14.44335938 C-23.85966797 14.40146484 -23.05722656 14.35957031 -22.23046875 14.31640625 C-21.49207764 14.27974854 -20.75368652 14.24309082 -19.99291992 14.20532227 C-17.792505 14.05157859 -17.792505 14.05157859 -15 13 C-13.64253727 10.77925912 -13.64253727 10.77925912 -12.5 8.125 C-11.01873214 4.86810976 -9.80746004 2.27748034 -7 0 C-3.80484947 -1.06505018 -3.00991004 -1.27693153 0 0 Z " fill="#E0E0E0" transform="translate(309,96)"/>
<path d="M0 0 C-0.33 0.66 -0.66 1.32 -1 2 C-3.30859375 2.52734375 -3.30859375 2.52734375 -6.4375 2.9375 C-7.613125 3.09992188 -8.78875 3.26234375 -10 3.4296875 C-10.64324219 3.51831055 -11.28648437 3.60693359 -11.94921875 3.69824219 C-14.09885824 4.01454628 -16.23552196 4.37898576 -18.375 4.7578125 C-27.59724215 6.38964611 -36.63041596 7.56315444 -46 8 C-43.28990774 6.53940291 -40.84554743 5.61387075 -37.83203125 5 C-37.02902588 4.8359668 -36.22602051 4.67193359 -35.39868164 4.50292969 C-34.5452417 4.33696289 -33.69180176 4.17099609 -32.8125 4 C-31.49076782 3.73944824 -31.49076782 3.73944824 -30.14233398 3.47363281 C-20.28661585 1.58792959 -10.06553004 -0.23272902 0 0 Z " fill="#A6A6A6" transform="translate(735,309)"/>
<path d="M0 0 C0.33 0 0.66 0 1 0 C1 1.65 1 3.3 1 5 C0.24074219 5.00257813 -0.51851563 5.00515625 -1.30078125 5.0078125 C-2.79158203 5.06582031 -2.79158203 5.06582031 -4.3125 5.125 C-5.79169922 5.15980469 -5.79169922 5.15980469 -7.30078125 5.1953125 C-10.16697784 5.77199776 -10.16697784 5.77199776 -11.8125 8.25 C-13.55729636 13.75988325 -13.57395306 19.12628064 -13.6875 24.875 C-13.72166016 26.0403125 -13.75582031 27.205625 -13.79101562 28.40625 C-13.87319354 31.27073718 -13.94244421 34.13492985 -14 37 C-11.69 37 -9.38 37 -7 37 C-9.2747813 38.38111722 -10.50171361 39.05694702 -13.1875 38.75 C-15 38 -15 38 -16 36 C-16.09987964 33.15636793 -16.1421386 30.34329322 -16.125 27.5 C-16.12016602 26.68644043 -16.11533203 25.87288086 -16.11035156 25.03466797 C-15.95876331 9.83036632 -15.95876331 9.83036632 -13.625 5.375 C-9.30802444 3.11372709 -4.77253316 3.7037738 0 4 C0 2.68 0 1.36 0 0 Z " fill="#C1C1C1" transform="translate(290,125)"/>
<path d="M0 0 C0.66 0.33 1.32 0.66 2 1 C1.01 3.97 0.02 6.94 -1 10 C-1.66 10 -2.32 10 -3 10 C-3 21.55 -3 33.1 -3 45 C0.96 45.495 0.96 45.495 5 46 C5 46.33 5 46.66 5 47 C-1.625 47.25 -1.625 47.25 -5 45 C-5.328125 42.3671875 -5.328125 42.3671875 -5.25 38.875 C-5.23614258 38.23699463 -5.22228516 37.59898926 -5.20800781 36.94165039 C-5.17195668 35.47766829 -5.12806568 34.01386709 -5.078125 32.55029297 C-4.98958281 29.65994392 -4.94913152 26.77028185 -4.90625 23.87890625 C-4.85611111 21.73172455 -4.80402706 19.58458739 -4.75 17.4375 C-4.73614258 16.40286621 -4.72228516 15.36823242 -4.70800781 14.30224609 C-4.50917535 8.26738566 -3.96591579 4.64012147 0 0 Z " fill="#B3B3B3" transform="translate(34,249)"/>
<path d="M0 0 C3 1 3 1 3.94042969 2.66210938 C6.07389858 9.02548655 6.39208163 14.82216324 6.25 21.5 C6.24484375 22.5003125 6.2396875 23.500625 6.234375 24.53125 C6.15487637 31.84512363 6.15487637 31.84512363 5 33 C3.14712498 33.07226502 1.29166122 33.0838122 -0.5625 33.0625 C-1.57441406 33.05347656 -2.58632813 33.04445312 -3.62890625 33.03515625 C-4.80259766 33.01775391 -4.80259766 33.01775391 -6 33 C-6.33 33.99 -6.66 34.98 -7 36 C-7 34.68 -7 33.36 -7 32 C-3.37 32 0.26 32 4 32 C3.91303133 27.93646364 3.80613329 23.87513058 3.6875 19.8125 C3.66494141 18.66201172 3.64238281 17.51152344 3.61914062 16.32617188 C3.58369141 15.21435547 3.54824219 14.10253906 3.51171875 12.95703125 C3.48553467 11.93585205 3.45935059 10.91467285 3.43237305 9.86254883 C2.94285238 6.62165112 1.77316873 4.72094261 0 2 C0 1.34 0 0.68 0 0 Z " fill="#D1D1D1" transform="translate(581,130)"/>
<path d="M0 0 C0.12117188 0.75023437 0.24234375 1.50046875 0.3671875 2.2734375 C1.44865125 8.87868532 2.63720699 15.44699532 4 22 C1.09601887 18.68929883 0.23136657 15.71095881 -0.6875 11.4375 C-0.93886719 10.30183594 -1.19023437 9.16617188 -1.44921875 7.99609375 C-2 5 -2 5 -2 2 C-3.34191406 2.10828125 -3.34191406 2.10828125 -4.7109375 2.21875 C-11.82522148 2.76483576 -18.86482853 3.14796439 -26 3 C-26 2.67 -26 2.34 -26 2 C-17.26047454 0.55203128 -8.86088167 -0.29211698 0 0 Z " fill="#D4D4D4" transform="translate(424,671)"/>
<path d="M0 0 C0.33 0.66 0.66 1.32 1 2 C1.66 1.773125 2.32 1.54625 3 1.3125 C7.10234069 0.88517284 10.40758005 2.00156771 14 4 C16.39112209 7.58668313 16.23381027 9.16396569 16.1953125 13.41796875 C16.18886719 14.67158203 16.18242187 15.92519531 16.17578125 17.21679688 C16.15902344 18.52712891 16.14226562 19.83746094 16.125 21.1875 C16.11496639 22.52277987 16.1058412 23.85806689 16.09765625 25.19335938 C16.07405292 28.46242015 16.04112594 31.73112028 16 35 C13.03 35 10.06 35 7 35 C7 34.67 7 34.34 7 34 C9.64 34 12.28 34 15 34 C14.67 25.42 14.34 16.84 14 8 C8.5620249 5.60088937 8.5620249 5.60088937 3.0625 3.8125 C2.051875 3.544375 1.04125 3.27625 0 3 C0 2.01 0 1.02 0 0 Z " fill="#F2F2F2" transform="translate(322,129)"/>
<path d="M0 0 C7.57422743 -0.29256672 14.62094986 0.57893525 22.0625 1.9375 C29.03513403 3.17932217 35.94993039 4.30306284 43 5 C43 5.99 43 6.98 43 8 C42.3608667 7.88406494 41.7217334 7.76812988 41.06323242 7.64868164 C38.10551451 7.11506037 35.14653737 6.58875342 32.1875 6.0625 C30.68026367 5.78889648 30.68026367 5.78889648 29.14257812 5.50976562 C23.26087638 4.46959329 17.44277874 3.68333845 11.484375 3.25 C7.5612119 2.85521629 3.8255409 1.94070678 0 1 C0 0.67 0 0.34 0 0 Z " fill="#8D8D8D" transform="translate(187,319)"/>
<path d="M0 0 C-1.89564426 0.79211929 -3.79152371 1.58367576 -5.6875 2.375 C-6.74324219 2.81585937 -7.79898437 3.25671875 -8.88671875 3.7109375 C-10.81534844 4.50949183 -12.74821963 5.29798282 -14.6875 6.0703125 C-16.58252935 6.83216552 -18.45193184 7.65747857 -20.3125 8.5 C-30.58818906 12.67994131 -30.58818906 12.67994131 -36 11 C-35.28457031 10.74307373 -34.56914062 10.48614746 -33.83203125 10.22143555 C-30.55448141 9.04402983 -27.27723871 7.86577144 -24 6.6875 C-22.31197266 6.08131836 -22.31197266 6.08131836 -20.58984375 5.46289062 C-19.48769531 5.06650391 -18.38554687 4.67011719 -17.25 4.26171875 C-16.17492187 3.87677246 -15.09984375 3.49182617 -13.9921875 3.09521484 C-11.4309973 2.1577557 -8.90485363 1.16214866 -6.375 0.14453125 C-3 -1 -3 -1 0 0 Z " fill="#CFCFCF" transform="translate(383,612)"/>
<path d="M0 0 C2.26783513 1.48440117 4.02170272 3.11590735 6 5 C5.67 5.66 5.34 6.32 5 7 C4.649375 6.505 4.29875 6.01 3.9375 5.5 C0.9909924 3.21883282 -1.37872805 3.68234457 -5 4 C-7.62761873 4.67567339 -8.62907363 5.44425218 -10.12890625 7.69140625 C-11.13797596 9.43178781 -12.07395562 11.21405726 -13 13 C-13.66 13 -14.32 13 -15 13 C-15.33 13.66 -15.66 14.32 -16 15 C-14.89228796 9.55882106 -11.89990079 4.96118792 -8.0625 1 C-5.07822439 -0.44692151 -3.28361514 -0.52537842 0 0 Z " fill="#BEBEBE" transform="translate(433,40)"/>
<path d="M0 0 C4.29 0 8.58 0 13 0 C12.34 11.22 11.68 22.44 11 34 C8.84590827 29.69181654 8.81740611 27.9631406 9.0234375 23.265625 C9.075 21.97011719 9.1265625 20.67460937 9.1796875 19.33984375 C9.24455938 17.97655143 9.30966653 16.61327028 9.375 15.25 C9.43327558 13.87113498 9.49057808 12.49222847 9.546875 11.11328125 C9.68834178 7.74165628 9.83975828 4.37077634 10 1 C6.7 1 3.4 1 0 1 C0 0.67 0 0.34 0 0 Z " fill="#A3A3A3" transform="translate(524,162)"/>
<path d="M0 0 C0 0.33 0 0.66 0 1 C-11.08323019 3.3217834 -21.64025964 5.18031334 -33 5 C-33 4.34 -33 3.68 -33 3 C-29.00097233 2.4920154 -25.00064616 1.99506324 -21 1.5 C-19.31197266 1.28537109 -19.31197266 1.28537109 -17.58984375 1.06640625 C-11.676703 0.34023107 -5.95736399 -0.17521659 0 0 Z " fill="#969696" transform="translate(636,325)"/>
<path d="M0 0 C3.28764924 2.14285047 4.67641546 3.83795715 6.0703125 7.4921875 C6.40933594 8.36230469 6.74835938 9.23242188 7.09765625 10.12890625 C7.43667969 11.03511719 7.77570313 11.94132812 8.125 12.875 C8.47175781 13.77347656 8.81851562 14.67195313 9.17578125 15.59765625 C9.82345684 17.27764237 10.46613571 18.95957004 11.10205078 20.64404297 C11.74384127 22.32791416 12.42674351 23.99634615 13.13623047 25.65283203 C14.10399542 28.28259241 13.95725603 29.41540871 13 32 C11.74335022 29.09399739 11 27.20395416 11 24 C10.34 24 9.68 24 9 24 C8.74476563 23.03900391 8.74476563 23.03900391 8.484375 22.05859375 C7.31747703 17.89376112 6.19914804 14.02261926 3.9375 10.3125 C1.88365384 6.8010856 0.95948049 3.91787865 0 0 Z " fill="#C6C6C6" transform="translate(439,47)"/>
<path d="M0 0 C0.66 0 1.32 0 2 0 C1.38722388 2.96175123 0.74627478 4.38058783 -1 7 C-1.2402117 9.60793391 -1.37263695 12.11887145 -1.4140625 14.73046875 C-1.43342865 15.48088943 -1.4527948 16.23131012 -1.4727478 17.00447083 C-1.53247459 19.39869867 -1.57890065 21.79297477 -1.625 24.1875 C-1.6631862 25.8118698 -1.70223831 27.43621948 -1.7421875 29.06054688 C-1.83817025 33.04020105 -1.92222636 37.01995001 -2 41 C-2.33 41 -2.66 41 -3 41 C-5.39344262 8.09016393 -5.39344262 8.09016393 0 0 Z " fill="#F4F4F4" transform="translate(299,642)"/>
<path d="M0 0 C5.39353069 1.54435152 10.75108095 3.19244902 16.0625 5 C16.98160156 5.309375 17.90070312 5.61875 18.84765625 5.9375 C19.55792969 6.288125 20.26820313 6.63875 21 7 C21.33 7.99 21.66 8.98 22 10 C14.55697903 7.60309494 7.28162848 4.84737559 0 2 C0 1.34 0 0.68 0 0 Z " fill="#B2B2B2" transform="translate(511,623)"/>
<path d="M0 0 C2 3 2 3 2 7 C-0.35243492 7.96277259 -2.70679619 8.92028498 -5.0625 9.875 C-5.71927734 10.14441406 -6.37605469 10.41382813 -7.05273438 10.69140625 C-18.750348 15.41655067 -18.750348 15.41655067 -23 14 C-15.74 11.36 -8.48 8.72 -1 6 C-0.67 4.02 -0.34 2.04 0 0 Z " fill="#D3D3D3" transform="translate(420,591)"/>
<path d="M0 0 C7.26 0 14.52 0 22 0 C21.67 2.31 21.34 4.62 21 7 C20.34 7 19.68 7 19 7 C18.67 7.99 18.34 8.98 18 10 C18 7.03 18 4.06 18 1 C9.585 1.495 9.585 1.495 1 2 C0.67 1.34 0.34 0.68 0 0 Z " fill="#616161" transform="translate(273,115)"/>
<path d="M0 0 C8.86088167 -0.29211698 17.26047454 0.55203128 26 2 C26 2.66 26 3.32 26 4 C22.41002295 5.10521128 20.18375759 4.62312237 16.5703125 3.61328125 C11.13043051 2.31531549 5.5396589 1.73135946 0 1 C0 0.67 0 0.34 0 0 Z " fill="#B2B2B2" transform="translate(121,309)"/>
<path d="M0 0 C0 0.33 0 0.66 0 1 C-8.58 2.32 -17.16 3.64 -26 5 C-26.33 4.34 -26.66 3.68 -27 3 C-18.12809559 0.10698769 -9.27596155 -0.1776248 0 0 Z " fill="#A4A4A4" transform="translate(663,321)"/>
<path d="M0 0 C6.93 0 13.86 0 21 0 C21 0.33 21 0.66 21 1 C11.595 1.495 11.595 1.495 2 2 C2.66 3.32 3.32 4.64 4 6 C4.0777346 8.33203812 4.08967728 10.66839059 4 13 C3.33333333 11.66666667 2.66666667 10.33333333 2 9 C1.62875 8.360625 1.2575 7.72125 0.875 7.0625 C0 5 0 5 0 0 Z " fill="#979797" transform="translate(318,115)"/>
<path d="M0 0 C0.99 0 1.98 0 3 0 C2.30834212 5.41798672 1.24200752 10.6822785 0 16 C-2.31 16 -4.62 16 -7 16 C-7 15.34 -7 14.68 -7 14 C-5.35 14 -3.7 14 -2 14 C-1.95101562 13.30132812 -1.90203125 12.60265625 -1.8515625 11.8828125 C-1.73941406 10.51769531 -1.73941406 10.51769531 -1.625 9.125 C-1.55539062 8.22007813 -1.48578125 7.31515625 -1.4140625 6.3828125 C-1 4 -1 4 1 2 C0.67 1.34 0.34 0.68 0 0 Z " fill="#EAEAEA" transform="translate(539,116)"/>
<path d="M0 0 C6.28260706 -0.23268915 11.88019467 0.59545452 18 2 C17.67 2.99 17.34 3.98 17 5 C14.35197944 4.55219494 11.7070758 4.09235069 9.0625 3.625 C8.30775391 3.49867188 7.55300781 3.37234375 6.77539062 3.2421875 C4.83716865 2.89452437 2.91620795 2.45356496 1 2 C0.67 1.34 0.34 0.68 0 0 Z " fill="#848484" transform="translate(230,325)"/>
<path d="M0 0 C2.25 -0.3125 2.25 -0.3125 5 0 C8.71157862 3.71157862 10.89058803 7.53823065 11.125 12.8125 C11.08375 13.534375 11.0425 14.25625 11 15 C8.52295499 12.52295499 7.95054266 10.24880185 6.87890625 6.97265625 C5.35442293 3.55103814 3.08653142 2.05768762 0 0 Z " fill="#BCBCBC" transform="translate(554,96)"/>
<path d="M0 0 C0.99 0.33 1.98 0.66 3 1 C2.5155542 1.38518799 2.0311084 1.77037598 1.53198242 2.16723633 C-0.51075328 4.61103185 -0.42445595 6.16530538 -0.51171875 9.32421875 C-0.54716797 10.35224609 -0.58261719 11.38027344 -0.61914062 12.43945312 C-0.64169922 13.51130859 -0.66425781 14.58316406 -0.6875 15.6875 C-0.72166016 16.77095703 -0.75582031 17.85441406 -0.79101562 18.97070312 C-0.8735456 21.6470322 -0.94267937 24.32303159 -1 27 C-1.33 27 -1.66 27 -2 27 C-2.05797565 23.06256167 -2.09358789 19.12523281 -2.125 15.1875 C-2.14175781 14.06794922 -2.15851562 12.94839844 -2.17578125 11.79492188 C-2.18222656 10.72177734 -2.18867187 9.64863281 -2.1953125 8.54296875 C-2.20578613 7.55321045 -2.21625977 6.56345215 -2.22705078 5.54370117 C-2 3 -2 3 0 0 Z " fill="#242424" transform="translate(526,135)"/>
<path d="M0 0 C1.30249153 3.59855032 0.69931441 5.58099473 -0.75 9.0625 C-1.09546875 9.91972656 -1.4409375 10.77695313 -1.796875 11.66015625 C-2.96264917 13.92735991 -4.09652606 15.33172543 -6 17 C-5.34331435 13.25141943 -4.3123267 9.82030057 -3 6.25 C-2.649375 5.28578125 -2.29875 4.3215625 -1.9375 3.328125 C-1 1 -1 1 0 0 Z " fill="#BCBCBC" transform="translate(416,55)"/>
<path d="M0 0 C6.6 0 13.2 0 20 0 C20 0.66 20 1.32 20 2 C15.57249834 3.22938396 11.65180393 2.75030185 7.1875 2.0625 C6.49462891 1.96259766 5.80175781 1.86269531 5.08789062 1.75976562 C3.39082787 1.51398412 1.69524541 1.25801848 0 1 C0 0.67 0 0.34 0 0 Z " fill="#838383" transform="translate(520,678)"/>
<path d="M0 0 C0.33 0 0.66 0 1 0 C1 1.65 1 3.3 1 5 C-0.12148438 4.98646484 -0.12148438 4.98646484 -1.265625 4.97265625 C-6.9514369 4.9152397 -6.9514369 4.9152397 -11.62109375 7.625 C-12.85172714 9.75540342 -12.85172714 9.75540342 -14 13 C-14.93423645 9.98968256 -15.04449911 9.13349732 -14 6 C-10.57905758 3.71937172 -9.31812778 3.78074993 -5.3125 3.875 C-3.82169922 3.90207031 -3.82169922 3.90207031 -2.30078125 3.9296875 C-1.54152344 3.95289063 -0.78226562 3.97609375 0 4 C0 2.68 0 1.36 0 0 Z " fill="#E5E5E5" transform="translate(290,125)"/>
<path d="M0 0 C3.458176 -0.0868329 6.91607344 -0.14033282 10.375 -0.1875 C11.35984375 -0.21263672 12.3446875 -0.23777344 13.359375 -0.26367188 C14.77089844 -0.27817383 14.77089844 -0.27817383 16.2109375 -0.29296875 C17.08024902 -0.3086792 17.94956055 -0.32438965 18.84521484 -0.34057617 C19.55629395 -0.22818604 20.26737305 -0.1157959 21 0 C21.66 0.99 22.32 1.98 23 3 C21.02 3.99 21.02 3.99 19 5 C19 4.01 19 3.02 19 2 C12.73 1.67 6.46 1.34 0 1 C0 0.67 0 0.34 0 0 Z " fill="#FBFBFB" transform="translate(589,111)"/>
<path d="M0 0 C4.37702633 1.22556737 8.69677317 2.53060547 13 4 C13 4.66 13 5.32 13 6 C8.39146203 5.27991594 4.32762591 3.68704061 0 2 C0 1.34 0 0.68 0 0 Z " fill="#C6C6C6" transform="translate(498,618)"/>
<path d="M0 0 C-1.40751221 0.86916887 -2.8264521 1.71985149 -4.25 2.5625 C-5.03890625 3.03816406 -5.8278125 3.51382813 -6.640625 4.00390625 C-9.30844625 5.13022151 -10.34501768 5.0169313 -13 4 C-12.34 4 -11.68 4 -11 4 C-10.67 3.01 -10.34 2.02 -10 1 C-8.22265625 0.234375 -8.22265625 0.234375 -6.0625 -0.25 C-5.35222656 -0.42015625 -4.64195312 -0.5903125 -3.91015625 -0.765625 C-2 -1 -2 -1 0 0 Z " fill="#7B7B7B" transform="translate(275,228)"/>
<path d="M0 0 C0.66 0 1.32 0 2 0 C1.38722388 2.96175123 0.74627478 4.38058783 -1 7 C-1.45394552 9.27912938 -1.45394552 9.27912938 -1.625 11.6875 C-1.69976562 12.49574219 -1.77453125 13.30398438 -1.8515625 14.13671875 C-1.90054687 14.75160156 -1.94953125 15.36648438 -2 16 C-3.38592445 13.72977301 -4.03309948 12.43405459 -3.828125 9.74609375 C-3.63734375 8.98425781 -3.4465625 8.22242188 -3.25 7.4375 C-3.06953125 6.67308594 -2.8890625 5.90867187 -2.703125 5.12109375 C-2 3 -2 3 0 0 Z " fill="#C7C7C7" transform="translate(299,642)"/>
<path d="M0 0 C10.55808656 0.77904328 10.55808656 0.77904328 15 3 C15 3.66 15 4.32 15 5 C11.48294042 4.34728444 8.10674923 3.48606976 4.6875 2.4375 C3.80449219 2.16808594 2.92148437 1.89867187 2.01171875 1.62109375 C1.34785156 1.41613281 0.68398438 1.21117187 0 1 C0 0.67 0 0.34 0 0 Z " fill="#B1B1B1" transform="translate(444,600)"/>
<path d="M0 0 C-4.46726453 3.31442207 -8.62007164 3.66009167 -14 4 C-11.58592302 2.39061535 -9.65955563 1.34509262 -7 0.3125 C-5.9790625 -0.09548828 -5.9790625 -0.09548828 -4.9375 -0.51171875 C-3 -1 -3 -1 0 0 Z " fill="#C0C0C0" transform="translate(397,607)"/>
<path d="M0 0 C10.55808656 -0.18451025 10.55808656 -0.18451025 15 1 C15 1.66 15 2.32 15 3 C9.9697924 2.47462276 4.98114761 1.89405214 0 1 C0 0.67 0 0.34 0 0 Z " fill="#B1B1B1" transform="translate(187,319)"/>
<path d="M0 0 C-0.33 0.66 -0.66 1.32 -1 2 C-3.94140625 2.6328125 -3.94140625 2.6328125 -7.5625 3.125 C-8.76003906 3.29257812 -9.95757813 3.46015625 -11.19140625 3.6328125 C-12.11824219 3.75398438 -13.04507813 3.87515625 -14 4 C-14.33 3.34 -14.66 2.68 -15 2 C-13.43883181 1.66048381 -11.87598662 1.32867456 -10.3125 1 C-9.44238281 0.814375 -8.57226562 0.62875 -7.67578125 0.4375 C-5.06287036 0.01027953 -2.64186962 -0.07616201 0 0 Z " fill="#B1B1B1" transform="translate(735,309)"/>
<path d="M0 0 C0.33 0 0.66 0 1 0 C1.03738281 0.91523438 1.07476563 1.83046875 1.11328125 2.7734375 C1.17902344 3.96195313 1.24476563 5.15046875 1.3125 6.375 C1.37050781 7.55835938 1.42851563 8.74171875 1.48828125 9.9609375 C1.65714844 10.96382812 1.82601562 11.96671875 2 13 C2.99 13.66 3.98 14.32 5 15 C5 15.66 5 16.32 5 17 C2.525 16.01 2.525 16.01 0 15 C0 10.05 0 5.1 0 0 Z " fill="#9E9E9E" transform="translate(573,206)"/>
<path d="M0 0 C3.96 0 7.92 0 12 0 C12 1.65 12 3.3 12 5 C11.34 5 10.68 5 10 5 C10 4.01 10 3.02 10 2 C6.7 1.67 3.4 1.34 0 1 C0 0.67 0 0.34 0 0 Z " fill="#999999" transform="translate(412,671)"/>
<path d="M0 0 C2.46800047 1.15173355 4.04783565 2.04783565 6 4 C6.125 7.125 6.125 7.125 6 10 C2.75723234 8.37861617 2.31095725 5.24889406 1 2 C0.67 1.34 0.34 0.68 0 0 Z " fill="#E2E2E2" transform="translate(825,249)"/>
<path d="M0 0 C0.33 0.66 0.66 1.32 1 2 C1.7425 1.7525 2.485 1.505 3.25 1.25 C4.1575 1.1675 5.065 1.085 6 1 C8.3125 2.9375 8.3125 2.9375 10 5 C6.7 4.34 3.4 3.68 0 3 C0 2.01 0 1.02 0 0 Z " fill="#C1C1C1" transform="translate(322,129)"/>
<path d="M0 0 C3.3 0.33 6.6 0.66 10 1 C10 1.66 10 2.32 10 3 C8.375 3.6875 8.375 3.6875 6 4 C2.75 2.5625 2.75 2.5625 0 1 C0 0.67 0 0.34 0 0 Z " fill="#808080" transform="translate(137,310)"/>
<path d="M0 0 C3 1 3 1 4.75 3.375 C6 6 6 6 5 9 C4.16094435 7.87926138 3.32892169 6.75325453 2.5 5.625 C2.0359375 4.99851562 1.571875 4.37203125 1.09375 3.7265625 C0 2 0 2 0 0 Z " fill="#B1B1B1" transform="translate(310,100)"/>
<path d="M0 0 C5.53846154 -0.36923077 5.53846154 -0.36923077 7.875 1.5 C8.24625 1.995 8.6175 2.49 9 3 C8.01 3.495 8.01 3.495 7 4 C4.64018187 3.06421005 2.30368736 2.06652192 0 1 C0 0.67 0 0.34 0 0 Z " fill="#8B8B8B" transform="translate(524,629)"/>
<path d="M0 0 C2.125 0.375 2.125 0.375 4 1 C-1.75 6 -1.75 6 -4 6 C-2.84826645 3.53199953 -1.95216435 1.95216435 0 0 Z " fill="#363636" transform="translate(553,97)"/>
<path d="M0 0 C0.99 0.33 1.98 0.66 3 1 C2.34 1 1.68 1 1 1 C0.7525 1.61875 0.505 2.2375 0.25 2.875 C-1.20628639 5.35068687 -2.37812506 5.95125002 -5 7 C-4.1875 5.0625 -4.1875 5.0625 -3 3 C-2.01 2.67 -1.02 2.34 0 2 C0 1.34 0 0.68 0 0 Z " fill="#C2C2C2" transform="translate(473,335)"/>
<path d="M0 0 C0.99 0 1.98 0 3 0 C2.34 2.97 1.68 5.94 1 9 C0.67 9 0.34 9 0 9 C0 6.03 0 3.06 0 0 Z " fill="#E5E5E5" transform="translate(291,116)"/>
<path d="" fill="#FFFFFF" transform="translate(0,0)"/>
</svg>
