<?xml version="1.0" encoding="UTF-8"?>
<svg id="Capa_2" data-name="Capa 2" xmlns="http://www.w3.org/2000/svg" viewBox="0 0 137.2 137.2">
  <defs>
    <style>
      .cls-1 {
        fill: none;
      }

      .cls-2 {
        fill: #1d1d1b;
      }
    </style>
  </defs>
  <g id="Capa_2-2" data-name="Capa 2">
    <rect class="cls-1" width="137.2" height="137.2"/>
    <path class="cls-2" d="m124.16,61.85h0s-.02,0-.02,0l-31.03-.98h-18.35c-.2,0-.37-.15-.38-.35-.24-3.64-.78-11.82-.87-12.96-.11-1.47-2.56-1.51-2.56-1.51h-.81v-.27h4.63c3.11,0,5.63-.23,5.63-.51s-2.52-.51-5.63-.51h-4.41c-.14,0-.27-.08-.34-.2l-.82-1.49c-.15-.26-.53-.26-.67,0l-.82,1.49c-.07.12-.2.2-.34.2h-4.41c-3.11,0-5.63.23-5.63.51s2.52.51,5.63.51h4.63v.27h-.8s-2.45.04-2.56,1.51c-.08,1.14-.62,9.33-.87,12.96-.01.2-.18.35-.38.35h-18.35l-31.03.98s-.02,0-.02,0h0c-1.28.12-2.26,1.19-2.26,2.48v9.66c0,.2.15.36.35.38l1.99.18s.01,0,.02,0l29.87,4.32c.59.08,1.18.13,1.77.13h18.2c.19,0,.36.15.38.34l2.89,25.32c.02.2-.12.39-.32.42l-13.35,2.16s-.86.17-1.42.56c-.26.18-.37.65-.47,1.08-.14.61-.17,1.24-.14,1.86.07,1.38.32,4.43,1.24,4.9,1.04.53,10.34,1.55,12.74,1.81.34.04.66-.15.8-.46l1.21-2.63c.17-.36.71-.26.73.14l.46,8.65c.18.16.61.19.61.19,0,0,.43-.03.61-.19l.46-8.65c.02-.4.56-.5.73-.14l1.21,2.63c.14.31.46.49.8.46,2.4-.26,11.7-1.28,12.74-1.81.92-.47,1.17-3.51,1.24-4.9.03-.63,0-1.25-.14-1.86-.1-.43-.21-.9-.47-1.08-.56-.39-1.42-.56-1.42-.56l-13.35-2.16c-.2-.03-.34-.22-.32-.42l2.89-25.32c.02-.19.19-.34.38-.34h18.2c.59,0,1.19-.04,1.77-.13l29.87-4.32s.01,0,.02,0l1.99-.18c.2-.02.35-.18.35-.38v-9.66c0-1.29-.98-2.36-2.26-2.48Z"/>
  </g>
</svg>