<?xml version="1.0" encoding="UTF-8"?>
<svg id="Capa_2" data-name="Capa 2" xmlns="http://www.w3.org/2000/svg" viewBox="0 0 137.2 137.2">
  <defs>
    <style>
      .cls-1 {
        fill: none;
      }

      .cls-2 {
        fill: #1d1d1b;
      }
    </style>
  </defs>
  <g id="Capa_2-2" data-name="Capa 2">
    <path class="cls-2" d="m126.26,62.83l-27.29-2.06c-.98-.07-1.97-.11-2.96-.11h-21.43c-.56-13.75-1.5-16.17-1.5-16.17,0,0-.27-1.26-1.55-1.26h-1.02s-.34-.29-.61-.29h-.19v-.11s.38,0,.38,0c0,0,0-.07-.02-.15,1.21.03,3.24.08,4.23.07,2.94,0,5.32-.16,5.32-.37s-2.38-.37-5.32-.37c-.23,0-.45,0-.67,0-1.1,0-2.74,0-3.66,0-.18-.65-1.02-3.08-1.08-3.21-.06-.15-.3-.15-.3-.15,0,0-.24,0-.3.15-.06.13-.89,2.56-1.08,3.21-.92,0-2.56,0-3.66,0-.22,0-.45,0-.67,0-2.94,0-5.32.16-5.32.37s2.38.37,5.32.37c.99,0,3.01-.04,4.23-.07-.01.09-.02.15-.02.15h.39v.11h-.2c-.27,0-.61.29-.61.29h-1.02c-1.28,0-1.55,1.26-1.55,1.26,0,0-.94,2.42-1.5,16.17h-21.43c-.99,0-1.97.04-2.96.11l-27.29,2.06c-1.24,0-2.24,1-2.24,2.24v9.94l2.31.35,29.61,3.78h22.03l3.94,30.27-15.43,2.7s-1.14.18-1.14,1.41.22,6.69.22,6.69c0,0-.04.74.69.89s14.93,2.58,14.93,2.58c0,0,.4.04.54-.44.11-.37,1.01-3.18,1.4-4.43.02,1.2.13,7.58.26,8.26.14.75.34.79.34.79,0,0,.05.01.19.01s.19-.01.19-.01c0,0,.2-.04.34-.79.13-.68.24-7.06.26-8.26.4,1.24,1.29,4.06,1.4,4.43.14.47.54.44.54.44,0,0,14.21-2.43,14.93-2.58s.69-.89.69-.89c0,0,.22-5.45.22-6.69s-1.14-1.41-1.14-1.41l-15.43-2.7,3.94-30.27h22.03l29.61-3.78,2.31-.35v-9.94c0-1.24-1-2.24-2.24-2.24Z"/>
    <rect class="cls-1" width="137.2" height="137.2"/>
  </g>
</svg>