<?xml version="1.0" encoding="UTF-8"?>
<svg id="Capa_2" data-name="Capa 2" xmlns="http://www.w3.org/2000/svg" viewBox="0 0 137.2 137.2">
  <defs>
    <style>
      .cls-1 {
        fill: none;
      }

      .cls-2 {
        fill: #1d1d1b;
      }
    </style>
  </defs>
  <g id="Capa_2-2" data-name="Capa 2">
    <rect class="cls-1" width="137.2" height="137.2"/>
    <path class="cls-2" d="m132.06,62.88c-1.68-.32-18.9-1.05-18.9-1.05l-13.51-.7h-15.79v-3.42c0-.77-.62-1.39-1.39-1.39s-1.39.62-1.39,1.39v.78h-.4v.97l-5.33.23c-.07-2.73-.18-6.47-.34-9.65-.22-4.16-1.27-5.91-1.84-6.56-.2-.22-.48-.34-.77-.34h-1.75v-.93h4.13c3.21,0,5.81-.13,5.81-.29s-2.6-.29-5.81-.29h-4.13s-.48-3.2-2.05-3.2-2.05,3.2-2.05,3.2h-4.13c-3.21,0-5.81.13-5.81.29s2.6.29,5.81.29h4.13v.93h-1.75c-.3,0-.58.12-.77.34-.57.65-1.62,2.4-1.84,6.56-.17,3.18-.28,6.92-.34,9.65l-5.33-.23v-.97h-.4v-.78c0-.77-.62-1.39-1.39-1.39s-1.39.62-1.39,1.39v3.42h-15.79l-13.51.7s-17.22.74-18.9,1.05c-1.68.32-1.72,5.29-1.72,5.29-.03,3,1.16,5.99,1.74,7.28.19.42.58.71,1.03.78l30.84,4.77c.82.13,1.65.19,2.48.19,4.76,0,21.57-.03,22.94-.03.15.04.33.19.52.38l3.23,33.84-16.32,2.05c-.72.11-1.26.73-1.26,1.46v1.71s.07,3.26,1.16,6.44c.05.13.15.23.29.26,3.39.73,13.59,2.65,15.64,3.04.21.04.43-.07.51-.27l1.18-2.61c.02.09.05.23.09.38v3.82h.42v1.63h.13v.96c0,.3.24.54.54.54s.54-.24.54-.54v-.96h.13v-1.63h.42v-3.82c.04-.16.07-.29.09-.38l1.18,2.61c.09.2.3.31.51.27,2.05-.39,12.25-2.3,15.64-3.04.14-.03.24-.13.29-.26,1.09-3.18,1.16-6.44,1.16-6.44v-1.71c0-.73-.54-1.35-1.26-1.46l-16.32-2.05,3.23-33.84c.18-.18.37-.33.52-.38,1.37,0,18.19.03,22.94.03.83,0,1.66-.06,2.48-.19l30.84-4.77c.45-.07.84-.36,1.03-.78.59-1.29,1.77-4.28,1.74-7.28,0,0-.03-4.97-1.72-5.29Zm-50.97-2.17v.42h-3.85l3.45-.94v.52h.4Zm-24.96,0h.4v-.52l3.45.94h-3.85v-.42Z"/>
  </g>
</svg>