<?xml version="1.0" encoding="UTF-8"?>
<svg id="Capa_2" data-name="Capa 2" xmlns="http://www.w3.org/2000/svg" viewBox="0 0 137.2 137.2">
  <defs>
    <style>
      .cls-1 {
        fill: none;
      }

      .cls-2 {
        fill: #1d1d1b;
      }
    </style>
  </defs>
  <g id="Capa_2-2" data-name="Capa 2">
    <rect class="cls-1" width="137.2" height="137.2"/>
    <path class="cls-2" d="m128.83,65.95c-.46-4.55-1.79-4.41-1.79-4.41l-28.49-1.69c-.31-.02-.61-.03-.92-.03l-22.3-.07c-.09-7.06-.73-15.25-.87-16.52-.14-1.3-1.47-1.4-1.47-1.4h-2.71v-.56h.31c.11,0,.19-.1.17-.2,0-.03-.02-.08-.02-.12h4.61c2.92,0,5.29-.3,5.29-.67s-2.37-.66-5.29-.66h-4.9c-.11-.47-.24-.95-.37-1.31-.37-1-1.21-1.05-1.21-1.05,0,0-.84.05-1.21,1.05-.13.36-.26.84-.37,1.31h-4.9c-2.92,0-5.29.3-5.29.66s2.37.67,5.29.67h4.61s-.02.09-.02.12c-.02.11.06.2.17.2h.31v.56h-2.71s-1.33.1-1.47,1.4c-.14,1.27-.78,9.46-.87,16.52l-22.3.07c-.31,0-.61.01-.92.03l-28.49,1.69s-1.33-.14-1.79,4.41c-.03.64-.24,5.98-.3,7.42,0,.2.14.38.34.4l30.05,4.28c.71.1,1.42.15,2.13.15h19.3l2.11-.56,3.88,32.8-17.86,2.45s-1.16.42-1.16,1.54v6.65s-.07,1.05,1.19,1.37c1.15.29,14.98,2.94,17.36,3.4.2.04.39-.08.44-.28l1.09-3.97c.15.74.32,1.29.51,1.52.05,1.72.24,6.63.86,7.21.62-.58.81-5.49.86-7.21.19-.22.36-.77.51-1.52l1.09,3.97c.05.19.25.32.44.28,2.38-.46,16.21-3.11,17.36-3.4,1.26-.32,1.19-1.37,1.19-1.37v-6.65c0-1.12-1.16-1.54-1.16-1.54l-17.86-2.45,3.88-32.8,2.11.56h19.3c.71,0,1.43-.05,2.13-.15l30.05-4.28c.2-.03.35-.2.34-.4-.06-1.44-.27-6.78-.3-7.42Z"/>
  </g>
</svg>