<?xml version="1.0" encoding="UTF-8"?>
<svg version="1.1" xmlns="http://www.w3.org/2000/svg" width="322" height="287">
<path d="M0 0 C1.9375 0.25 1.9375 0.25 4 1 C4.99 2.485 4.99 2.485 6 4 C8.98484654 4.47355733 8.98484654 4.47355733 12.375 4.5 C16.97358902 4.62456675 19.56586736 4.819621 23 8 C22.67 9.65 22.34 11.3 22 13 C18.7 13 15.4 13 12 13 C12.19335938 13.68578125 12.38671875 14.3715625 12.5859375 15.078125 C16.27115251 29.8919596 17.12106344 45.76594622 17 61 C18.17018677 61.03758423 18.17018677 61.03758423 19.36401367 61.07592773 C22.97194545 61.19349944 26.57971603 61.31548005 30.1875 61.4375 C31.41404297 61.47681641 32.64058594 61.51613281 33.90429688 61.55664062 C41.95775381 61.83288057 49.97118779 62.31229827 58 63 C58.41958984 61.7934375 58.41958984 61.7934375 58.84765625 60.5625 C60 58 60 58 62.4375 57 C65 57 65 57 66.8125 58.4375 C67.4003125 59.2109375 67.4003125 59.2109375 68 60 C68.66 59.01 69.32 58.02 70 57 C71.32 57.33 72.64 57.66 74 58 C74 59.98 74 61.96 74 64 C74.75394043 64.02505615 75.50788086 64.0501123 76.28466797 64.07592773 C84.85723635 64.36368102 93.4288128 64.67374491 102 65 C103.5149707 65.05607422 103.5149707 65.05607422 105.06054688 65.11328125 C107.58266079 65.21049335 110.10372301 65.32081851 112.625 65.4375 C113.35702637 65.46448975 114.08905273 65.49147949 114.84326172 65.51928711 C119.76898651 65.76898651 119.76898651 65.76898651 122 68 C122.93624323 70.77790835 123.0873006 73.16375013 122.9140625 76.07421875 C122.84832031 77.19860352 122.84832031 77.19860352 122.78125 78.34570312 C122.7296875 79.11849609 122.678125 79.89128906 122.625 80.6875 C122.55925781 81.8640918 122.55925781 81.8640918 122.4921875 83.06445312 C122.13096918 88.86903082 122.13096918 88.86903082 121 90 C118.10169036 90.39174618 115.22224124 90.71897487 112.3125 91 C111.42344971 91.08757568 110.53439941 91.17515137 109.6184082 91.26538086 C100.23828494 92.14356533 90.84825387 92.51838569 81.4375 92.89550781 C73.54618043 93.23379755 65.6752713 93.85881384 57.8046875 94.5078125 C56.14046753 94.64425171 56.14046753 94.64425171 54.44262695 94.78344727 C52.2377574 94.96547442 50.0331495 95.15070784 47.82885742 95.33959961 C43.34326935 95.7122528 38.90143873 96.05454896 34.3984375 96.0234375 C31.1349973 95.86975985 31.1349973 95.86975985 28.5625 96.5625 C24.64176068 97.23189452 20.91325212 96.53268368 17 96 C17.01377686 96.67699951 17.02755371 97.35399902 17.04174805 98.05151367 C17.13934215 106.85479544 16.57648727 115.55154178 15.8125 124.3125 C15.71804092 125.41945221 15.71804092 125.41945221 15.62167358 126.54876709 C14.47970095 139.63822402 12.28120621 152.264251 9 165 C10.09989258 165.11593506 11.19978516 165.23187012 12.33300781 165.35131836 C16.41843797 165.78270392 20.50346392 166.21781808 24.58837891 166.65405273 C26.35552358 166.84224343 28.12277589 167.02942637 29.89013672 167.21557617 C32.43225694 167.48350621 34.97396653 167.75507252 37.515625 168.02734375 C38.30430969 168.10967758 39.09299438 168.19201141 39.90557861 168.27684021 C47.10571252 169.05481622 47.10571252 169.05481622 50 170 C51.4241906 172.84838121 51.16995508 175.32787908 51.1875 178.5 C51.20167969 179.6653125 51.21585938 180.830625 51.23046875 182.03125 C51 185 51 185 49 187 C46.46125595 187.3161916 44.01422913 187.51560466 41.46484375 187.6328125 C40.71215714 187.67437469 39.95947052 187.71593689 39.18397522 187.75875854 C36.76885834 187.88961242 34.35328289 188.00715693 31.9375 188.125 C30.3365448 188.21143313 28.73563244 188.29866371 27.13476562 188.38671875 C19.7540616 188.78201628 12.39363866 189.11966583 5 189 C4.505 191.97 4.505 191.97 4 195 C2.35 195.33 0.7 195.66 -1 196 C-1.495 192.535 -1.495 192.535 -2 189 C-3.31436035 188.96241577 -3.31436035 188.96241577 -4.65527344 188.92407227 C-7.96541788 188.82785728 -11.27544921 188.72870552 -14.58544922 188.62768555 C-16.00696476 188.58487654 -17.42851415 188.54317473 -18.85009766 188.50268555 C-43.81633065 187.7891129 -43.81633065 187.7891129 -48 185 C-48.29296875 181.7421875 -48.29296875 181.7421875 -48.1875 177.875 C-48.14689453 175.95300781 -48.14689453 175.95300781 -48.10546875 173.9921875 C-48.07066406 173.00476563 -48.03585938 172.01734375 -48 171 C-44.1416279 168.55038236 -39.95138716 168.36372542 -35.515625 167.9296875 C-34.29223419 167.80075607 -34.29223419 167.80075607 -33.04412842 167.66921997 C-30.4467831 167.39717905 -27.84848035 167.13595336 -25.25 166.875 C-23.48560306 166.69211901 -21.721279 166.50853337 -19.95703125 166.32421875 C-15.63882305 165.87464066 -11.31972452 165.43475692 -7 165 C-7.11069824 164.32122803 -7.22139648 163.64245605 -7.33544922 162.94311523 C-12.87630466 128.88213343 -12.87630466 128.88213343 -13.75390625 114.8046875 C-13.93587063 112.03233794 -13.93587063 112.03233794 -14.5546875 109.49609375 C-15.07361901 106.58734606 -14.88048934 104.12006837 -14.5625 101.1875 C-14.46066406 100.21167969 -14.35882813 99.23585938 -14.25390625 98.23046875 C-14.12822266 97.12638672 -14.12822266 97.12638672 -14 96 C-14.77500854 96.25583862 -14.77500854 96.25583862 -15.56567383 96.5168457 C-18.7798935 97.15478981 -21.67763867 96.93106353 -24.94921875 96.73046875 C-25.62995956 96.69013016 -26.31070038 96.64979156 -27.0120697 96.60823059 C-29.23765481 96.47435311 -31.46252893 96.33119592 -33.6875 96.1875 C-35.24070592 96.0915257 -36.79392878 95.99582501 -38.34716797 95.90039062 C-48.09055827 95.29280787 -57.82177508 94.57474444 -67.54956055 93.75292969 C-77.72429909 92.90538103 -87.91192987 92.29291628 -98.10400391 91.69726562 C-117.45728532 90.54271468 -117.45728532 90.54271468 -119 89 C-119.87827062 84.60864692 -120.1350878 80.28860383 -120.25 75.8125 C-120.27578125 74.80832031 -120.3015625 73.80414063 -120.328125 72.76953125 C-119.92974323 69.40699939 -119.4653807 68.32416486 -117 66 C-114.16335413 65.5156575 -111.67541252 65.28048077 -108.82421875 65.20703125 C-108.02143997 65.17067062 -107.21866119 65.13431 -106.39155579 65.09684753 C-103.82391463 64.98399703 -101.25620374 64.89739396 -98.6875 64.8125 C-96.12998051 64.71154845 -93.57275962 64.60520462 -91.01557922 64.49601746 C-89.42531147 64.42991077 -87.83479379 64.369493 -86.24406433 64.31562805 C-82.08181459 64.1615004 -78.10238207 63.79137401 -74 63 C-73.67 61.35 -73.34 59.7 -73 58 C-71.02 57.505 -71.02 57.505 -69 57 C-67.5393715 59.64738916 -67 60.89448334 -67 64 C-65.89462891 63.8460376 -64.78925781 63.6920752 -63.65039062 63.53344727 C-58.64045656 62.90912923 -53.63552669 62.67603857 -48.59375 62.46484375 C-47.6284436 62.42186661 -46.66313721 62.37888947 -45.6685791 62.33460999 C-42.61250947 62.19923429 -39.55626867 62.06829712 -36.5 61.9375 C-34.41665373 61.84599731 -32.33332022 61.75420338 -30.25 61.66210938 C-25.16680816 61.43803771 -20.0834581 61.21794407 -15 61 C-15.01160156 60.30132812 -15.02320313 59.60265625 -15.03515625 58.8828125 C-15.04417969 57.97273438 -15.05320312 57.06265625 -15.0625 56.125 C-15.07410156 55.22007813 -15.08570313 54.31515625 -15.09765625 53.3828125 C-15 51 -15 51 -14 49 C-13.81273777 46.66962564 -13.67601321 44.33512881 -13.5625 42 C-13.07781793 32.95539283 -12.07186795 23.99120303 -11 15 C-10.34 15 -9.68 15 -9 15 C-9 14.34 -9 13.68 -9 13 C-9.680625 13.20625 -10.36125 13.4125 -11.0625 13.625 C-14.78833331 14.10063829 -17.46992554 13.17669149 -21 12 C-19.75023244 8.34683329 -19.32901247 7.21934164 -16 5 C-12.86328125 4.8046875 -12.86328125 4.8046875 -9.3125 4.875 C-8.13300781 4.89304687 -6.95351562 4.91109375 -5.73828125 4.9296875 C-4.38283203 4.96449219 -4.38283203 4.96449219 -3 5 C-2.5359375 4.0409375 -2.5359375 4.0409375 -2.0625 3.0625 C-1 1 -1 1 0 0 Z M3 40 C3 43.3 3 46.6 3 50 C5.97 50.33 8.94 50.66 12 51 C11.814375 48.834375 11.814375 48.834375 11.625 46.625 C11.55539063 45.81289062 11.48578125 45.00078125 11.4140625 44.1640625 C11.17107412 41.79665809 11.17107412 41.79665809 9 40 C5.91652174 39.83318891 5.91652174 39.83318891 3 40 Z " fill="#090A0B" transform="translate(156,62)"/>
<path d="M0 0 C1.9375 0.25 1.9375 0.25 4 1 C4.99 2.485 4.99 2.485 6 4 C8.98484654 4.47355733 8.98484654 4.47355733 12.375 4.5 C16.97358902 4.62456675 19.56586736 4.819621 23 8 C22.67 9.65 22.34 11.3 22 13 C18.7 13 15.4 13 12 13 C12.19335938 13.68578125 12.38671875 14.3715625 12.5859375 15.078125 C16.27115251 29.8919596 17.12106344 45.76594622 17 61 C18.17018677 61.03758423 18.17018677 61.03758423 19.36401367 61.07592773 C22.97194545 61.19349944 26.57971603 61.31548005 30.1875 61.4375 C31.41404297 61.47681641 32.64058594 61.51613281 33.90429688 61.55664062 C41.95775381 61.83288057 49.97118779 62.31229827 58 63 C58.2784375 62.19304687 58.556875 61.38609375 58.84375 60.5546875 C59.41609375 59.29011719 59.41609375 59.29011719 60 58 C62.5 57.125 62.5 57.125 65 57 C65.66 57.33 66.32 57.66 67 58 C67 58.66 67 59.32 67 60 C65.02 60 63.04 60 61 60 C60.34 61.32 59.68 62.64 59 64 C48.65610916 64.1296588 38.33815021 63.93674132 28 63.5625 C26.8361377 63.52326416 25.67227539 63.48402832 24.47314453 63.44360352 C23.38888184 63.40162842 22.30461914 63.35965332 21.1875 63.31640625 C20.21167969 63.27974854 19.23585938 63.24309082 18.23046875 63.20532227 C16 63 16 63 15 62 C14.54540142 59.34536879 14.29756762 56.67810862 14 54 C9.75481738 52.58493913 4.03909918 51.98045041 0 54 C-2.33333333 54 -4.66666667 54 -7 54 C-8.67557379 54.28520405 -10.34817245 54.59955696 -12 55 C-11.979375 56.134375 -11.95875 57.26875 -11.9375 58.4375 C-12 62 -12 62 -13 63 C-14.35032667 63.15823112 -15.70840401 63.251221 -17.06640625 63.31640625 C-18.36747314 63.3793689 -18.36747314 63.3793689 -19.69482422 63.44360352 C-20.64115723 63.48283936 -21.58749023 63.5220752 -22.5625 63.5625 C-23.52945801 63.6049585 -24.49641602 63.64741699 -25.49267578 63.69116211 C-36.65973049 64.13537743 -47.82643019 64.09563893 -59 64 C-59 63.67 -59 63.34 -59 63 C-44.48 62.34 -29.96 61.68 -15 61 C-15 57.7 -15 54.4 -15 51 C-14.505 50.01 -14.505 50.01 -14 49 C-13.81273777 46.66962564 -13.67601321 44.33512881 -13.5625 42 C-13.07781793 32.95539283 -12.07186795 23.99120303 -11 15 C-10.34 15 -9.68 15 -9 15 C-9 14.34 -9 13.68 -9 13 C-9.680625 13.20625 -10.36125 13.4125 -11.0625 13.625 C-14.78833331 14.10063829 -17.46992554 13.17669149 -21 12 C-19.75023244 8.34683329 -19.32901247 7.21934164 -16 5 C-12.86328125 4.8046875 -12.86328125 4.8046875 -9.3125 4.875 C-8.13300781 4.89304687 -6.95351562 4.91109375 -5.73828125 4.9296875 C-4.38283203 4.96449219 -4.38283203 4.96449219 -3 5 C-2.690625 4.360625 -2.38125 3.72125 -2.0625 3.0625 C-1 1 -1 1 0 0 Z M3 40 C3 43.3 3 46.6 3 50 C5.97 50.33 8.94 50.66 12 51 C11.814375 48.834375 11.814375 48.834375 11.625 46.625 C11.55539063 45.81289062 11.48578125 45.00078125 11.4140625 44.1640625 C11.17107412 41.79665809 11.17107412 41.79665809 9 40 C5.91652174 39.83318891 5.91652174 39.83318891 3 40 Z " fill="#0F1416" transform="translate(156,62)"/>
<path d="M0 0 C0.33 0 0.66 0 1 0 C1 5.28 1 10.56 1 16 C2.98 15.01 4.96 14.02 7 13 C8.65 13 10.3 13 12 13 C12 17.62 12 22.24 12 27 C8.37 27.33 4.74 27.66 1 28 C0.505 26.515 0.505 26.515 0 25 C-0.33 29.29 -0.66 33.58 -1 38 C-16.34660191 38.8458757 -31.63100688 39.13154919 -47 39 C-47 38.67 -47 38.34 -47 38 C-32.48 37.34 -17.96 36.68 -3 36 C-3 32.7 -3 29.4 -3 26 C-2.67 25.34 -2.34 24.68 -2 24 C-1.79028844 21.45433467 -1.6262839 18.92484172 -1.5 16.375 C-1.19624796 10.8767812 -0.79524322 5.4530964 0 0 Z " fill="#4D575C" transform="translate(144,87)"/>
<path d="M0 0 C0.33 0 0.66 0 1 0 C3.01470407 13.30095888 3.58606277 26.56554927 4 40 C5.17018677 40.03758423 5.17018677 40.03758423 6.36401367 40.07592773 C9.97194545 40.19349944 13.57971603 40.31548005 17.1875 40.4375 C19.02731445 40.49647461 19.02731445 40.49647461 20.90429688 40.55664062 C28.95775381 40.83288057 36.97118779 41.31229827 45 42 C45.2784375 41.19304687 45.556875 40.38609375 45.84375 39.5546875 C46.41609375 38.29011719 46.41609375 38.29011719 47 37 C49.5 36.125 49.5 36.125 52 36 C52.66 36.33 53.32 36.66 54 37 C54 37.66 54 38.32 54 39 C52.02 39 50.04 39 48 39 C47.34 40.32 46.68 41.64 46 43 C35.65610916 43.1296588 25.33815021 42.93674132 15 42.5625 C13.8361377 42.52326416 12.67227539 42.48402832 11.47314453 42.44360352 C10.38888184 42.40162842 9.30461914 42.35965332 8.1875 42.31640625 C7.21167969 42.27974854 6.23585937 42.24309082 5.23046875 42.20532227 C3 42 3 42 2 41 C1.54540142 38.34536879 1.29756762 35.67810862 1 33 C-2.96 32.34 -6.92 31.68 -11 31 C-11 26.38 -11 21.76 -11 17 C-9.02 17.33 -7.04 17.66 -5 18 C-5 18.33 -5 18.66 -5 19 C-6.65 19 -8.3 19 -10 19 C-10 22.3 -10 25.6 -10 29 C-7.03 29.33 -4.06 29.66 -1 30 C-1.309375 28.55625 -1.61875 27.1125 -1.9375 25.625 C-2.11152344 24.81289062 -2.28554687 24.00078125 -2.46484375 23.1640625 C-2.92330693 20.970537 -2.92330693 20.970537 -4 19 C-1.525 19.99 -1.525 19.99 1 21 C0.9278125 20.40574219 0.855625 19.81148437 0.78125 19.19921875 C0.06182721 12.77437359 -0.11055835 6.46152127 0 0 Z " fill="#4B5559" transform="translate(169,83)"/>
<path d="M0 0 C2.29013653 3.4352048 2.17842973 4.985331 2 9 C-2.45849271 10.66172798 -6.52772379 11.40359871 -11.26171875 11.81640625 C-11.93419144 11.87779282 -12.60666412 11.93917938 -13.29951477 12.00242615 C-15.4283019 12.19589603 -17.55775915 12.37985427 -19.6875 12.5625 C-21.82780433 12.74998421 -23.96787097 12.9395665 -26.10762024 13.13328552 C-28.04097932 13.30776602 -29.97494632 13.47547105 -31.90893555 13.64282227 C-35.03157025 13.89650112 -35.03157025 13.89650112 -38 15 C-38.33 19.29 -38.66 23.58 -39 28 C-38.05898437 27.98839844 -37.11796875 27.97679687 -36.1484375 27.96484375 C-34.90320313 27.95582031 -33.65796875 27.94679687 -32.375 27.9375 C-31.14523438 27.92589844 -29.91546875 27.91429687 -28.6484375 27.90234375 C-25 28 -25 28 -22.13671875 28.48632812 C-19.11492721 28.98117942 -16.22163223 29.20133642 -13.1640625 29.31640625 C-11.56884766 29.37924805 -11.56884766 29.37924805 -9.94140625 29.44335938 C-8.84699219 29.48267578 -7.75257813 29.52199219 -6.625 29.5625 C-5.50738281 29.60568359 -4.38976562 29.64886719 -3.23828125 29.69335938 C-0.49229801 29.79897411 2.25376881 29.9010797 5 30 C5 30.66 5 31.32 5 32 C0.80471811 31.88003561 -3.39040758 31.75571666 -7.58544922 31.62768555 C-9.00696476 31.58487654 -10.42851415 31.54317473 -11.85009766 31.50268555 C-36.81633065 30.7891129 -36.81633065 30.7891129 -41 28 C-41.29296875 24.7421875 -41.29296875 24.7421875 -41.1875 20.875 C-41.16042969 19.59367187 -41.13335937 18.31234375 -41.10546875 16.9921875 C-41.07066406 16.00476563 -41.03585938 15.01734375 -41 14 C-37.1416279 11.55038236 -32.95138716 11.36372542 -28.515625 10.9296875 C-27.29223419 10.80075607 -27.29223419 10.80075607 -26.04412842 10.66921997 C-23.4467831 10.39717905 -20.84848035 10.13595336 -18.25 9.875 C-16.48560306 9.69211901 -14.721279 9.50853337 -12.95703125 9.32421875 C-8.63882305 8.87464066 -4.31972452 8.43475692 0 8 C0 5.36 0 2.72 0 0 Z " fill="#333D41" transform="translate(149,219)"/>
<path d="M0 0 C2.79192205 -0.05380578 5.5828141 -0.09357669 8.375 -0.125 C9.1690625 -0.14175781 9.963125 -0.15851563 10.78125 -0.17578125 C12.85492015 -0.19335473 14.92883241 -0.10335168 17 0 C19.54696114 2.54696114 19.97068376 4.44148013 20.03759766 7.9987793 C19.99683105 8.68367432 19.95606445 9.36856934 19.9140625 10.07421875 C19.87023437 10.82380859 19.82640625 11.57339844 19.78125 12.34570312 C19.7296875 13.11849609 19.678125 13.89128906 19.625 14.6875 C19.58117187 15.47189453 19.53734375 16.25628906 19.4921875 17.06445312 C19.13096918 22.86903082 19.13096918 22.86903082 18 24 C15.07999411 24.41845273 12.18332736 24.76719491 9.25 25.0625 C8.36924805 25.15192871 7.48849609 25.24135742 6.58105469 25.33349609 C-3.27934536 26.2464961 -13.1082391 26.17876676 -23 26 C-23 25.67 -23 25.34 -23 25 C-22.3702124 24.94465088 -21.7404248 24.88930176 -21.09155273 24.83227539 C-18.20669312 24.57762764 -15.32209868 24.32008608 -12.4375 24.0625 C-11.44685547 23.97548828 -10.45621094 23.88847656 -9.43554688 23.79882812 C-5.3216369 23.4298063 -1.24429273 23.03575016 2.84375 22.4375 C5.92347742 22.01060709 8.83177889 21.89915776 11.9375 21.9375 C12.89527344 21.94652344 13.85304688 21.95554688 14.83984375 21.96484375 C15.90912109 21.98224609 15.90912109 21.98224609 17 22 C16.98839844 21.29875 16.97679687 20.5975 16.96484375 19.875 C16.95582031 18.92625 16.94679688 17.9775 16.9375 17 C16.92589844 16.071875 16.91429687 15.14375 16.90234375 14.1875 C17.01708994 10.44218433 17.53523279 6.71813765 18 3 C12.06 2.67 6.12 2.34 0 2 C0 1.34 0 0.68 0 0 Z " fill="#373F44" transform="translate(259,128)"/>
<path d="M0 0 C0.99 0.33 1.98 0.66 3 1 C3.12375 1.969375 3.2475 2.93875 3.375 3.9375 C3.58125 4.948125 3.7875 5.95875 4 7 C4.66 7.33 5.32 7.66 6 8 C4.68 8 3.36 8 2 8 C2 6.02 2 4.04 2 2 C1.01 2 0.02 2 -1 2 C-1 4.31 -1 6.62 -1 9 C-15.85 9.99 -30.7 10.98 -46 12 C-46.33 18.6 -46.66 25.2 -47 32 C-47.33 32 -47.66 32 -48 32 C-48.80066195 27.5963593 -49.14040054 23.28963803 -49.25 18.8125 C-49.27578125 17.80832031 -49.3015625 16.80414063 -49.328125 15.76953125 C-48.92974323 12.40699939 -48.4653807 11.32416486 -46 9 C-43.16335413 8.5156575 -40.67541252 8.28048077 -37.82421875 8.20703125 C-36.62005058 8.15249031 -36.62005058 8.15249031 -35.39155579 8.09684753 C-32.82391463 7.98399703 -30.25620374 7.89739396 -27.6875 7.8125 C-25.12998051 7.71154845 -22.57275962 7.60520462 -20.01557922 7.49601746 C-18.42531147 7.42991077 -16.83479379 7.369493 -15.24406433 7.31562805 C-11.08181459 7.1615004 -7.10238207 6.79137401 -3 6 C-2.814375 4.7934375 -2.814375 4.7934375 -2.625 3.5625 C-2.41875 2.716875 -2.2125 1.87125 -2 1 C-1.34 0.67 -0.68 0.34 0 0 Z " fill="#4A555A" transform="translate(85,119)"/>
<path d="M0 0 C11.55114076 -0.12946484 23.07900576 0.06289316 34.625 0.4375 C36.57345825 0.49635376 36.57345825 0.49635376 38.5612793 0.55639648 C39.77082275 0.59837158 40.98036621 0.64034668 42.2265625 0.68359375 C43.85972412 0.73858032 43.85972412 0.73858032 45.52587891 0.79467773 C48 1 48 1 49 2 C51.52195967 2.39943176 54.02963656 2.75079848 56.5625 3.0625 C57.62887695 3.19881836 57.62887695 3.19881836 58.71679688 3.33789062 C60.47738403 3.56239503 62.23863478 3.78168397 64 4 C64 4.33 64 4.66 64 5 C50.69783119 4.49451759 37.41090113 3.82298989 24.125 3 C23.43881592 2.95820618 22.75263184 2.91641235 22.0456543 2.87335205 C14.6705671 2.4220638 7.33441279 1.90269696 0 1 C0 0.67 0 0.34 0 0 Z " fill="#313B3F" transform="translate(38,151)"/>
<path d="M0 0 C0 0.33 0 0.66 0 1 C-0.79277344 1.04898438 -1.58554688 1.09796875 -2.40234375 1.1484375 C-8.70015411 1.55205408 -14.99174931 1.99232406 -21.28125 2.51171875 C-22.37832275 2.60211426 -23.47539551 2.69250977 -24.60571289 2.78564453 C-26.79263756 2.96736744 -28.97933524 3.15184744 -31.16577148 3.33935547 C-35.6531618 3.71186696 -40.09677226 4.05456132 -44.6015625 4.0234375 C-47.8650027 3.86975985 -47.8650027 3.86975985 -50.4375 4.5625 C-54.35085466 5.23063372 -58.09348257 4.55321053 -62 4 C-62 3.67 -62 3.34 -62 3 C-41.34766995 0.67010953 -20.77850566 -0.21821068 0 0 Z " fill="#626D71" transform="translate(235,154)"/>
<path d="M0 0 C2.29013653 3.4352048 2.17842973 4.985331 2 9 C-2.42946765 10.6442496 -6.49254001 11.41338978 -11.19140625 11.8515625 C-11.85913559 11.91532074 -12.52686493 11.97907898 -13.21482849 12.04476929 C-14.61711264 12.17735976 -16.01971777 12.30659462 -17.42260742 12.43261719 C-19.56048405 12.62481876 -21.69721712 12.82711745 -23.83398438 13.03125 C-35.10923424 14.08699334 -35.10923424 14.08699334 -40 14 C-36.27680373 11.51786915 -32.94879727 11.35115819 -28.61328125 10.9296875 C-27.38776802 10.80075607 -27.38776802 10.80075607 -26.13749695 10.66921997 C-23.52990288 10.39669151 -20.92129938 10.13571189 -18.3125 9.875 C-16.5435411 9.69216605 -14.77465962 9.50858134 -13.00585938 9.32421875 C-8.67142295 8.87409851 -4.3360458 8.43433163 0 8 C0 5.36 0 2.72 0 0 Z " fill="#4A5357" transform="translate(149,219)"/>
<path d="M0 0 C0.66 0 1.32 0 2 0 C2 4.95 2 9.9 2 15 C0.618125 14.979375 -0.76375 14.95875 -2.1875 14.9375 C-5.59298534 14.93212857 -8.68414137 15.14429455 -12 16 C-12 18.31 -12 20.62 -12 23 C-12.33 23 -12.66 23 -13 23 C-13.10152799 16.2314676 -13.03026944 9.69675136 -12 3 C-11.67 3 -11.34 3 -11 3 C-11 6.63 -11 10.26 -11 14 C-10.01 13.67 -9.02 13.34 -8 13 C-6.60560336 12.93334624 -5.20830125 12.91461801 -3.8125 12.9375 C-1.9253125 12.9684375 -1.9253125 12.9684375 0 13 C0 8.71 0 4.42 0 0 Z " fill="#1E272B" transform="translate(156,101)"/>
<path d="M0 0 C0.99 0 1.98 0 3 0 C3 1.98 3 3.96 3 6 C3.86803253 5.75885216 3.86803253 5.75885216 4.75360107 5.51283264 C8.35923739 4.68969835 12.02032091 4.75952762 15.703125 4.68359375 C16.54091492 4.66281265 17.37870483 4.64203156 18.24188232 4.62062073 C20.91117356 4.5553745 23.58056098 4.49635642 26.25 4.4375 C28.06250984 4.39429106 29.87501005 4.35067601 31.6875 4.30664062 C36.12490209 4.19971871 40.56240068 4.09838134 45 4 C45 4.33 45 4.66 45 5 C39.64510219 5.87534979 34.42471979 6.20246058 29.00390625 6.31640625 C28.17036118 6.33718735 27.3368161 6.35796844 26.47801208 6.37937927 C23.83958439 6.44427856 21.20106509 6.50347978 18.5625 6.5625 C16.76366276 6.60574206 14.96483446 6.64935808 13.16601562 6.69335938 C8.7774354 6.79989799 4.3887639 6.90132975 0 7 C0 4.69 0 2.38 0 0 Z " fill="#20292E" transform="translate(84,121)"/>
<path d="M0 0 C2.79192205 -0.05380578 5.5828141 -0.09357669 8.375 -0.125 C9.1690625 -0.14175781 9.963125 -0.15851563 10.78125 -0.17578125 C12.85492015 -0.19335473 14.92883241 -0.10335168 17 0 C19.55224155 2.55224155 19.98325138 4.44708261 20.02172852 8.01464844 C19.95103149 9.05153809 19.95103149 9.05153809 19.87890625 10.109375 C19.83056641 10.86347656 19.78222656 11.61757812 19.73242188 12.39453125 C19.67634766 13.17183594 19.62027344 13.94914063 19.5625 14.75 C19.51029297 15.54277344 19.45808594 16.33554688 19.40429688 17.15234375 C19.27510676 19.10193997 19.13830035 21.05102886 19 23 C18.67 23 18.34 23 18 23 C18 16.4 18 9.8 18 3 C12.06 2.67 6.12 2.34 0 2 C0 1.34 0 0.68 0 0 Z " fill="#485153" transform="translate(259,128)"/>
<path d="M0 0 C0 2.97 0 5.94 0 9 C-2.97 8.505 -2.97 8.505 -6 8 C-6.33 6.02 -6.66 4.04 -7 2 C-4 0 -4 0 0 0 Z " fill="#A3BBDC" transform="translate(155,102)"/>
<path d="M0 0 C0.99 0 1.98 0 3 0 C3 3.96 3 7.92 3 12 C0.03 12 -2.94 12 -6 12 C-6 9.03 -6 6.06 -6 3 C-4 7 -4 7 -4 9 C-1.03 9.495 -1.03 9.495 2 10 C2 7.03 2 4.06 2 1 C1.34 0.67 0.68 0.34 0 0 Z " fill="#7E898D" transform="translate(153,101)"/>
<path d="M0 0 C4.46705261 8.35302521 3.10069882 18.78046383 3 28 C2.67 28 2.34 28 2 28 C0.53948097 18.57182803 -0.29032827 9.56470344 0 0 Z " fill="#525C60" transform="translate(143,174)"/>
<path d="M0 0 C0 0.33 0 0.66 0 1 C-3.3096546 1.54006537 -6.62294902 2.05342409 -9.9375 2.5625 C-10.86369141 2.71396484 -11.78988281 2.86542969 -12.74414062 3.02148438 C-18.7866309 3.93315835 -23.95679528 3.93592196 -30 3 C-30 2.67 -30 2.34 -30 2 C-26.87588408 1.65802981 -23.75060292 1.32807747 -20.625 1 C-19.75488281 0.90460938 -18.88476562 0.80921875 -17.98828125 0.7109375 C-11.96970497 0.08678885 -6.04920988 -0.11723906 0 0 Z " fill="#444E51" transform="translate(203,155)"/>
<path d="M0 0 C0.99 0.495 0.99 0.495 2 1 C5.30975448 1.23798501 8.61835735 1.38267886 11.93359375 1.5234375 C15 2 15 2 18 5 C12.06 4.67 6.12 4.34 0 4 C0 2.68 0 1.36 0 0 Z " fill="#515A5C" transform="translate(160,65)"/>
<path d="M0 0 C2.74708629 4.12062943 3.11949692 6.84276139 3.0625 11.6875 C3.05347656 12.68136719 3.04445312 13.67523438 3.03515625 14.69921875 C3.02355469 15.45847656 3.01195312 16.21773437 3 17 C-0.36878479 11.94682281 -0.14848056 5.93922223 0 0 Z " fill="#4C5862" transform="translate(146,202)"/>
<path d="M0 0 C0.99 0 1.98 0 3 0 C3 1.98 3 3.96 3 6 C4.98 6 6.96 6 9 6 C9 6.33 9 6.66 9 7 C6.03 7 3.06 7 0 7 C0 4.69 0 2.38 0 0 Z " fill="#0D1A24" transform="translate(84,121)"/>
<path d="M0 0 C0.99 0 1.98 0 3 0 C3 1.98 3 3.96 3 6 C2.01 6 1.02 6 0 6 C0 4.02 0 2.04 0 0 Z " fill="#192324" transform="translate(226,121)"/>
</svg>
