<?xml version="1.0" encoding="UTF-8"?>
<svg id="Capa_2" data-name="Capa 2" xmlns="http://www.w3.org/2000/svg" viewBox="0 0 137.2 137.2">
  <defs>
    <style>
      .cls-1 {
        fill: none;
      }

      .cls-2 {
        fill: #1d1d1b;
      }
    </style>
  </defs>
  <g id="Capa_2-2" data-name="Capa 2">
    <rect class="cls-1" width="137.2" height="137.2"/>
    <path class="cls-2" d="m131.22,65.02c0-1.19-.8-1.09-.8-1.09l-24.15-1.13v-3.81h-.72v3.77l-2.45-.11c-.24-2.55-.92-4.39-1.73-4.39s-1.46,1.77-1.71,4.23l-24.09-1.13c.03-4.08-.03-13.87-1.11-20.43-.72-4.34-1.3-6.12-2.17-6.85h6.39s.26-.05.26-.57c-.07-1.34-1.35-1.7-1.35-1.7l-7.33-.09c-.2-1.05-.65-2.18-1.63-2.49-.98.31-1.43,1.43-1.63,2.49l-7.33.09s-1.28.36-1.35,1.7c0,.53.26.57.26.57h6.39c-.88.73-1.46,2.51-2.17,6.85-1.08,6.56-1.14,16.34-1.11,20.43l-30.29,1.42v-3.79h-.72v3.82l-23.85,1.12s-.8-.1-.8,1.09.24,8.65.24,8.65c0,0-.14.63.74.63s33.67,1.99,33.67,1.99l21.04,1.18c0,2.75.22,20.85,4.48,38.2.02.11.03.2.04.3l-21.73,2.15c-.37.04-.64.34-.64.71v5.56c0,.29.22.53.51.55,3.03.24,18.8,1.5,23.27,1.41,0,.06,0,.09,0,.09,0,0,.21.39.55.51v2.97s.05.28.46.35c.4-.07.45-.35.45-.35v-2.97c.34-.12.55-.51.55-.51,0,0,0-.03,0-.09,4.47.09,20.24-1.16,23.27-1.41.29-.02.51-.26.51-.55v-5.56c0-.37-.28-.67-.64-.71l-21.73-2.15c.02-.1.03-.2.04-.3,4.26-17.35,4.47-35.45,4.48-38.2l21.04-1.18s32.8-1.99,33.67-1.99.74-.63.74-.63c0,0,.24-7.46.24-8.65Z"/>
  </g>
</svg>