<?xml version="1.0" encoding="UTF-8"?>
<svg id="Capa_2" data-name="Capa 2" xmlns="http://www.w3.org/2000/svg" viewBox="0 0 137.2 137.2">
  <defs>
    <style>
      .cls-1 {
        fill: none;
      }

      .cls-2 {
        fill: #1d1d1b;
      }
    </style>
  </defs>
  <g id="Capa_2-2" data-name="Capa 2">
    <rect class="cls-1" width="137.2" height="137.2"/>
    <path class="cls-2" d="m121.87,72.37s-.05-4.97,0-5.77-.89-1.08-.89-1.08l-28.59-1.19v-12.71c0-1.32-.91-2.43-2.13-2.77,0-.04,0-.09-.01-.13,4.03-.06,7.04-.32,7.04-.62s-3.1-.56-7.23-.62c-.39-2.08-1.08-3.46-1.86-3.46s-1.47,1.38-1.86,3.46c-4.13.06-7.23.31-7.23.62s3.01.55,7.04.62c0,.04,0,.09-.01.13-1.22.34-2.13,1.45-2.13,2.77v11.8l-8.53-.66c-.09-2.66-.17-5.7-.2-8.69-.92-13.33-3.58-19.07-5.25-21.17-.83-1.04-1.41-.92-1.41-.92,0,0-.58-.12-1.41.92-1.67,2.1-4.33,7.85-5.25,21.17-.03,2.99-.11,6.03-.2,8.69l-8.53.66v-11.8c0-1.32-.91-2.43-2.13-2.77,0-.04,0-.09-.01-.13,4.03-.06,7.04-.32,7.04-.62s-3.1-.56-7.23-.62c-.39-2.08-1.08-3.46-1.86-3.46s-1.47,1.38-1.86,3.46c-4.13.06-7.23.31-7.23.62s3.01.55,7.04.62c0,.04,0,.09-.01.13-1.22.34-2.13,1.45-2.13,2.77v12.71l-28.59,1.19s-.94.28-.89,1.08,0,5.77,0,5.77c0,0-.14.75,1.17.94s15.56,2.11,15.56,2.11c0,0,.05.42.38.52s4.88.61,4.88.61c0,0,.38-.19.52-.33.52.06,4.74.68,7.33,1.06.64,1.49,2.13,2.54,3.85,2.54h1.66c1.06,0,1.98-.67,2.35-1.6,2.26.4,5.15.79,8.65,1.02.28,5.35.86,12.59,2.08,19.57,1.37,7.82,1.93,12.73,2.17,15.46l-16.14,3.05s-2.53.66-2.59,1.5,0,5.12,0,5.12c0,0,0,.59.78.75s12.66,1,12.66,1c0,0,.06.37.16.44.88.19,6.12.5,6.12.5l.19.25h.79l.2,6.26s-.06.63.51.63.51-.63.51-.63l.2-6.26h.79l.19-.25s5.24-.31,6.12-.5c.09-.07.16-.44.16-.44,0,0,11.88-.84,12.66-1s.78-.75.78-.75c0,0,.06-4.28,0-5.12s-2.59-1.5-2.59-1.5l-16.14-3.05c.24-2.74.8-7.64,2.17-15.46,1.22-6.97,1.8-14.22,2.08-19.57,3.5-.23,6.39-.62,8.65-1.02.37.94,1.28,1.6,2.35,1.6h1.66c1.72,0,3.21-1.05,3.85-2.54,2.58-.38,6.81-1,7.33-1.06.14.14.52.33.52.33,0,0,4.55-.52,4.88-.61s.38-.52.38-.52c0,0,14.25-1.92,15.56-2.11s1.17-.94,1.17-.94Z"/>
  </g>
</svg>