<?xml version="1.0" encoding="UTF-8"?>
<svg id="Capa_2" data-name="Capa 2" xmlns="http://www.w3.org/2000/svg" viewBox="0 0 137.2 137.2">
  <defs>
    <style>
      .cls-1 {
        fill: none;
      }

      .cls-2 {
        fill: #1d1d1b;
      }
    </style>
  </defs>
  <g id="Capa_2-2" data-name="Capa 2">
    <rect class="cls-1" width="137.2" height="137.2"/>
    <path class="cls-2" d="m131.38,62.6c-1.75,0-25.39-.72-34.41-1v-10.53c0-.39-.31-.7-.7-.7h-1.98c-.02-.17-.05-.32-.07-.48,5.12-.07,9.04-.43,9.04-.86s-4.1-.81-9.4-.87c-.37-1.33-.85-2.15-1.38-2.15s-1.02.82-1.38,2.15c-5.3.06-9.4.42-9.4.87s3.91.79,9.04.86c-.02.16-.05.32-.07.48h-1.98c-.39,0-.7.31-.7.7v10.42h-12.1c-.01-5.87-.22-21.02-2.07-25.82-3.19-9-5.07-8.88-5.07-8.88h-.06s-.02,0-.02,0h-.07s-1.88-.12-5.07,8.88c-1.85,4.8-2.06,19.95-2.07,25.82h-12.1v-10.42c0-.39-.31-.7-.7-.7h-1.98c-.02-.17-.05-.32-.07-.48,5.12-.07,9.04-.43,9.04-.86s-4.1-.81-9.4-.87c-.37-1.33-.85-2.15-1.38-2.15s-1.02.82-1.38,2.15c-5.3.06-9.4.42-9.4.87s3.91.79,9.04.86c-.02.16-.05.32-.07.48h-1.98c-.39,0-.7.31-.7.7v10.53c-9.02.28-32.66,1-34.41,1-2.11,0-1.88,1.08-1.88,1.08v6.09c0,3.19.28,3.33.28,3.33l37.11,4.75c0,.14-.03.28-.03.42,0,2.71,1.67,4.91,3.73,4.91s3.65-2.12,3.72-4.76l12.3-.37c.16,2.8,1.13,17.05,4.41,31.75l-21.17,2.28s-.53.12-.53,1.41-.09,4.97.66,6.16c.68,1.07,19.4,2.6,23.06,2.89.18,2.64.56,7.45,1.01,8.05.02-4.54.04-7.24.04-8.84h.01s.01,0,.01,0c0,1.61.02,4.31.04,8.84.45-.6.83-5.41,1.01-8.05,3.67-.29,22.39-1.82,23.06-2.89.75-1.19.66-4.88.66-6.16s-.53-1.41-.53-1.41l-21.17-2.28c3.28-14.7,4.25-28.95,4.41-31.75l12.3.37c.06,2.64,1.7,4.76,3.72,4.76s3.73-2.2,3.73-4.91c0-.14-.02-.28-.03-.42l37.11-4.75s.28-.14.28-3.33v-6.09s.23-1.08-1.88-1.08Z"/>
  </g>
</svg>