<?xml version="1.0" encoding="UTF-8"?>
<svg id="Capa_2" data-name="Capa 2" xmlns="http://www.w3.org/2000/svg" viewBox="0 0 137.2 137.2">
  <defs>
    <style>
      .cls-1 {
        fill: none;
      }

      .cls-2 {
        fill: #1d1d1b;
      }
    </style>
  </defs>
  <g id="Capa_2-2" data-name="Capa 2">
    <rect class="cls-1" width="137.2" height="137.2"/>
    <path class="cls-2" d="m132.16,62.09l-12.12-.03v-.83c0-.21-.18-.39-.39-.39s-.39.18-.39.39v.83h-5.28c-.1-.63-.54-1.1-1.06-1.1s-.96.46-1.06,1.08h-4.25c-.12-.62-.59-1.08-1.16-1.08s-1.04.46-1.15,1.07l-16.07-.04v-3.37h.3c.46,0,.83-.37.83-.83v-3.16c0-.46-.37-.83-.83-.83h-.57c-.01-.7-.07-1.37-.16-1.99,4.26-.08,7.46-.4,7.46-.79s-3.38-.73-7.82-.8c-.42-1.34-1.06-2.2-1.78-2.2s-1.36.86-1.78,2.21c-4.25.08-7.44.4-7.44.79s3.02.7,7.09.79c-.09.62-.15,1.29-.16,1.99h-.57c-.46,0-.83.37-.83.83v3.16c0,.46.37.83.83.83h.45l.05,3.35-9.72-.02c-.03-2.64-.07-6.91-.13-9.77-.09-4.38-.53-11.94-2.12-18.78s-3.78-6.17-3.72-6.19c.06.02-2.19-.38-3.72,6.19s-2.03,14.41-2.12,18.78c-.06,2.85-.11,7.13-.13,9.77l-9.72.02.05-3.35h.45c.46,0,.83-.37.83-.83v-3.16c0-.46-.37-.83-.83-.83h-.57c-.01-.7-.07-1.37-.16-1.99,4.07-.09,7.09-.41,7.09-.79s-3.19-.72-7.44-.79c-.42-1.35-1.06-2.21-1.78-2.21s-1.35.86-1.78,2.2c-4.44.07-7.82.4-7.82.8s3.2.72,7.46.79c-.09.62-.15,1.29-.16,1.99h-.57c-.46,0-.83.37-.83.83v3.16c0,.46.37.83.83.83h.3v3.37l-16.07.04c-.12-.61-.59-1.07-1.15-1.07s-1.04.46-1.16,1.07h-4.25c-.1-.61-.54-1.07-1.06-1.07s-.96.47-1.06,1.09h-5.28s0-.82,0-.82c0-.21-.18-.39-.39-.39s-.39.18-.39.39v.83l-12.12.03s-2.34.06-2.19,2.94,2.06,9.81,2.06,9.81c0,0,.31.94,1.22,1,.82.06,47.46.29,56.47.34.03,1.24.28,10.3,1.15,16.98.66,5.1,2.21,15.48,3.05,21.09h-18.43s-1.22-.16-1.34,2.12-.28,6.53,1.19,8h19.41c-.03,1.6-.05,7.32.96,7.64,1.01-.32.99-6.04.96-7.64h19.41c1.47-1.47,1.31-5.72,1.19-8s-1.34-2.12-1.34-2.12h-18.43c.84-5.62,2.39-16,3.05-21.09.87-6.68,1.12-15.73,1.15-16.98,9.01-.04,55.65-.28,56.47-.34.91-.06,1.22-1,1.22-1,0,0,1.91-6.94,2.06-9.81s-2.19-2.94-2.19-2.94Z"/>
  </g>
</svg>