<?xml version="1.0" encoding="UTF-8"?>
<svg version="1.1" xmlns="http://www.w3.org/2000/svg" width="370" height="426">
<path d="M0 0 C3.35484394 2.23656263 3.65995975 3.03675162 4.97265625 6.69140625 C5.31490234 7.63693359 5.65714844 8.58246094 6.00976562 9.55664062 C6.35716797 10.54857422 6.70457031 11.54050781 7.0625 12.5625 C7.5894043 14.00979492 7.5894043 14.00979492 8.12695312 15.48632812 C11.28799251 24.33604331 13.16470101 32.75883534 13.7890625 42.12890625 C13.9265472 43.84064343 14.06592739 45.55222923 14.20703125 47.26367188 C14.42168866 49.91790832 14.62554272 52.57089379 14.79736328 55.22827148 C15.17978204 67.10851241 15.17978204 67.10851241 20.8984375 77.02734375 C22.92519057 78.62643111 24.98599025 79.99134895 27.18164062 81.34716797 C29.6338343 83.57613563 29.74680443 85.16318187 30.1953125 88.41796875 C30.35233643 89.50029785 30.50936035 90.58262695 30.67114258 91.69775391 C30.82091553 92.84937012 30.97068848 94.00098633 31.125 95.1875 C31.29475342 96.35974121 31.46450684 97.53198242 31.6394043 98.73974609 C32.36278242 103.81702841 33.02512872 108.88458043 33.44921875 113.99609375 C34.05383505 121.13284155 34.64666397 126.27582739 40.0390625 131.37109375 C40.68617188 131.90863281 41.33328125 132.44617188 42 133 C42.56460938 133.50660156 43.12921875 134.01320312 43.7109375 134.53515625 C44.96322893 135.64800038 46.23022646 136.74441388 47.5078125 137.828125 C50.87446 140.76206859 54.11952623 143.81875864 57.375 146.875 C61.54972159 150.78905704 65.73126217 154.68811705 70 158.5 C74.26875937 162.31190218 78.44969205 166.2115438 82.625 170.125 C91.39213709 178.57728653 91.39213709 178.57728653 101 186 C101 186.66 101 187.32 101 188 C101.99 188.33 102.98 188.66 104 189 C106.59364101 194.18728203 106.46309412 201.46160898 105 207 C99.27144422 217.66746102 86.68109215 221.71591242 75.88671875 225.08007812 C71.35714213 226.5235359 66.87990717 228.11376156 62.39331055 229.68481445 C57.26934489 231.47734652 52.1348945 233.23906967 47 235 C47 236.32 47 237.64 47 239 C49.05552999 241.13292531 49.05552999 241.13292531 51.8125 243.125 C53.30136719 244.32576172 53.30136719 244.32576172 54.8203125 245.55078125 C56.89723182 247.18778414 58.96465554 248.6387584 61.1796875 250.10546875 C68.50288354 255.47898272 68.50288354 255.47898272 69.47265625 260.39697266 C69.94398724 266.28753881 69.61083189 272.130888 69 278 C49.78899849 285.82107967 49.78899849 285.82107967 42 286 C39.125 283.875 39.125 283.875 37 281 C36.175 280.34 35.35 279.68 34.5 279 C31.7899935 276.8319948 29.42278499 274.48335462 27 272 C26.154375 271.175 25.30875 270.35 24.4375 269.5 C23.2309375 268.2625 23.2309375 268.2625 22 267 C21.236875 266.29875 20.47375 265.5975 19.6875 264.875 C17.08535602 260.44171766 17.68345208 256.02080168 18 251 C16.80375 251.556875 15.6075 252.11375 14.375 252.6875 C12.3359375 253.63671875 12.3359375 253.63671875 10 254 C6.7265625 252.58203125 6.7265625 252.58203125 4 251 C4.02320313 251.98742187 4.04640625 252.97484375 4.0703125 253.9921875 C4.08835937 255.27351562 4.10640625 256.55484375 4.125 257.875 C4.14820313 259.15117187 4.17140625 260.42734375 4.1953125 261.7421875 C4 265 4 265 2 267 C-0.93453261 266.63318342 -1.86437246 266.13562754 -4 264 C-4.1953125 260.9609375 -4.1953125 260.9609375 -4.125 257.375 C-4.10695313 256.18648438 -4.08890625 254.99796875 -4.0703125 253.7734375 C-4.04710937 252.85820312 -4.02390625 251.94296875 -4 251 C-4.75925781 251.51046875 -5.51851563 252.0209375 -6.30078125 252.546875 C-9 254 -9 254 -12.1875 253.25 C-13.80570795 252.53079647 -15.41611852 251.79194074 -17 251 C-16.95875 252.19625 -16.9175 253.3925 -16.875 254.625 C-16.68831749 260.03879288 -17.99856413 263.83063103 -21.5390625 267.96484375 C-22.55693314 268.96679461 -23.58608569 269.95738613 -24.625 270.9375 C-25.16044434 271.45747559 -25.69588867 271.97745117 -26.24755859 272.51318359 C-29.88841838 276.02295932 -33.61931116 279.42397276 -37.4765625 282.6953125 C-38.69958301 283.74271981 -39.86139532 284.86139532 -41 286 C-46.92041496 285.651154 -52.61973574 283.96691134 -58.078125 281.72265625 C-60.1754733 280.93401919 -62.25272128 280.42946259 -64.4375 279.9375 C-66.2009375 279.4734375 -66.2009375 279.4734375 -68 279 C-69.55693041 275.88613918 -69.22567195 272.60255068 -69.25 269.1875 C-69.270625 268.47529297 -69.29125 267.76308594 -69.3125 267.02929688 C-69.36236102 260.29182612 -67.25481779 257.2182236 -62.75 252.5546875 C-61.50508704 251.32296217 -60.25493926 250.0965085 -59 248.875 C-58.3709375 248.25496094 -57.741875 247.63492188 -57.09375 246.99609375 C-55.924169 245.84385823 -54.75253484 244.69370007 -53.578125 243.54638672 C-52.79695313 242.78092529 -52.79695313 242.78092529 -52 242 C-51.15695313 241.28287842 -51.15695313 241.28287842 -50.296875 240.55126953 C-48.57240333 238.82551944 -48.57240333 238.82551944 -49 235 C-50.10923828 234.60208252 -51.21847656 234.20416504 -52.36132812 233.79418945 C-56.50961792 232.30326636 -60.6533607 230.80003645 -64.79589844 229.29321289 C-66.58310872 228.64503451 -68.37150547 228.00011726 -70.16113281 227.35864258 C-72.74609594 226.43142754 -75.32644274 225.49223231 -77.90625 224.55078125 C-78.69616333 224.27035477 -79.48607666 223.98992828 -80.29992676 223.70100403 C-85.65393832 221.72956539 -90.28026364 219.1963013 -95 216 C-96.36125 215.07960938 -96.36125 215.07960938 -97.75 214.140625 C-102.26651406 210.34549861 -104.59754399 206.82241229 -105.37890625 201.00634766 C-105.71182903 194.97480717 -104.98448978 190.6546008 -100.90625 186.03515625 C-97.19344728 182.36611844 -93.13529899 179.17386459 -89 176 C-87.65516161 174.84661429 -86.31864236 173.68324605 -85 172.5 C-84.40960938 171.99210938 -83.81921875 171.48421875 -83.2109375 170.9609375 C-79.27849378 167.47315172 -75.46823796 163.85255546 -71.63330078 160.25830078 C-67.31217905 156.21256047 -62.94588095 152.22498698 -58.53125 148.28125 C-54.88465788 144.99481513 -51.28129837 141.66158183 -47.69946289 138.3046875 C-44.67744085 135.48551908 -41.5904349 132.89740363 -38.3125 130.375 C-34.6265622 127.19345369 -33.78692823 124.16174334 -33.15625 119.41015625 C-33.02740757 117.42276171 -33 115.42906657 -33 113.4375 C-33 110.55492622 -32.74314956 108.61250296 -32.0625 105.875 C-30.86188195 100.98017256 -30.58909422 96.13670406 -30.34375 91.11328125 C-29.98276747 87.8439281 -29.1434536 85.0753369 -28 82 C-27.34 82 -26.68 82 -26 82 C-26 81.34 -26 80.68 -26 80 C-24.06640625 78.34375 -24.06640625 78.34375 -21.5625 76.5 C-18.25143208 74.20089737 -18.25143208 74.20089737 -16 71 C-16 69.865625 -16 68.73125 -16 67.5625 C-16 64 -16 64 -15 61 C-14.77178283 58.90590947 -14.58524108 56.80717643 -14.421875 54.70703125 C-13.26399385 40.93808489 -12.13619711 27.96852116 -7 15 C-6.54203461 13.74477488 -6.08765332 12.48823678 -5.63671875 11.23046875 C-2.38966182 2.38966182 -2.38966182 2.38966182 0 0 Z M0 42 C-2.64034528 43.59173565 -3.8306025 44.51556914 -4.86328125 47.46875 C-5.8902206 54.39835811 -6.13367318 61.06829799 -5.875 68.0625 C-5.85348877 68.88363281 -5.83197754 69.70476562 -5.80981445 70.55078125 C-5.59775667 74.39567128 -5.43732067 76.41897558 -3.07421875 79.55859375 C-1.13869522 81.19616321 -1.13869522 81.19616321 1.0625 81 C3.62856679 79.67557843 4.5120508 78.49211164 6 76 C7.67128823 66.34242172 8.00657929 54.42305949 5 45 C2.54958571 43.03884655 2.54958571 43.03884655 0 42 Z " fill="#070707" transform="translate(178,51)"/>
<path d="M0 0 C4.72977739 2.27268192 4.72977739 2.27268192 5.91894531 5.47338867 C6.05397461 6.4451001 6.18900391 7.41681152 6.328125 8.41796875 C6.48764648 9.50094238 6.64716797 10.58391602 6.81152344 11.69970703 C6.9562207 12.85067871 7.10091797 14.00165039 7.25 15.1875 C7.41274414 16.35394043 7.57548828 17.52038086 7.74316406 18.72216797 C8.92047918 27.4650019 9.73358402 36.1816312 10 45 C7.92361151 40.98564892 6.87312289 37.56982494 6.53515625 33.0625 C6.41817383 31.59490234 6.41817383 31.59490234 6.29882812 30.09765625 C6.14366895 28.06391697 5.98997562 26.03006523 5.83789062 23.99609375 C5.16403208 13.86664962 5.16403208 13.86664962 3 4 C2.01 3.34 1.02 2.68 0 2 C0 1.34 0 0.68 0 0 Z " fill="#B4B4B4" transform="translate(202,131)"/>
<path d="M0 0 C3.49928164 2.33285443 3.6329098 3.20795069 4.6875 7.125 C5.06455078 8.49011719 5.06455078 8.49011719 5.44921875 9.8828125 C5.63097656 10.58148438 5.81273437 11.28015625 6 12 C3.48916886 10.74458443 3.12874554 9.49936512 2 7 C-0.90542812 8.3024333 -2.8092961 9.70886268 -5 12 C-4.54965877 10.37276701 -4.08944646 8.74826336 -3.625 7.125 C-3.36976563 6.22007813 -3.11453125 5.31515625 -2.8515625 4.3828125 C-2 2 -2 2 0 0 Z " fill="#838383" transform="translate(178,51)"/>
<path d="M0 0 C0.02578125 1.05960937 0.0515625 2.11921875 0.078125 3.2109375 C0.1343978 4.59900001 0.19174533 5.98701925 0.25 7.375 C0.26417969 8.07367188 0.27835938 8.77234375 0.29296875 9.4921875 C0.36035782 11.77717646 0.36035782 11.77717646 1 15 C2.91388341 16.56483494 2.91388341 16.56483494 5 17 C3.1875 17.6875 3.1875 17.6875 1 18 C-0.625 16.9375 -0.625 16.9375 -2 15 C-2.29296875 11.86328125 -2.29296875 11.86328125 -2.1875 8.3125 C-2.16042969 7.13300781 -2.13335937 5.95351563 -2.10546875 4.73828125 C-2.07066406 3.83464844 -2.03585938 2.93101562 -2 2 C-2.66 1.67 -3.32 1.34 -4 1 C-2 0 -2 0 0 0 Z " fill="#A8A8A9" transform="translate(176,300)"/>
<path d="M0 0 C1.32 0 2.64 0 4 0 C4.66 5.61 5.32 11.22 6 17 C2 13 2 13 1.609375 10.203125 C1.65578125 9.22859375 1.7021875 8.2540625 1.75 7.25 C1.78609375 6.26515625 1.8221875 5.2803125 1.859375 4.265625 C1.90578125 3.51796875 1.9521875 2.7703125 2 2 C1.34 2 0.68 2 0 2 C0 1.34 0 0.68 0 0 Z " fill="#747475" transform="translate(194,300)"/>
<path d="M0 0 C2.49212846 7.88861716 -0.04961655 17.19846622 -2 25 C-2.33 25 -2.66 25 -3 25 C-3.33735878 16.52854629 -2.69542961 8.08628883 0 0 Z " fill="#868687" transform="translate(168,75)"/>
<path d="M0 0 C1.98 0.495 1.98 0.495 4 1 C3.01 1.495 3.01 1.495 2 2 C2.061875 3.794375 2.061875 3.794375 2.125 5.625 C2.13851708 9.42329953 1.42009753 12.44975618 0 16 C-1.16306443 12.45049966 -0.92365049 9.44176052 -0.5625 5.75 C-0.46066406 4.67234375 -0.35882813 3.5946875 -0.25390625 2.484375 C-0.17011719 1.66453125 -0.08632812 0.8446875 0 0 Z " fill="#707071" transform="translate(159,300)"/>
<path d="M0 0 C2.09087271 3.13630906 3.0159838 5.78507349 4.125 9.375 C4.47820312 10.49648437 4.83140625 11.61796875 5.1953125 12.7734375 C5.92181482 15.68650019 6.16735595 18.02106411 6 21 C3.5627401 18.10325667 2.51957375 15.90844847 1.875 12.1875 C1.7203125 11.31738281 1.565625 10.44726562 1.40625 9.55078125 C0.89972761 6.37040507 0.41654594 3.19351887 0 0 Z " fill="#8F8F90" transform="translate(184,63)"/>
<path d="M0 0 C0.66 0 1.32 0 2 0 C2.33 5.28 2.66 10.56 3 16 C0.86804846 11.73609692 -0.13032964 8.99274487 -0.0625 4.3125 C-0.05347656 3.50425781 -0.04445312 2.69601563 -0.03515625 1.86328125 C-0.02355469 1.24839844 -0.01195312 0.63351563 0 0 Z " fill="#7A7A7B" transform="translate(209,160)"/>
<path d="M0 0 C1.8871875 0.0309375 1.8871875 0.0309375 3.8125 0.0625 C1.1264714 1.85318573 -0.8501589 2.72305791 -3.875 3.6875 C-5.08736328 4.07808594 -5.08736328 4.07808594 -6.32421875 4.4765625 C-6.93910156 4.66992188 -7.55398437 4.86328125 -8.1875 5.0625 C-8.8475 4.4025 -9.5075 3.7425 -10.1875 3.0625 C-9.1975 3.0625 -8.2075 3.0625 -7.1875 3.0625 C-7.1875 2.4025 -7.1875 1.7425 -7.1875 1.0625 C-4.43671116 0.14557039 -2.82801087 -0.04636083 0 0 Z " fill="#808081" transform="translate(239.1875,329.9375)"/>
<path d="M0 0 C0.33 0 0.66 0 1 0 C1.05402274 2.10388569 1.09280256 4.20816714 1.125 6.3125 C1.14820313 7.48425781 1.17140625 8.65601563 1.1953125 9.86328125 C1 13 1 13 -1 16 C-2.24327778 10.15659442 -1.57300962 5.73303505 0 0 Z " fill="#939394" transform="translate(147,152)"/>
<path d="M0 0 C1.32 0 2.64 0 4 0 C4 2.64 4 5.28 4 8 C2.68 8.33 1.36 8.66 0 9 C0 8.34 0 7.68 0 7 C0.66 6.67 1.32 6.34 2 6 C2 4.68 2 3.36 2 2 C1.34 1.34 0.68 0.68 0 0 Z " fill="#89898A" transform="translate(127,284)"/>
</svg>
