<?xml version="1.0" encoding="UTF-8"?>
<svg id="Capa_1" data-name="Capa 1" xmlns="http://www.w3.org/2000/svg" viewBox="0 0 137.2 137.2">
  <defs>
    <style>
      .cls-1 {
        fill: none;
      }

      .cls-2 {
        fill: #010101;
      }
    </style>
  </defs>
  <rect class="cls-1" width="137.2" height="137.2"/>
  <g id="H47">
    <g>
      <g>
        <rect class="cls-2" x="68.6" y="55.62" width="4.47" height="9.38"/>
        <path class="cls-2" d="m68.6,34.31h.81s2.34-.02,3.49,2.13,1.85,9.05,1.85,9.05c0,0,.16,2.11.16,3.98v3.89h-6.32v-19.05Z"/>
        <path class="cls-2" d="m74.38,49.78s1.99-.02,2.81,2.84c.02,4.57,0,38.37,0,38.37,0,0,.06,1.66-1.4,2.55.16,1.55-.76,2.18-.76,2.18l-.23.4s.12,3.75-1.34,6.56-3.24,3.19-4.87,3.19v-55.99l5.78-.09Z"/>
        <path class="cls-2" d="m75.23,95.18l.26,1.15s.06.28-1.01.22.75-1.37.75-1.37Z"/>
        <rect class="cls-2" x="72.32" y="31.43" width=".19" height="7.38" rx=".09" ry=".09"/>
        <rect class="cls-2" x="72.2" y="32.36" width=".43" height="7.38" rx=".09" ry=".09"/>
      </g>
      <g>
        <rect class="cls-2" x="64.13" y="55.62" width="4.47" height="9.38"/>
        <path class="cls-2" d="m68.6,34.31h-.81s-2.34-.02-3.49,2.13-1.85,9.05-1.85,9.05c0,0-.16,2.11-.16,3.98v3.89h6.32v-19.05Z"/>
        <path class="cls-2" d="m62.82,49.78s-1.99-.02-2.81,2.84c-.02,4.57,0,38.37,0,38.37,0,0-.06,1.66,1.4,2.55-.16,1.55.76,2.18.76,2.18l.23.4s-.12,3.75,1.34,6.56,3.24,3.19,4.87,3.19v-55.99l-5.78-.09Z"/>
        <path class="cls-2" d="m61.98,95.18l-.26,1.15s-.06.28,1.01.22-.75-1.37-.75-1.37Z"/>
        <rect class="cls-2" x="64.7" y="31.43" width=".19" height="7.38" rx=".09" ry=".09"/>
        <rect class="cls-2" x="64.57" y="32.36" width=".43" height="7.38" rx=".09" ry=".09"/>
      </g>
    </g>
    <path class="cls-2" d="m63.29,43.1s-1.22.47-1.22.74v7.42l3.09-.35-1.88-7.8Z"/>
  </g>
  <g id="H47_02" data-name="H47 02">
    <polygon class="cls-2" points="90.47 78.2 72.65 52.87 72.44 49.19 70.45 45.51 70.77 45.26 74.38 49.19 93.36 76.16 90.47 78.2"/>
    <polygon class="cls-2" points="88.68 5.53 75.66 33.64 72.58 35.65 70.39 39.22 70.01 39.06 71.61 33.97 85.47 4.05 88.68 5.53"/>
    <polygon class="cls-2" points="26.65 43.42 57.5 40.64 60.78 42.3 64.97 42.42 65.03 42.83 59.81 43.98 26.97 46.94 26.65 43.42"/>
  </g>
  <g id="H47_01" data-name="H47 01">
    <polygon class="cls-2" points="110.53 98.25 79.71 95.2 76.41 96.83 72.22 96.91 72.16 97.32 77.36 98.52 110.18 101.77 110.53 98.25"/>
    <polygon class="cls-2" points="46.4 132.47 64.45 107.3 64.69 103.62 66.72 99.95 66.39 99.7 62.75 103.61 43.53 130.41 46.4 132.47"/>
    <polygon class="cls-2" points="48.83 59.82 61.61 88.04 64.67 90.08 66.83 93.67 67.21 93.52 65.66 88.41 52.06 58.36 48.83 59.82"/>
  </g>
</svg>