<?xml version="1.0" encoding="UTF-8"?>
<svg id="Capa_1" data-name="Capa 1" xmlns="http://www.w3.org/2000/svg" viewBox="0 0 137.2 137.2">
  <defs>
    <style>
      .cls-1 {
        fill: #1e1e1c;
      }

      .cls-2 {
        fill: none;
      }

      .cls-3 {
        fill: #010101;
      }
    </style>
  </defs>
  <rect class="cls-2" width="137.2" height="137.2"/>
  <g>
    <g>
      <path class="cls-3" d="m68.6,18.02c.5,0,2.52-.19,2.62,1.12.1,1.31,0,1.91,0,1.91,0,0,.97.72,1.25,2.31,1.53.72,2.62,2.59,2.62,3.69v27.31h-5.38v-5h-1.12v-31.34"/>
      <rect class="cls-3" x="74.23" y="45.38" width="2.41" height="4.34" rx=".58" ry=".58"/>
      <path class="cls-3" d="m75.44,49.44s.22,2.59.97,3.86c.64,1.08-2.86,2.05-2.86,2.05l.44-6.38,1.45.47Z"/>
      <polygon class="cls-3" points="75.19 52.73 87.87 53.11 87.87 57.7 86.88 57.7 86.88 59.27 75.3 60.98 75.19 52.73"/>
      <path class="cls-3" d="m79.03,59.83v8.77s.05,3.63-.47,4.59c-.45.09-4.79,1.57-4.79,1.57l-.52.19-.06.36h-4.59v-27.68l6.41,6.01,3.46,2.85.55,3.34Z"/>
      <path class="cls-3" d="m73.23,74.83s-.18,7.5-.73,8.2-3.9,1.64-3.9,1.64v-10.67l4.63.83Z"/>
      <path class="cls-3" d="m72.72,80.79s-.09,6.59-.48,10.34-1.02,14.55-1.02,16.83-.28,11.66-.53,12.78-2.09.94-2.09.94v-42.22l4.12,1.33Z"/>
      <path class="cls-3" d="m70.22,118.75l10.73.28s.59-.02.61,1.59c.02,1.62-.33,3.73-.59,4.08s-10.71,1.76-11.11,1.85c-.11-.22-.16-.9-.16-.9h-1.11v-4.46l1.62-2.44Z"/>
      <path class="cls-3" d="m88.43,62.27h0c.31,0,.56-.25.56-.56v-11.66c0-.18-.14-.32-.32-.32h-.47c-.18,0-.33.15-.33.33v11.65c0,.31.25.56.56.56Z"/>
      <rect class="cls-3" x="88.67" y="50.94" width=".7" height="2.88" rx=".2" ry=".2"/>
      <ellipse class="cls-3" cx="87.11" cy="48.97" rx=".75" ry="2.48"/>
      <rect class="cls-3" x="86.36" y="48.97" width="1.51" height="5.22"/>
      <ellipse class="cls-3" cx="84.93" cy="48.97" rx=".75" ry="2.48"/>
      <rect class="cls-3" x="84.17" y="48.97" width="1.51" height="5.22"/>
      <ellipse class="cls-3" cx="81.77" cy="48.6" rx=".75" ry="2.48"/>
      <rect class="cls-3" x="81.02" y="48.6" width="1.51" height="5.22"/>
      <ellipse class="cls-3" cx="79.33" cy="48.6" rx=".75" ry="2.48"/>
      <rect class="cls-3" x="78.58" y="48.6" width="1.51" height="5.22"/>
      <polygon class="cls-3" points="86.58 49.85 85.03 49.85 85.03 54.19 87.22 54.19 86.58 49.85"/>
      <polygon class="cls-3" points="81.28 49.55 79.12 49.55 79.12 53.82 81.36 53.82 81.28 49.55"/>
    </g>
    <g>
      <path class="cls-3" d="m68.6,18.02c-.5,0-2.52-.19-2.62,1.12-.1,1.31,0,1.91,0,1.91,0,0-.97.72-1.25,2.31-1.53.72-2.62,2.59-2.62,3.69v27.31h5.38v-5h1.12v-31.34"/>
      <rect class="cls-3" x="60.56" y="45.38" width="2.41" height="4.34" rx=".58" ry=".58"/>
      <path class="cls-3" d="m61.77,49.44s-.22,2.59-.97,3.86c-.64,1.08,2.86,2.05,2.86,2.05l-.44-6.38-1.45.47Z"/>
      <polygon class="cls-3" points="62.02 52.73 49.34 53.11 49.34 57.7 50.32 57.7 50.32 59.27 61.9 60.98 62.02 52.73"/>
      <path class="cls-3" d="m58.17,59.83v8.77s-.05,3.63.47,4.59c.45.09,4.79,1.57,4.79,1.57l.52.19.06.36h4.59v-27.68l-6.41,6.01-3.46,2.85-.55,3.34Z"/>
      <path class="cls-3" d="m63.97,74.83s.18,7.5.73,8.2,3.9,1.64,3.9,1.64v-10.67l-4.63.83Z"/>
      <path class="cls-3" d="m64.48,80.79s.09,6.59.48,10.34,1.02,14.55,1.02,16.83.28,11.66.53,12.78,2.09.94,2.09.94v-42.22l-4.12,1.33Z"/>
      <path class="cls-3" d="m66.98,118.75l-10.73.28s-.59-.02-.61,1.59c-.02,1.62.33,3.73.59,4.08s10.71,1.76,11.11,1.85c.11-.22.16-.9.16-.9h1.11v-4.46l-1.62-2.44Z"/>
      <path class="cls-3" d="m48.77,62.27h0c-.31,0-.56-.25-.56-.56v-11.66c0-.18.14-.32.32-.32h.47c.18,0,.33.15.33.33v11.65c0,.31-.25.56-.56.56Z"/>
      <rect class="cls-3" x="47.83" y="50.94" width=".7" height="2.88" rx=".2" ry=".2"/>
      <ellipse class="cls-3" cx="50.09" cy="48.97" rx=".75" ry="2.48"/>
      <rect class="cls-3" x="49.34" y="48.97" width="1.51" height="5.22"/>
      <ellipse class="cls-3" cx="52.28" cy="48.97" rx=".75" ry="2.48"/>
      <rect class="cls-3" x="51.52" y="48.97" width="1.51" height="5.22"/>
      <ellipse class="cls-3" cx="55.43" cy="48.6" rx=".75" ry="2.48"/>
      <rect class="cls-3" x="54.68" y="48.6" width="1.51" height="5.22"/>
      <ellipse class="cls-3" cx="57.87" cy="48.6" rx=".75" ry="2.48"/>
      <rect class="cls-3" x="57.12" y="48.6" width="1.51" height="5.22"/>
      <polygon class="cls-3" points="50.63 49.85 52.17 49.85 52.17 54.19 49.98 54.19 50.63 49.85"/>
      <polygon class="cls-3" points="55.92 49.55 58.08 49.55 58.08 53.82 55.84 53.82 55.92 49.55"/>
    </g>
  </g>
  <path class="cls-1" d="m70.7,20.77s1.12-.38,1.62.53.22,1.47-.22,1.34-1.41-1.88-1.41-1.88Z"/>
  <g>
    <polygon class="cls-3" points="105.89 87.76 76.94 59.8 74.27 58.35 73.08 59.59 74.84 61.29 77.57 65.99 103.12 90.66 104.73 93.91 107.55 90.73 105.89 87.76"/>
    <polygon class="cls-3" points="102.71 16.36 74.76 45.31 73.31 47.98 74.55 49.17 76.24 47.41 80.94 44.67 105.61 19.12 108.87 17.51 105.68 14.7 102.71 16.36"/>
    <polygon class="cls-3" points="31.32 19.53 60.27 47.49 62.93 48.94 64.13 47.7 62.37 46 59.63 41.3 34.08 16.63 32.47 13.38 29.66 16.56 31.32 19.53"/>
    <polygon class="cls-3" points="34.49 90.93 62.44 61.98 63.89 59.31 62.66 58.12 60.96 59.88 56.26 62.62 31.59 88.17 28.33 89.78 31.52 92.59 34.49 90.93"/>
  </g>
</svg>