<?xml version="1.0" encoding="UTF-8"?>
<svg version="1.1" xmlns="http://www.w3.org/2000/svg" width="672" height="218">
<path d="M0 0 C0.66 0.33 1.32 0.66 2 1 C2.02469575 5.09341499 2.04285793 9.18680121 2.05493164 13.28027344 C2.0599643 14.67318477 2.06679098 16.0660908 2.07543945 17.45898438 C2.08755152 19.45961246 2.09270412 21.46027888 2.09765625 23.4609375 C2.10289307 24.66540527 2.10812988 25.86987305 2.11352539 27.11083984 C2 30 2 30 1 32 C0.34 32 -0.32 32 -1 32 C-1.5625 30.0625 -1.5625 30.0625 -2 28 C-1.67 27.67 -1.34 27.34 -1 27 C-323.74 26.505 -323.74 26.505 -653 26 C-655.14285714 15.28571429 -655.14285714 15.28571429 -653 11 C-651.25626922 11.00056958 -651.25626922 11.00056958 -649.47731155 11.00115067 C-598.01413637 11.0178931 -546.55096098 11.03330994 -495.08778381 11.04234314 C-493.91104769 11.04255023 -493.91104769 11.04255023 -492.71053913 11.04276149 C-475.6435931 11.04575744 -458.57664705 11.04852718 -441.50970095 11.05106533 C-433.13480388 11.05231219 -424.75990682 11.05360881 -416.38500977 11.05493164 C-415.13519464 11.05512778 -415.13519464 11.05512778 -413.86013072 11.05532788 C-387.06471811 11.05955616 -360.26930767 11.06704199 -333.47389636 11.07629722 C-305.83750018 11.08582513 -278.2011052 11.09190713 -250.56470742 11.09391499 C-246.62218961 11.09420296 -242.67967181 11.09452859 -238.73715401 11.09487724 C-237.96153979 11.09494467 -237.18592557 11.09501209 -236.38680789 11.09508156 C-224.8692741 11.09617233 -213.35174376 11.1001507 -201.83421135 11.10573006 C-184.47012112 11.11398372 -167.10603534 11.11772981 -149.74194336 11.11352539 C-149.05909818 11.113369 -148.376253 11.11321261 -147.67271554 11.11305148 C-98.77665448 11.10087833 -49.89026181 10.75556343 -1 10 C-1.01160156 9.36191406 -1.02320313 8.72382812 -1.03515625 8.06640625 C-1.04869141 6.82697266 -1.04869141 6.82697266 -1.0625 5.5625 C-1.07410156 4.73878906 -1.08570313 3.91507812 -1.09765625 3.06640625 C-1 1 -1 1 0 0 Z " fill="#EEE35B" transform="translate(661,99)"/>
<path d="M0 0 C0.81843034 0.00015598 1.63686067 0.00031196 2.48009193 0.00047267 C3.4226609 -0.00177462 4.36522988 -0.00402192 5.33636155 -0.00633731 C6.91109695 -0.00239679 6.91109695 -0.00239679 8.51764518 0.00162334 C9.62637216 0.00046949 10.73509914 -0.00068435 11.87742391 -0.00187316 C15.64301505 -0.00454852 19.40856459 -0.00001015 23.17415362 0.00441665 C25.88088626 0.00453715 28.58761764 0.00314898 31.29434991 0.00182748 C37.20526299 -0.00025213 43.11616604 0.00140748 49.02707797 0.00546569 C57.81648348 0.01148347 66.60588262 0.0118031 75.39528982 0.0109237 C90.17814769 0.00960759 104.9610011 0.01295957 119.74385768 0.01894111 C134.387864 0.02485132 149.03186846 0.02870568 163.67587596 0.02979392 C164.58525071 0.02986266 165.49462545 0.0299314 166.43155701 0.03000222 C171.04951752 0.03034054 175.66747802 0.03064193 180.28543853 0.0309291 C213.02312001 0.03303139 245.76079907 0.039774 278.49847918 0.04923171 C310.30935145 0.05841109 342.12022305 0.06549718 373.93109637 0.06973952 C374.91106552 0.06987105 375.89103468 0.07000258 376.90069986 0.07013809 C386.74165059 0.07145657 396.58260132 0.07273239 406.42355205 0.07397695 C426.4720009 0.07651339 446.52044971 0.07933464 466.5688985 0.08232803 C467.95169366 0.08253396 467.95169366 0.08253396 469.36242408 0.08274406 C530.95815114 0.09194995 592.55387685 0.10779576 654.14960223 0.12467116 C654.9566553 5.58779961 655.37551278 8.88723458 653.14960223 14.12467116 C646.75618035 15.07574907 640.54006157 15.26541095 634.08198481 15.25051231 C632.43300337 15.25269247 632.43300337 15.25269247 630.75070917 15.25491667 C627.0592476 15.25857222 623.36782743 15.25509228 619.67636615 15.25165481 C617.00626483 15.25280679 614.33616639 15.2543538 611.66606587 15.25638205 C605.85682722 15.25999227 600.04759787 15.25988507 594.23835879 15.25733489 C585.60014433 15.25355311 576.96193771 15.25548575 568.32372331 15.2585432 C552.89777091 15.26380989 537.47182264 15.26335226 522.04586985 15.26046429 C508.55020776 15.25795003 495.05454719 15.25729143 481.55888491 15.25848693 C480.66414506 15.25856332 479.76940521 15.2586397 478.84755203 15.2587184 C475.21569708 15.25902973 471.58384213 15.25934813 467.95198718 15.25967816 C433.88010905 15.2627375 399.80823356 15.25996287 365.73635584 15.25458127 C335.444904 15.24983318 305.15345637 15.2502623 274.86200457 15.25504226 C240.84390425 15.26039232 206.82580626 15.26252299 172.80770558 15.25942999 C169.1842787 15.25910926 165.56085183 15.25879643 161.93742495 15.25848693 C160.59911241 15.25836831 160.59911241 15.25836831 159.23376325 15.2582473 C145.74021033 15.25710818 132.2466591 15.25844312 118.75310641 15.26096648 C103.42034057 15.26381946 88.08757952 15.26312424 72.75481428 15.25768574 C64.16576962 15.25474002 55.57673533 15.25457134 46.98769093 15.25833191 C41.26020507 15.26056387 35.53272757 15.25919776 29.80524296 15.25482715 C26.53573876 15.25243436 23.26625956 15.25220549 19.99675525 15.25523313 C16.48520737 15.25823754 12.97371756 15.25519213 9.4621728 15.25051231 C8.43330645 15.25285347 7.40444011 15.25519464 6.34439599 15.25760675 C5.41596369 15.25510323 4.4875314 15.25259971 3.53096479 15.25002033 C2.32495581 15.24991869 2.32495581 15.24991869 1.09458301 15.249815 C-0.85039777 15.12467116 -0.85039777 15.12467116 -2.85039777 14.12467116 C-2.87725715 11.9789048 -2.89672865 9.83304471 -2.91289777 7.68717116 C-2.92449933 6.49221023 -2.93610089 5.29724929 -2.94805402 4.06607741 C-2.81936472 0.18995564 -2.81936472 0.18995564 0 0 Z " fill="#F4E95C" transform="translate(9.850397769361734,131.87532883509994)"/>
<path d="M0 0 C0.66 0 1.32 0 2 0 C1.98839844 0.83402344 1.97679687 1.66804688 1.96484375 2.52734375 C1.91890121 8.2570345 2.010906 13.79054397 2.78515625 19.46484375 C3.18983149 24.24001161 2.95963289 29.05306986 2.83984375 33.83984375 C2.65095413 37.09789434 2.65095413 37.09789434 5 39 C5.23046875 41.78515625 5.23046875 41.78515625 5.1875 45.0625 C5.18105469 46.14660156 5.17460938 47.23070312 5.16796875 48.34765625 C5 51 5 51 4 52 C3.86899078 54.88220285 3.86051437 57.44205747 4.5625 60.25 C5.2417626 64.51965065 4.70868461 68.74789237 4 73 C2.20011601 74.79988399 -0.24999876 74.11993004 -2.64555359 74.12442017 C-3.45547256 74.12082489 -4.26539154 74.11722961 -5.09985352 74.11352539 C-5.94856018 74.11367142 -6.79726685 74.11381744 -7.67169189 74.1139679 C-10.49078891 74.11326848 -13.30982071 74.10547478 -16.12890625 74.09765625 C-18.07803817 74.09579217 -20.02717055 74.09436822 -21.9763031 74.09336853 C-27.11706832 74.08954255 -32.25780547 74.07971159 -37.39855957 74.06866455 C-42.64005148 74.05845215 -47.8815479 74.05387128 -53.12304688 74.04882812 C-63.41537694 74.03808939 -73.70768614 74.02101201 -84 74 C-84 69.38 -84 64.76 -84 60 C-81.0462593 58.52312965 -78.03691741 58.82119041 -74.79638672 58.79467773 C-74.0548233 58.78477814 -73.31325989 58.77487854 -72.54922485 58.76467896 C-70.09274512 58.73303637 -67.63624603 58.70829569 -65.1796875 58.68359375 C-63.478602 58.6630266 -61.77752164 58.64203019 -60.07644653 58.62062073 C-55.59499264 58.56537536 -51.11349244 58.51597697 -46.63195801 58.46777344 C-42.06058623 58.4175764 -37.48928187 58.36188096 -32.91796875 58.30664062 C-23.94537006 58.19902891 -14.97271289 58.09759064 -6 58 C-6.66 57.67 -7.32 57.34 -8 57 C-8 55.68 -8 54.36 -8 53 C-8.69612396 53.07318451 -9.39224792 53.14636902 -10.10946655 53.22177124 C-18.3247468 54.00517041 -26.41814084 54.06706445 -34.6640625 53.9140625 C-36.03216967 53.89222746 -37.40028309 53.87078107 -38.7684021 53.84970093 C-41.60723653 53.80464693 -44.4459588 53.75546639 -47.28466797 53.703125 C-50.92504814 53.63626968 -54.56550576 53.57923178 -58.20609474 53.52509499 C-61.01820292 53.48235159 -63.83021644 53.43491791 -66.64222336 53.38599777 C-68.63755074 53.35201404 -70.63293934 53.32168855 -72.62832642 53.29141235 C-73.83072968 53.26823944 -75.03313293 53.24506653 -76.27197266 53.22119141 C-77.33276031 53.20263092 -78.39354797 53.18407043 -79.48648071 53.16494751 C-82 53 -82 53 -84 52 C-84 47.38 -84 42.76 -84 38 C-56.61 37.67 -29.22 37.34 -1 37 C-1.99 34.69 -2.98 32.38 -4 30 C-4.36328125 26.39453125 -4.36328125 26.39453125 -4.3125 22.8125 C-4.30863281 21.62269531 -4.30476562 20.43289062 -4.30078125 19.20703125 C-4.02066267 16.22031237 -3.56537482 14.51333089 -2 12 C-1.34 12 -0.68 12 0 12 C0 8.04 0 4.08 0 0 Z " fill="#F0E55A" transform="translate(660,24)"/>
<path d="M0 0 C1.22390197 0.00023397 1.22390197 0.00023397 2.47252923 0.00047267 C3.41223137 -0.00177462 4.35193351 -0.00402192 5.32011148 -0.00633731 C6.89003384 -0.00239679 6.89003384 -0.00239679 8.4916718 0.00162334 C9.59702203 0.00046949 10.70237227 -0.00068435 11.84121796 -0.00187316 C15.59532234 -0.00454851 19.34938498 -0.00001016 23.10348725 0.00441665 C25.80197086 0.00398113 28.50045168 0.00314898 31.19893473 0.00182748 C37.09182307 -0.00025212 42.98470134 0.00140747 48.87758851 0.00546569 C57.64019151 0.01148348 66.40278813 0.0118031 75.16539283 0.0109237 C89.90317287 0.00960759 104.64094845 0.01295956 119.37872719 0.01894111 C133.97807612 0.02485133 148.57742319 0.02870568 163.17677331 0.02979392 C164.53667639 0.02989703 164.53667639 0.02989703 165.92405226 0.03000222 C170.52793267 0.03034054 175.13181309 0.03064193 179.7356935 0.0309291 C212.37354639 0.03303139 245.01139684 0.03977399 277.64924836 0.04923171 C309.36311541 0.0584111 341.0769818 0.06549718 372.79084992 0.06973952 C373.76783096 0.06987105 374.744812 0.07000258 375.75139853 0.07013809 C385.56234245 0.07145657 395.37328638 0.07273239 405.18423032 0.07397695 C425.17154736 0.07651339 445.15886436 0.07933464 465.14618134 0.08232803 C466.06523381 0.08246532 466.98428627 0.08260261 467.93118881 0.08274406 C529.33908142 0.09194995 590.74697267 0.10779576 652.15486359 0.12467116 C652.15486359 0.45467116 652.15486359 0.78467116 652.15486359 1.12467116 C646.52885864 2.31732517 641.03281509 2.2624202 635.31213784 2.24771899 C634.212837 2.24887284 633.11353616 2.25002668 631.98092317 2.25121549 C628.27750519 2.25387368 624.57413021 2.24936649 620.87071442 2.24492568 C618.19678913 2.24536155 615.52286665 2.24619448 612.84894192 2.24751485 C607.02520387 2.24958858 601.20147605 2.24794482 595.37773919 2.24387664 C586.71804164 2.2378442 578.05835054 2.2375406 569.39865128 2.23841863 C554.83200596 2.23973293 540.26536517 2.23638958 525.69872117 2.23040122 C511.27376112 2.22448629 496.84880296 2.2206357 482.42384171 2.21954841 C481.52728778 2.21947967 480.63073385 2.21941093 479.70701162 2.21934011 C475.15395632 2.21900178 470.60090101 2.21870039 466.0478457 2.21841323 C433.78989726 2.21631224 401.53195127 2.20957327 369.27400422 2.20011062 C337.93383508 2.19092779 306.59366662 2.18384339 275.2534964 2.17960281 C274.28763139 2.17947128 273.32176637 2.17933975 272.32663271 2.17920424 C262.62711069 2.17788573 252.92758865 2.17660992 243.22806662 2.17536538 C223.46862936 2.1728291 203.70919214 2.17000785 183.94975495 2.1670143 C183.04122736 2.16687701 182.13269976 2.16673972 181.19664103 2.16659827 C120.51604752 2.157396 59.8354554 2.14152983 -0.84513641 2.12467116 C-0.51513641 5.42467116 -0.18513641 8.72467116 0.15486359 12.12467116 C214.98486359 12.12467116 429.81486359 12.12467116 651.15486359 12.12467116 C651.48486359 12.78467116 651.81486359 13.44467116 652.15486359 14.12467116 C646.14597681 15.17482047 640.30152269 15.26452835 634.210294 15.25051231 C632.56304333 15.25269247 632.56304333 15.25269247 630.88251486 15.25491667 C627.18895674 15.25857692 623.49543987 15.2550901 619.80188202 15.25165481 C617.13264376 15.25280661 614.46340838 15.25435345 611.79417091 15.25638205 C605.98371953 15.25999431 600.17327744 15.25988382 594.36282563 15.25733489 C585.72279183 15.25355496 577.08276588 15.25548479 568.44273213 15.2585432 C553.01373958 15.26381141 537.58475117 15.26335164 522.15575822 15.26046429 C508.65684621 15.25795045 495.15793572 15.25729123 481.65902352 15.25848693 C480.31681063 15.25860151 480.31681063 15.25860151 478.94748233 15.2587184 C475.31537606 15.25902973 471.6832698 15.25934813 468.05116353 15.25967816 C433.97284115 15.26273789 399.8945214 15.25996231 365.81619942 15.25458127 C335.51819739 15.24983355 305.22019957 15.25026191 274.92219758 15.25504226 C240.89934349 15.26039234 206.87649173 15.26252295 172.85363727 15.25942999 C169.22963313 15.25910926 165.60562898 15.25879642 161.98162484 15.25848693 C160.64309255 15.25836831 160.64309255 15.25836831 159.2775192 15.2582473 C145.78132317 15.25710815 132.28512883 15.25844319 118.78893303 15.26096648 C103.45248317 15.2638195 88.1160381 15.26312417 72.77958884 15.25768574 C64.18832751 15.25474001 55.59707656 15.25457136 47.0058155 15.25833191 C41.27681662 15.26056387 35.54782612 15.25919775 29.81882849 15.25482715 C26.54844249 15.25243435 23.2780815 15.2522055 20.0076954 15.25523313 C16.4951857 15.25823755 12.98273405 15.25519213 9.47022748 15.25051231 C8.44107528 15.25285347 7.41192309 15.25519464 6.35158446 15.25760675 C5.42289594 15.25510323 4.49420742 15.25259971 3.53737682 15.25002033 C2.73314709 15.24995257 1.92891736 15.24988481 1.10031704 15.249815 C-0.84513641 15.12467116 -0.84513641 15.12467116 -2.84513641 14.12467116 C-2.87199579 11.9789048 -2.89146729 9.83304471 -2.90763641 7.68717116 C-2.91923797 6.49221023 -2.93083953 5.29724929 -2.94279266 4.06607741 C-2.81410955 0.19014221 -2.81410955 0.19014221 0 0 Z " fill="#96914D" transform="translate(9.845136407762766,131.87532883509994)"/>
<path d="M0 0 C1.13072182 0.00539291 1.13072182 0.00539291 2.2842865 0.01089478 C3.46956436 0.01067574 3.46956436 0.01067574 4.67878723 0.01045227 C7.30309245 0.0111516 9.92732759 0.01894489 12.55162048 0.02676392 C14.36623089 0.02862803 16.18084179 0.03005196 17.99545288 0.03105164 C22.78111653 0.03487737 27.56675003 0.04470813 32.35240173 0.05575562 C37.23195488 0.06596854 42.11151287 0.070549 46.99107361 0.07559204 C56.57246922 0.08633035 66.15383451 0.1039276 75.73521423 0.12442017 C75.73521423 5.07442017 75.73521423 10.02442017 75.73521423 15.12442017 C52.96521423 15.12442017 30.19521423 15.12442017 6.73521423 15.12442017 C6.73521423 16.44442017 6.73521423 17.76442017 6.73521423 19.12442017 C26.20521423 19.12442017 45.67521423 19.12442017 65.73521423 19.12442017 C65.73521423 18.13442017 65.73521423 17.14442017 65.73521423 16.12442017 C67.71521423 16.12442017 69.69521423 16.12442017 71.73521423 16.12442017 C71.07521423 16.45442017 70.41521423 16.78442017 69.73521423 17.12442017 C69.73521423 18.11442017 69.73521423 19.10442017 69.73521423 20.12442017 C70.53958923 20.26879517 71.34396423 20.41317017 72.17271423 20.56192017 C74.73521423 21.12442017 74.73521423 21.12442017 75.73521423 22.12442017 C75.83414363 24.28922813 75.86492524 26.45735802 75.86021423 28.62442017 C75.86408142 30.40332642 75.86408142 30.40332642 75.86802673 32.21817017 C75.73521423 35.12442017 75.73521423 35.12442017 74.73521423 36.12442017 C72.28143183 36.22474086 69.85578047 36.26060197 67.401474 36.2538147 C66.63400848 36.25556702 65.86654297 36.25731934 65.07582092 36.25912476 C62.52606478 36.2635441 59.9763774 36.26060471 57.42662048 36.25723267 C55.6616413 36.25790575 53.89666221 36.25887581 52.13168335 36.26013184 C48.4268455 36.26160898 44.72203171 36.25945399 41.01719666 36.25479126 C36.26098747 36.24909812 31.50483476 36.25237024 26.74862766 36.25836372 C23.10188367 36.26197245 19.45515313 36.26082924 15.80840874 36.25823593 C14.05446809 36.25756731 12.30052623 36.25839283 10.54658699 36.26071548 C8.09714131 36.26324664 5.64778779 36.25939465 3.198349 36.2538147 C2.46840225 36.25583893 1.73845551 36.25786316 0.98638916 36.25994873 C-4.03625869 36.2386837 -4.03625869 36.2386837 -6.26478577 35.12442017 C-6.28943767 30.30061215 -6.30762269 25.4768405 -6.31971741 20.65298462 C-6.32475751 19.01072552 -6.33158955 17.36847093 -6.34022522 15.72622681 C-6.35230502 13.37066538 -6.35801715 11.01516308 -6.36244202 8.65957642 C-6.3676033 7.92102921 -6.37276459 7.18248199 -6.37808228 6.42155457 C-6.37827827 4.65543929 -6.32673295 2.88944871 -6.26478577 1.12442017 C-4.53337083 -0.60699477 -2.30728533 0.00464438 0 0 Z " fill="#EFE45E" transform="translate(13.264785766601563,61.875579833984375)"/>
<path d="M0 0 C0.72074203 -0.00189835 1.44148407 -0.00379669 2.18406677 -0.00575256 C4.56007859 -0.00944958 6.93578306 0.00122588 9.31176758 0.01245117 C10.96275293 0.01364338 12.61373897 0.01409605 14.26472473 0.01383972 C17.7204718 0.01540257 21.17611499 0.02367912 24.63183594 0.03710938 C29.0708224 0.05413887 33.50969514 0.05792248 37.94871044 0.05716419 C41.35522048 0.05743545 44.76170545 0.06290889 48.16820717 0.07016563 C49.80574669 0.07335632 51.44328906 0.07532064 53.08083153 0.07605934 C55.36253123 0.07821644 57.6441078 0.08694568 59.92578125 0.09765625 C61.87625618 0.10337395 61.87625618 0.10337395 63.86613464 0.10920715 C66.76879883 0.24291992 66.76879883 0.24291992 67.76879883 1.24291992 C67.43879883 5.86291992 67.10879883 10.48291992 66.76879883 15.24291992 C41.35879883 15.24291992 15.94879883 15.24291992 -10.23120117 15.24291992 C-11.16611301 10.56836075 -11.3109213 6.94640722 -11.23120117 2.24291992 C-7.53006817 -0.11161691 -4.31895857 -0.00472448 0 0 Z " fill="#EFE45B" transform="translate(307.231201171875,82.757080078125)"/>
<path d="M0 0 C25.74 0 51.48 0 78 0 C78 4.62 78 9.24 78 14 C75.04022416 15.47988792 72.04021991 15.13010399 68.79638672 15.11352539 C68.0548233 15.11367142 67.31325989 15.11381744 66.54922485 15.1139679 C64.09268287 15.11327 61.63621627 15.10548334 59.1796875 15.09765625 C57.4786076 15.09579163 55.77752716 15.09436794 54.07644653 15.09336853 C49.59493533 15.08954678 45.11345643 15.0797194 40.63195801 15.06866455 C36.0606327 15.05844308 31.48930219 15.05386933 26.91796875 15.04882812 C17.94529829 15.03809685 8.97265183 15.02102451 0 15 C-1 12 -1 12 0 0 Z " fill="#D7CE58" transform="translate(297,62)"/>
<path d="M0 0 C0.66 0.33 1.32 0.66 2 1 C1.67 4.96 1.34 8.92 1 13 C-214.49 13 -429.98 13 -652 13 C-652 12.34 -652 11.68 -652 11 C-650.25944317 11.00056958 -650.25944317 11.00056958 -648.48372358 11.00115067 C-597.11374797 11.01789326 -545.74377216 11.03331007 -494.37379456 11.04234314 C-493.19917304 11.04255023 -493.19917304 11.04255023 -492.0008218 11.04276149 C-474.96450898 11.04575744 -457.92819612 11.04852718 -440.89188322 11.05106533 C-432.53200743 11.05231219 -424.17213164 11.05360881 -415.81225586 11.05493164 C-414.98054062 11.0550624 -414.14882538 11.05519316 -413.29190664 11.05532788 C-386.54499584 11.05955609 -359.79808721 11.06704187 -333.05117771 11.07629722 C-305.46459978 11.08582532 -277.87802306 11.09190717 -250.29144352 11.09391499 C-246.35595301 11.09420296 -242.4204625 11.09452859 -238.484972 11.09487724 C-237.71074093 11.09494467 -236.93650986 11.09501209 -236.13881724 11.09508156 C-224.64221503 11.09617229 -213.14561627 11.10015054 -201.64901543 11.10573006 C-184.31605822 11.11398414 -166.98310545 11.11772956 -149.65014648 11.11352539 C-148.9684858 11.113369 -148.28682511 11.11321261 -147.58450804 11.11305148 C-98.71785249 11.10086454 -49.86086339 10.75464894 -1 10 C-1.01160156 9.36191406 -1.02320313 8.72382812 -1.03515625 8.06640625 C-1.04869141 6.82697266 -1.04869141 6.82697266 -1.0625 5.5625 C-1.07410156 4.73878906 -1.08570313 3.91507812 -1.09765625 3.06640625 C-1 1 -1 1 0 0 Z " fill="#5D5B46" transform="translate(661,99)"/>
<path d="M0 0 C1.02215355 -0.00262848 1.02215355 -0.00262848 2.06495667 -0.00531006 C4.32189465 -0.00971864 6.57875455 -0.00679441 8.83569336 -0.00341797 C10.39985672 -0.00409122 11.96401998 -0.00506142 13.52818298 -0.00631714 C16.80753576 -0.0077927 20.08686132 -0.00564381 23.36621094 -0.00097656 C27.57880598 0.00472535 31.79133738 0.00143791 36.00393009 -0.00454903 C39.23372379 -0.00815445 42.46350229 -0.00701622 45.69329643 -0.00442123 C47.24710536 -0.00375216 48.80091564 -0.00457972 50.35472298 -0.00690079 C52.52167571 -0.00942752 54.68852385 -0.00558669 56.85546875 0 C58.09075821 0.00079559 59.32604767 0.00159119 60.59877014 0.00241089 C63.36303711 0.12939453 63.36303711 0.12939453 64.36303711 1.12939453 C64.36303711 5.74939453 64.36303711 10.36939453 64.36303711 15.12939453 C40.27303711 15.12939453 16.18303711 15.12939453 -8.63696289 15.12939453 C-9.7238028 11.86887481 -9.62456797 9.89961321 -9.32446289 6.50439453 C-9.24583008 5.52212891 -9.16719727 4.53986328 -9.08618164 3.52783203 C-8.93793945 2.73634766 -8.78969727 1.94486328 -8.63696289 1.12939453 C-5.74325042 -0.31746171 -3.2328624 0.0020808 0 0 Z " fill="#CDC556" transform="translate(164.636962890625,82.87060546875)"/>
<path d="M0 0 C9.37035938 -0.02312504 18.74070901 -0.04091591 28.11109066 -0.05181217 C32.46168459 -0.05704065 36.81225907 -0.06413765 41.1628418 -0.07543945 C45.35790258 -0.08626959 49.55294459 -0.0922771 53.74801826 -0.09487724 C55.35206968 -0.09673126 56.95612003 -0.10035144 58.5601635 -0.10573006 C60.79916515 -0.11294219 63.0380883 -0.11399087 65.27709961 -0.11352539 C66.55395126 -0.115746 67.83080292 -0.11796661 69.14634705 -0.12025452 C72 0 72 0 73 1 C73.0989294 3.16480797 73.129711 5.33293785 73.125 7.5 C73.12886719 9.27890625 73.12886719 9.27890625 73.1328125 11.09375 C73 14 73 14 72 15 C69.79675026 15.09960152 67.5902651 15.12799757 65.38476562 15.12939453 C64.69372238 15.13114685 64.00267914 15.13289917 63.29069519 15.13470459 C60.99585493 15.13912254 58.70109111 15.13618533 56.40625 15.1328125 C54.81823715 15.13348556 53.23022441 15.13445559 51.64221191 15.13571167 C48.3098045 15.13718857 44.97742384 15.13503436 41.64501953 15.13037109 C37.3640149 15.1246738 33.08307295 15.12795285 28.80207062 15.13394356 C25.52166264 15.1375494 22.24126963 15.13641048 18.96086121 15.13381577 C17.3819325 15.13314656 15.80300246 15.1339747 14.22407532 15.13629532 C12.02109147 15.13882223 9.81821051 15.13498075 7.61523438 15.12939453 C5.73112854 15.12820114 5.73112854 15.12820114 3.80895996 15.12698364 C1 15 1 15 0 14 C-0.07271741 11.64686445 -0.08370868 9.29166332 -0.0625 6.9375 C-0.05347656 5.64714844 -0.04445312 4.35679688 -0.03515625 3.02734375 C-0.02355469 2.02832031 -0.01195312 1.02929688 0 0 Z " fill="#D2C957" transform="translate(156,62)"/>
<path d="M0 0 C8.4404066 -0.02256793 16.88078985 -0.04092492 25.32121849 -0.05181217 C29.2401987 -0.05703678 33.15915726 -0.0641268 37.078125 -0.07543945 C40.85822386 -0.08628329 44.63830186 -0.09228002 48.41841507 -0.09487724 C49.86254836 -0.09672878 51.30668047 -0.10034424 52.7508049 -0.10573006 C54.76924277 -0.1129602 56.78770153 -0.11340823 58.80615234 -0.11352539 C60.53156754 -0.11685631 60.53156754 -0.11685631 62.2918396 -0.12025452 C65 0 65 0 67 1 C68.61958034 5.85874101 68.23157217 10.07371134 67 15 C44.89 15 22.78 15 0 15 C0 10.05 0 5.1 0 0 Z " fill="#CDC556" transform="translate(442,83)"/>
<path d="M0 0 C22.11 0 44.22 0 67 0 C67 4.95 67 9.9 67 15 C44.89 15 22.78 15 0 15 C0 10.05 0 5.1 0 0 Z " fill="#CCC455" transform="translate(442,62)"/>
<path d="M0 0 C1.41542441 0.01495867 2.83079449 0.03563769 4.24607849 0.06056213 C5.01675659 0.07016968 5.78743469 0.07977722 6.58146667 0.0896759 C9.14090279 0.12278199 11.70017432 0.16306971 14.25950623 0.2033844 C16.02927054 0.22767419 17.79904103 0.25151831 19.56881714 0.27493286 C24.2361705 0.33788741 28.90341521 0.40692161 33.57066345 0.47718811 C38.32952407 0.54776915 43.08846198 0.61264723 47.84739685 0.67799377 C57.19188282 0.80715257 66.53626399 0.94272907 75.88059998 1.08229065 C75.88059998 5.04229065 75.88059998 9.00229065 75.88059998 13.08229065 C50.14059998 13.08229065 24.40059998 13.08229065 -2.11940002 13.08229065 C-2.44940002 14.07229065 -2.77940002 15.06229065 -3.11940002 16.08229065 C-4.552569 13.2159527 -4.25140364 10.70993564 -4.24440002 7.51979065 C-4.24697815 6.34287659 -4.24955627 5.16596252 -4.25221252 3.9533844 C-4.0672362 -0.04536853 -4.04214235 0.10663285 0 0 Z " fill="#EFE55E" transform="translate(11.119400024414063,61.91770935058594)"/>
<path d="M0 0 C27.72 0 55.44 0 84 0 C84 3.96 84 7.92 84 12 C56.28 11.67 28.56 11.34 0 11 C0 7.37 0 3.74 0 0 Z " fill="#F3E85B" transform="translate(578,85)"/>
<path d="M0 0 C0.66 0 1.32 0 2 0 C1.98839844 0.83402344 1.97679687 1.66804688 1.96484375 2.52734375 C1.87560366 9.96996266 1.87560366 9.96996266 2.5 17.375 C3.36060853 23.87198833 3.07056628 30.46085831 3 37 C3 37.99 3 38.98 3 40 C-25.05 39.67 -53.1 39.34 -82 39 C-82 42.96 -82 46.92 -82 51 C-54.28 51 -26.56 51 2 51 C2 54.3 2 57.6 2 61 C-25.72 61 -53.44 61 -82 61 C-82 64.63 -82 68.26 -82 72 C-54.61 72 -27.22 72 1 72 C1.33 72.66 1.66 73.32 2 74 C-26.38 74 -54.76 74 -84 74 C-84 69.38 -84 64.76 -84 60 C-81.0462593 58.52312965 -78.03691741 58.82119041 -74.79638672 58.79467773 C-74.0548233 58.78477814 -73.31325989 58.77487854 -72.54922485 58.76467896 C-70.09274512 58.73303637 -67.63624603 58.70829569 -65.1796875 58.68359375 C-63.478602 58.6630266 -61.77752164 58.64203019 -60.07644653 58.62062073 C-55.59499264 58.56537536 -51.11349244 58.51597697 -46.63195801 58.46777344 C-42.06058623 58.4175764 -37.48928187 58.36188096 -32.91796875 58.30664062 C-23.94537006 58.19902891 -14.97271289 58.09759064 -6 58 C-6.66 57.67 -7.32 57.34 -8 57 C-8 55.68 -8 54.36 -8 53 C-8.69612396 53.07318451 -9.39224792 53.14636902 -10.10946655 53.22177124 C-18.3247468 54.00517041 -26.41814084 54.06706445 -34.6640625 53.9140625 C-36.03216967 53.89222746 -37.40028309 53.87078107 -38.7684021 53.84970093 C-41.60723653 53.80464693 -44.4459588 53.75546639 -47.28466797 53.703125 C-50.92504814 53.63626968 -54.56550576 53.57923178 -58.20609474 53.52509499 C-61.01820292 53.48235159 -63.83021644 53.43491791 -66.64222336 53.38599777 C-68.63755074 53.35201404 -70.63293934 53.32168855 -72.62832642 53.29141235 C-73.83072968 53.26823944 -75.03313293 53.24506653 -76.27197266 53.22119141 C-77.33276031 53.20263092 -78.39354797 53.18407043 -79.48648071 53.16494751 C-82 53 -82 53 -84 52 C-84 47.38 -84 42.76 -84 38 C-56.61 37.67 -29.22 37.34 -1 37 C-1.99 34.69 -2.98 32.38 -4 30 C-4.36328125 26.39453125 -4.36328125 26.39453125 -4.3125 22.8125 C-4.30863281 21.62269531 -4.30476562 20.43289062 -4.30078125 19.20703125 C-4.02066267 16.22031237 -3.56537482 14.51333089 -2 12 C-1.34 12 -0.68 12 0 12 C0 8.04 0 4.08 0 0 Z " fill="#5B5946" transform="translate(660,24)"/>
<path d="M0 0 C26.4 0 52.8 0 80 0 C80 4.95 80 9.9 80 15 C57.23 15 34.46 15 11 15 C11 16.32 11 17.64 11 19 C30.47 19 49.94 19 70 19 C70 18.01 70 17.02 70 16 C71.98 16 73.96 16 76 16 C75.34 16.33 74.68 16.66 74 17 C74 17.99 74 18.98 74 20 C74.804375 20.144375 75.60875 20.28875 76.4375 20.4375 C79 21 79 21 80 22 C80.0989294 24.16480797 80.129711 26.33293785 80.125 28.5 C80.12886719 30.27890625 80.12886719 30.27890625 80.1328125 32.09375 C80 35 80 35 79 36 C76.53555943 36.09500548 74.09925374 36.12557985 71.63452148 36.11352539 C70.86384338 36.11367142 70.09316528 36.11381744 69.2991333 36.1139679 C66.73975861 36.1132686 64.1804558 36.10547545 61.62109375 36.09765625 C59.85132385 36.09579213 58.08155344 36.0943682 56.31178284 36.09336853 C51.64448634 36.08954288 46.97722077 36.0797122 42.30993652 36.06866455 C37.55102965 36.05845144 32.79211779 36.05387113 28.03320312 36.04882812 C18.68878847 36.03808997 9.3443968 36.02101299 0 36 C0 35.67 0 35.34 0 35 C25.74 35 51.48 35 78 35 C78 31.04 78 27.08 78 23 C51.6 23 25.2 23 -2 23 C-1.34 19.7 -0.68 16.4 0 13 C25.74 13 51.48 13 78 13 C78 9.04 78 5.08 78 1 C52.26 1 26.52 1 0 1 C0 0.67 0 0.34 0 0 Z " fill="#615F4B" transform="translate(9,62)"/>
<path d="M0 0 C215.82 0 431.64 0 654 0 C653.67 2.31 653.34 4.62 653 7 C652.34 7 651.68 7 651 7 C650.4375 5.0625 650.4375 5.0625 650 3 C650.33 2.67 650.66 2.34 651 2 C328.755 1.505 328.755 1.505 0 1 C0 0.67 0 0.34 0 0 Z " fill="#6D6B48" transform="translate(9,124)"/>
<path d="M0 0 C0.66 0 1.32 0 2 0 C1.98839844 0.83402344 1.97679687 1.66804688 1.96484375 2.52734375 C1.87560366 9.96996266 1.87560366 9.96996266 2.5 17.375 C3.36060853 23.87198833 3.07056628 30.46085831 3 37 C3 37.99 3 38.98 3 40 C-25.38 39.67 -53.76 39.34 -83 39 C-83 43.29 -83 47.58 -83 52 C-83.33 52 -83.66 52 -84 52 C-84 47.38 -84 42.76 -84 38 C-56.61 37.67 -29.22 37.34 -1 37 C-1.99 34.69 -2.98 32.38 -4 30 C-4.36328125 26.39453125 -4.36328125 26.39453125 -4.3125 22.8125 C-4.30863281 21.62269531 -4.30476562 20.43289062 -4.30078125 19.20703125 C-4.02066267 16.22031237 -3.56537482 14.51333089 -2 12 C-1.34 12 -0.68 12 0 12 C0 8.04 0 4.08 0 0 Z " fill="#676656" transform="translate(660,24)"/>
<path d="M0 0 C0.72074203 -0.00189835 1.44148407 -0.00379669 2.18406677 -0.00575256 C4.56007859 -0.00944958 6.93578306 0.00122588 9.31176758 0.01245117 C10.96275293 0.01364338 12.61373897 0.01409605 14.26472473 0.01383972 C17.7204718 0.01540257 21.17611499 0.02367912 24.63183594 0.03710938 C29.0708224 0.05413887 33.50969514 0.05792248 37.94871044 0.05716419 C41.35522048 0.05743545 44.76170545 0.06290889 48.16820717 0.07016563 C49.80574669 0.07335632 51.44328906 0.07532064 53.08083153 0.07605934 C55.36253123 0.07821644 57.6441078 0.08694568 59.92578125 0.09765625 C61.87625618 0.10337395 61.87625618 0.10337395 63.86613464 0.10920715 C66.76879883 0.24291992 66.76879883 0.24291992 67.76879883 1.24291992 C67.43879883 5.86291992 67.10879883 10.48291992 66.76879883 15.24291992 C41.35879883 15.24291992 15.94879883 15.24291992 -10.23120117 15.24291992 C-11.16611301 10.56836075 -11.3109213 6.94640722 -11.23120117 2.24291992 C-7.53006817 -0.11161691 -4.31895857 -0.00472448 0 0 Z M-9.23120117 2.24291992 C-9.23120117 6.20291992 -9.23120117 10.16291992 -9.23120117 14.24291992 C15.51879883 14.24291992 40.26879883 14.24291992 65.76879883 14.24291992 C65.76879883 10.28291992 65.76879883 6.32291992 65.76879883 2.24291992 C41.01879883 2.24291992 16.26879883 2.24291992 -9.23120117 2.24291992 Z " fill="#5F5D47" transform="translate(307.231201171875,82.757080078125)"/>
<path d="M0 0 C26.4 0 52.8 0 80 0 C80 4.95 80 9.9 80 15 C63.6003999 15.08798593 47.20948673 14.82783335 30.81298828 14.53643799 C27.32586821 14.47484596 23.83871392 14.41525451 20.3515625 14.35546875 C13.56767461 14.23887991 6.7838255 14.12016345 0 14 C0 13.67 0 13.34 0 13 C25.74 13 51.48 13 78 13 C78 9.04 78 5.08 78 1 C52.26 1 26.52 1 0 1 C0 0.67 0 0.34 0 0 Z " fill="#6B694A" transform="translate(9,62)"/>
<path d="M0 0 C0.33 0 0.66 0 1 0 C1 2.64 1 5.28 1 8 C28.39 8 55.78 8 84 8 C84.495 8.99 84.495 8.99 85 10 C56.62 10 28.24 10 -1 10 C-1 1 -1 1 0 0 Z " fill="#8E894D" transform="translate(577,88)"/>
<path d="M0 0 C0.33 0.66 0.66 1.32 1 2 C50.17 2 99.34 2 150 2 C150 2.33 150 2.66 150 3 C101.16 3 52.32 3 2 3 C1.67 6.96 1.34 10.92 1 15 C0.34 14.67 -0.32 14.34 -1 14 C-1.02694851 12.04174127 -1.04637218 10.08337774 -1.0625 8.125 C-1.07410156 7.03445312 -1.08570313 5.94390625 -1.09765625 4.8203125 C-1 2 -1 2 0 0 Z " fill="#D5CC57" transform="translate(8,110)"/>
<path d="M0 0 C0.66 0 1.32 0 2 0 C2.02686553 1.97909398 2.04633375 3.95828971 2.0625 5.9375 C2.07410156 7.03964844 2.08570313 8.14179687 2.09765625 9.27734375 C2 12 2 12 1 13 C0.86899078 15.88220285 0.86051437 18.44205747 1.5625 21.25 C2.23724218 25.49123658 1.89437743 29.8003147 1 34 C0.01 34.495 0.01 34.495 -1 35 C-1 27.41 -1 19.82 -1 12 C-28.72 12 -56.44 12 -85 12 C-85 8.37 -85 4.74 -85 1 C-84.67 1 -84.34 1 -84 1 C-84 4.3 -84 7.6 -84 11 C-56.61 11 -29.22 11 -1 11 C-1 7.7 -1 4.4 -1 1 C-0.67 0.67 -0.34 0.34 0 0 Z " fill="#E7DD5A" transform="translate(663,63)"/>
<path d="M0 0 C0.33 0 0.66 0 1 0 C1.33 3.96 1.66 7.92 2 12 C47.87 12 93.74 12 141 12 C141 12.33 141 12.66 141 13 C70.71 13.495 70.71 13.495 -1 14 C-1 1 -1 1 0 0 Z " fill="#E9DE5B" transform="translate(8,132)"/>
<path d="M0 0 C19.8 0 39.6 0 60 0 C60 0.33 60 0.66 60 1 C43.83 1 27.66 1 11 1 C11 2.32 11 3.64 11 5 C11.99 5.33 12.98 5.66 14 6 C14 6.66 14 7.32 14 8 C9.38 8 4.76 8 0 8 C-1 2 -1 2 0 0 Z " fill="#31323F" transform="translate(9,76)"/>
<path d="M0 0 C0.66 0 1.32 0 2 0 C1.9278125 0.7321875 1.855625 1.464375 1.78125 2.21875 C0.75950099 14.13915511 0.90423331 26.04537085 1 38 C-1.82462267 35.44872791 -3.54204414 33.8276908 -4 30 C-4.11820817 27.66882486 -4.17513698 25.3341375 -4.1875 23 C-4.20167969 21.783125 -4.21585938 20.56625 -4.23046875 19.3125 C-4.01586625 16.2280437 -3.62758774 14.57326124 -2 12 C-1.34 12 -0.68 12 0 12 C0 8.04 0 4.08 0 0 Z " fill="#3C3C47" transform="translate(660,24)"/>
<path d="M0 0 C0.99 0.495 0.99 0.495 2 1 C1.67 4.63 1.34 8.26 1 12 C-28.04 12 -57.08 12 -87 12 C-87 11.67 -87 11.34 -87 11 C-58.62 10.67 -30.24 10.34 -1 10 C-1 7.03 -1 4.06 -1 1 C-0.67 0.67 -0.34 0.34 0 0 Z " fill="#414143" transform="translate(661,99)"/>
<path d="M0 0 C0.66 0 1.32 0 2 0 C2.02686553 1.97909398 2.04633375 3.95828971 2.0625 5.9375 C2.07410156 7.03964844 2.08570313 8.14179687 2.09765625 9.27734375 C2 12 2 12 1 13 C0.86899078 15.88220285 0.86051437 18.44205747 1.5625 21.25 C2.23724218 25.49123658 1.89437743 29.8003147 1 34 C0.01 34.495 0.01 34.495 -1 35 C-1.0246519 30.17619198 -1.04283693 25.35242033 -1.05493164 20.52856445 C-1.05997174 18.88630536 -1.06680378 17.24405077 -1.07543945 15.60180664 C-1.08751926 13.24624521 -1.09323139 10.89074291 -1.09765625 8.53515625 C-1.10281754 7.79660904 -1.10797882 7.05806183 -1.11329651 6.2971344 C-1.1134925 4.53101912 -1.06194719 2.76502854 -1 1 C-0.67 0.67 -0.34 0.34 0 0 Z " fill="#E7E5D4" transform="translate(663,63)"/>
<path d="M0 0 C0.33 0 0.66 0 1 0 C1.33 3.96 1.66 7.92 2 12 C9.26 12 16.52 12 24 12 C24 12.33 24 12.66 24 13 C11.625 13.495 11.625 13.495 -1 14 C-1.09765625 3.94140625 -1.09765625 3.94140625 -1 1 C-0.67 0.67 -0.34 0.34 0 0 Z " fill="#E0DA85" transform="translate(8,132)"/>
<path d="M0 0 C3.79165074 -0.0289337 7.58327327 -0.04677601 11.375 -0.0625 C12.45523438 -0.07087891 13.53546875 -0.07925781 14.6484375 -0.08789062 C16.1953125 -0.09272461 16.1953125 -0.09272461 17.7734375 -0.09765625 C18.72653809 -0.10289307 19.67963867 -0.10812988 20.66162109 -0.11352539 C23 0 23 0 25 1 C25 1.66 25 2.32 25 3 C24.34 3 23.68 3 23 3 C23 3.66 23 4.32 23 5 C21.68 5 20.36 5 19 5 C19 3.68 19 2.36 19 1 C17.82244141 1.12568359 17.82244141 1.12568359 16.62109375 1.25390625 C10.85389441 1.81293539 5.68837021 2.16353027 0 1 C0 0.67 0 0.34 0 0 Z " fill="#31323D" transform="translate(633,76)"/>
<path d="M0 0 C1.98 0 3.96 0 6 0 C5.01 0.495 5.01 0.495 4 1 C4 1.99 4 2.98 4 4 C6.475 4.495 6.475 4.495 9 5 C6.17554408 5.94148531 4.85828382 6.07311695 1.98828125 5.87890625 C1.23095703 5.83056641 0.47363281 5.78222656 -0.30664062 5.73242188 C-1.09232422 5.67634766 -1.87800781 5.62027344 -2.6875 5.5625 C-3.48478516 5.51029297 -4.28207031 5.45808594 -5.10351562 5.40429688 C-7.06936522 5.27480978 -9.03473665 5.13809959 -11 5 C-11 4.67 -11 4.34 -11 4 C-5.555 3.505 -5.555 3.505 0 3 C0 2.01 0 1.02 0 0 Z " fill="#373843" transform="translate(79,78)"/>
<path d="M0 0 C2.47682859 3.71524288 2.43538538 6.69638294 2 11 C1 14 1 14 0 16 C-0.33 16 -0.66 16 -1 16 C-1.02692484 13.70839681 -1.04636124 11.41670454 -1.0625 9.125 C-1.07410156 7.84882812 -1.08570313 6.57265625 -1.09765625 5.2578125 C-1 2 -1 2 0 0 Z " fill="#CCCAB2" transform="translate(663,82)"/>
<path d="M0 0 C5.61 0 11.22 0 17 0 C16.67 2.31 16.34 4.62 16 7 C15.34 7 14.68 7 14 7 C13.4375 5.0625 13.4375 5.0625 13 3 C13.33 2.67 13.66 2.34 14 2 C7.07 1.505 7.07 1.505 0 1 C0 0.67 0 0.34 0 0 Z " fill="#676656" transform="translate(646,124)"/>
<path d="M0 0 C2.42945561 3.64418341 2.0828781 4.92923364 1.625 9.1875 C1.51414062 10.27417969 1.40328125 11.36085938 1.2890625 12.48046875 C1.19367187 13.31191406 1.09828125 14.14335938 1 15 C0.34 14.67 -0.32 14.34 -1 14 C-1.02694851 12.04174127 -1.04637218 10.08337774 -1.0625 8.125 C-1.07410156 7.03445312 -1.08570313 5.94390625 -1.09765625 4.8203125 C-1 2 -1 2 0 0 Z " fill="#DAD6A0" transform="translate(8,110)"/>
<path d="M0 0 C0.66 0 1.32 0 2 0 C2.93402724 5.41735797 3.20808081 8.80451575 1 14 C0.67 14 0.34 14 0 14 C0 9.38 0 4.76 0 0 Z " fill="#EDEBCD" transform="translate(662,132)"/>
<path d="M0 0 C0.66 0.33 1.32 0.66 2 1 C1.67 4.3 1.34 7.6 1 11 C0.34 10.67 -0.32 10.34 -1 10 C-1.02689216 8.52093108 -1.04634621 7.04172517 -1.0625 5.5625 C-1.07410156 4.73878906 -1.08570313 3.91507812 -1.09765625 3.06640625 C-1 1 -1 1 0 0 Z " fill="#5F5F63" transform="translate(661,99)"/>
</svg>
