<?xml version="1.0" encoding="UTF-8"?>
<svg id="Capa_2" data-name="Capa 2" xmlns="http://www.w3.org/2000/svg" viewBox="0 0 137.2 137.2">
  <defs>
    <style>
      .cls-1 {
        fill: none;
      }

      .cls-2 {
        fill: #1d1d1b;
      }
    </style>
  </defs>
  <g id="Capa_2-2" data-name="Capa 2">
    <rect class="cls-1" width="137.2" height="137.2"/>
    <path class="cls-2" d="m125.29,64.68c-.05-1.83-1.92-1.92-1.92-1.92l-48.91-2.41c-.03-5.05-.1-13.96-.26-18.41-.04-.98-.1-1.85-.19-2.64.19.16.39.28.47.2.3-.28.49-.82.49-.82,0,0,.68-1.57,1.22-1.83s.12-.73.12-.73c0,0-.35-.8-1.17-2.3-.62-1.13-2.22-1.36-2.98-1.4-.12-.28-.22-.55-.31-.81-.33-1-.76-1.4-1.07-1.57,0-.03,0-.05-.01-.08.77.15,1.7.24,2.7.24,2.69,0,4.87-.63,4.87-1.41s-2.18-1.41-4.87-1.41c-1.17,0-2.22.12-3.06.32-.66-3.86-1.81-3.6-1.81-3.6,0,0-1.15-.26-1.81,3.6-.84-.2-1.9-.32-3.06-.32-2.69,0-4.87.63-4.87,1.41s2.18,1.41,4.87,1.41c1,0,1.93-.09,2.7-.24,0,.03,0,.05-.01.08-.31.17-.74.56-1.07,1.57-.08.25-.19.52-.31.81-.75.04-2.36.27-2.98,1.4-.82,1.5-1.17,2.3-1.17,2.3,0,0-.42.47.12.73s1.22,1.83,1.22,1.83c0,0,.2.54.49.82.08.08.28-.05.47-.2-.09.79-.16,1.66-.19,2.64-.16,4.45-.23,13.36-.26,18.41l-31.8,1.56v-1.19c0-.22-.18-.41-.41-.41s-.41.18-.41.41v1.23l-16.3.8s-1.88.09-1.92,1.92,0,5.16,0,5.16c0,0,.02,2.22.14,2.55s-.19.52,1.81.84c1.86.31,39.01,5.79,47.99,6.67.48.58,1.45,1.73,2.09,2.35.44,4.51,2.16,22.38,2.87,30.4-.42,1.91-1.02,5.02-1.14,7.34-.02.31-.25.57-.56.62-9.02,1.4-16.1,2.62-18.01,2.95-.3.05-.51.31-.51.61v6.12c0,.25.17.47.42.52.98.21,3.82.68,9.89.77,7.12,1.88,11.69,1.19,11.69,1.19,0,0,4.56.69,11.69-1.19,6.07-.1,8.91-.56,9.89-.77.25-.05.42-.27.42-.52v-6.12c0-.3-.21-.56-.51-.61-1.91-.33-8.99-1.55-18.01-2.95-.31-.05-.54-.3-.56-.62-.12-2.33-.73-5.43-1.14-7.34.71-8.02,2.44-25.89,2.87-30.4.64-.63,1.61-1.77,2.09-2.35,8.98-.88,46.13-6.36,47.99-6.67,2-.33,1.69-.52,1.81-.84s.14-2.55.14-2.55c0,0,.05-3.33,0-5.16Zm-51.62-27.56c-.23-1.14-.5-2.05-.77-2.8.65.23.78,1.61.77,2.8Zm-9.38-2.8c-.27.76-.54,1.66-.77,2.8-.01-1.19.12-2.57.77-2.8Z"/>
  </g>
</svg>