<?xml version="1.0" encoding="UTF-8" standalone="no"?>
<!-- Created with Inkscape (http://www.inkscape.org/) -->

<svg
   xmlns:dc="http://purl.org/dc/elements/1.1/"
   xmlns:cc="http://creativecommons.org/ns#"
   xmlns:rdf="http://www.w3.org/1999/02/22-rdf-syntax-ns#"
   xmlns:svg="http://www.w3.org/2000/svg"
   xmlns="http://www.w3.org/2000/svg"
   xmlns:sodipodi="http://sodipodi.sourceforge.net/DTD/sodipodi-0.dtd"
   xmlns:inkscape="http://www.inkscape.org/namespaces/inkscape"
   id="svg2"
   version="1.1"
   inkscape:version="0.91 r13725"
   width="258.46704mm"
   height="215.31505mm"
   viewBox="0 0 915.8281 762.92733"
   sodipodi:docname="mi-17_silhouette_top_v2.svg">
  <title
     id="title4579">Mil Mi-17 (Hip) helicopter top view / silhouette</title>
  <metadata
     id="metadata8">
    <rdf:RDF>
      <cc:Work
         rdf:about="">
        <dc:format>image/svg+xml</dc:format>
        <dc:type
           rdf:resource="http://purl.org/dc/dcmitype/StillImage" />
        <dc:title>Mil Mi-17 (Hip) helicopter top view / silhouette</dc:title>
        <cc:license
           rdf:resource="https://en.wikipedia.org/wiki/Public_domain" />
        <dc:creator>
          <cc:Agent>
            <dc:title>Jan Helebrant</dc:title>
          </cc:Agent>
        </dc:creator>
        <dc:rights>
          <cc:Agent>
            <dc:title>Jan Helebrant</dc:title>
          </cc:Agent>
        </dc:rights>
        <dc:publisher>
          <cc:Agent>
            <dc:title>Jan Helebrant</dc:title>
          </cc:Agent>
        </dc:publisher>
        <dc:subject>
          <rdf:Bag>
            <rdf:li>helicopter</rdf:li>
            <rdf:li>Mi-17</rdf:li>
            <rdf:li>flying</rdf:li>
            <rdf:li>airborne</rdf:li>
            <rdf:li>Russian</rdf:li>
          </rdf:Bag>
        </dc:subject>
      </cc:Work>
    </rdf:RDF>
  </metadata>
  <defs
     id="defs6" />
  <sodipodi:namedview
     pagecolor="#ffffff"
     bordercolor="#666666"
     borderopacity="1"
     objecttolerance="10"
     gridtolerance="10"
     guidetolerance="10"
     inkscape:pageopacity="0"
     inkscape:pageshadow="2"
     inkscape:window-width="1920"
     inkscape:window-height="1001"
     id="namedview4"
     showgrid="false"
     units="mm"
     inkscape:zoom="0.70710678"
     inkscape:cx="50.099725"
     inkscape:cy="241.94662"
     inkscape:window-x="0"
     inkscape:window-y="0"
     inkscape:window-maximized="1"
     inkscape:current-layer="svg2"
     fit-margin-top="10"
     fit-margin-left="10"
     fit-margin-bottom="10"
     fit-margin-right="10" />
  <g
     transform="matrix(0,1,-1,0,962.03686,5.0655909)"
     id="g4458">
    <g
       id="g4352"
       transform="translate(-3.595709e-8,4.7244096e-6)">
      <g
         transform="translate(-4.3364429e-6,-2.1799322e-6)"
         id="g4241">
        <path
           style="fill:#000000;fill-opacity:1;stroke:#ffffff;stroke-width:1;stroke-miterlimit:4;stroke-dasharray:none;stroke-opacity:1"
           d="m 326.12263,515.52088 27.3184,11.99722 -1.97231,4.49106 -27.3184,-11.99722 z"
           id="path4239"
           inkscape:connector-curvature="0" />
        <path
           sodipodi:nodetypes="ccccc"
           inkscape:connector-curvature="0"
           id="rect4236"
           d="m 326.61151,514.77002 37.16036,-30.66177 0,4.41682 -37.16036,30.66177 z"
           style="fill:#000000;fill-opacity:1;stroke:#ffffff;stroke-width:1;stroke-miterlimit:4;stroke-dasharray:none;stroke-opacity:1" />
        <rect
           ry="6.0592961"
           y="502.09976"
           x="317.90591"
           height="31.949015"
           width="11.617825"
           id="rect4232"
           style="fill:#000000;fill-opacity:1;stroke:#ffffff;stroke-width:0.99999994;stroke-miterlimit:4;stroke-dasharray:none;stroke-opacity:1" />
      </g>
      <g
         id="g4271"
         transform="matrix(-1,0,0,1,810.60725,2.2794309)">
        <path
           inkscape:connector-curvature="0"
           id="path4273"
           d="m 326.12263,515.52088 27.3184,11.99722 -1.97231,4.49106 -27.3184,-11.99722 z"
           style="fill:#000000;fill-opacity:1;stroke:#ffffff;stroke-width:1;stroke-miterlimit:4;stroke-dasharray:none;stroke-opacity:1" />
        <path
           style="fill:#000000;fill-opacity:1;stroke:#ffffff;stroke-width:1;stroke-miterlimit:4;stroke-dasharray:none;stroke-opacity:1"
           d="m 326.61151,514.77002 37.16036,-30.66177 0,4.41682 -37.16036,30.66177 z"
           id="path4275"
           inkscape:connector-curvature="0"
           sodipodi:nodetypes="ccccc" />
        <rect
           style="fill:#000000;fill-opacity:1;stroke:#ffffff;stroke-width:0.99999994;stroke-miterlimit:4;stroke-dasharray:none;stroke-opacity:1"
           id="rect4277"
           width="11.617825"
           height="31.949015"
           x="317.90591"
           y="502.09976"
           ry="6.0592961" />
      </g>
      <path
         style="display:inline;fill:#000000;stroke:#000000;stroke-width:1;stroke-miterlimit:4;stroke-dasharray:none;stroke-opacity:1"
         d="m 394.68515,771.16361 c -11.21478,-2.64313 -22.41885,-12.46001 -27.53285,-24.12399 -2.22837,-5.08246 -4.30494,-14.47196 -6.69899,-30.29034 -0.8324,-5.5 -2.05642,-12.5875 -2.72004,-15.75 l -1.20659,-5.75 -3.75854,0 c -4.83718,0 -5.32108,-0.96773 -7.28586,-14.57058 -4.18633,-28.98351 -4.39516,-33.96716 -4.21648,-100.62415 l 0.17343,-64.69473 3.35209,-3.45821 c 4.24641,-4.38083 7.65861,-5.09424 11.89791,-2.48757 l 3.25,1.99836 0.0753,-11.83156 c 0.11229,-17.64255 0.46031,-21.31325 3.74188,-39.4666 2.6452,-14.63305 3.56883,-17.7621 7.67466,-26 5.8614,-11.76028 9.4313,-17.86496 10.44708,-17.86496 0.434,0 1.93486,-1.6875 3.33526,-3.75 2.31517,-3.40977 2.60162,-4.97485 3.15721,-17.25 0.66581,-14.71022 1.35524,-28.74876 2.06261,-42 0.24955,-4.675 0.70588,-15.25 1.01407,-23.5 0.30818,-8.25 0.9758,-22.875 1.48361,-32.5 0.50781,-9.625 1.15753,-22.675 1.44384,-29 0.2863,-6.325 0.81758,-17.17253 1.18062,-24.10563 0.37066,-7.07866 0.27067,-12.84109 -0.22804,-13.14265 -0.48845,-0.29535 -2.9131,-0.81367 -5.3881,-1.1518 -2.475,-0.33814 -5.625,-0.80099 -7,-1.02856 -1.375,-0.22756 -7.225,-1.1755 -13,-2.10653 -5.775,-0.93103 -11.0625,-2.14659 -11.75,-2.70125 -1.66966,-1.34704 -1.63767,-11.19694 0.0409,-12.59002 1.76221,-1.4625 7.65027,-2.68945 24.64578,-5.13566 7.94018,-1.14285 14.52333,-2.1814 14.62923,-2.30789 0.19218,-0.22955 0.8403,-15.42489 2.08912,-48.97999 0.48977,-13.1599 0.36119,-17.75 -0.49721,-17.75 -0.6368,0 -1.15781,-0.9 -1.15781,-2 0,-1.1 0.50625,-1.8875 1.125,-1.75 0.61875,0.1375 1.33125,-0.3125 1.58333,-1 0.25209,-0.6875 -0.25416,-1.25 -1.125,-1.25 -2.27616,0 -1.956,-3.08978 0.38355,-3.70159 1.08179,-0.28289 2.27165,-1.47826 2.64413,-2.65638 0.37249,-1.17811 1.34986,-3.17087 2.17193,-4.42835 l 1.49467,-2.28631 1.99515,3.28075 c 2.14596,3.52876 2.3561,6.17343 4.70599,59.22802 0.5831,13.16487 1.22989,24.10583 1.43731,24.31325 0.20741,0.20742 7.98787,1.45218 17.28989,2.76614 22.52668,3.182 22.54405,3.1897 22.54405,9.98445 0,8.509 1.81766,7.60959 -21.29239,10.53582 -8.97191,1.13603 -16.71545,2.31451 -17.20786,2.61884 -0.49241,0.30433 -0.64533,4.89403 -0.33981,10.19933 0.58593,10.17478 1.21139,24.86387 2.11392,49.64601 0.87832,24.11724 2.45674,59.50186 2.94411,66 0.2475,3.3 0.70882,14.55 1.02515,25 0.88017,29.07656 0.83873,28.84293 5.95227,33.55643 5.2873,4.87366 14.4897,22.78989 17.43461,33.94357 3.03124,11.48068 5.11327,24.74082 5.11681,32.58823 l 0.003,7.08822 8.01412,6.21207 c 4.40776,3.41664 8.41505,5.96427 8.90508,5.66142 0.51713,-0.31961 0.94847,25.80247 1.02801,62.25659 0.1292,59.21484 0.0345,62.89891 -1.65509,64.40982 -2.71622,2.42892 -8.86357,3.05662 -12.33816,1.25984 l -2.95377,-1.52755 0,41.89469 c 0,44.21425 -0.53864,51.30952 -5.04062,66.3974 -1.80063,6.03465 -6.7783,15.68833 -10.19442,19.77106 -3.61756,4.32347 -16.32489,13.66519 -19.76496,14.53009 -0.275,0.0691 -1.76679,0.6505 -3.3151,1.29191 -3.22938,1.33783 -12.42904,1.37913 -17.93898,0.0805 z"
         id="path3357"
         inkscape:connector-curvature="0" />
      <path
         style="fill:#ffffff;fill-opacity:1;stroke:none;stroke-width:1;stroke-miterlimit:4;stroke-dasharray:none;stroke-opacity:1"
         d="m 400.07173,742.45733 8.60344,0 c 1.49367,0 2.69617,1.21803 2.69617,2.73098 l 0,19.4377 c 0,1.51297 -1.2025,2.73098 -2.69617,2.73098 l -8.60344,0 c -1.49369,0 -2.69619,-1.21801 -2.69619,-2.73098 l 0,-19.4377 c 0,-1.51295 1.2025,-2.73098 2.69619,-2.73098 z"
         id="rect4280"
         inkscape:connector-curvature="0" />
      <path
         id="path4283"
         d="m 385.89559,739.4981 6.90609,1.7476 c 1.37804,0.34872 2.41285,1.53221 2.28081,3.08447 l -1.51151,17.7696 c -0.13204,1.55227 -1.49111,3.11209 -2.7972,2.51506 l -7.23221,-3.30595 c -1.30608,-0.59705 -2.4562,-1.53744 -2.28083,-3.08448 l 1.83766,-16.21124 c 0.17536,-1.54703 1.41914,-2.86378 2.79719,-2.51506 z"
         style="fill:#ffffff;fill-opacity:1;stroke:none;stroke-width:1;stroke-miterlimit:4;stroke-dasharray:none;stroke-opacity:1"
         inkscape:connector-curvature="0"
         sodipodi:nodetypes="sssssssss" />
      <path
         sodipodi:nodetypes="sssssssss"
         inkscape:connector-curvature="0"
         style="fill:#ffffff;fill-opacity:1;stroke:none;stroke-width:1;stroke-miterlimit:4;stroke-dasharray:none;stroke-opacity:1"
         d="m 422.17266,739.32132 -6.90609,1.7476 c -1.37804,0.34872 -2.41285,1.53221 -2.28081,3.08447 l 1.51151,17.7696 c 0.13204,1.55227 1.49111,3.11209 2.7972,2.51506 l 7.23221,-3.30595 c 1.30608,-0.59705 2.4562,-1.53744 2.28083,-3.08448 l -1.83766,-16.21124 c -0.17536,-1.54703 -1.41914,-2.86378 -2.79719,-2.51506 z"
         id="path4285" />
      <path
         id="path4287"
         d="m 438.25934,729.15666 -9.38096,6.52057 c -1.16721,0.81131 -2.58734,1.55706 -2.28081,3.08447 l 2.39539,11.93597 c 0.30654,1.52742 2.01401,3.71877 2.7972,2.51506 l 9.97225,-15.32677 c 0.78319,-1.20371 1.301,-2.22386 0.60145,-3.61481 l -1.30733,-2.59943 c -0.69954,-1.39093 -1.62997,-3.32638 -2.79719,-2.51506 z"
         style="fill:#ffffff;fill-opacity:1;stroke:none;stroke-width:1;stroke-miterlimit:4;stroke-dasharray:none;stroke-opacity:1"
         inkscape:connector-curvature="0"
         sodipodi:nodetypes="sssssssss" />
      <path
         sodipodi:nodetypes="sssssssss"
         inkscape:connector-curvature="0"
         style="fill:#ffffff;fill-opacity:1;stroke:none;stroke-width:1;stroke-miterlimit:4;stroke-dasharray:none;stroke-opacity:1"
         d="m 368.98883,729.15666 9.38096,6.52057 c 1.16721,0.81131 2.58734,1.55706 2.28081,3.08447 l -2.39539,11.93597 c -0.30654,1.52742 -2.01401,3.71877 -2.7972,2.51506 l -9.97225,-15.32677 c -0.78319,-1.20371 -1.301,-2.22386 -0.60145,-3.61481 l 1.30733,-2.59943 c 0.69954,-1.39093 1.62997,-3.32638 2.79719,-2.51506 z"
         id="path4289" />
    </g>
    <rect
       y="128.34909"
       x="381.27588"
       height="5.4128499"
       width="22.971607"
       id="rect4203"
       style="display:inline;fill:#000000;stroke:#000000;stroke-width:1;stroke-miterlimit:4;stroke-dasharray:none;stroke-opacity:1" />
    <rect
       ry="1.3202074"
       y="126.36877"
       x="383.01184"
       height="9.3734722"
       width="5.1488085"
       id="rect4205"
       style="display:inline;fill:#000000;stroke:#000000;stroke-width:1;stroke-miterlimit:4;stroke-dasharray:none;stroke-opacity:1" />
    <rect
       ry="0.59409326"
       y="82.141838"
       x="384.84042"
       height="46.471298"
       width="1.1881865"
       id="rect4207"
       style="display:inline;fill:#000000;stroke:#000000;stroke-width:1;stroke-miterlimit:4;stroke-dasharray:none;stroke-opacity:1" />
    <rect
       style="display:inline;fill:#000000;stroke:#000000;stroke-width:1;stroke-miterlimit:4;stroke-dasharray:none;stroke-opacity:1"
       id="rect4209"
       width="1.1881865"
       height="46.471298"
       x="384.84042"
       y="136.14183"
       ry="0.59409326" />
    <g
       id="g4224"
       style="display:inline"
       transform="translate(-3.595709e-8,4.7244096e-6)">
      <path
         style="fill:#000000;fill-opacity:1;stroke:#ffffff;stroke-width:1;stroke-miterlimit:4;stroke-dasharray:none;stroke-opacity:1"
         d="m 271.47004,215.02542 15.30816,-5.4177 c 1.68923,-0.59785 3.54857,0.2745 4.1283,1.97004 l 119.14014,348.44617 c 0.57974,1.69554 -0.28079,3.53047 -1.97004,4.12831 l -4.85265,-2.42393 -22.23578,-63.87398 c -1.20963,-3.47473 -8.65386,1.33017 -15.2966,2.62843 L 269.5,219.15372 c -0.57974,-1.69554 0.2808,-3.53047 1.97004,-4.1283 z"
         id="rect4213"
         inkscape:connector-curvature="0"
         sodipodi:nodetypes="ssssscscss"
         inkscape:transform-center-x="65.661216"
         inkscape:transform-center-y="-178.09751" />
      <path
         inkscape:transform-center-y="-113.34617"
         inkscape:transform-center-x="-154.08386"
         sodipodi:nodetypes="ssssscscss"
         inkscape:connector-curvature="0"
         id="path4216"
         d="m 701.91484,335.87134 9.59533,13.10041 c 1.05885,1.44561 0.75871,3.47737 -0.69816,4.52067 L 411.41604,567.90128 c -1.45686,1.04332 -3.46184,0.74747 -4.52068,-0.69816 l 0.9243,-5.34502 54.76852,-39.68281 c 2.97939,-2.15874 -3.76518,-7.90456 -6.92082,-13.89233 l 241.7268,-173.10978 c 1.45687,-1.04332 3.46185,-0.74746 4.52068,0.69816 z"
         style="fill:#000000;fill-opacity:1;stroke:#ffffff;stroke-width:1;stroke-miterlimit:4;stroke-dasharray:none;stroke-opacity:1" />
      <path
         style="fill:#000000;fill-opacity:1;stroke:#ffffff;stroke-width:1;stroke-miterlimit:4;stroke-dasharray:none;stroke-opacity:1"
         d="m 721.38065,766.19199 -9.07268,13.46765 c -1.00115,1.48615 -3.01437,1.89243 -4.48971,0.87541 L 404.62268,571.53373 c -1.47535,-1.017 -1.87659,-3.00357 -0.87542,-4.48972 l 5.34192,-0.94207 55.89728,38.07637 c 3.0408,2.07134 6.16048,-6.2215 10.72423,-11.21986 l 244.79454,168.74381 c 1.47536,1.01701 1.87659,3.00359 0.87542,4.48973 z"
         id="path4218"
         inkscape:connector-curvature="0"
         sodipodi:nodetypes="ssssscscss"
         inkscape:transform-center-x="-157.12942"
         inkscape:transform-center-y="108.716" />
      <path
         inkscape:transform-center-y="180.05033"
         inkscape:transform-center-x="58.885611"
         sodipodi:nodetypes="ssssscscss"
         inkscape:connector-curvature="0"
         id="path4220"
         d="m 305.59444,925.96379 -15.5357,-4.72584 c -1.71435,-0.52148 -2.69298,-2.32714 -2.15316,-4.03581 l 110.93281,-351.1453 c 0.5398,-1.70867 2.32146,-2.67467 4.03582,-2.15318 l 2.46672,4.83104 -20.01641,64.60385 c -1.0889,3.51443 7.75417,4.0659 13.87083,6.96381 l -89.5651,283.50825 c -0.5398,1.70869 -2.32148,2.67468 -4.03581,2.15318 z"
         style="fill:#000000;fill-opacity:1;stroke:#ffffff;stroke-width:1;stroke-miterlimit:4;stroke-dasharray:none;stroke-opacity:1" />
      <path
         style="fill:#000000;fill-opacity:1;stroke:#ffffff;stroke-width:1;stroke-miterlimit:4;stroke-dasharray:none;stroke-opacity:1"
         d="M 31.149358,580.93644 30.867976,564.7003 c -0.03106,-1.79164 1.386089,-3.27818 3.177964,-3.29005 l 368.24332,-2.44237 c 1.79187,-0.0119 3.25902,1.38631 3.29007,3.17797 l -3.83821,3.83299 -67.62866,0.82334 c -3.67899,0.0448 -1.48395,8.62883 -2.36016,15.34029 L 34.439423,584.1144 c -1.791888,0.0119 -3.259028,-1.38633 -3.290065,-3.17796 z"
         id="path4222"
         inkscape:connector-curvature="0"
         sodipodi:nodetypes="ssssscscss"
         inkscape:transform-center-x="187.21113"
         inkscape:transform-center-y="6.6577419" />
      <circle
         style="fill:#000000;stroke:#ffffff;stroke-width:1;stroke-miterlimit:4;stroke-dasharray:none;stroke-opacity:1"
         id="path4211"
         cx="405.61838"
         cy="565.41907"
         r="8.5" />
    </g>
  </g>
</svg>
