<?xml version="1.0" encoding="UTF-8"?>
<svg id="Capa_1" data-name="Capa 1" xmlns="http://www.w3.org/2000/svg" viewBox="0 0 137.2 137.2">
  <defs>
    <style>
      .cls-1 {
        stroke: #1e1e1c;
        stroke-miterlimit: 10;
        stroke-width: .28px;
      }

      .cls-1, .cls-2 {
        fill: #010101;
      }

      .cls-3 {
        fill: none;
      }
    </style>
  </defs>
  <rect class="cls-3" width="137.2" height="137.2"/>
  <g id="Mi24">
    <g>
      <g>
        <rect class="cls-2" x="68.28" y="65.99" width="3.33" height="4.29"/>
        <path class="cls-2" d="m68.28,24.55s1.83-.18,3.41,2.89c1.71,3.33,2.28,16.72,2.28,20.81s-.22,15.81-.22,15.81l14.84,1.77v2.97c0,.91-.21,1.78-.21,1.78l-14.39,1.21s-.73.02-.82.47c-.13.62-1.77,11.14-2.16,12.79l-1.12,34.45-.33,6.68-.75,5.88h-.53V24.55Z"/>
        <path class="cls-2" d="m89.11,64.51c0-.37-.3-.67-.67-.67s-.67.3-.67.67l-.11,5.21.67.8s.75-2.7.77-6.01Z"/>
        <ellipse class="cls-2" cx="82.44" cy="68.13" rx=".6" ry="5.1"/>
        <ellipse class="cls-2" cx="78.81" cy="68.13" rx=".6" ry="5.1"/>
        <path class="cls-2" d="m69.68,115.01l8.19.25s.72.09.72.84-.16,2.03-.16,2.03c0,0-.09.66-.84.84s-7.44,1.06-7.44,1.06h-.66l.19-5.03Z"/>
        <line class="cls-1" x1="70.68" y1="84.95" x2="78.43" y2="115.95"/>
        <path class="cls-2" d="m70.72,85.14l2.23-.48c1.07-.23,1.79-1.11,1.61-1.96l-.82-3.85c-.18-.85-1.2-1.35-2.27-1.13l-2.23.48"/>
        <path class="cls-2" d="m73.4,54.45s.8.52.82.84-.14,1.64-.14,1.64c0,0-.09.35-.68.3s0-2.79,0-2.79Z"/>
        <path class="cls-2" d="m71.43,25.99s.47.98-.23,1.36,0,.98,0,.98c0,0,1.08-.7,1.08-1.17s-.84-1.17-.84-1.17Z"/>
      </g>
      <g>
        <rect class="cls-2" x="64.95" y="65.99" width="3.33" height="4.29"/>
        <path class="cls-2" d="m68.28,24.55s-1.83-.18-3.41,2.89c-1.71,3.33-2.28,16.72-2.28,20.81s.22,15.81.22,15.81l-14.84,1.77v2.97c0,.91.21,1.78.21,1.78l14.39,1.21s.73.02.82.47c.13.62,1.77,11.14,2.16,12.79l1.12,34.45.33,6.68.75,5.88h.53V24.55Z"/>
        <path class="cls-2" d="m47.45,64.51c0-.37.3-.67.67-.67s.67.3.67.67l.11,5.21-.67.8s-.75-2.7-.77-6.01Z"/>
        <ellipse class="cls-2" cx="54.12" cy="68.13" rx=".6" ry="5.1"/>
        <ellipse class="cls-2" cx="57.75" cy="68.13" rx=".6" ry="5.1"/>
        <path class="cls-2" d="m66.87,115.01l-8.19.25s-.72.09-.72.84.16,2.03.16,2.03c0,0,.09.66.84.84s7.44,1.06,7.44,1.06h.66l-.19-5.03Z"/>
        <line class="cls-1" x1="65.87" y1="84.95" x2="58.12" y2="115.95"/>
        <path class="cls-2" d="m65.84,85.14l-2.23-.48c-1.07-.23-1.79-1.11-1.61-1.96l.82-3.85c.18-.85,1.2-1.35,2.27-1.13l2.23.48"/>
        <path class="cls-2" d="m63.15,54.45s-.8.52-.82.84.14,1.64.14,1.64c0,0,.09.35.68.3s0-2.79,0-2.79Z"/>
        <path class="cls-2" d="m65.12,25.99s-.47.98.23,1.36,0,.98,0,.98c0,0-1.08-.7-1.08-1.17s.84-1.17.84-1.17Z"/>
      </g>
    </g>
    <rect class="cls-2" x="69.21" y="19.68" width=".35" height="8.66" rx=".12" ry=".12"/>
    <rect class="cls-2" x="68.1" y="19.94" width=".35" height="8.66" rx=".12" ry=".12"/>
    <rect class="cls-2" x="67.95" y="22.74" width=".66" height="8.66" rx=".12" ry=".12"/>
    <path class="cls-2" d="m68.93,130.67l-.33,4.59s-.42-2.16-1.14-3.19-2.41-1.41-2.41-1.41v-3.47l2.59-.91,1.28,4.38Z"/>
    <path class="cls-2" d="m65.65,127.32h-2.94c-.19,0-.34.15-.34.34v1.19c0,.19.15.34.34.34h1.59v-.53h1.34v-1.34Z"/>
    <rect class="cls-2" x="63.43" y="125.92" width=".91" height="4.72" rx=".45" ry=".45"/>
    <rect class="cls-2" x="63.6" y="117.88" width=".57" height="17.31" rx=".28" ry=".28"/>
  </g>
  <g>
    <path class="cls-2" d="m72.05,64.7l.45.31s.35-.04.56.07,3.04,2.18,3.04,2.18l.22.16,35.24,25.49s.11.07.63.43.86-.49.86-.49c0,0,.21-1.3.31-1.67s-.15-.55-.15-.55l-35.24-25.49-.92,1.3-4.31-2.98-.18-.08-.24-.36-.6-.35-3.17-2.13.39.67,1.58,1.41v.28s.44.31.44.31l.23.02.59.46.52.19.17.14-.14.22-.27.48Z"/>
    <path class="cls-2" d="m73.58,58.48l.44-.33s.07-.35.24-.51,3.01-2.21,3.01-2.21l.22-.16,35.13-25.64s.1-.08.6-.46-.2-.97-.2-.97c0,0-1.17-.6-1.5-.82s-.57-.03-.57-.03l-35.13,25.64.95,1.28-4.16,3.18-.13.15-.42.12-.52.46-3.01,2.36.76-.16,1.83-1.07.27.08.43-.32.08-.21.62-.42.34-.44.19-.12.16.2.37.41Z"/>
    <path class="cls-2" d="m68.15,55.1l-.18-.52s-.31-.18-.41-.39-1.18-3.54-1.18-3.54l-.08-.26-13.53-41.34s-.05-.12-.26-.72-.98-.11-.98-.11c0,0-.93.93-1.24,1.17s-.2.53-.2.53l13.53,41.34,1.51-.51,1.74,4.94.1.17-.02.43.28.64,1.31,3.59.08-.77-.45-2.07.16-.23-.17-.51-.17-.15-.21-.72-.31-.46-.06-.21.24-.09.5-.23Z"/>
    <path class="cls-2" d="m63.25,59.22h-.55s-.26.25-.5.28-3.73.02-3.73.02h-.27s-43.49.09-43.49.09c0,0-.13,0-.76.02s-.4.9-.4.9c0,0,.6,1.17.73,1.54s.44.36.44.36l43.49-.09v-1.59s5.22-.13,5.22-.13l.2-.04.41.15.69-.07,3.82-.14-.71-.32-2.11-.21-.17-.22h-.54s-.19.13-.19.13l-.75-.02-.53.16h-.22s-.01-.27-.01-.27l-.06-.55Z"/>
    <path class="cls-2" d="m65.66,65.16l-.16.52s.14.32.1.55-1.13,3.56-1.13,3.56l-.09.26-13.35,41.39s-.03.12-.22.73.73.66.73.66c0,0,1.3-.21,1.69-.22s.48-.31.48-.31l13.35-41.39-1.52-.48,1.5-5.02.02-.2.27-.34.15-.68,1.05-3.67-.52.57-.85,1.94-.26.09-.16.51.06.22-.25.71-.02.55-.08.21-.25-.07-.54-.11Z"/>
  </g>
</svg>