<?xml version="1.0" encoding="UTF-8"?>
<svg id="Capa_1" data-name="Capa 1" xmlns="http://www.w3.org/2000/svg" viewBox="0 0 137.2 137.2">
  <defs>
    <style>
      .cls-1 {
        stroke: #010101;
        stroke-miterlimit: 10;
        stroke-width: .28px;
      }

      .cls-1, .cls-2 {
        fill: #010101;
      }

      .cls-3 {
        fill: none;
      }
    </style>
  </defs>
  <rect class="cls-3" width="137.2" height="137.2"/>
  <g id="Mi8">
    <g id="Mi8-2" data-name="Mi8">
      <g>
        <rect class="cls-2" x="68.28" y="58.45" width="3.33" height="4.29"/>
        <path class="cls-2" d="m68.28,42.32c3.17,0,5.73-2.57,5.73-5.73,0-.97-.24-1.89-.67-2.69-.96-1.81-2.87-3.05-5.07-3.05"/>
        <path class="cls-2" d="m73.47,34.13l1.32,5.66h.85s.16-.04.16.51v1.46s.06.16-.18.16h-.35v.43h-.23s.11.17.11.34.02.37.02.37v.08h.36v.23h-.47v.16h.21v.83s.03.19-.2.19-.15,0-.15,0v2.06s0,.13-.11.13v.88s.11.37.11.56-.11.58-.11.69v2.56h.04v-.66s.13-.37.56-.37.78.03,1.08.6.57,1.66.61,2.23,0,2.05,0,2.05v7.75s.03.02-.03.08-.35.32-.36.83.1.66.1.66c0,0,.05.12-.33.85s-.49.91-.7.91-.72-.02-.86.16-.11.21-.11.21v2.65s.17,2.64-.73,5.91c-.52,1.93-.56,2.62-2.77,5.43,0,0-1.18,12.06-1.14,25.56-.19,4.83-.33,7.36-.33,7.36,0,0-.49,6.3-.7,8.2-.07.45-.62.59-.62.59h-.25V38.46l5.19-4.33Z"/>
        <path class="cls-2" d="m73.68,35.83s.88.45,1.09,1.46-.2,2.4-.2,2.4l-.89-3.86Z"/>
        <rect class="cls-2" x="73.3" y="32.49" width=".2" height="2.76" rx=".1" ry=".1"/>
        <rect class="cls-2" x="71.56" y="33.8" width="2" height=".14" rx=".07" ry=".07" transform="translate(-6.59 46.03) rotate(-33.75)"/>
        <rect class="cls-2" x="79.07" y="62.38" width="1.56" height="4.42" rx=".78" ry=".78"/>
        <rect class="cls-2" x="78.92" y="63.36" width=".54" height="2.6" rx=".27" ry=".27"/>
        <rect class="cls-2" x="77.66" y="62.35" width=".54" height="3.58" rx=".27" ry=".27" transform="translate(-14.89 103.79) rotate(-62.59)"/>
        <rect class="cls-2" x="74.97" y="63.69" width=".2" height="3.58" rx=".1" ry=".1" transform="translate(-24.44 70.18) rotate(-43.8)"/>
        <rect class="cls-2" x="74.17" y="66.36" width="4.71" height=".4" rx=".2" ry=".2" transform="translate(-24.43 56.78) rotate(-35.48)"/>
        <rect class="cls-2" x="73.99" y="64.2" width="4.71" height=".4" rx=".2" ry=".2"/>
        <rect class="cls-2" x="74.49" y="66.81" width=".54" height="1.72" rx=".27" ry=".27"/>
        <rect class="cls-2" x="76.74" y="62.03" width=".54" height=".71" rx=".27" ry=".27"/>
        <rect class="cls-2" x="76.74" y="58.7" width=".54" height=".71" rx=".27" ry=".27"/>
        <rect class="cls-2" x="76.74" y="55.55" width=".54" height=".71" rx=".27" ry=".27"/>
        <path class="cls-2" d="m78.78,64.66s.13.37-.41.67-.13-.1-.13-.1c0,0,.15-.49-.04-.83s.58.27.58.27Z"/>
        <path class="cls-2" d="m77.12,107.17l-7.62-.28-.21,2.71.48,1.5,7.35-1.07s.56-.15.64-.86.12-1.29.12-1.29c0,0-.01-.69-.76-.71Z"/>
        <path class="cls-2" d="m68.28,121.47c.64,0,1.15.52,1.15,1.15h-.4v.86c-.2.18-.46.29-.75.29v-2.3Z"/>
        <path class="cls-2" d="m69.43,122.62c0,.35-.16.65-.4.86v-.86h.4Z"/>
        <line class="cls-1" x1="71.63" y1="78.28" x2="77.49" y2="108.71"/>
      </g>
      <g>
        <rect class="cls-2" x="64.95" y="58.45" width="3.33" height="4.29"/>
        <path class="cls-2" d="m68.28,42.32c-3.17,0-5.73-2.57-5.73-5.73,0-.97.24-1.89.67-2.69.96-1.81,2.87-3.05,5.07-3.05"/>
        <path class="cls-2" d="m63.09,34.13l-1.32,5.66h-.85s-.16-.04-.16.51v1.46s-.06.16.18.16h.35v.43h.23s-.11.17-.11.34-.02.37-.02.37v.08h-.36v.23h.47v.16h-.21v.83s-.03.19.2.19.15,0,.15,0v2.06s0,.13.11.13v.88s-.11.37-.11.56.11.58.11.69v2.56h-.04v-.66s-.13-.37-.56-.37-.78.03-1.08.6-.57,1.66-.61,2.23,0,2.05,0,2.05v7.75s-.03.02.03.08.35.32.36.83-.1.66-.1.66c0,0-.05.12.33.85s.49.91.7.91.72-.02.86.16.11.21.11.21v2.65s-.17,2.64.73,5.91c.52,1.93.56,2.62,2.77,5.43,0,0,1.18,12.06,1.14,25.56.19,4.83.33,7.36.33,7.36,0,0,.49,6.3.7,8.2.07.45.62.59.62.59h.25V38.46l-5.19-4.33Z"/>
        <path class="cls-2" d="m62.87,35.83s-.88.45-1.09,1.46.2,2.4.2,2.4l.89-3.86Z"/>
        <rect class="cls-2" x="63.05" y="32.49" width=".2" height="2.76" rx=".1" ry=".1"/>
        <rect class="cls-2" x="63.92" y="32.87" width=".14" height="2" rx=".07" ry=".07" transform="translate(.28 68.26) rotate(-56.25)"/>
        <rect class="cls-2" x="55.93" y="62.38" width="1.56" height="4.42" rx=".78" ry=".78"/>
        <rect class="cls-2" x="57.1" y="63.36" width=".54" height="2.6" rx=".27" ry=".27"/>
        <rect class="cls-2" x="56.84" y="63.87" width="3.58" height=".54" rx=".27" ry=".27" transform="translate(-22.95 34.19) rotate(-27.41)"/>
        <rect class="cls-2" x="59.69" y="65.39" width="3.58" height=".2" rx=".1" ry=".1" transform="translate(-28.34 64.53) rotate(-46.2)"/>
        <rect class="cls-2" x="59.84" y="64.21" width=".4" height="4.71" rx=".2" ry=".2" transform="translate(-29.01 76.81) rotate(-54.52)"/>
        <rect class="cls-2" x="57.86" y="64.2" width="4.71" height=".4" rx=".2" ry=".2"/>
        <rect class="cls-2" x="61.52" y="66.81" width=".54" height="1.72" rx=".27" ry=".27"/>
        <rect class="cls-2" x="59.27" y="62.03" width=".54" height=".71" rx=".27" ry=".27"/>
        <rect class="cls-2" x="59.27" y="58.7" width=".54" height=".71" rx=".27" ry=".27"/>
        <rect class="cls-2" x="59.27" y="55.55" width=".54" height=".71" rx=".27" ry=".27"/>
        <path class="cls-2" d="m57.78,64.66s-.13.37.41.67.13-.1.13-.1c0,0-.15-.49.04-.83s-.58.27-.58.27Z"/>
        <path class="cls-2" d="m59.44,107.17l7.62-.28.21,2.71-.48,1.5-7.35-1.07s-.56-.15-.64-.86-.12-1.29-.12-1.29c0,0,.01-.69.76-.71Z"/>
        <path class="cls-2" d="m68.28,121.47c-.64,0-1.15.52-1.15,1.15h.4v.86c.2.18.46.29.75.29v-2.3Z"/>
        <path class="cls-2" d="m67.13,122.62c0,.35.16.65.4.86v-.86h-.4Z"/>
        <line class="cls-1" x1="64.93" y1="78.28" x2="59.07" y2="108.71"/>
      </g>
    </g>
    <g>
      <rect class="cls-2" x="71.53" y="121.68" width=".89" height=".58" rx=".18" ry=".18" transform="translate(143.95 243.94) rotate(-180)"/>
      <rect class="cls-2" x="69.43" y="122.56" width="5.09" height=".41" transform="translate(194.74 50.79) rotate(90)"/>
      <rect class="cls-2" x="71.53" y="123.08" width=".89" height=".58" rx=".19" ry=".19" transform="translate(143.95 246.74) rotate(-180)"/>
      <rect class="cls-2" x="71.35" y="122.33" width=".56" height=".68" transform="translate(143.26 245.34) rotate(-180)"/>
      <rect class="cls-2" x="70.83" y="122.45" width=".56" height=".44" transform="translate(142.23 245.34) rotate(-180)"/>
      <ellipse class="cls-2" cx="71.97" cy="116.39" rx=".13" ry="2.63"/>
      <ellipse class="cls-2" cx="71.97" cy="128.52" rx=".13" ry="2.63"/>
      <rect class="cls-2" x="71.84" y="116.47" width=".27" height="11.38" transform="translate(143.95 244.33) rotate(-180)"/>
      <rect class="cls-2" x="72.47" y="122.36" width=".61" height=".61" rx=".18" ry=".18" transform="translate(210.98 157.95) rotate(135)"/>
      <path class="cls-2" d="m70.99,122.62s.02-.3-.11-.3h-1.04s-.92-.22-.92-.79,0,1.08,0,1.08h2.06Z"/>
      <path class="cls-2" d="m68.92,123.48c.24-.21.4-.51.4-.86h1.66s.02.3-.11.3h-1.04s-.47.11-.74.39l-.18.18.21-.24"/>
      <rect class="cls-2" x="71.63" y="122.05" width="1.22" height="1.32" transform="translate(144.49 245.42) rotate(-180)"/>
    </g>
    <path class="cls-2" d="m74.69,41.95h1.39s.4-.14.52.46.52,11.88.48,13.1c-2.61-1.09-3.95-10.17-3.95-10.17l.36-2.37,1.2-1.02Z"/>
  </g>
  <g>
    <path class="cls-2" d="m66.11,63.29l-.32.43s-.34.08-.5.25-2.11,3-2.11,3l-.15.22-24.4,35.01s-.08.1-.44.6-.95-.18-.95-.18c0,0-.61-1.14-.83-1.45s-.04-.56-.04-.56l24.4-35.01,1.28.9,3.03-4.15.14-.13.1-.41.44-.52,2.25-3-.14.75-1.01,1.82.09.26-.3.43-.2.09-.4.62-.42.34-.12.18.2.16.41.36Z"/>
    <path class="cls-2" d="m62.68,58.03l-.51-.17s-.18-.3-.39-.39-3.5-1.08-3.5-1.08l-.26-.07-40.84-12.39s-.12-.04-.71-.24-.12-.96-.12-.96c0,0,.89-.93,1.12-1.24s.52-.21.52-.21l40.84,12.39-.46,1.49,4.89,1.6.17.09.42-.03.63.26,3.55,1.21-.75.1-2.04-.4-.22.16-.5-.16-.15-.17-.71-.19-.46-.3-.21-.05-.08.24-.21.5Z"/>
    <path class="cls-2" d="m66.62,53.14v-.54s.23-.26.25-.49-.06-3.66-.06-3.66v-.27s-.85-42.67-.85-42.67c0,0,0-.12,0-.75s.88-.42.88-.42c0,0,1.16.56,1.52.68s.36.42.36.42l.84,42.67-1.56.02v5.14s-.05.19-.05.19l.16.39-.05.68-.06,3.75-.32-.69-.25-2.07-.22-.16v-.53s.11-.19.11-.19l-.04-.73.14-.53-.02-.22h-.26s-.54-.05-.54-.05Z"/>
    <path class="cls-2" d="m72.49,55.38l.51-.17s.32.13.55.09,3.47-1.19,3.47-1.19l.25-.09,40.32-13.98s.12-.03.71-.23.67.71.67.71c0,0-.17,1.28-.18,1.66s-.29.47-.29.47l-40.32,13.98-.5-1.48-4.9,1.58-.19.03-.33.27-.66.16-3.58,1.11.55-.52,1.89-.88.08-.26.5-.17.22.05.69-.26.54-.03.2-.08-.07-.25-.12-.53Z"/>
    <path class="cls-2" d="m72.18,61.65l.32.43s-.03.35.08.55,2.2,2.93,2.2,2.93l.16.21,25.76,34.03s.07.1.44.61-.47.85-.47.85c0,0-1.27.23-1.64.34s-.54-.13-.54-.13l-25.76-34.03,1.25-.93-3.01-4.17-.08-.18-.36-.23-.36-.58-2.16-3.06.67.36,1.42,1.52h.27s.31.42.31.42l.02.22.46.57.19.51.14.17.21-.15.46-.28Z"/>
  </g>
</svg>