<?xml version="1.0" encoding="UTF-8"?>
<svg id="Capa_2" data-name="Capa 2" xmlns="http://www.w3.org/2000/svg" viewBox="0 0 137.2 137.2">
  <defs>
    <style>
      .cls-1 {
        fill: none;
      }

      .cls-2 {
        fill: #1d1d1b;
      }
    </style>
  </defs>
  <g id="Capa_2-2" data-name="Capa 2">
    <rect class="cls-1" width="137.2" height="137.2"/>
    <path class="cls-2" d="m133.31,64.89c0-.4-.41-.75-1.03-.99-1.44-5.52-7.03-4.65-7.03-4.65l-25.29.07s-4.57-.51-6.27-2.18c.16-4.34.22-8.74-.13-9.75-.45-1.36-1.32-1.14-1.32-1.14h-2.23c-.03-.3-.06-.59-.1-.86.15-.01.3-.01.44.02.79.2,2.1.35,3.83.29,2.61-.08,4.64-.57,4.64-.9,0-.27-1.95-.35-4.85-.45-2.15-.07-3.64,0-4.27.05-.37-1.4-.99-2.32-1.7-2.32s-1.3.89-1.67,2.24c-.64-.05-2.11-.12-4.23-.05-2.91.09-4.85.18-4.85.45,0,.33,2.03.82,4.64.9,1.73.05,3.04-.09,3.83-.29.12-.03.26-.03.39-.03-.05.3-.09.61-.12.94h-1.88s-1.53,0-1.56,2.34c-.02,1.65-.1,5.29.02,8.78-.4.35-1.06.75-2.09.75-1.11,0-3.14-.75-4.58-1.35l-.6-5.68s-.91-10.81-2.78-16.16-3.82-5.5-3.82-5.5h-.11s-1.94.16-3.82,5.5-2.78,16.16-2.78,16.16l-.6,5.68c-1.44.6-3.47,1.35-4.58,1.35-1.03,0-1.7-.4-2.09-.75.13-3.49.04-7.13.02-8.78-.03-2.34-1.56-2.34-1.56-2.34h-1.88c-.03-.32-.07-.64-.12-.94.13,0,.27,0,.39.03.79.2,2.1.35,3.83.29,2.61-.08,4.64-.57,4.64-.9,0-.27-1.95-.35-4.85-.45-2.12-.07-3.59,0-4.23.05-.37-1.35-.98-2.24-1.67-2.24s-1.33.92-1.7,2.32c-.63-.05-2.11-.12-4.27-.05-2.91.09-4.85.18-4.85.45,0,.33,2.03.82,4.64.9,1.73.05,3.04-.09,3.83-.29.14-.03.29-.03.44-.02-.04.28-.08.56-.1.86h-2.23s-.88-.22-1.32,1.14c-.36,1-.29,5.4-.13,9.75-1.69,1.67-6.27,2.18-6.27,2.18l-25.29-.07s-5.59-.87-7.03,4.65c-.62.24-1.03.59-1.03.99,0,.33.28.63.73.86-.05.7-.05,1.47.01,2.33,1.05,10.38,8.65,10.55,8.65,10.55h48.23l4.72,40.59-18.64,5.32s-.78.39-.81,1.22,0,3.41,0,3.41c0,0,.03,1.86.67,2.8.2.42,3.16.39,3.16.39,0,0,11.38,1.27,17.94,1.09,6.56.17,17.94-1.09,17.94-1.09,0,0,2.95.03,3.16-.39.64-.94.67-2.8.67-2.8,0,0,.03-2.58,0-3.41s-.81-1.22-.81-1.22l-18.64-5.32,4.72-40.59h48.23s7.59-.16,8.65-10.55c.07-.86.06-1.63.01-2.33.45-.23.73-.53.73-.86Z"/>
  </g>
</svg>