<?xml version="1.0" encoding="UTF-8"?>
<svg id="Capa_2" data-name="Capa 2" xmlns="http://www.w3.org/2000/svg" viewBox="0 0 137.2 137.2">
  <defs>
    <style>
      .cls-1 {
        fill: none;
      }

      .cls-2 {
        fill: #1d1d1b;
      }
    </style>
  </defs>
  <g id="Capa_2-2" data-name="Capa 2">
    <rect class="cls-1" width="137.2" height="137.2"/>
    <path class="cls-2" d="m132.48,64.35c-.29-.11-.9.96-1.18,1.5v-2.67c-.04-1.92-1.56-5.46-3.47-5.64l-.17-.02c-.12-.01-.23-.02-.35-.02l-40.36-.08c-.2,0-.4-.04-.59-.11l-9.71-3.82v-.27s-2-16.03-2-16.03c-.24-1.53-1.56-2.66-3.11-2.66h-.59c-.01-.07-.02-.14-.03-.21h2.97c2.92,0,5.29-.3,5.29-.67s-2.37-.66-5.29-.66h-3.26c-.75-2.54-2.02-2.3-2.02-2.3,0,0-1.27-.25-2.02,2.3h-3.26c-2.92,0-5.29.3-5.29.66s2.37.67,5.29.67h2.97c-.01.07-.02.14-.03.21h-.59c-1.55,0-2.87,1.13-3.11,2.66l-2,16.03v.27s-9.72,3.82-9.72,3.82c-.19.07-.39.11-.59.11l-40.36.08c-.12,0-.23,0-.35.02l-.17.02c-1.91.18-3.42,3.72-3.47,5.64v2.67c-.28-.53-.89-1.6-1.18-1.5,0,0-.38.09.28,2.14.29,1.11.69,1.4.9,1.48v4.03c0,1.09.13,2.17.45,3.21.46,1.47,1.36,3.19,3.13,3.66.14.04.28.05.42.05,6.53-.02,44.11,0,50.75,0l5.2,38.26h-15.91c-1.34.08-2.38,2.23-2.38,3.57v4.69c0,1.31,1.07,2.38,2.38,2.38h18.36c.05.51.14,1.11.29,1.53.15-.42.24-1.01.29-1.53h18.36c1.31,0,2.38-1.07,2.38-2.38v-4.69c0-1.34-1.04-3.49-2.38-3.57h-15.91l5.2-38.26c6.65,0,44.22-.02,50.75,0,.14,0,.28-.01.42-.05,1.77-.48,2.67-2.19,3.13-3.66.32-1.04.45-2.12.45-3.21v-4.03c.21-.07.6-.36.9-1.48.66-2.05.28-2.14.28-2.14Z"/>
  </g>
</svg>