<?xml version="1.0" encoding="UTF-8"?>
<svg id="Capa_2" data-name="Capa 2" xmlns="http://www.w3.org/2000/svg" viewBox="0 0 137.2 137.2">
  <defs>
    <style>
      .cls-1 {
        fill: none;
      }

      .cls-2 {
        fill: #1d1d1b;
      }
    </style>
  </defs>
  <g id="Capa_2-2" data-name="Capa 2">
    <rect class="cls-1" width="137.2" height="137.2"/>
    <path class="cls-2" d="m126.97,64.03l-34.73-2.44c-.03-7.2-.61-12.58-.61-12.98,0-.42-.61-.84-.61-.84l-1.49-.68c-.03-.43-.07-.85-.12-1.25.07,0,.14,0,.2.02.79.2,2.1.35,3.83.29,2.61-.08,4.64-.57,4.64-.9,0-.27-1.95-.35-4.85-.45-1.88-.06-3.24,0-3.98.04-.41-2.23-1.13-3.71-1.96-3.71s-1.53,1.45-1.94,3.64c-.73-.04-2.1-.1-3.99-.04-2.91.09-4.85.18-4.85.45,0,.33,2.03.82,4.64.9,1.73.05,3.04-.09,3.83-.29.07-.02.14-.02.21-.02-.05.4-.1.83-.13,1.26l-1.49.75s-.7.47-.89,1.17c-.33,2.62-.38,6.98-.31,11.54l-.53-.1-6.21-3.47c-.08-3.22-.25-6.42-.56-9.06-1.06-9.03-2.44-11.94-3.84-15.22-1.33-3.1-2.35-2.97-2.35-2.97,0,0-1.01-.14-2.35,2.97-1.41,3.28-2.78,6.19-3.84,15.22-.31,2.64-.48,5.85-.56,9.06l-6.21,3.47-.53.1c.07-4.56.01-8.92-.31-11.54-.19-.7-.89-1.17-.89-1.17l-1.49-.75c-.03-.44-.08-.86-.13-1.26.07,0,.15,0,.21.02.79.2,2.1.35,3.83.29,2.61-.08,4.64-.57,4.64-.9,0-.27-1.95-.35-4.85-.45-1.89-.06-3.26,0-3.99.04-.41-2.19-1.13-3.64-1.94-3.64s-1.55,1.48-1.96,3.71c-.74-.04-2.1-.1-3.98-.04-2.91.09-4.85.18-4.85.45,0,.33,2.03.82,4.64.9,1.73.05,3.04-.09,3.83-.29.06-.02.13-.02.2-.02-.05.4-.09.82-.12,1.25l-1.49.68s-.61.42-.61.84c0,.4-.58,5.78-.61,12.98l-34.73,2.44s-1.5.42-1.45,1.31.33,6.33.33,6.33c0,0,.05,1.31,1.12,1.78.87.38,25.79,4.48,35.21,6.02.13,2.43.27,4.3.42,5.04.23.75.09.89.84,1.12.75.23,1.78.94,3.05.94s3.19-.98,3.19-.98c0,0,.47-.47.66-1.36.09-.44.23-1.88.35-3.23l5.37,1.03s1.17-.05,1.36.42c.14.36.35.97.91,1.34.15,3.24.59,11.38,1.31,14.24.52,2.07,1.42,8.49,2.08,13.56l-22.39,3.34s-1.08.47-1.08,1.45v3.47s-.09,1.08,1.41,1.36c1.43.27,17.18,2.19,24.16,2.74.23.66.49,1.2.76,1.45.03.03.06.05.09.07,0,1.09.04,3.35.26,3.62.16.26.16.09.16.09,0,0,0,.16.16-.09.21-.27.25-2.53.26-3.62.03-.02.06-.05.09-.07.27-.25.53-.79.76-1.45,6.98-.55,22.73-2.47,24.16-2.74,1.5-.28,1.41-1.36,1.41-1.36v-3.47c0-.98-1.08-1.45-1.08-1.45l-22.39-3.34c.67-5.08,1.56-11.49,2.08-13.56.72-2.85,1.16-11,1.31-14.24.56-.37.76-.98.91-1.34.19-.47,1.36-.42,1.36-.42l5.37-1.03c.12,1.35.25,2.79.35,3.23.19.89.66,1.36.66,1.36,0,0,1.92.98,3.19.98s2.3-.7,3.05-.94c.75-.23.61-.38.84-1.12.15-.74.29-2.61.42-5.04,9.42-1.54,34.33-5.64,35.21-6.02,1.08-.47,1.12-1.78,1.12-1.78,0,0,.28-5.44.33-6.33s-1.45-1.31-1.45-1.31Z"/>
  </g>
</svg>