<?xml version="1.0" encoding="UTF-8"?>
<svg id="Capa_2" data-name="Capa 2" xmlns="http://www.w3.org/2000/svg" viewBox="0 0 137.2 137.2">
  <defs>
    <style>
      .cls-1 {
        fill: none;
      }

      .cls-2 {
        fill: #1d1d1b;
      }
    </style>
  </defs>
  <g id="Capa_2-2" data-name="Capa 2">
    <rect class="cls-1" width="137.2" height="137.2"/>
    <path class="cls-2" d="m128.3,61.21h-35.04c.2-1.38.4-4.01.4-9.05,0-2.11-.7-3.75-2.11-3.75h-1.32c-.03-.23-.06-.45-.1-.66.11,0,.23,0,.33.03.79.2,2.1.35,3.83.29,2.61-.08,4.64-.57,4.64-.9,0-.27-1.95-.35-4.85-.45-2.03-.07-3.46,0-4.14.05-.42-1.85-1.06-3.05-1.8-3.05s-1.36,1.17-1.78,2.98c-.68-.05-2.11-.11-4.16-.05-2.91.09-4.85.18-4.85.45,0,.33,2.03.82,4.64.9,1.73.05,3.04-.09,3.83-.29.11-.03.22-.03.34-.03-.04.24-.08.48-.11.73h-1.51s-1.92-.28-1.92,1.92v10.72c-.23-.03-.46-.07-.66-.12-1.35-.33-5.07-1.93-6.66-2.62-.17-5.71-.62-11.46-1.64-15.34-2.37-9.97-5.09-9.56-5.09-9.56,0,0-2.72-.41-5.09,9.56-1.02,3.89-1.47,9.64-1.64,15.34-1.59.7-5.31,2.3-6.66,2.62-.2.05-.42.09-.66.12v-10.72c0-2.2-1.92-1.92-1.92-1.92h-1.51c-.03-.25-.07-.5-.11-.73.12,0,.24,0,.34.03.79.2,2.1.35,3.83.29,2.61-.08,4.64-.57,4.64-.9,0-.27-1.95-.35-4.85-.45-2.05-.07-3.48,0-4.16.05-.42-1.81-1.06-2.98-1.78-2.98s-1.38,1.2-1.8,3.05c-.68-.05-2.11-.11-4.14-.05-2.91.09-4.85.18-4.85.45,0,.33,2.03.82,4.64.9,1.73.05,3.04-.09,3.83-.29.1-.03.22-.03.33-.03-.03.21-.07.43-.1.66h-1.32c-1.41,0-2.11,1.64-2.11,3.75,0,5.03.2,7.67.4,9.05H8.91s-2.11,1.23-2.06,5,.94,9.34,1.41,10.09.56,1.22,1.83,1.27c1.15.04,44.32,0,52.06,0,0,0,0,.01,0,.01,0,0,1.53,16.25,3.82,34.53h-16.97s-1.88.32-1.88,2.4.61,6.23,1.17,6.81c.56.58,19.66,0,19.95,0,.04.51.14,1.19.37,1.27.22-.07.32-.76.37-1.27.3,0,19.4.58,19.95,0,.56-.59,1.17-4.74,1.17-6.81s-1.88-2.4-1.88-2.4h-16.97c2.29-18.29,3.82-34.53,3.82-34.53,0,0,0-.01,0-.01,7.74,0,50.91.04,52.06,0,1.27-.05,1.36-.52,1.83-1.27s1.36-6.33,1.41-10.09-2.06-5-2.06-5Z"/>
  </g>
</svg>