<?xml version="1.0" encoding="UTF-8"?>
<svg id="Capa_2" data-name="Capa 2" xmlns="http://www.w3.org/2000/svg" viewBox="0 0 137.2 137.2">
  <defs>
    <style>
      .cls-1 {
        fill: none;
      }

      .cls-2 {
        fill: #1d1d1b;
      }
    </style>
  </defs>
  <g id="Capa_2-2" data-name="Capa 2">
    <rect class="cls-1" width="137.2" height="137.2"/>
    <path class="cls-2" d="m131.51,72.91v-8.74c0-.74-1.26-1.16-1.26-1.16l-36.46-2.98c.01-2.62.03-7.06,0-7.46-.05-.58-.63-1.08-.63-1.08l-2.32-1.24h0c0-.06,0-.12-.01-.17.17-.02.37-.03.54.01.79.22,2.11.39,3.85.33,2.62-.09,4.66-.64,4.66-1.01,0-.3-1.95-.39-4.87-.5-2.15-.08-3.64,0-4.27.06-.26-2.22-.73-3.72-1.27-3.72s-1,1.46-1.26,3.63c-.63-.05-2.12-.14-4.28-.06-2.92.11-4.87.2-4.87.5,0,.37,2.04.92,4.66,1.01,1.74.06,3.05-.11,3.85-.33.17-.05.36-.04.54-.01,0,.13-.02.26-.03.39-.53.26-1.73.84-2.26,1.08-.68.32-.71,1.61-.71,1.61v6.95h-2.55l-7.49-3.1c-.01-.11-.02-.21-.04-.32-1.93-15.73-4.39-18.35-5.02-19.31-.64-.97-1.42-.89-1.42-.89,0,0-.78-.08-1.42.89-.63.96-3.09,3.58-5.02,19.31-.01.11-.02.21-.04.32l-7.49,3.1h-2.55v-6.95s-.03-1.29-.71-1.61c-.52-.24-1.72-.82-2.26-1.08,0-.13-.02-.26-.03-.39.18-.02.37-.03.54.01.79.22,2.11.39,3.85.33,2.62-.09,4.66-.64,4.66-1.01,0-.3-1.95-.39-4.87-.5-2.16-.08-3.65.01-4.28.06-.26-2.17-.73-3.63-1.26-3.63s-1.02,1.5-1.27,3.72c-.63-.05-2.12-.14-4.27-.06-2.92.11-4.87.2-4.87.5,0,.37,2.04.92,4.66,1.01,1.74.06,3.05-.11,3.85-.33.17-.05.36-.04.54-.01,0,.06,0,.12-.01.17h0l-2.32,1.24s-.58.5-.63,1.08c-.04.41-.02,4.85,0,7.46l-36.46,2.98s-1.26.42-1.26,1.16v8.74s-.16,1.37,1.53,1.47c1.63.1,24.76,2.83,36.9,3.21.52,1.9,1.92,3.27,3.59,3.27s3.03-1.33,3.57-3.18c4.69,0,8.66-.12,11.35-.22.05,4.35.53,17.64,4.34,36.19h-13.65s-1.29.63-1.29,3.13.84,4.82,2.03,4.82h29.19c1.18,0,2.03-2.32,2.03-4.82s-1.29-3.13-1.29-3.13h-13.65c3.81-18.55,4.29-31.83,4.34-36.19,2.68.1,6.66.22,11.35.22.54,1.85,1.93,3.18,3.57,3.18s3.07-1.37,3.59-3.27c12.14-.38,35.27-3.1,36.9-3.21,1.68-.11,1.53-1.47,1.53-1.47Z"/>
  </g>
</svg>