<?xml version="1.0" encoding="UTF-8"?>
<svg id="Capa_2" data-name="Capa 2" xmlns="http://www.w3.org/2000/svg" viewBox="0 0 137.2 137.2">
  <defs>
    <style>
      .cls-1 {
        fill: none;
      }

      .cls-2 {
        fill: #1d1d1b;
      }
    </style>
  </defs>
  <g id="Capa_2-2" data-name="Capa 2">
    <rect class="cls-1" width="137.2" height="137.2"/>
    <path class="cls-2" d="m127.84,72.52s-.05.02-.08.03c0-.43,0-.81-.02-.94-.01-.12-.21-.36-.21-.36,0,0-2.25-4.72-2.88-5.91s-1.31-1.19-1.31-1.19l-48.03-2.26v-9.31c0-6.44-1.8-11.88-2.39-14.74-.32-1.58-.51-2.12-.62-2.28l-.03-.33s.07.02.11.03c.56.26,1.41,1.95,1.41,1.95,0,0,.19-1.55.68-1.95-.75-1.85-1.99-2.13-1.99-2.13h-.66s-.4-1.66-.45-1.97-.35-.19-.35-.19c0,0-.05-.45-.18-.75h2.47c2.45,0,4.44-.26,4.44-.59s-1.99-.59-4.44-.59h-2.83c-.94-2.85-1.61-3.03-1.61-3.03,0,0-.67.18-1.61,3.03h-2.83c-2.45,0-4.44.26-4.44.59s1.99.59,4.44.59h2.47c-.13.3-.18.75-.18.75,0,0-.3-.12-.35.19s-.45,1.97-.45,1.97h-.66s-1.24.28-1.99,2.13c.49.4.68,1.95.68,1.95,0,0,.84-1.69,1.41-1.95.04-.01.07-.02.11-.03l-.03.33c-.1.16-.29.69-.62,2.28-.59,2.86-2.39,8.3-2.39,14.74v9.31l-48.03,2.26s-.69,0-1.31,1.19-2.88,5.91-2.88,5.91c0,0-.2.24-.21.36-.02.13-.02.51-.02.94-.03,0-.05-.03-.08-.03-.17,0-.31.14-.31.31s.14.31.31.31c.03,0,.05-.03.08-.03,0,.61.02,1.17.02,1.17,0,0-.04.26.21.2,0,0,1.78-1.81,3.13-1.78.99.02,10.31.61,19.28,1.46.04.45.12.99.23.99.13,0,.2-.5.24-.94,3,.29,5.94.61,8.5.94,1.45.19,2.93.38,4.39.56.04.47.12,1.05.24,1.05.13,0,.2-.54.24-.99,6.33.79,12.3,1.48,15.09,1.8.29.18.78.57.88,1.16v8.65s-.05,1.12.23,3.7c.15,1.41,1.07,7.44,1.98,12.99.14,2.35.35,5.77.46,5.97.11.2.5.77.77,1.15.25,1.34.46,2.33.59,2.76l.7,2.3s.2,1.81.37,2.59l-15.7,1.96s-.42.2-.71.77-.53.94-.53.94c0,0-.16.33.16.33h1.24l-.07.21h-.84c-.2,0-.27.16-.27.16l-.98,1.84c-.1.19-.15.4-.13.61l.09,1.52c0,.08.07.15.15.15l18.03,1.03c.2,1.65.5,3.2.9,3.2s.7-1.55.9-3.2l18.03-1.03c.08,0,.15-.07.15-.15l.09-1.52c.01-.21-.03-.43-.13-.61l-.98-1.84s-.07-.16-.27-.16h-.84l-.07-.21h1.24c.33,0,.16-.33.16-.33,0,0-.23-.36-.53-.94s-.71-.77-.71-.77l-15.7-1.96c.17-.78.37-2.59.37-2.59l.7-2.3c.13-.43.34-1.42.59-2.76.27-.38.66-.95.77-1.15.11-.2.32-3.61.46-5.97.91-5.55,1.82-11.58,1.98-12.99.28-2.58.23-3.7.23-3.7v-8.65c.1-.59.59-.98.88-1.16,2.8-.32,8.76-1,15.09-1.8.04.46.11.99.24.99.12,0,.2-.59.24-1.05,1.46-.18,2.93-.37,4.39-.56,2.56-.34,5.5-.65,8.5-.94.04.44.11.94.24.94.11,0,.19-.53.23-.99,8.97-.85,18.29-1.44,19.28-1.46,1.34-.03,3.13,1.78,3.13,1.78.25.07.21-.2.21-.2,0,0,.01-.56.02-1.17.03,0,.05.03.08.03.17,0,.31-.14.31-.31s-.14-.31-.31-.31Z"/>
  </g>
</svg>