<?xml version="1.0" encoding="UTF-8"?>
<svg id="Capa_1" data-name="Capa 1" xmlns="http://www.w3.org/2000/svg" viewBox="0 0 137.2 137.2">
  <defs>
    <style>
      .cls-1 {
        fill: none;
      }

      .cls-2 {
        fill: #010101;
      }
    </style>
  </defs>
  <rect class="cls-1" width="137.2" height="137.2"/>
  <g id="R22">
    <g>
      <g>
        <rect class="cls-2" x="68.04" y="66.55" width="3.33" height="4.29"/>
        <path class="cls-2" d="m68.04,40.46h1.35s5.44.98,6.84,6.7c.35,1.41.45,1.52.39,4.08-.17,7.81-1.75,20.81-1.75,20.81,0,0,.66,1.12-4.12,1.78-.98.12-2.45,0-2.45,0l-.26.05v-33.43Z"/>
        <path class="cls-2" d="m73.7,72.48v1.78c0,.31-.25.56-.56.56h-3.98v-2.34h4.55Z"/>
        <polygon class="cls-2" points="70.7 73.23 68.86 124.12 68.04 124.12 68.04 71.37 70.7 73.23"/>
        <rect class="cls-2" x="81.16" y="40.32" width="1.43" height="34.05" rx=".71" ry=".71"/>
        <rect class="cls-2" x="74.43" y="50.87" width="7.55" height="1.01"/>
        <rect class="cls-2" x="72.23" y="67.7" width="9.64" height="1.2"/>
      </g>
      <g>
        <rect class="cls-2" x="64.71" y="66.55" width="3.33" height="4.29"/>
        <path class="cls-2" d="m68.04,40.46h-1.35s-5.44.98-6.84,6.7c-.35,1.41-.45,1.52-.39,4.08.17,7.81,1.75,20.81,1.75,20.81,0,0-.66,1.12,4.12,1.78.98.12,2.45,0,2.45,0l.26.05v-33.43Z"/>
        <path class="cls-2" d="m62.38,72.48v1.78c0,.31.25.56.56.56h3.98v-2.34h-4.55Z"/>
        <polygon class="cls-2" points="65.38 73.23 67.22 124.12 68.04 124.12 68.04 71.37 65.38 73.23"/>
        <rect class="cls-2" x="53.49" y="40.32" width="1.43" height="34.05" rx=".71" ry=".71"/>
        <rect class="cls-2" x="54.1" y="50.87" width="7.55" height="1.01"/>
        <rect class="cls-2" x="54.21" y="67.7" width="9.64" height="1.2"/>
      </g>
    </g>
    <rect class="cls-2" x="65.16" y="125.13" width="2.28" height=".72"/>
    <rect class="cls-2" x="66.83" y="124.68" width=".67" height="1.81"/>
    <path class="cls-2" d="m64.88,123.6c1.04,0,1.62.84,1.62,1.88s-.58,1.88-1.62,1.88"/>
    <path class="cls-2" d="m67.5,124.9v-1.09l1.3-.06v1.16s.12,1.27-.84,1.27-.79-.08-.79-.08l.34-1.19Z"/>
    <rect class="cls-2" x="64.69" y="117.41" width=".4" height="15.59" rx=".2" ry=".2"/>
    <path class="cls-2" d="m68.6,123.1h9.9v2.91s-5.55,1.05-7.66,1.36l-2.11.3v-4.29l-.13-.28Z"/>
  </g>
  <g>
    <polygon class="cls-2" points="67.78 67.08 67.2 66.85 68.04 63.85 66.04 66.38 65.14 66.03 45.72 114.32 48.36 115.38 67.78 67.08"/>
    <polygon class="cls-2" points="68.3 60.62 68.88 60.86 68.04 63.85 70.04 61.32 70.93 61.68 90.36 13.39 87.72 12.33 68.3 60.62"/>
  </g>
</svg>