<?xml version="1.0" encoding="UTF-8"?>
<svg id="Capa_1" data-name="Capa 1" xmlns="http://www.w3.org/2000/svg" viewBox="0 0 137.2 137.2">
  <defs>
    <style>
      .cls-1 {
        fill: none;
      }

      .cls-2 {
        fill: #010101;
      }
    </style>
  </defs>
  <rect class="cls-1" width="137.2" height="137.2"/>
  <path id="R44" class="cls-2" d="m69.84,121.02l-.69-2.06,1.11-39.81c1.53-.15,2.06-1.25,2.06-1.25,0,0,.53-4.41,1.11-9.48,1.37-.21,3.51-.56,4.67-.84v2.84c0,.37.31.68.68.68s.68-.31.68-.68v-27.85c0-.37-.31-.68-.68-.68s-.68.31-.68.68v9.07h-3.02c.15-3.62-.02-5.78-.02-5.78,0,0-.09-3.35-1.78-7.24s-5.04-3.68-5.04-3.68c0,0-3.35-.21-5.04,3.68s-1.78,7.24-1.78,7.24c0,0-.16,2.16-.02,5.78h-3.02v-9.07c0-.37-.31-.68-.68-.68s-.68.31-.68.68v27.85c0,.37.31.68.68.68s.68-.31.68-.68v-2.84c1.16.28,3.3.63,4.67.84.58,5.07,1.11,9.48,1.11,9.48,0,0,.53,1.11,2.06,1.25l1.19,42.55c-.09.09-.15.19-.21.3h-1.21v-.58c0-.24-.2-.45-.45-.45-.02,0-.05.01-.07.01v-5.44c0-.21-.17-.38-.38-.38s-.38.17-.38.38v14.11c0,.21.17.38.38.38s.38-.17.38-.38v-5.87s.05.01.07.01c.24,0,.45-.2.45-.45v-.54h1.07c.1.6.6,1.06,1.23,1.06.25,0,.48-.09.67-.22v2.31h.41s-1.48,4.64-2.14,6.3c.2.75.68.25.68.25l2.6-6.62h.86v.49c.39.39.66,0,.66,0v-.52l8.72-.87v-3.38l-10.9-.61Zm8.27-67.81v12.99h-4.42c.44-3.83.87-7.73,1.1-10.17.08-.85.14-1.66.19-2.43,1.15-.07,2.38-.19,3.13-.39Zm-19.72,12.99v-12.99c.75.2,1.98.32,3.13.39.05.76.11,1.57.19,2.43.23,2.44.66,6.34,1.1,10.17h-4.42Z"/>
  <g>
    <path class="cls-2" d="m65.61,63.43l2.63-3.86-3.47,3.07-.4-.38-26.02,27.28-.02-.02c-.21-.2-.53-.19-.73.02l-.89.93c-.2.21-.19.53.02.73l.02.02-7.5,7.86,1.69,1.61,35.13-36.82-.46-.44Z"/>
    <path class="cls-2" d="m70.87,55.7l-2.63,3.86,3.47-3.07.4.38,26.02-27.28.02.02c.21.2.53.19.73-.02l.89-.93c.2-.21.19-.53-.02-.73l-.02-.02,7.5-7.86-1.69-1.61-35.13,36.82.46.44Z"/>
  </g>
</svg>