<?xml version="1.0" encoding="UTF-8"?>
<svg id="Capa_1" data-name="Capa 1" xmlns="http://www.w3.org/2000/svg" viewBox="0 0 137.2 137.2">
  <defs>
    <style>
      .cls-1 {
        fill: none;
      }

      .cls-2 {
        fill: #010101;
      }
    </style>
  </defs>
  <rect class="cls-1" width="137.2" height="137.2"/>
  <g id="RAH-66">
    <g id="RAH-66-2" data-name="RAH-66">
      <g>
        <rect class="cls-2" x="68.33" y="38.39" width="3.47" height="7.31"/>
        <path class="cls-2" d="m68.35,25.95c2.35,0,4.25-1.9,4.25-4.25s-1.9-4.25-4.25-4.25"/>
        <path class="cls-2" d="m68.35,11.26h.68v.96s-.02.14-.2.14h-.48v-1.1Z"/>
        <polygon class="cls-2" points="68.86 12.14 68.86 17.6 68.33 17.6 68.33 12.07 68.86 12.14"/>
        <rect class="cls-2" x="68.72" y="11.03" width=".14" height=".48"/>
        <rect class="cls-2" x="68.35" y="11.03" width=".14" height=".48"/>
        <path class="cls-2" d="m71.8,22.13l4.37,25c.15.86.23,1.74.24,2.61l.33,25.32c.02,1.18-.1,2.35-.34,3.5l-5.17,24.52h-2.91V21.7l3.47.42Z"/>
        <rect class="cls-2" x="68.33" y="117.89" width="10.75" height="6.72"/>
        <ellipse class="cls-2" cx="74.22" cy="38.39" rx=".72" ry="1.33" transform="translate(-1.27 74.23) rotate(-52.75)"/>
      </g>
      <g>
        <rect class="cls-2" x="64.86" y="38.39" width="3.47" height="7.31"/>
        <path class="cls-2" d="m68.32,25.95c-2.35,0-4.25-1.9-4.25-4.25s1.9-4.25,4.25-4.25"/>
        <path class="cls-2" d="m68.32,11.26h-.68v.96s.02.14.2.14h.48v-1.1Z"/>
        <polygon class="cls-2" points="67.81 12.14 67.81 17.6 68.33 17.6 68.33 12.07 67.81 12.14"/>
        <rect class="cls-2" x="67.81" y="11.03" width=".14" height=".48"/>
        <rect class="cls-2" x="68.19" y="11.03" width=".14" height=".48"/>
        <path class="cls-2" d="m64.86,22.13l-4.37,25c-.15.86-.23,1.74-.24,2.61l-.33,25.32c-.02,1.18.1,2.35.34,3.5l5.17,24.52h2.91V21.7l-3.47.42Z"/>
        <rect class="cls-2" x="57.58" y="117.89" width="10.75" height="6.72"/>
        <ellipse class="cls-2" cx="62.44" cy="38.39" rx="1.33" ry=".72" transform="translate(-10.5 45.63) rotate(-37.25)"/>
      </g>
    </g>
    <path class="cls-2" d="m65.52,101.72l-1.27,6.3c-.08.42-.13.85-.14,1.28l-.23,10.51h8.39v-12.33c0-.83-.4-1.6-1.06-2.09l-.29-.21c-.12-.08-.17-.23-.13-.37l.45-1.74.28-2.06-6,.7Z"/>
  </g>
  <g>
    <polygon class="cls-2" points="68.88 54.06 68.24 56.91 68.24 56.91 69.07 54.1 70.47 54.47 71.71 49.69 72.47 49.89 75.02 40.09 75.54 39.95 76.33 36.93 75.92 36.63 78.63 26.22 79.15 26.08 79.94 23.05 79.59 22.53 81.53 15.06 84.19 11.78 82.45 11.33 78.75 14.34 70.94 44.34 69.87 45.8 67.8 53.77 68.88 54.06"/>
    <polygon class="cls-2" points="65.73 55.41 68.24 56.91 68.24 56.91 65.83 55.25 66.61 54.03 62.45 51.37 62.87 50.71 54.34 45.26 54.37 44.72 51.74 43.04 51.33 43.34 42.27 37.55 42.3 37 39.66 35.32 39.05 35.49 32.55 31.34 30.25 27.79 29.28 29.31 31 33.76 57.12 50.45 58.18 51.93 65.12 56.36 65.73 55.41"/>
    <polygon class="cls-2" points="66.04 58.83 68.24 56.91 68.24 56.91 65.92 58.69 65 57.57 61.19 60.7 60.69 60.1 52.87 66.52 52.37 66.33 49.95 68.32 50.11 68.8 41.8 75.63 41.29 75.43 38.88 77.42 38.85 78.05 32.89 82.95 28.81 84.04 29.95 85.43 34.72 85.17 58.66 65.49 60.4 64.93 66.76 59.7 66.04 58.83"/>
    <polygon class="cls-2" points="69.39 59.59 68.24 56.91 68.24 56.91 69.22 59.66 67.87 60.19 69.67 64.79 68.94 65.07 72.64 74.49 72.3 74.92 73.44 77.83 73.95 77.82 77.87 87.84 77.53 88.26 78.67 91.17 79.27 91.39 82.08 98.57 81.86 102.79 83.53 102.13 84.76 97.52 73.44 68.67 73.45 66.85 70.44 59.18 69.39 59.59"/>
    <polygon class="cls-2" points="71.15 56.64 68.24 56.91 68.24 56.91 71.16 56.83 71.25 58.28 76.18 57.98 76.22 58.76 86.33 58.16 86.62 58.61 89.74 58.43 89.9 57.94 100.63 57.3 100.93 57.76 104.05 57.57 104.44 57.08 112.14 56.62 116.09 58.13 115.98 56.34 111.97 53.75 81.03 55.59 79.3 55.02 71.08 55.52 71.15 56.64"/>
  </g>
</svg>