<?xml version="1.0" encoding="UTF-8"?>
<svg version="1.1" xmlns="http://www.w3.org/2000/svg" width="263" height="272">
<path d="M0 0 C1.32 0 2.64 0 4 0 C4.495 8.91 4.495 8.91 5 18 C6.98 18.495 6.98 18.495 9 19 C9 20.32 9 21.64 9 23 C9.763125 22.79375 10.52625 22.5875 11.3125 22.375 C14 22 14 22 17 24 C17 25.32 17 26.64 17 28 C17.99 28 18.98 28 20 28 C20 31.96 20 35.92 20 40 C21.27230469 40.17015625 22.54460937 40.3403125 23.85546875 40.515625 C36.66108684 42.26647458 49.3262133 44.47037895 62 47 C62 46.34 62 45.68 62 45 C63.65 44.34 65.3 43.68 67 43 C72.35718324 54.34960561 68.66912443 71.68348351 68 84 C66.125 83.6875 66.125 83.6875 64 83 C61.97649676 79.96474514 61.67875982 78.80573798 61.375 75.3125 C61.26285156 74.10013672 61.26285156 74.10013672 61.1484375 72.86328125 C61.09945312 72.24839844 61.05046875 71.63351563 61 71 C57.80818568 73.86943161 54.68196499 76.80222822 51.5625 79.75 C50.66466797 80.55566406 49.76683594 81.36132812 48.84179688 82.19140625 C44.0397704 86.79410333 41.46665746 89.86886052 40.90234375 96.640625 C40.89092657 98.42734341 40.90747348 100.21564245 41 102 C40.01 102 39.02 102 38 102 C37.34 100.35 36.68 98.7 36 97 C34.20200331 98.74387639 32.41167703 100.49458982 30.625 102.25 C29.86316406 102.98669922 29.86316406 102.98669922 29.0859375 103.73828125 C26.34928109 106.43892902 24.74793959 108.50412083 23 112 C27.455 111.505 27.455 111.505 32 111 C32.52719789 114.61507122 32.77922078 116.82282855 30.72265625 119.9296875 C28.26323144 122.70699715 25.69583851 125.34888553 22.98681641 127.88378906 C16.68448964 134.17540019 15.0473573 140.28428294 13.375 148.875 C13.09776065 150.18760409 12.81768387 151.49961177 12.53491211 152.81103516 C11.95641973 155.51189803 11.39330121 158.21527639 10.84228516 160.921875 C10.01825991 164.94824986 9.13377565 168.95950334 8.23046875 172.96875 C6.80221918 179.30860482 5.39379072 185.65248667 4 192 C2.68 192 1.36 192 0 192 C-2.9296875 178.81640625 -2.9296875 178.81640625 -3.46801758 176.39379883 C-3.81413964 174.83632899 -4.16032754 173.27887378 -4.5065918 171.72143555 C-5.35107289 167.92272163 -6.1942463 164.12372492 -7.03515625 160.32421875 C-7.20466797 159.55916016 -7.37417969 158.79410156 -7.54882812 158.00585938 C-7.89558382 156.44084412 -8.24192816 154.87573767 -8.58789062 153.31054688 C-8.75611328 152.55193359 -8.92433594 151.79332031 -9.09765625 151.01171875 C-9.24726807 150.33584717 -9.39687988 149.65997559 -9.55102539 148.96362305 C-9.86398004 147.59489316 -10.19349763 146.22989003 -10.53564453 144.86816406 C-10.84551032 143.62153261 -11.11116484 142.36309088 -11.33203125 141.09765625 C-13.08463848 133.674011 -18.11268561 129.10009249 -23.28515625 123.8203125 C-27.96759435 118.95596673 -27.96759435 118.95596673 -28.125 114.3125 C-28.08375 113.219375 -28.0425 112.12625 -28 111 C-21.25 110.875 -21.25 110.875 -19 112 C-21.17526763 107.99292806 -23.7057788 105.13735352 -27 102 C-28.66666667 100.33333333 -30.33333333 98.66666667 -32 97 C-32.66 98.65 -33.32 100.3 -34 102 C-34.99 102 -35.98 102 -37 102 C-36.96849854 101.24614014 -36.93699707 100.49228027 -36.90454102 99.71557617 C-36.9787376 93.45603817 -37.64540214 89.6050974 -41.96484375 84.92578125 C-43.59483434 83.35883623 -45.25337651 81.8211133 -46.9375 80.3125 C-47.77474609 79.51650391 -48.61199219 78.72050781 -49.47460938 77.90039062 C-53.41935074 74.01223248 -53.41935074 74.01223248 -58 71 C-57.96519531 71.60328125 -57.93039063 72.2065625 -57.89453125 72.828125 C-57.67066895 79.4373928 -57.67066895 79.4373928 -59.5 82.5625 C-59.995 83.036875 -60.49 83.51125 -61 84 C-61.99 83.67 -62.98 83.34 -64 83 C-64.76532392 71.31514365 -65.13339991 59.70954775 -65 48 C-64.34 48 -63.68 48 -63 48 C-63 46.35 -63 44.7 -63 43 C-61.0625 43.375 -61.0625 43.375 -59 44 C-58.67 44.66 -58.34 45.32 -58 46 C-56.72769531 45.81824219 -55.45539063 45.63648438 -54.14453125 45.44921875 C-41.4296875 43.6328125 -28.71484375 41.81640625 -16 40 C-16 36.04 -16 32.08 -16 28 C-14.68 28 -13.36 28 -12 28 C-12.020625 27.195625 -12.04125 26.39125 -12.0625 25.5625 C-12 23 -12 23 -11 22 C-9.00041636 21.95919217 -6.99954746 21.95745644 -5 22 C-5 21.01 -5 20.02 -5 19 C-3.68 18.67 -2.36 18.34 -1 18 C-1.020625 16.700625 -1.04125 15.40125 -1.0625 14.0625 C-1.07004972 9.30617675 -0.59887117 4.71611047 0 0 Z " fill="#080808" transform="translate(129,36)"/>
<path d="M0 0 C1.32 0 2.64 0 4 0 C4.33 5.94 4.66 11.88 5 18 C6.32 18.33 7.64 18.66 9 19 C9 20.32 9 21.64 9 23 C9.763125 22.79375 10.52625 22.5875 11.3125 22.375 C14 22 14 22 17 24 C17 25.32 17 26.64 17 28 C17.99 28 18.98 28 20 28 C20 31.96 20 35.92 20 40 C21.45792969 40.20496094 22.91585937 40.40992188 24.41796875 40.62109375 C26.34115641 40.89315444 28.26433291 41.16529399 30.1875 41.4375 C31.14720703 41.57220703 32.10691406 41.70691406 33.09570312 41.84570312 C34.02705078 41.97783203 34.95839844 42.10996094 35.91796875 42.24609375 C37.19837036 42.42676392 37.19837036 42.42676392 38.50463867 42.61108398 C41.02066964 43.00322148 43.50697664 43.48265373 46 44 C46 44.33 46 44.66 46 45 C24.34558824 43.67279412 24.34558824 43.67279412 19 41 C19 37.04 19 33.08 19 29 C17.68 29.33 16.36 29.66 15 30 C15 28.02 15 26.04 15 24 C12.36 24 9.72 24 7 24 C7 22.68 7 21.36 7 20 C5.68 19.67 4.36 19.34 3 19 C3 13.39 3 7.78 3 2 C2.34 2 1.68 2 1 2 C1 4.64 1 7.28 1 10 C0.34 9.67 -0.32 9.34 -1 9 C-0.67 6.03 -0.34 3.06 0 0 Z " fill="#A1A1A1" transform="translate(129,36)"/>
<path d="M0 0 C0.33 0 0.66 0 1 0 C1 1.98 1 3.96 1 6 C0.01 6 -0.98 6 -2 6 C-2 7.32 -2 8.64 -2 10 C-4.64 10 -7.28 10 -10 10 C-10 11.98 -10 13.96 -10 16 C-11.32 15.67 -12.64 15.34 -14 15 C-14 18.96 -14 22.92 -14 27 C-36.58433735 32.40060241 -36.58433735 32.40060241 -47 32 C-47 31.67 -47 31.34 -47 31 C-42.92544453 30.28469845 -38.8503259 29.57270711 -34.7746582 28.86376953 C-33.38843185 28.62216499 -32.00236234 28.37965872 -30.61645508 28.13623047 C-28.62362537 27.78636069 -26.63017908 27.44000862 -24.63671875 27.09375 C-23.43748779 26.88427734 -22.23825684 26.67480469 -21.00268555 26.45898438 C-18 26 -18 26 -15 26 C-15 22.04 -15 18.08 -15 14 C-13.68 14 -12.36 14 -11 14 C-11.020625 13.195625 -11.04125 12.39125 -11.0625 11.5625 C-11 9 -11 9 -10 8 C-8.00041636 7.95919217 -5.99954746 7.95745644 -4 8 C-4 7.01 -4 6.02 -4 5 C-2.68 4.67 -1.36 4.34 0 4 C0 2.68 0 1.36 0 0 Z " fill="#A9A9A9" transform="translate(128,50)"/>
<path d="M0 0 C0.33 0 0.66 0 1 0 C1 5.94 1 11.88 1 18 C1.66 18 2.32 18 3 18 C3.33 14.04 3.66 10.08 4 6 C4.99 6.33 5.98 6.66 7 7 C6.01 7.495 6.01 7.495 5 8 C5.03480469 8.60328125 5.06960937 9.2065625 5.10546875 9.828125 C5.32933105 16.4373928 5.32933105 16.4373928 3.5 19.5625 C3.005 20.036875 2.51 20.51125 2 21 C1.01 20.67 0.02 20.34 -1 20 C-1.33 14.72 -1.66 9.44 -2 4 C-1.34 4 -0.68 4 0 4 C0 2.68 0 1.36 0 0 Z " fill="#717171" transform="translate(66,99)"/>
<path d="M0 0 C0.66 0 1.32 0 2 0 C1.41509121 6.14154225 0.45933748 12.00679849 -1 18 C-2.32 18 -3.64 18 -5 18 C-5.33 15.03 -5.66 12.06 -6 9 C-5.67 10.32 -5.34 11.64 -5 13 C-4.01 13 -3.02 13 -2 13 C-1.05675742 8.68803391 -0.51958285 4.37934119 0 0 Z " fill="#787878" transform="translate(134,210)"/>
<path d="M0 0 C1.32 0 2.64 0 4 0 C4.33 5.94 4.66 11.88 5 18 C6.32 18.33 7.64 18.66 9 19 C8.67 20.32 8.34 21.64 8 23 C8 22.01 8 21.02 8 20 C6.35 19.67 4.7 19.34 3 19 C3 13.39 3 7.78 3 2 C2.34 2 1.68 2 1 2 C1 4.64 1 7.28 1 10 C0.34 9.67 -0.32 9.34 -1 9 C-0.67 6.03 -0.34 3.06 0 0 Z " fill="#BABABA" transform="translate(129,36)"/>
<path d="M0 0 C0.33 0.66 0.66 1.32 1 2 C0.67 2.66 0.34 3.32 0 4 C4.455 3.505 4.455 3.505 9 3 C9.125 6.375 9.125 6.375 9 10 C8.34 10.66 7.68 11.32 7 12 C7 9.69 7 7.38 7 5 C2.545 5.495 2.545 5.495 -2 6 C-1.34 4.02 -0.68 2.04 0 0 Z " fill="#828282" transform="translate(152,144)"/>
<path d="M0 0 C0.99 0.33 1.98 0.66 3 1 C3.12375 2.051875 3.2475 3.10375 3.375 4.1875 C3.8072057 7.84016455 3.8072057 7.84016455 5.0625 10.375 C6.43753526 14.22509874 6.1587302 17.95238 6 22 C5.67 22 5.34 22 5 22 C4.86722656 21.39671875 4.73445313 20.7934375 4.59765625 20.171875 C4.33275391 18.97304687 4.33275391 18.97304687 4.0625 17.75 C3.80146484 16.56664062 3.80146484 16.56664062 3.53515625 15.359375 C3.20478379 13.90284239 2.86223434 12.44893737 2.5 11 C1.93947631 8.75790524 1.43532578 6.50681022 0.9375 4.25 C0.76089844 3.45078125 0.58429688 2.6515625 0.40234375 1.828125 C0.26957031 1.22484375 0.13679688 0.6215625 0 0 Z " fill="#767676" transform="translate(116,170)"/>
<path d="M0 0 C0.66 0 1.32 0 2 0 C2.33 0.66 2.66 1.32 3 2 C5.01669827 3.13350534 5.01669827 3.13350534 7 4 C4.69 4.66 2.38 5.32 0 6 C-0.33 11.28 -0.66 16.56 -1 22 C-1.33 22 -1.66 22 -2 22 C-2 16.06 -2 10.12 -2 4 C-1.34 4 -0.68 4 0 4 C0 2.68 0 1.36 0 0 Z " fill="#2B2B2B" transform="translate(67,81)"/>
<path d="M0 0 C1.91697937 0.14166357 3.83357723 0.28849584 5.75 0.4375 C7.35101563 0.55931641 7.35101563 0.55931641 8.984375 0.68359375 C11.43679962 0.94090773 13.63921291 1.31812218 16 2 C16 1.34 16 0.68 16 0 C16.66 0.33 17.32 0.66 18 1 C17.67 1.66 17.34 2.32 17 3 C15.10448978 3.05441656 13.2085208 3.09298035 11.3125 3.125 C10.25675781 3.14820312 9.20101562 3.17140625 8.11328125 3.1953125 C4.97748141 2.99858729 2.82354627 2.33057654 0 1 C0 0.67 0 0.34 0 0 Z " fill="#8D8D8D" transform="translate(175,81)"/>
<path d="M0 0 C0.33 1.32 0.66 2.64 1 4 C1.99 4 2.98 4 4 4 C4 5.98 4 7.96 4 10 C3.01 9.67 2.02 9.34 1 9 C0.67 6.03 0.34 3.06 0 0 Z " fill="#656565" transform="translate(128,219)"/>
<path d="M0 0 C2.10633718 1.70828921 2.93801608 2.52148416 3.29296875 5.26171875 C3.25816406 6.06222656 3.22335938 6.86273438 3.1875 7.6875 C3.16042969 8.49574219 3.13335937 9.30398437 3.10546875 10.13671875 C3.07066406 10.75160156 3.03585938 11.36648437 3 12 C2.67 12 2.34 12 2 12 C1.66269158 10.56342755 1.33030409 9.12569907 1 7.6875 C0.814375 6.88699219 0.62875 6.08648437 0.4375 5.26171875 C0 3 0 3 0 0 Z " fill="#818181" transform="translate(125,207)"/>
<path d="M0 0 C1.98 0.99 1.98 0.99 4 2 C3.01 2.495 3.01 2.495 2 3 C1.53348793 5.12576782 1.53348793 5.12576782 1.375 7.5625 C1.30023438 8.38878906 1.22546875 9.21507813 1.1484375 10.06640625 C1.09945312 10.70449219 1.05046875 11.34257813 1 12 C0.67 12 0.34 12 0 12 C0 8.04 0 4.08 0 0 Z " fill="#2C2C2C" transform="translate(114,65)"/>
</svg>
