<?xml version="1.0" encoding="UTF-8"?>
<svg id="Capa_1" data-name="Capa 1" xmlns="http://www.w3.org/2000/svg" viewBox="0 0 137.2 137.2">
  <defs>
    <style>
      .cls-1 {
        fill: none;
      }

      .cls-2 {
        fill: #010101;
      }
    </style>
  </defs>
  <rect class="cls-1" width="137.2" height="137.2"/>
  <g id="S61">
    <g id="S61-2" data-name="S61">
      <g>
        <rect class="cls-2" x="68.04" y="63.52" width="3.33" height="4.29"/>
        <path class="cls-2" d="m68.04,25.79h1.66s4.28,1.06,4.28,4.22v50.34s-2.41,9.31-3.88,11.97c-.25.5-.31.88-.31.88v19.97c0,.29-.24.53-.53.53h-1.22V25.79Z"/>
        <path class="cls-2" d="m69.35,112.79l-.41,8.56s.03.59-.44.59h-.47v-9.16h1.31Z"/>
        <polygon class="cls-2" points="68.52 121.29 68.52 129.48 68.04 129.48 68.04 120.84 68.52 121.29"/>
        <rect class="cls-2" x="69.56" y="107.75" width=".66" height="2.46"/>
        <polygon class="cls-2" points="73 53.05 79.66 53.05 79.66 54.13 72.16 54.13 73 53.05"/>
        <polygon class="cls-2" points="73 56.33 79.66 56.33 79.66 57.06 72.16 57.06 73 56.33"/>
        <rect class="cls-2" x="72.74" y="53.89" width="1.69" height="3.05"/>
        <rect class="cls-2" x="76.27" y="53.13" width=".34" height="4.57" transform="translate(-15.3 77.74) rotate(-49.61)"/>
        <g>
          <rect class="cls-2" x="81.98" y="51.31" width="2.58" height="2.58"/>
          <path class="cls-2" d="m81.98,50.24h1.45s2.37.91,2.37,4.36-1.59,10.22-3.61,11.51c-.16.09-.21.07-.21.07v-15.93Z"/>
          <path class="cls-2" d="m81.98,50.24h-1.45s-2.37.91-2.37,4.36c0,3.45,1.59,10.22,3.61,11.51.16.09.21.07.21.07v-15.93Z"/>
        </g>
        <circle class="cls-2" cx="72.16" cy="44.43" r="2.89"/>
      </g>
      <g>
        <rect class="cls-2" x="64.71" y="63.52" width="3.33" height="4.29"/>
        <path class="cls-2" d="m68.04,25.79h-1.66s-4.28,1.06-4.28,4.22v50.34s2.41,9.31,3.88,11.97c.25.5.31.88.31.88v19.97c0,.29.24.53.53.53h1.22V25.79Z"/>
        <path class="cls-2" d="m66.73,112.79l.41,8.56s-.03.59.44.59h.47v-9.16h-1.31Z"/>
        <polygon class="cls-2" points="67.55 121.29 67.55 129.48 68.04 129.48 68.04 120.84 67.55 121.29"/>
        <rect class="cls-2" x="65.87" y="107.75" width=".66" height="2.46"/>
        <polygon class="cls-2" points="63.08 53.05 56.42 53.05 56.42 54.13 63.92 54.13 63.08 53.05"/>
        <polygon class="cls-2" points="63.08 56.33 56.42 56.33 56.42 57.06 63.92 57.06 63.08 56.33"/>
        <rect class="cls-2" x="61.65" y="53.89" width="1.69" height="3.05"/>
        <rect class="cls-2" x="57.35" y="55.25" width="4.57" height=".34" transform="translate(-21.7 51.85) rotate(-40.39)"/>
        <g>
          <rect class="cls-2" x="51.52" y="51.31" width="2.58" height="2.58"/>
          <path class="cls-2" d="m54.1,50.24h-1.45s-2.37.91-2.37,4.36,1.59,10.22,3.61,11.51c.16.09.21.07.21.07v-15.93Z"/>
          <path class="cls-2" d="m54.1,50.24h1.45s2.37.91,2.37,4.36c0,3.45-1.59,10.22-3.61,11.51-.16.09-.21.07-.21.07v-15.93Z"/>
        </g>
        <circle class="cls-2" cx="63.92" cy="44.43" r="2.89"/>
      </g>
    </g>
    <rect class="cls-2" x="63.6" y="22.1" width="3.69" height="7.94" rx="1.84" ry="1.84"/>
    <rect class="cls-2" x="64.29" y="115.42" width=".37" height="18.75" rx=".19" ry=".19"/>
    <rect class="cls-2" x="63.59" y="122.78" width="1.07" height="4.1" rx=".54" ry=".54"/>
    <polygon class="cls-2" points="63.99 123.55 67.8 122.61 84.41 123.92 84.41 127.25 69.1 129.48 67.55 129.48 67.55 127.51 64.48 125.78 63.99 123.55"/>
  </g>
  <g>
    <polygon class="cls-2" points="68.39 114.23 66.33 113.56 66.33 69.1 67.13 69.1 68.04 59.98 68.39 66.42 68.39 69.1 68.39 114.23"/>
    <polygon class="cls-2" points="119.74 76.41 118.47 78.17 76.19 64.43 76.44 63.66 68.04 59.98 74.27 61.63 76.83 62.46 119.74 76.41"/>
    <polygon class="cls-2" points="99.64 15.88 100.92 17.63 74.79 53.6 74.14 53.13 68.04 59.98 71.54 54.56 73.12 52.39 99.64 15.88"/>
    <polygon class="cls-2" points="35.87 16.3 37.93 15.62 64.06 51.59 63.41 52.06 68.04 59.98 63.97 54.98 62.39 52.8 35.87 16.3"/>
    <polygon class="cls-2" points="16.55 77.08 16.55 74.91 58.83 61.17 59.08 61.94 68.04 59.98 62.03 62.3 59.47 63.13 16.55 77.08"/>
  </g>
</svg>