<?xml version="1.0" encoding="UTF-8"?>
<svg id="Capa_2" data-name="Capa 2" xmlns="http://www.w3.org/2000/svg" viewBox="0 0 137.2 137.2">
  <defs>
    <style>
      .cls-1 {
        fill: none;
      }

      .cls-2 {
        fill: #1d1d1b;
      }
    </style>
  </defs>
  <g id="Capa_2-2" data-name="Capa 2">
    <rect class="cls-1" width="137.2" height="137.2"/>
    <path class="cls-2" d="m124.18,57.18c-.02-.26-.24-.45-.5-.43-4.35.36-38.04,3.16-40.59,3.29-2.28-.44-5.75-1.19-7.63-1.6-.46-3.65-.98-5.8-1.05-6.28.17-.21,0-1.16,0-1.16l-1.82-8.86s-.16-.79-.91-.77c0,0,0-.24-.19-1.73-.08-.59-.54-.9-1.07-1.06,0-.16,0-.37,0-.64h4.85c3.36,0,6.08-.15,6.08-.34s-2.72-.34-6.08-.34h-4.9c-.12-1.1-.48-2.49-1.5-3.26-.14-.1-.34-.1-.48,0-1.01.76-1.37,2.16-1.5,3.26h-4.9c-3.36,0-6.08.15-6.08.34s2.72.34,6.08.34h4.85c-.01.27,0,.48,0,.64-.53.16-1,.47-1.07,1.06-.19,1.49-.19,1.73-.19,1.73-.75-.02-.91.77-.91.77l-1.82,8.86s-.17.95,0,1.16c-.06.48-.59,2.63-1.05,6.28-1.88.41-5.36,1.16-7.63,1.6-2.55-.13-36.25-2.93-40.59-3.29-.26-.02-.48.17-.5.43-.19,2.46-1.09,13.99-1.15,16.67,0,.15.1.28.25.3,6.65.95,43.52,3.64,48.15,3.97.07.38.17.76.29,1.14h-.72v.65h.94c.39,1.09.89,2.07,1.28,2.77.89,7.65,2.5,21.26,3.47,27.2.15.9.29,1.62.42,2.22h-15.14c-.15,0-.29.09-.34.23-.1.27-.24.8-.25,1.66-.02,1.19,0,6.99,0,8.34,0,.16.13.28.29.28h4.23v.88c0,.12.1.22.22.22h12.05c.1,0,.19-.08.19-.19v-.92h.88v1.12s.04.32.5.3c.46.02.5-.3.5-.3v-1.12h.88v.92c0,.1.08.19.19.19h12.05c.12,0,.22-.1.22-.22v-.88h4.23c.16,0,.29-.12.29-.28,0-1.36.01-7.16,0-8.34-.01-.86-.15-1.39-.25-1.66-.05-.14-.19-.23-.34-.23h-15.14c.14-.59.28-1.32.42-2.22.96-5.94,2.58-19.55,3.47-27.2.39-.7.89-1.68,1.28-2.77h.94v-.65h-.72c.11-.37.21-.76.29-1.14,4.63-.34,41.51-3.02,48.15-3.97.15-.02.25-.15.25-.3-.06-2.68-.96-14.21-1.15-16.67Z"/>
  </g>
</svg>